<svg xmlns="http://www.w3.org/2000/svg" viewBox="0 0 1552.65 1800.8">
  <g id="CenterGuideline">
    <path d="M774.45,56.65V1768.5" fill="none" stroke="#000" stroke-linecap="round" stroke-linejoin="round" stroke-width="9"/>
  </g>
  <g id="DividerGuideline">
    <path d="M4.5,883.18H1540.84" fill="none" stroke="#000" stroke-linecap="round" stroke-linejoin="round" stroke-width="9"/>
    <path d="M14.6,1309.59H1548.15" fill="none" stroke="#000" stroke-linecap="round" stroke-linejoin="round" stroke-width="9"/>
    <path d="M10.56,1729.93H1542.64" fill="none" stroke="#000" stroke-linecap="round" stroke-linejoin="round" stroke-width="9"/>
    <path d="M12.58,507.31H1544.41" fill="none" stroke="#000" stroke-linecap="round" stroke-linejoin="round" stroke-width="9"/>
  </g>
  <g id="DivderNames">
    <path d="M1218.82,404.71v64.71h-12V441.69h-33.46v27.73h-12V404.71h12v26.72h33.46V404.71Z"/>
    <path d="M1270.63,424.73q5.77,5.22,5.78,15.76v28.93H1265.5v-6a13.46,13.46,0,0,1-6.06,4.95,23.61,23.61,0,0,1-9.47,1.71,23.14,23.14,0,0,1-9.71-1.9,14.91,14.91,0,0,1-6.42-5.27,13.34,13.34,0,0,1-2.27-7.62,13.07,13.07,0,0,1,5-10.68q4.95-4,15.58-4h12.75v-.74q0-5.18-3.09-7.95c-2.07-1.85-5.13-2.77-9.2-2.77a26.63,26.63,0,0,0-8.18,1.29,20.29,20.29,0,0,0-6.8,3.61l-4.53-8.41a27.75,27.75,0,0,1,9.34-4.53,41.48,41.48,0,0,1,11.55-1.58Q1264.86,419.5,1270.63,424.73Zm-10.54,34.94a10.8,10.8,0,0,0,4.76-5.69v-5.73h-11.92q-10,0-10,6.57a5.9,5.9,0,0,0,2.5,5,11.46,11.46,0,0,0,6.93,1.85A14.87,14.87,0,0,0,1260.09,459.67Z"/>
    <path d="M1291.75,409.94a6.83,6.83,0,0,1,0-9.89,7.4,7.4,0,0,1,5.27-2,7.64,7.64,0,0,1,5.27,1.89,6.11,6.11,0,0,1,2.13,4.76,7,7,0,0,1-2.08,5.13,7.2,7.2,0,0,1-5.32,2.08A7.44,7.44,0,0,1,1291.75,409.94Zm-.55,10.12h11.55v49.36H1291.2Z"/>
    <path d="M1346.47,419.5v11a15,15,0,0,0-2.68-.27q-6.75,0-10.53,3.93t-3.79,11.32v23.94h-11.56V420.06h11v7.21Q1333.91,419.5,1346.47,419.5Z"/>
    <path d="M1382.25,400.83h11.55v68.59h-11.55Z"/>
    <path d="M1409.52,409.94a6.81,6.81,0,0,1,0-9.89,7.38,7.38,0,0,1,5.27-2,7.62,7.62,0,0,1,5.26,1.89,6.11,6.11,0,0,1,2.13,4.76,6.94,6.94,0,0,1-2.08,5.13,7.19,7.19,0,0,1-5.31,2.08A7.42,7.42,0,0,1,1409.52,409.94Zm-.56,10.12h11.56v49.36H1409Z"/>
    <path d="M1478.66,425q5.64,5.44,5.64,16.18v28.28h-11.56V442.61q0-6.47-3-9.75c-2-2.18-4.93-3.28-8.69-3.28q-6.37,0-10.07,3.84c-2.47,2.55-3.7,6.24-3.7,11v25h-11.55V420.06h11v6.38a18,18,0,0,1,7.21-5.18,25.92,25.92,0,0,1,9.79-1.76Q1473,419.5,1478.66,425Z"/>
    <path d="M1545.68,448.44H1507a13.43,13.43,0,0,0,5.31,8.64,17.42,17.42,0,0,0,10.68,3.19,18,18,0,0,0,13.4-5.36l6.2,7.12a20.83,20.83,0,0,1-8.42,6,33.27,33.27,0,0,1-25.79-1.2,23.26,23.26,0,0,1-9.57-9,25.43,25.43,0,0,1-3.37-13.08,25.8,25.8,0,0,1,3.28-13,23.35,23.35,0,0,1,9.11-9,26.53,26.53,0,0,1,13.12-3.24,26,26,0,0,1,12.9,3.19,22.58,22.58,0,0,1,8.87,9,27.16,27.16,0,0,1,3.19,13.36Q1545.86,446.22,1545.68,448.44ZM1511.52,432a13.83,13.83,0,0,0-4.67,8.74h28a13.56,13.56,0,0,0-4.53-8.69,13.76,13.76,0,0,0-9.43-3.33A13.94,13.94,0,0,0,1511.52,432Z"/>
    <path d="M965.53,837V847H917v-64.7h47.24v10.07H929v16.83h31.25v9.89H929V837Z"/>
    <path d="M1023.4,797.68,1000.29,851q-3.24,8-7.85,11.32a18.83,18.83,0,0,1-11.19,3.28,22.93,22.93,0,0,1-7.3-1.2,16,16,0,0,1-5.92-3.33l4.62-8.5a12.63,12.63,0,0,0,3.93,2.5,12.15,12.15,0,0,0,4.58.92,7.88,7.88,0,0,0,5-1.57,14,14,0,0,0,3.65-5.27l.83-1.94-21.54-49.55h12l15.53,36.51,15.62-36.51Z"/>
    <path d="M1075.45,826.06h-38.74a13.39,13.39,0,0,0,5.32,8.64,17.38,17.38,0,0,0,10.68,3.19,18,18,0,0,0,13.4-5.36l6.19,7.12a20.91,20.91,0,0,1-8.41,6,33.33,33.33,0,0,1-25.79-1.21,23.26,23.26,0,0,1-9.57-9,25.43,25.43,0,0,1-3.37-13.08,25.83,25.83,0,0,1,3.28-13,23.32,23.32,0,0,1,9.1-9,26.56,26.56,0,0,1,13.13-3.23,26,26,0,0,1,12.9,3.18,22.65,22.65,0,0,1,8.87,9,27.16,27.16,0,0,1,3.19,13.36Q1075.63,823.84,1075.45,826.06Zm-34.16-16.41a13.78,13.78,0,0,0-4.67,8.74h28a13.58,13.58,0,0,0-4.53-8.69,13.78,13.78,0,0,0-9.43-3.33A13.92,13.92,0,0,0,1041.29,809.65Z"/>
    <path d="M1152.49,800.27a22.58,22.58,0,0,1,8.92,8.87,26.4,26.4,0,0,1,3.24,13.22,26.67,26.67,0,0,1-3.24,13.27,22.58,22.58,0,0,1-8.92,8.92,26.26,26.26,0,0,1-12.89,3.14,23.88,23.88,0,0,1-9.29-1.76,17.68,17.68,0,0,1-7.07-5.27V847h-11V778.45h11.56v25.24a19.37,19.37,0,0,1,7-4.9,22.84,22.84,0,0,1,8.83-1.66A26.15,26.15,0,0,1,1152.49,800.27Zm-3.7,33.28q4.13-4.26,4.12-11.19t-4.12-11.18a14,14,0,0,0-10.49-4.26,14.86,14.86,0,0,0-7.48,1.9,13.66,13.66,0,0,0-5.27,5.41,17.94,17.94,0,0,0,0,16.27,13.63,13.63,0,0,0,5.27,5.4,14.75,14.75,0,0,0,7.48,1.9A14,14,0,0,0,1148.79,833.55Z"/>
    <path d="M1204.21,797.13v11a14.29,14.29,0,0,0-2.68-.28q-6.75,0-10.54,3.93t-3.79,11.32V847h-11.55V797.68h11v7.21Q1191.65,797.12,1204.21,797.13Z"/>
    <path d="M1222.24,844.45a23.54,23.54,0,0,1-9.39-9,25.43,25.43,0,0,1-3.37-13.08,25.18,25.18,0,0,1,3.37-13,23.72,23.72,0,0,1,9.39-9,30,30,0,0,1,27.08,0,23.78,23.78,0,0,1,9.39,9,25.27,25.27,0,0,1,3.37,13,25.53,25.53,0,0,1-3.37,13.08,23.61,23.61,0,0,1-9.39,9,29.91,29.91,0,0,1-27.08,0Zm24-10.9q4.15-4.26,4.16-11.19t-4.16-11.18a14.09,14.09,0,0,0-10.54-4.26,14,14,0,0,0-10.49,4.26q-4.11,4.25-4.11,11.18t4.11,11.19a14,14,0,0,0,10.49,4.25A14.12,14.12,0,0,0,1246.27,833.55Z"/>
    <path d="M1348.79,797.68,1330.58,847h-11.1l-12.75-34-12.94,34h-11.1l-18.12-49.36h10.91l13,36.42,13.58-36.42h9.71l13.31,36.61,13.41-36.61Z"/>
    <path d="M1382.25,778.45h11.55V847h-11.55Z"/>
    <path d="M1409.52,787.56a6.81,6.81,0,0,1,0-9.89,7.38,7.38,0,0,1,5.27-2,7.62,7.62,0,0,1,5.26,1.89,6.13,6.13,0,0,1,2.13,4.77,7,7,0,0,1-2.08,5.13,7.23,7.23,0,0,1-5.31,2.08A7.43,7.43,0,0,1,1409.52,787.56Zm-.56,10.12h11.56V847H1409Z"/>
    <path d="M1478.66,802.58q5.64,5.46,5.64,16.18V847h-11.56v-26.8q0-6.48-3-9.76c-2-2.18-4.93-3.28-8.69-3.28q-6.37,0-10.07,3.84t-3.7,11v25h-11.55V797.68h11v6.38a18,18,0,0,1,7.21-5.18,25.92,25.92,0,0,1,9.79-1.75Q1473,797.13,1478.66,802.58Z"/>
    <path d="M1545.68,826.06H1507a13.38,13.38,0,0,0,5.31,8.64,17.42,17.42,0,0,0,10.68,3.19,18,18,0,0,0,13.4-5.36l6.2,7.12a20.94,20.94,0,0,1-8.42,6,33.33,33.33,0,0,1-25.79-1.21,23.26,23.26,0,0,1-9.57-9,25.43,25.43,0,0,1-3.37-13.08,25.83,25.83,0,0,1,3.28-13,23.35,23.35,0,0,1,9.11-9,26.52,26.52,0,0,1,13.12-3.23,26,26,0,0,1,12.9,3.18,22.58,22.58,0,0,1,8.87,9,27.16,27.16,0,0,1,3.19,13.36Q1545.86,823.84,1545.68,826.06Zm-34.16-16.41a13.83,13.83,0,0,0-4.67,8.74h28a13.58,13.58,0,0,0-4.53-8.69,13.76,13.76,0,0,0-9.43-3.33A13.94,13.94,0,0,0,1511.52,809.65Z"/>
    <path d="M1175.74,1195.34v64.71h-9.89l-35.68-43.82v43.82h-11.93v-64.71h9.89l35.69,43.82v-43.82Z"/>
    <path d="M1200.7,1257.46a23.58,23.58,0,0,1-9.38-9,26.92,26.92,0,0,1,0-26.12,23.6,23.6,0,0,1,9.38-9,29.91,29.91,0,0,1,27.08,0,23.63,23.63,0,0,1,9.39,9,27,27,0,0,1,0,26.12,23.61,23.61,0,0,1-9.39,9,29.91,29.91,0,0,1-27.08,0Zm24-10.91q4.17-4.24,4.16-11.18t-4.16-11.19a15.13,15.13,0,0,0-21,0q-4.11,4.26-4.11,11.19t4.11,11.18a15.13,15.13,0,0,0,21,0Z"/>
    <path d="M1255.15,1259.12a29.37,29.37,0,0,1-9.16-4l4.44-8.78a28.63,28.63,0,0,0,8,3.56,33.3,33.3,0,0,0,9.2,1.34q10.35,0,10.35-5.46a3.64,3.64,0,0,0-2.64-3.6,44.63,44.63,0,0,0-8.45-1.94,69,69,0,0,1-9.94-2.13,15.19,15.19,0,0,1-6.66-4.21q-2.82-3-2.82-8.36a13.16,13.16,0,0,1,5.87-11.23q5.88-4.21,15.86-4.21a45.86,45.86,0,0,1,10.17,1.16,28.58,28.58,0,0,1,8.31,3.09l-4.43,8.79a27.34,27.34,0,0,0-14.15-3.7q-5.08,0-7.72,1.52a4.56,4.56,0,0,0-2.63,4,4,4,0,0,0,2.82,3.93,44.25,44.25,0,0,0,8.74,2.17,68.13,68.13,0,0,1,9.7,2.13,15.19,15.19,0,0,1,6.52,4.07q2.73,2.87,2.73,8.13a12.9,12.9,0,0,1-6,11.1q-6,4.15-16.36,4.16A44.08,44.08,0,0,1,1255.15,1259.12Z"/>
    <path d="M1345.46,1239.07h-38.73a13.43,13.43,0,0,0,5.31,8.64,17.49,17.49,0,0,0,10.68,3.19,18,18,0,0,0,13.4-5.36l6.2,7.11a20.85,20.85,0,0,1-8.42,6,33.27,33.27,0,0,1-25.79-1.2,23.24,23.24,0,0,1-9.56-9,25.44,25.44,0,0,1-3.38-13.08,25.9,25.9,0,0,1,3.28-13,23.28,23.28,0,0,1,9.11-9,26.54,26.54,0,0,1,13.13-3.24,25.86,25.86,0,0,1,12.89,3.19,22.67,22.67,0,0,1,8.88,9,27.23,27.23,0,0,1,3.18,13.35C1345.64,1236.45,1345.58,1237.59,1345.46,1239.07Zm-34.16-16.41a13.87,13.87,0,0,0-4.67,8.73h28a13.48,13.48,0,0,0-14-12A14,14,0,0,0,1311.3,1222.66Z"/>
    <path d="M1382.25,1191.46h11.55v68.59h-11.55Z"/>
    <path d="M1409.52,1200.56a6.81,6.81,0,0,1,0-9.89,7.42,7.42,0,0,1,5.27-2,7.62,7.62,0,0,1,5.26,1.89,6.1,6.1,0,0,1,2.13,4.76,7,7,0,0,1-2.08,5.13,7.19,7.19,0,0,1-5.31,2.08A7.38,7.38,0,0,1,1409.52,1200.56Zm-.56,10.13h11.56v49.36H1409Z"/>
    <path d="M1478.66,1215.59q5.64,5.45,5.64,16.17v28.29h-11.56v-26.81q0-6.46-3-9.75t-8.69-3.28q-6.37,0-10.07,3.83t-3.7,11v25h-11.55v-49.36h11v6.37a18,18,0,0,1,7.21-5.17,25.92,25.92,0,0,1,9.79-1.76Q1473,1210.13,1478.66,1215.59Z"/>
    <path d="M1545.68,1239.07H1507a13.43,13.43,0,0,0,5.31,8.64,17.49,17.49,0,0,0,10.68,3.19,18,18,0,0,0,13.4-5.36l6.2,7.11a20.85,20.85,0,0,1-8.42,6,33.27,33.27,0,0,1-25.79-1.2,23.33,23.33,0,0,1-9.57-9,25.43,25.43,0,0,1-3.37-13.08,25.8,25.8,0,0,1,3.28-13,23.28,23.28,0,0,1,9.11-9,26.53,26.53,0,0,1,13.12-3.24,25.87,25.87,0,0,1,12.9,3.19,22.58,22.58,0,0,1,8.87,9,27.12,27.12,0,0,1,3.19,13.35C1545.86,1236.45,1545.8,1237.59,1545.68,1239.07Zm-34.16-16.41a13.83,13.83,0,0,0-4.67,8.73h28a13.61,13.61,0,0,0-4.53-8.69,13.75,13.75,0,0,0-9.43-3.32A13.94,13.94,0,0,0,1511.52,1222.66Z"/>
    <path d="M1149.54,1691.23a31.75,31.75,0,0,1-12.39-11.88,34.69,34.69,0,0,1,0-34.21,32,32,0,0,1,12.44-11.87,36.39,36.39,0,0,1,17.7-4.3,36.87,36.87,0,0,1,14.51,2.77,29.63,29.63,0,0,1,11.1,8l-7.77,7.31a22.63,22.63,0,0,0-17.29-7.58,24.24,24.24,0,0,0-11.92,2.91,21,21,0,0,0-8.23,8.09,24.76,24.76,0,0,0,0,23.48,21,21,0,0,0,8.23,8.08,24.14,24.14,0,0,0,11.92,2.92,22.52,22.52,0,0,0,17.29-7.68l7.77,7.4a29.61,29.61,0,0,1-11.14,8,37.26,37.26,0,0,1-14.56,2.77A36.47,36.47,0,0,1,1149.54,1691.23Z"/>
    <path d="M1246.36,1650.14q5.64,5.44,5.64,16.17v28.29h-11.55v-26.81q0-6.46-3-9.75c-2-2.19-4.93-3.28-8.69-3.28q-6.37,0-10.08,3.83t-3.7,11.05v25h-11.55V1626h11.55v25a18.72,18.72,0,0,1,7.08-4.67,25.9,25.9,0,0,1,9.38-1.62Q1240.72,1644.68,1246.36,1650.14Z"/>
    <path d="M1267.26,1635.11a6.81,6.81,0,0,1,0-9.89,7.41,7.41,0,0,1,5.26-2,7.62,7.62,0,0,1,5.27,1.89,6.11,6.11,0,0,1,2.13,4.76,6.94,6.94,0,0,1-2.08,5.13,7.2,7.2,0,0,1-5.32,2.08A7.38,7.38,0,0,1,1267.26,1635.11Zm-.56,10.13h11.56v49.36H1266.7Z"/>
    <path d="M1336.4,1650.14q5.64,5.44,5.64,16.17v28.29h-11.56v-26.81q0-6.46-3-9.75t-8.69-3.28q-6.37,0-10.07,3.83t-3.7,11.05v25h-11.55v-49.36h11v6.38a18,18,0,0,1,7.21-5.18,25.92,25.92,0,0,1,9.79-1.76Q1330.77,1644.68,1336.4,1650.14Z"/>
    <path d="M1382.25,1626h11.55v68.59h-11.55Z"/>
    <path d="M1409.52,1635.11a6.81,6.81,0,0,1,0-9.89,7.42,7.42,0,0,1,5.27-2,7.62,7.62,0,0,1,5.26,1.89,6.11,6.11,0,0,1,2.13,4.76,6.94,6.94,0,0,1-2.08,5.13,7.19,7.19,0,0,1-5.31,2.08A7.38,7.38,0,0,1,1409.52,1635.11Zm-.56,10.13h11.56v49.36H1409Z"/>
    <path d="M1478.66,1650.14q5.64,5.44,5.64,16.17v28.29h-11.56v-26.81q0-6.46-3-9.75t-8.69-3.28q-6.37,0-10.07,3.83t-3.7,11.05v25h-11.55v-49.36h11v6.38a18,18,0,0,1,7.21-5.18,25.92,25.92,0,0,1,9.79-1.76Q1473,1644.68,1478.66,1650.14Z"/>
    <path d="M1545.68,1673.62H1507a13.43,13.43,0,0,0,5.31,8.64,17.42,17.42,0,0,0,10.68,3.19,18,18,0,0,0,13.4-5.36l6.2,7.11a20.75,20.75,0,0,1-8.42,6,33.27,33.27,0,0,1-25.79-1.2,23.26,23.26,0,0,1-9.57-9,25.43,25.43,0,0,1-3.37-13.08,25.8,25.8,0,0,1,3.28-13,23.28,23.28,0,0,1,9.11-9,26.53,26.53,0,0,1,13.12-3.24,25.87,25.87,0,0,1,12.9,3.19,22.58,22.58,0,0,1,8.87,9,27.13,27.13,0,0,1,3.19,13.36Q1545.86,1671.4,1545.68,1673.62Zm-34.16-16.41a13.83,13.83,0,0,0-4.67,8.73h28a13.61,13.61,0,0,0-4.53-8.69,15.05,15.05,0,0,0-18.81,0Z"/>
  </g>
  <g id="PortionName">
    <path d="M496,633.51c0,11.65-4.78,42.82,5.32,47.88" fill="none" stroke="#000" stroke-linecap="round" stroke-linejoin="round" stroke-width="9"/>
    <path d="M503.09,708c-7.68,0,5.1-14.58,8.87-21.28,5.89-10.47,13.58-29.84,24.82-35.46" fill="none" stroke="#000" stroke-linecap="round" stroke-linejoin="round" stroke-width="9"/>
    <path d="M527.91,699.11c3.74-3.73,21.85-17,28.37-8.86,3.87,4.84,5.89,14,1.77,19.5-3.82,5.1-17.73,7.1-17.73,7.1s18.21-2.94,19.51,3.54c2.75,13.75-15.81,16-24.83,16" fill="none" stroke="#000" stroke-linecap="round" stroke-linejoin="round" stroke-width="9"/>
    <path d="M504.86,1036a374.24,374.24,0,0,0,3.55,53.19" fill="none" stroke="#000" stroke-linecap="round" stroke-linejoin="round" stroke-width="9"/>
    <path d="M513.73,1121.08c19.64-19.64,38-59.19,49.64-79.78" fill="none" stroke="#000" stroke-linecap="round" stroke-linejoin="round" stroke-width="9"/>
    <path d="M549.19,1115.76c0-16.26,18.63-15,30.14-14.18,5.9.39,6,14.05,5.32,17.73-1,5-12.41,8.87-12.41,8.87s21.13-2.34,23,5.31c3.49,14-19.32,12.42-26.6,12.42" fill="none" stroke="#000" stroke-linecap="round" stroke-linejoin="round" stroke-width="9"/>
    <path d="M478.27,1445.54c0,16.59,1.77,33,1.77,49.64" fill="none" stroke="#000" stroke-linecap="round" stroke-linejoin="round" stroke-width="9"/>
    <path d="M483.59,1544.83c0-19.57,26.94-44,39-62.06" fill="none" stroke="#000" stroke-linecap="round" stroke-linejoin="round" stroke-width="9"/>
    <path d="M513.73,1546.6c0-14.16,22.62-39.43,37.23-24.82,6.93,6.93-5.65,32.63-14.18,28.37-4-2,16.49-13.78,23.05-8.87,17.38,13-7.19,30.14-19.51,30.14" fill="none" stroke="#000" stroke-linecap="round" stroke-linejoin="round" stroke-width="9"/>
  </g>
  <g id="LipLine">
    <path d="M14.24,1475H1536" fill="none" stroke="#000" stroke-linecap="round" stroke-linejoin="round" stroke-width="9"/>
  </g>
  <g id="LipPortion">
    <path d="M1015.49,1551.92c-5.49-11,15.29-8,17.73,1.77,2.25,9-16.26,45.07-28.37,39-5.68-2.84,12.14-6,14.18-5.32,15.46,5.15,24.83,14.18,42.55,14.18" fill="none" stroke="#000" stroke-linecap="round" stroke-linejoin="round" stroke-width="9"/>
    <path d="M1035,1629.93c17.49-23.32,30.79-52.06,51.42-72.69" fill="none" stroke="#000" stroke-linecap="round" stroke-linejoin="round" stroke-width="9"/>
    <path d="M1068.68,1606.88c6.07-3,15.75-10,23-7.09,13.88,5.55-12.41,28.5-12.41,24.82,0-4.27,23.42-12.09,19.51,3.55-2.76,11-33.69,34.4-33.69,14.18" fill="none" stroke="#000" stroke-linecap="round" stroke-linejoin="round" stroke-width="9"/>
    <path d="M1001.3,1353.35v35.46" fill="none" stroke="#000" stroke-linecap="round" stroke-linejoin="round" stroke-width="9"/>
    <path d="M1011.94,1415.4c8.37-16.74,22.06-32.7,35.46-46.1" fill="none" stroke="#000" stroke-linecap="round" stroke-linejoin="round" stroke-width="9"/>
    <path d="M1047.4,1404.76c4-4,14.08-13.66,21.28-8.86,5.58,3.72-4.37,20.32-7.1,23s-13.44,8.12-10.63,5.32c23.83-23.84,31.92,16-7.1,16" fill="none" stroke="#000" stroke-linecap="round" stroke-linejoin="round" stroke-width="9"/>
  </g>
  <g id="CircleGuideline">
    <path d="M101.32,668.77c0-350.73,300.55-635,671.29-635S1443.89,318,1443.89,668.77s-300.55,635-671.28,635S101.32,1019.49,101.32,668.77Z" fill="none" stroke="#000" stroke-linecap="round" stroke-linejoin="round" stroke-width="9"/>
  </g>
  <g id="Chin">
    <path d="M1352.35,945.56s10.7,137.46-17.73,283.68c-49.64,255.31-39,448.56-567.35,565.58-58.06,12.86-450.34-53.19-528.36-400.7C202.05,1229.92,173.31,1114,196.36,958" fill="none" stroke="#000" stroke-linecap="round" stroke-linejoin="round" stroke-width="9"/>
  </g>
  <g id="HeadOutline">
    <path d="M1410.86,968.61s89.1-452.56-35.46-622.32S1187.91,89.65,941,67.93,508,56.85,347.07,179.63,135.19,384.85,116.58,553.73s17.73,418.42,17.73,418.42" fill="none" stroke="#000" stroke-linecap="round" stroke-linejoin="round" stroke-width="9"/>
  </g>
  <g id="Eyebrows">
    <path d="M919.76,901.36c41.93-21,90-37.38,137.69-29.44" fill="none" stroke="#000" stroke-linecap="round" stroke-linejoin="round" stroke-width="9"/>
    <path d="M1034.05,870.91s30.17.59,43.32-.72c30.58-3.06,69.7.6,96.12,16.45,9.31,5.58,15.63,17.36,24.25,24.25,4.39,3.51,9.77,4.69,13,9.52" fill="none" stroke="#000" stroke-linecap="round" stroke-linejoin="round" stroke-width="9"/>
    <path d="M946.6,933.4c19-19,57.09-28.57,83.14-28.57" fill="none" stroke="#000" stroke-linecap="round" stroke-linejoin="round" stroke-width="9"/>
    <path d="M1020.7,908.72c31.08-7.77,60.63-16.75,93.9-13.42,23.84,2.38,43.43,15.07,65.82,21.65,16.09,4.73,32.54,7.67,48.49,13" fill="none" stroke="#000" stroke-linecap="round" stroke-linejoin="round" stroke-width="9"/>
    <path d="M372.46,878.85c-11.84,3-36.84,39.81-50.23,50.22" fill="none" stroke="#000" stroke-linecap="round" stroke-linejoin="round" stroke-width="9"/>
    <path d="M358.6,929.07c4.58-9.15,25.85-11.17,34.64-16.45,34-20.4,77.7-7.69,113.45-1.73,23.68,4,47.41,6,71,11.26" fill="none" stroke="#000" stroke-linecap="round" stroke-linejoin="round" stroke-width="9"/>
    <path d="M558.11,918c9.29-3.09,47.93,15.07,58.55,21.45" fill="none" stroke="#000" stroke-linecap="round" stroke-linejoin="round" stroke-width="9"/>
    <path d="M376.79,861.53c2.82-5.64,19.55,2.29,24.25,3.46,22.33,5.59,45.32,10.2,68.41,12.13,41.36,3.44,82.34,9.53,123.83,12.12,15.48,1,31.43-1.69,46.77.86" fill="none" stroke="#000" stroke-linecap="round" stroke-linejoin="round" stroke-width="9"/>
  </g>
  <g id="Eyes">
    <path d="M609.59,1066.55c-30.53-75.43-112.24-76.32-112.24-76.32-59.49-4.72-125.72,57.46-125.72,57.46s42.66,39.51,82.62,51.19,77.22-4.49,77.22-4.49" fill="none" stroke="#000" stroke-linecap="round" stroke-linejoin="round" stroke-width="9"/>
    <path d="M609.93,1065.12C579.4,989.7,506.08,994.3,506.08,994.3c-59.49-4.71-125.72,57.47-125.72,57.47S423,1091.28,463,1103s71.27-7.56,71.27-7.56" fill="none" stroke="#000" stroke-linecap="round" stroke-linejoin="round" stroke-width="9"/>
    <path d="M1043.3,1100.67s34.35-11,55.68-27.83a100.11,100.11,0,0,0,29.63-39.51s-52.08-55.68-108.65-48.49-117.64,77.22-117.64,77.22" fill="none" stroke="#000" stroke-linecap="round" stroke-linejoin="round" stroke-width="9"/>
    <path d="M1044.83,1099.66s33.6-2.16,54.93-19,26.88-48,26.88-48-49.33-47.24-105.9-40.05-118.4,69.41-118.4,69.41" fill="none" stroke="#000" stroke-linecap="round" stroke-linejoin="round" stroke-width="9"/>
    <path d="M614.08,1026.14S560.65,967.55,500,966s-128.41,53.88-128.41,53.88" fill="none" stroke="#000" stroke-linecap="round" stroke-linejoin="round" stroke-width="9"/>
    <path d="M1094.49,1078.22c40.41-15.26,58.36-47.59,58.36-47.59s-61.73-66.89-125.71-63.75-130.2,76.32-130.2,76.32" fill="none" stroke="#000" stroke-linecap="round" stroke-linejoin="round" stroke-width="9"/>
    <path d="M555.71,1006.39s24.25,70-49.38,93.39c-28.5,9-106-43.11-51.19-101.47" fill="none" stroke="#000" stroke-linecap="round" stroke-linejoin="round" stroke-width="9"/>
    <path d="M1090,1004.59c12.57,60.17-22.45,85.53-51.19,86.21s-88-15.27-63.75-87.11" fill="none" stroke="#000" stroke-linecap="round" stroke-linejoin="round" stroke-width="9"/>
    <path d="M483,1034.67a18.41,18.41,0,1,1,18.41,18.41A18.4,18.4,0,0,1,483,1034.67Z" fill="none" stroke="#000" stroke-linecap="round" stroke-linejoin="round" stroke-width="9"/>
    <path d="M1008.28,1029.29a18.41,18.41,0,1,1,18.41,18.4A18.41,18.41,0,0,1,1008.28,1029.29Z" fill="none" stroke="#000" stroke-linecap="round" stroke-linejoin="round" stroke-width="9"/>
    <path d="M855,1093.58c-1-52.31,25.18-87.18,25.18-87.18" fill="none" stroke="#000" stroke-linecap="round" stroke-linejoin="round" stroke-width="9"/>
    <path d="M652.58,1052.9c-10.66-36.81-29.06-54.25-29.06-54.25" fill="none" stroke="#000" stroke-linecap="round" stroke-linejoin="round" stroke-width="9"/>
  </g>
  <g id="Nose">
    <path d="M653.78,1213.94c-2.37,1.18-61.6,41.41,2.81,92.21" fill="none" stroke="#000" stroke-linecap="round" stroke-linejoin="round" stroke-width="9"/>
    <path d="M886.07,1211.12c36,32.28,6.11,70.34.89,85.27" fill="none" stroke="#000" stroke-linecap="round" stroke-linejoin="round" stroke-width="9"/>
    <path d="M677.71,1292.78c-3,0,1.41-20.42,10.56-16.9s21.82,14.08,26,31" fill="none" stroke="#000" stroke-linecap="round" stroke-linejoin="round" stroke-width="9"/>
    <path d="M811.45,1297.7c7.89-7.88,35.9-22.52,35.9-22.52s19-5.63,4.93,19" fill="none" stroke="#000" stroke-linecap="round" stroke-linejoin="round" stroke-width="9"/>
    <path d="M683.58,1225.32l-19.38-23.25" fill="none" stroke="#000" stroke-linecap="round" stroke-linejoin="round" stroke-width="9"/>
    <path d="M854.47,1213.91l1.63-14.11" fill="none" stroke="#000" stroke-linecap="round" stroke-linejoin="round" stroke-width="9"/>
  </g>
  <g id="Lips">
    <path d="M944.14,1482s-28.33,15.74-63.93,13.56-55-20.1-78.46-22.28-15.5,12.84-39.71,12.59-17.2-18.64-57.15-13.56-56.67,24-89.12,27.12-40.68-14.53-40.68-14.53" fill="none" stroke="#000" stroke-linecap="round" stroke-linejoin="round" stroke-width="9"/>
    <path d="M916.05,1483s-35.35-42.14-73.62-52.31-44.55,9.69-67.8,8.72-27.85-21.07-68.78-11.63-106.55,52.31-106.55,52.31" fill="none" stroke="#000" stroke-linecap="round" stroke-linejoin="round" stroke-width="9"/>
    <path d="M908.3,1497.51s-13.8,42.38-49.4,50.37-54.24-1.21-93-1-48.19,16.71-83.3,7.75-59.09-43.59-59.09-43.59" fill="none" stroke="#000" stroke-linecap="round" stroke-linejoin="round" stroke-width="9"/>
    <path d="M729.79,1588.89c13.46-4.49,37.56-7.08,51.36-2.47" fill="none" stroke="#000" stroke-linecap="round" stroke-linejoin="round" stroke-width="9"/>
    <path d="M756.4,1343.85c-.79,2.36-2.43,4.4-3.09,6.8a186.33,186.33,0,0,0-4.33,19.8c-.79,4.91-1.86,9.93-1.24,14.86a19.62,19.62,0,0,0,5.57,11.13" fill="none" stroke="#000" stroke-linecap="round" stroke-linejoin="round" stroke-width="9"/>
  </g>
  <g id="DoubleChin">
    <path d="M982.89,1672.83s-40.2,29.55-89.12,48.44-124,22.27-124,22.27S689.39,1741.12,639,1729s-70.71-33.9-70.71-33.9" fill="none" stroke="#000" stroke-linecap="round" stroke-linejoin="round" stroke-width="9"/>
  </g>
  <g id="Ears">
    <path d="M1293,1418.94c64.4-1.13,146.59-92.64,200-205.62s27.22-261-15.71-270C1443,936.1,1389.73,993,1389.73,993" fill="none" stroke="#000" stroke-linecap="round" stroke-linejoin="round" stroke-width="9"/>
    <path d="M1514.52,995.27s4.8-31.63-30.5-5.65-110.72,109.59-110.72,109.59" fill="none" stroke="#000" stroke-linecap="round" stroke-linejoin="round" stroke-width="9"/>
    <path d="M1376.69,1156.83c-2.86,1.43-4.7,4.36-6.78,6.78-11.9,13.88-2.92,32.12,3.39,46.32,2.61,5.89,8.35,14.4,6.78,21.47-1.15,5.14-6.79,12.43-12.43,13.56-1.89.37-3.93.27-5.65,1.13" fill="none" stroke="#000" stroke-linecap="round" stroke-linejoin="round" stroke-width="9"/>
    <path d="M1365.39,1243.83c-7.92,2.63-10.62,16.94,0,16.94,15.09,0,25.3-14.34,37.28-20.33,4.95-2.48,12.64-3.55,16.95-6.78s7.18-8,11.3-11.3c4.65-3.72,10.88-7.67,14.68-12.43,5.89-7.36,9.19-21.58,7.91-30.5-1.34-9.38-9.75-24.87-14.69-32.77-5.91-9.45-8.53-21.77-19.2-27.11" fill="none" stroke="#000" stroke-linecap="round" stroke-linejoin="round" stroke-width="9"/>
    <path d="M1471.59,1008.83c.37-.75.53-2.85,1.13-2.26,1.78,1.79,2.45,4.43,3.39,6.78a21.07,21.07,0,0,1,1.13,4.52c2.4,15.42,4.76,30.85,6.78,46.32,1.56,12,3.38,24,3.38,36.15" fill="none" stroke="#000" stroke-linecap="round" stroke-linejoin="round" stroke-width="9"/>
    <path d="M1430.92,1043.85c5.63,4.23,15.56,7.49,19.2,13.56,1.9,3.17,2.22,7.79,3.39,11.3" fill="none" stroke="#000" stroke-linecap="round" stroke-linejoin="round" stroke-width="9"/>
    <path d="M242,1413.85s-70.49,11.33-97.32-24-25.83-45-48-113.31-72.16-116-73.33-196S58.49,943.76,96,956.59s89.32,91.32,89.32,91.32" fill="none" stroke="#000" stroke-linecap="round" stroke-linejoin="round" stroke-width="9"/>
    <path d="M30,1027.25c10-15.34,12.5-38.33,37.33-24.67s68.65,72,68.65,72" fill="none" stroke="#000" stroke-linecap="round" stroke-linejoin="round" stroke-width="9"/>
    <path d="M59.32,1027.91c-2.62,1.31-4.32,7.69-4.67,10a286.39,286.39,0,0,0-3.33,29.33c-1.12,23.79,3.35,43.55,9.33,66,2.25,8.45,4.39,17.3,8,25.33C72,1166,77.08,1173,81.32,1179.89" fill="none" stroke="#000" stroke-linecap="round" stroke-linejoin="round" stroke-width="9"/>
    <path d="M154,1111.9c-4.95-1.65-10-4-15.33-4-7.22,0-14.62,9.26-18,14.66-10.74,17.19-18.58,32.32-13.33,53.33,4,16,15.08,28.51,18.66,44.66,1.71,7.65,1.4,15.69,2.67,23.33.65,3.88-.56,7.54,1.33,11.33,2.17,4.33,8.53,3.85,12.67,3.33s10.53-2.07,14-4.67c3.75-2.81,12.34-11.21,18-9.33,4,1.33,9.57,15,12,18.67" fill="none" stroke="#000" stroke-linecap="round" stroke-linejoin="round" stroke-width="9"/>
    <path d="M178,1163.89c-4.05,8.08-4,16.72-4,26,0,13.1,2.3,23.74,10,34" fill="none" stroke="#000" stroke-linecap="round" stroke-linejoin="round" stroke-width="9"/>
    <path d="M183.3,1301.87c0,1.74-.57,6.8-1.33,8a82.19,82.19,0,0,1-11.34,14.67c-3.88,3.78-8.88,6.22-13.33,9.33" fill="none" stroke="#000" stroke-linecap="round" stroke-linejoin="round" stroke-width="9"/>
  </g>
  <g id="Hair">
    <path d="M133.82,487.81c-1.61,3.23-1.91,7-3,10.41-3.1,10.07-8.16,23.32-13.4,32.74-16,28.82-44,50-66.95,72.91" fill="none" stroke="#000" stroke-linecap="round" stroke-linejoin="round" stroke-width="9"/>
    <path d="M130.85,581.55c-3.84,1.91-7.8,3.63-10.42,7.44a309.86,309.86,0,0,0-22.32,37.2C83.57,655.27,72.26,686,62.4,717" fill="none" stroke="#000" stroke-linecap="round" stroke-linejoin="round" stroke-width="9"/>
    <path d="M130.85,694.63c-7.61,7.6-11,15.42-19.35,23.81-10.92,10.92-22.89,20.75-34.22,31.24S55.07,770.24,41.57,778" fill="none" stroke="#000" stroke-linecap="round" stroke-linejoin="round" stroke-width="9"/>
    <path d="M142.75,772c0,15.43-20.78,34.43-31.25,43.15Q97.31,827,83.23,839c-5.36,4.57-10.5,9.48-16.37,13.39" fill="none" stroke="#000" stroke-linecap="round" stroke-linejoin="round" stroke-width="9"/>
    <path d="M157.63,785.39c-4.67,14-10,28.56-19.34,40.18-14.49,18.1-37.9,28.62-58,38.68-8.54,4.27-16.21,10.36-25.3,13.39" fill="none" stroke="#000" stroke-linecap="round" stroke-linejoin="round" stroke-width="9"/>
    <path d="M35.62,831.52c4.84,4.84,10,7.62,16.36,10.41,16.3,7.11,33.26,12.78,49.11,20.83,26,13.22,45.57,32.4,74.39,37.2" fill="none" stroke="#000" stroke-linecap="round" stroke-linejoin="round" stroke-width="9"/>
    <path d="M138.29,892.52c6-17.91,20.18-29.7,32.73-43.15,11-11.8,21.53-24.08,32.74-35.71,2.2-2.28,5-4,7.43-5.95" fill="none" stroke="#000" stroke-linecap="round" stroke-linejoin="round" stroke-width="9"/>
    <path d="M34.13,885.08c7.19,7.19,17.07,11.82,23.81,19.35,23,25.73,45.55,57.55,72.91,80.34,4.65,3.88,10,6.79,14.88,10.42" fill="none" stroke="#000" stroke-linecap="round" stroke-linejoin="round" stroke-width="9"/>
    <path d="M767.68,480.37c-.49,1-2.35,3.67-1.49,3,13.2-10.55,25.37-22.34,38.69-32.73,17.93-14,37.68-31.82,61-35.71" fill="none" stroke="#000" stroke-linecap="round" stroke-linejoin="round" stroke-width="9"/>
    <path d="M827.2,480.37c12-24,40-37.8,61-52.08" fill="none" stroke="#000" stroke-linecap="round" stroke-linejoin="round" stroke-width="9"/>
    <path d="M851,496.73c9.59-12.79,21.72-24.05,32.73-35.7,13.25-14,26.53-28,40.18-41.67,15.54-15.54,33.48-28.73,52.07-40.17,11.47-7.06,21.33-16.53,34.23-20.83" fill="none" stroke="#000" stroke-linecap="round" stroke-linejoin="round" stroke-width="9"/>
    <path d="M928.38,438.71c16.78-11.54,32.38-25.12,50.59-34.23" fill="none" stroke="#000" stroke-linecap="round" stroke-linejoin="round" stroke-width="9"/>
    <path d="M952.19,443.17c3.69-7.38,13.44-9.7,20.83-13.39,12.05-6,24.67-11.36,37.2-16.37" fill="none" stroke="#000" stroke-linecap="round" stroke-linejoin="round" stroke-width="9"/>
    <path d="M1074.2,409c15.12-5,30.6-3.74,46.12-5.95,24.38-3.49,48.61-7.94,72.91-11.91" fill="none" stroke="#000" stroke-linecap="round" stroke-linejoin="round" stroke-width="9"/>
    <path d="M1123.3,425.32c7.28-3.65,14.56-2.34,22.32-3,24.79-2.07,49.52-5.95,74.4-5.95" fill="none" stroke="#000" stroke-linecap="round" stroke-linejoin="round" stroke-width="9"/>
    <path d="M404.63,352.41c0,7.11,16.33,1.9,26.78,0,5.56-1,10.88-3.1,16.37-4.47" fill="none" stroke="#000" stroke-linecap="round" stroke-linejoin="round" stroke-width="9"/>
    <path d="M455.22,395.56c20.43-10.22,42.89-11.72,65.47-16.37" fill="none" stroke="#000" stroke-linecap="round" stroke-linejoin="round" stroke-width="9"/>
    <path d="M315.35,600.89c-14.79,14.79-27.52,33-38.69,50.59q-23.49,36.93-46.12,74.4c-.81,1.34-1,3-1.49,4.46" fill="none" stroke="#000" stroke-linecap="round" stroke-linejoin="round" stroke-width="9"/>
    <path d="M270.71,711c-12.8,12.8-20.9,29.46-29.76,44.63-10.17,17.45-20.24,34.1-29.76,52.08a14.27,14.27,0,0,0-1.48,3c-1.21,4.82-2.16,8.77-4.47,13.39" fill="none" stroke="#000" stroke-linecap="round" stroke-linejoin="round" stroke-width="9"/>
    <path d="M221.61,880.62c-13.31,16.63-26.16,34.47-35.71,53.56" fill="none" stroke="#000" stroke-linecap="round" stroke-linejoin="round" stroke-width="9"/>
    <path d="M1248.29,523.52c2.58-5.17,14-4.38,19.34-3,9.11,2.38,17.85,6,26.78,8.93" fill="none" stroke="#000" stroke-linecap="round" stroke-linejoin="round" stroke-width="9"/>
    <path d="M1270.61,562.21c11,0,20.92,5.23,31.24,8.92" fill="none" stroke="#000" stroke-linecap="round" stroke-linejoin="round" stroke-width="9"/>
    <path d="M1303.34,657.43c2.83,2.83,6.7,4.47,10.42,6" fill="none" stroke="#000" stroke-linecap="round" stroke-linejoin="round" stroke-width="9"/>
    <path d="M1435.85,666.61c0,10.37,6.74,16.85,14.54,22.61,10.21,7.55,19.25,17,30.68,22.61,8.92,4.34,19.28,4.83,29.07,6.46,7.59,1.26,8.62.35,14.53-1.62" fill="none" stroke="#000" stroke-linecap="round" stroke-linejoin="round" stroke-width="9"/>
    <path d="M1398.71,695.68c-10.86,5.43,2.74,36.94,11.3,43.6,25.25,19.63,55.53,17.13,84,6.46" fill="none" stroke="#000" stroke-linecap="round" stroke-linejoin="round" stroke-width="9"/>
    <path d="M1390.63,771.58c6.46,4.3,12,10.63,19.38,12.91,15.74,4.85,32.09,11.57,48.45,9.69,18-2.06,33.88-12.9,50.06-21,4.44-2.22,7.54-6.46,11.31-9.69" fill="none" stroke="#000" stroke-linecap="round" stroke-linejoin="round" stroke-width="9"/>
    <path d="M1413.24,858.78c1.08.54,2,1.47,3.23,1.61,8,1,16.39,3.65,24.23,1.62,7.51-2,13.16-8.26,19.37-12.92,7.22-5.41,12.87-13.7,21-17.76" fill="none" stroke="#000" stroke-linecap="round" stroke-linejoin="round" stroke-width="9"/>
    <path d="M1406.78,883c31.84,23.88,59.08-14.09,77.52-37.14" fill="none" stroke="#000" stroke-linecap="round" stroke-linejoin="round" stroke-width="9"/>
    <path d="M1390.63,874.93a18.4,18.4,0,0,0,1.62,3.23c5.19,6.61,9.11,14.78,16.15,19.38,7.55,4.94,16.94,6.59,25.84,8.07,13.62,2.27,28.67-.73,42-3.23,2.19-.41,4.51-.55,6.46-1.61,5.77-3.15,10.69-7.66,16.15-11.31" fill="none" stroke="#000" stroke-linecap="round" stroke-linejoin="round" stroke-width="9"/>
    <path d="M1405.17,841c3.23,1.07,6.44,4.26,9.69,3.23a194.23,194.23,0,0,0,30.68-12.92c2.7-1.41,4.66-4,6.46-6.46,11.68-15.88,24.2-31.3,33.91-48.45,6.55-11.57,9.6-24.8,14.54-37.14,2.15-5.38,4.62-10.65,6.46-16.15" fill="none" stroke="#000" stroke-linecap="round" stroke-linejoin="round" stroke-width="9"/>
    <path d="M1406.78,957.29c11.42-5.71,19.45-15.38,30.69-21" fill="none" stroke="#000" stroke-linecap="round" stroke-linejoin="round" stroke-width="9"/>
    <path d="M1392.25,933.07c1.61.53,3.18,2,4.84,1.61,14.2-2.94,28.12-7.1,42-11.3,3.92-1.19,7.54-3.23,11.31-4.85" fill="none" stroke="#000" stroke-linecap="round" stroke-linejoin="round" stroke-width="9"/>
    <path d="M1219.45,269.34c14.22-9.47,36.72-14.16,51.68-21,34.61-15.81,68.9-32.3,103.35-48.45" fill="none" stroke="#000" stroke-linecap="round" stroke-linejoin="round" stroke-width="9"/>
    <path d="M1153.24,161.15C1167,152,1184.06,149,1200.08,145c11.67-2.92,23.68-4.31,35.52-6.46" fill="none" stroke="#000" stroke-linecap="round" stroke-linejoin="round" stroke-width="9"/>
    <path d="M962.68,78.79c-2.15,0-4.33-.36-6.46,0-1.18.19-2,1.81-3.23,1.61a63.54,63.54,0,0,1-16.14-4.84c-9-4.14-17.24-9.68-25.84-14.54-4.74-2.67-11-5-14.54-9.69-11.27-15,5.08-27.22,17.77-32.3A178.7,178.7,0,0,1,980.45,6.12c7.25,0,14-.71,21,1.61" fill="none" stroke="#000" stroke-linecap="round" stroke-linejoin="round" stroke-width="9"/>
    <path d="M623.55,59.41c3.17-6.34,10.16-6.7,16.15-9.69,19-9.5,38-14.81,58.14-21,26.09-8,52.37-10.07,79.13-14.53a509.17,509.17,0,0,1,54.91-6.46C860.32,6.15,889,9,917.47,7.73c12.38-.56,24.75-1.61,37.14-1.61" fill="none" stroke="#000" stroke-linecap="round" stroke-linejoin="round" stroke-width="9"/>
    <path d="M702.68,69.1c0-8.48-.4-16,8.08-21,15.77-9.28,31.36-19.28,48.45-25.84,15.48-5.93,32.25-7.74,48.44-11.3,16-3.51,32.21-4.65,48.45-6.46" fill="none" stroke="#000" stroke-linecap="round" stroke-linejoin="round" stroke-width="9"/>
    <path d="M751.13,70.71c11.15-16.72,41.48-27,59.75-32.3,12.79-3.7,25.68-7.2,38.76-9.69,18.18-3.44,36.6-5.39,54.91-8.07A123.16,123.16,0,0,1,922.31,19" fill="none" stroke="#000" stroke-linecap="round" stroke-linejoin="round" stroke-width="9"/>
    <path d="M549.27,148.23c3.62-5.44,8-12.42,12.92-16.15a281.76,281.76,0,0,1,37.14-24.23c37.94-20.29,77.52-24.22,119.5-24.22" fill="none" stroke="#000" stroke-linecap="round" stroke-linejoin="round" stroke-width="9"/>
    <path d="M483.06,246.74c0-12.2,4.51-18.71,9.69-29.07,11.07-22.15,26.43-41.95,46.83-56.52" fill="none" stroke="#000" stroke-linecap="round" stroke-linejoin="round" stroke-width="9"/>
    <path d="M273.12,602c4.78-9.55,12.65-17.54,21-24.22q38.72-31,79.13-59.75c7.07-5,15.08-8.61,22.61-12.92" fill="none" stroke="#000" stroke-linecap="round" stroke-linejoin="round" stroke-width="9"/>
    <path d="M591,425.83c-.54-1.38-2.78-3.2-1.63-4.16,1.53-1.28,4,.36,6,.54L657,427.72" fill="none" stroke="#000" stroke-linecap="round" stroke-linejoin="round" stroke-width="9"/>
    <path d="M566.2,411.59c-3,2.48-12,8.63-10.48,5.07,2.26-5.18,7.92-8.4,13-10.87C570.62,404.88,567.82,410.23,566.2,411.59Z" fill="none" stroke="#000" stroke-linecap="round" stroke-linejoin="round" stroke-width="9"/>
  </g>
</svg>
