<svg id="Layer_1" data-name="Layer 1" xmlns="http://www.w3.org/2000/svg" viewBox="0 0 1427.89 957.9">
  <title>Chichen Itza 2</title>
  <g id="Guidelines">
    <path d="M1251.9,795.6,191.4,729.4,714.3,258Z" transform="translate(1000.4 0.4)" fill="none" stroke="#000" stroke-linecap="round" stroke-linejoin="round" stroke-width="8.59"/>
    <path d="M488.1,820.5,735.8,205.7" transform="translate(1000.4 0.4)" fill="none" stroke="#000" stroke-linecap="round" stroke-linejoin="round" stroke-width="8.59"/>
    <path d="M993.1,436.7l-360,18.9L439,407.9" transform="translate(1000.4 0.4)" fill="none" stroke="#000" stroke-linecap="round" stroke-linejoin="round" stroke-width="8.59"/>
    <path d="M1016.9,480.1,617.7,504.7,418.2,448.1" transform="translate(1000.4 0.4)" fill="none" stroke="#000" stroke-linecap="round" stroke-linejoin="round" stroke-width="8.59"/>
    <path d="M1068.5,518.7,602.7,540.4,378.6,479.1" transform="translate(1000.4 0.4)" fill="none" stroke="#000" stroke-linecap="round" stroke-linejoin="round" stroke-width="8.59"/>
    <path d="M1119.8,560.6,590.2,575.4,334.7,508.5" transform="translate(1000.4 0.4)" fill="none" stroke="#000" stroke-linecap="round" stroke-linejoin="round" stroke-width="8.59"/>
    <path d="M1157.8,601.7,570.7,617.4,293.6,533.1" transform="translate(1000.4 0.4)" fill="none" stroke="#000" stroke-linecap="round" stroke-linejoin="round" stroke-width="8.59"/>
    <path d="M1178.8,643.8l-623.5,9.8L250.6,572.5" transform="translate(1000.4 0.4)" fill="none" stroke="#000" stroke-linecap="round" stroke-linejoin="round" stroke-width="8.59"/>
    <path d="M1196.2,685l-655.7,7.7L201.2,620" transform="translate(1000.4 0.4)" fill="none" stroke="#000" stroke-linecap="round" stroke-linejoin="round" stroke-width="8.59"/>
    <path d="M1301.3,738l-781.6,9.2L166.4,658.5" transform="translate(1000.4 0.4)" fill="none" stroke="#000" stroke-linecap="round" stroke-linejoin="round" stroke-width="8.59"/>
    <path d="M1311.4,801.1,491.3,804,126,715" transform="translate(1000.4 0.4)" fill="none" stroke="#000" stroke-linecap="round" stroke-linejoin="round" stroke-width="8.59"/>
    <path d="M940.3,388.8l-281.2,7.7L489,369.2" transform="translate(1000.4 0.4)" fill="none" stroke="#000" stroke-linecap="round" stroke-linejoin="round" stroke-width="8.59"/>
  </g>
  <g id="Outline_1" data-name="Outline 1">
    <path d="M1257.1,800l-765.5,4.8,167-398.3" transform="translate(1000.4 0.4)" fill="none" stroke="#000" stroke-linecap="round" stroke-linejoin="round" stroke-width="8.59"/>
    <path d="M193.8,729.3s78.5,26.7,152.4,45.6,143.4,29.7,143.4,29.7" transform="translate(1000.4 0.4)" fill="none" stroke="#000" stroke-linecap="round" stroke-linejoin="round" stroke-width="8.59"/>
    <rect x="12.1" y="2.5" width="1398.7" height="952.9" fill="none" stroke="#000" stroke-miterlimit="10" stroke-width="5"/>
  </g>
  <g id="Outline_2" data-name="Outline 2">
    <path d="M617.4,449.5,642,407" transform="translate(1000.4 0.4)" fill="none" stroke="#000" stroke-linecap="round" stroke-linejoin="round" stroke-width="8.59"/>
    <path d="M613.2,450.4l-26.4,41.2" transform="translate(1000.4 0.4)" fill="none" stroke="#000" stroke-linecap="round" stroke-linejoin="round" stroke-width="8.59"/>
    <path d="M581.5,492l-13.9,30.8" transform="translate(1000.4 0.4)" fill="none" stroke="#000" stroke-linecap="round" stroke-linejoin="round" stroke-width="8.59"/>
    <path d="M563.1,523l-23.3,38.3" transform="translate(1000.4 0.4)" fill="none" stroke="#000" stroke-linecap="round" stroke-linejoin="round" stroke-width="8.59"/>
    <path d="M534.4,561.2l-23.5,35.4" transform="translate(1000.4 0.4)" fill="none" stroke="#000" stroke-linecap="round" stroke-linejoin="round" stroke-width="8.59"/>
    <path d="M506.9,596.8s-16.3,28.2-21.7,37.7" transform="translate(1000.4 0.4)" fill="none" stroke="#000" stroke-linecap="round" stroke-linejoin="round" stroke-width="8.59"/>
    <path d="M479.6,635.9c-6.5,10.5-18.9,30.9-22.5,36.5" transform="translate(1000.4 0.4)" fill="none" stroke="#000" stroke-linecap="round" stroke-linejoin="round" stroke-width="8.59"/>
    <path d="M450.5,672.7l-33,52" transform="translate(1000.4 0.4)" fill="none" stroke="#000" stroke-linecap="round" stroke-linejoin="round" stroke-width="8.59"/>
    <path d="M405.1,724.6l-38.5,55" transform="translate(1000.4 0.4)" fill="none" stroke="#000" stroke-linecap="round" stroke-linejoin="round" stroke-width="8.59"/>
    <path d="M542.1,438.2l33.5-33.4" transform="translate(1000.4 0.4)" fill="none" stroke="#000" stroke-linecap="round" stroke-linejoin="round" stroke-width="8.59"/>
    <path d="M508.2,470.9l29.5-31.4" transform="translate(1000.4 0.4)" fill="none" stroke="#000" stroke-linecap="round" stroke-linejoin="round" stroke-width="8.59"/>
    <path d="M501.6,470.7l-28.3,31" transform="translate(1000.4 0.4)" fill="none" stroke="#000" stroke-linecap="round" stroke-linejoin="round" stroke-width="8.59"/>
    <path d="M468,501.5l-31.3,28.4" transform="translate(1000.4 0.4)" fill="none" stroke="#000" stroke-linecap="round" stroke-linejoin="round" stroke-width="8.59"/>
    <path d="M429.8,530.3l-28.2,32" transform="translate(1000.4 0.4)" fill="none" stroke="#000" stroke-linecap="round" stroke-linejoin="round" stroke-width="8.59"/>
    <path d="M393.8,561.3,362,596.6" transform="translate(1000.4 0.4)" fill="none" stroke="#000" stroke-linecap="round" stroke-linejoin="round" stroke-width="8.59"/>
    <path d="M353.2,596.8l-40.2,41" transform="translate(1000.4 0.4)" fill="none" stroke="#000" stroke-linecap="round" stroke-linejoin="round" stroke-width="8.59"/>
    <path d="M297.7,636.4l-42.2,39" transform="translate(1000.4 0.4)" fill="none" stroke="#000" stroke-linecap="round" stroke-linejoin="round" stroke-width="8.59"/>
    <path d="M240.5,674.1l-45.6,54.8" transform="translate(1000.4 0.4)" fill="none" stroke="#000" stroke-linecap="round" stroke-linejoin="round" stroke-width="8.59"/>
    <path d="M914,800.4l-25.8-57.3" transform="translate(1000.4 0.4)" fill="none" stroke="#000" stroke-linecap="round" stroke-linejoin="round" stroke-width="8.59"/>
    <path d="M875.5,741.8l-20.4-50.9" transform="translate(1000.4 0.4)" fill="none" stroke="#000" stroke-linecap="round" stroke-linejoin="round" stroke-width="8.59"/>
    <path d="M825,649.8l20.7,38.7" transform="translate(1000.4 0.4)" fill="none" stroke="#000" stroke-linecap="round" stroke-linejoin="round" stroke-width="8.59"/>
    <path d="M804.4,615.3l13.4,34" transform="translate(1000.4 0.4)" fill="none" stroke="#000" stroke-linecap="round" stroke-linejoin="round" stroke-width="8.59"/>
    <path d="M780,575.9l15.1,37.9" transform="translate(1000.4 0.4)" fill="none" stroke="#000" stroke-linecap="round" stroke-linejoin="round" stroke-width="8.59"/>
    <path d="M746.8,538l16.1,35.9" transform="translate(1000.4 0.4)" fill="none" stroke="#000" stroke-linecap="round" stroke-linejoin="round" stroke-width="8.59"/>
    <path d="M720,503.2l13.7,32.2" transform="translate(1000.4 0.4)" fill="none" stroke="#000" stroke-linecap="round" stroke-linejoin="round" stroke-width="8.59"/>
    <path d="M697,451.1l19.4,51.4" transform="translate(1000.4 0.4)" fill="none" stroke="#000" stroke-linecap="round" stroke-linejoin="round" stroke-width="8.59"/>
    <path d="M683.8,408.2l6.4,42.6" transform="translate(1000.4 0.4)" fill="none" stroke="#000" stroke-linecap="round" stroke-linejoin="round" stroke-width="8.59"/>
    <path d="M1258.6,799.3l-56.3-72.9" transform="translate(1000.4 0.4)" fill="none" stroke="#000" stroke-linecap="round" stroke-linejoin="round" stroke-width="8.59"/>
    <path d="M1185.3,726.7l-41.6-39.8" transform="translate(1000.4 0.4)" fill="none" stroke="#000" stroke-linecap="round" stroke-linejoin="round" stroke-width="8.59"/>
    <path d="M1129.8,685.2l-38.9-40.3" transform="translate(1000.4 0.4)" fill="none" stroke="#000" stroke-linecap="round" stroke-linejoin="round" stroke-width="8.59"/>
    <path d="M1076.2,644.3,1041.7,606" transform="translate(1000.4 0.4)" fill="none" stroke="#000" stroke-linecap="round" stroke-linejoin="round" stroke-width="8.59"/>
    <path d="M1028,603.4l-37.3-37.6" transform="translate(1000.4 0.4)" fill="none" stroke="#000" stroke-linecap="round" stroke-linejoin="round" stroke-width="8.59"/>
    <path d="M979.3,565.2l-33.2-36.4" transform="translate(1000.4 0.4)" fill="none" stroke="#000" stroke-linecap="round" stroke-linejoin="round" stroke-width="8.59"/>
    <path d="M935.6,526.4l-30-37" transform="translate(1000.4 0.4)" fill="none" stroke="#000" stroke-linecap="round" stroke-linejoin="round" stroke-width="8.59"/>
    <path d="M897.1,488.2l-38.5-42" transform="translate(1000.4 0.4)" fill="none" stroke="#000" stroke-linecap="round" stroke-linejoin="round" stroke-width="8.59"/>
    <path d="M849.9,444l-36.1-38.8" transform="translate(1000.4 0.4)" fill="none" stroke="#000" stroke-linecap="round" stroke-linejoin="round" stroke-width="8.59"/>
  </g>
  <g id="Outline_3" data-name="Outline 3">
    <path d="M658.1,329l157.1,21.9-2.9,55.7-150.5-1.3-87.3-1.5-10.5-49Z" transform="translate(1000.4 0.4)" fill="none" stroke="#000" stroke-linecap="round" stroke-linejoin="round" stroke-width="8.59"/>
    <path d="M660.8,403.9l-4.1-75.1" transform="translate(1000.4 0.4)" fill="none" stroke="#000" stroke-linecap="round" stroke-linejoin="round" stroke-width="8.59"/>
    <path d="M812.4,362.4l-155-16.6-89.7,23.5" transform="translate(1000.4 0.4)" fill="none" stroke="#000" stroke-linecap="round" stroke-linejoin="round" stroke-width="8.59"/>
    <path d="M812.1,373l-153.3-5.3-87.4,16" transform="translate(1000.4 0.4)" fill="none" stroke="#000" stroke-linecap="round" stroke-linejoin="round" stroke-width="8.59"/>
    <path d="M813,383.2H660l-86.1,10.5" transform="translate(1000.4 0.4)" fill="none" stroke="#000" stroke-linecap="round" stroke-linejoin="round" stroke-width="8.59"/>
    <path d="M749.2,383.9l2,21.2-21.8.5-2.1-22.1" transform="translate(1000.4 0.4)" stroke="#000" stroke-linecap="round" stroke-linejoin="round" stroke-opacity="0" stroke-width="8.59"/>
  </g>
  <g id="Outline_4" data-name="Outline 4">
    <path d="M987.2,799.5l-281-391.9" transform="translate(1000.4 0.4)" fill="none" stroke="#000" stroke-linecap="round" stroke-linejoin="round" stroke-width="8.59"/>
    <path d="M1104.9,798.8,779,406.5" transform="translate(1000.4 0.4)" fill="none" stroke="#000" stroke-linecap="round" stroke-linejoin="round" stroke-width="8.59"/>
    <path d="M1126.2,798.1,798.4,407" transform="translate(1000.4 0.4)" fill="none" stroke="#000" stroke-linecap="round" stroke-linejoin="round" stroke-width="8.59"/>
    <path d="M966,798.5,685,406.6" transform="translate(1000.4 0.4)" fill="none" stroke="#000" stroke-linecap="round" stroke-linejoin="round" stroke-width="8.59"/>
    <path d="M336.4,771.5,634.2,405.9" transform="translate(1000.4 0.4)" fill="none" stroke="#000" stroke-linecap="round" stroke-linejoin="round" stroke-width="8.59"/>
    <path d="M319.5,763.9l300.9-359" transform="translate(1000.4 0.4)" fill="none" stroke="#000" stroke-linecap="round" stroke-linejoin="round" stroke-width="8.59"/>
    <path d="M248.5,745.1,605.7,404.9" transform="translate(1000.4 0.4)" fill="none" stroke="#000" stroke-linecap="round" stroke-linejoin="round" stroke-width="8.59"/>
    <path d="M232.1,739.2,586.4,404.6" transform="translate(1000.4 0.4)" fill="none" stroke="#000" stroke-linecap="round" stroke-linejoin="round" stroke-width="8.59"/>
  </g>
  <g id="Outline_5" data-name="Outline 5">
    <path d="M696.9,451.2l-58.3.1-26.4-1" transform="translate(1000.4 0.4)" fill="none" stroke="#000" stroke-linecap="round" stroke-linejoin="round" stroke-width="8.59"/>
    <path d="M719.9,503.4,617.3,502l-35.8-10.2" transform="translate(1000.4 0.4)" fill="none" stroke="#000" stroke-linecap="round" stroke-linejoin="round" stroke-width="8.59"/>
    <path d="M746.7,536.6l-143-.6-40.1-13" transform="translate(1000.4 0.4)" fill="none" stroke="#000" stroke-linecap="round" stroke-linejoin="round" stroke-width="8.59"/>
    <path d="M779.2,574.9H587.1l-51.9-14" transform="translate(1000.4 0.4)" fill="none" stroke="#000" stroke-linecap="round" stroke-linejoin="round" stroke-width="8.59"/>
    <path d="M804.5,615.1l-233.2,1.5-64.7-20.2" transform="translate(1000.4 0.4)" fill="none" stroke="#000" stroke-linecap="round" stroke-linejoin="round" stroke-width="8.59"/>
    <path d="M824.7,649.6l-269.1,2.2-75.3-17.7" transform="translate(1000.4 0.4)" fill="none" stroke="#000" stroke-linecap="round" stroke-linejoin="round" stroke-width="8.59"/>
    <path d="M854.7,690.7,537,688.6s-66.1-10.8-86.4-16.6" transform="translate(1000.4 0.4)" fill="none" stroke="#000" stroke-linecap="round" stroke-linejoin="round" stroke-width="8.59"/>
    <path d="M887.5,743l-370.2.6L404.8,725" transform="translate(1000.4 0.4)" fill="none" stroke="#000" stroke-linecap="round" stroke-linejoin="round" stroke-width="8.59"/>
    <path d="M832.3,445.2l25.7.2" transform="translate(1000.4 0.4)" fill="none" stroke="#000" stroke-linecap="round" stroke-linejoin="round" stroke-width="8.59"/>
    <path d="M867.6,489.6l37.9-1.3" transform="translate(1000.4 0.4)" fill="none" stroke="#000" stroke-linecap="round" stroke-linejoin="round" stroke-width="8.59"/>
    <path d="M902.1,527.4l43.1.2" transform="translate(1000.4 0.4)" fill="none" stroke="#000" stroke-linecap="round" stroke-linejoin="round" stroke-width="8.59"/>
    <path d="M933.1,565.9l57.8-1" transform="translate(1000.4 0.4)" fill="none" stroke="#000" stroke-linecap="round" stroke-linejoin="round" stroke-width="8.59"/>
    <path d="M965.2,604.7l76,.4" transform="translate(1000.4 0.4)" fill="none" stroke="#000" stroke-linecap="round" stroke-linejoin="round" stroke-width="8.59"/>
    <path d="M998.6,644.4s68.2.2,91.4,0" transform="translate(1000.4 0.4)" fill="none" stroke="#000" stroke-linecap="round" stroke-linejoin="round" stroke-width="8.59"/>
    <path d="M1031.5,684.4l111.9,1.7" transform="translate(1000.4 0.4)" fill="none" stroke="#000" stroke-linecap="round" stroke-linejoin="round" stroke-width="8.59"/>
    <path d="M1065.1,726.1l136.7.3" transform="translate(1000.4 0.4)" fill="none" stroke="#000" stroke-linecap="round" stroke-linejoin="round" stroke-width="8.59"/>
    <path d="M547.7,441.4l-9.3-2" transform="translate(1000.4 0.4)" fill="none" stroke="#000" stroke-linecap="round" stroke-linejoin="round" stroke-width="8.59"/>
    <path d="M513.6,472.5,502.2,471" transform="translate(1000.4 0.4)" fill="none" stroke="#000" stroke-linecap="round" stroke-linejoin="round" stroke-width="8.59"/>
    <path d="M480.8,503.8,468.9,502" transform="translate(1000.4 0.4)" fill="none" stroke="#000" stroke-linecap="round" stroke-linejoin="round" stroke-width="8.59"/>
    <path d="M430.1,530.2l18.6,4.4" transform="translate(1000.4 0.4)" fill="none" stroke="#000" stroke-linecap="round" stroke-linejoin="round" stroke-width="8.59"/>
    <path d="M413.7,566.9,394.6,562" transform="translate(1000.4 0.4)" fill="none" stroke="#000" stroke-linecap="round" stroke-linejoin="round" stroke-width="8.59"/>
    <path d="M377.9,601.7l-25.7-4.4" transform="translate(1000.4 0.4)" fill="none" stroke="#000" stroke-linecap="round" stroke-linejoin="round" stroke-width="8.59"/>
    <path d="M333.6,642.7,298.5,636" transform="translate(1000.4 0.4)" fill="none" stroke="#000" stroke-linecap="round" stroke-linejoin="round" stroke-width="8.59"/>
    <path d="M289.2,684.8l-48.4-10.7" transform="translate(1000.4 0.4)" fill="none" stroke="#000" stroke-linecap="round" stroke-linejoin="round" stroke-width="8.59"/>
  </g>
  <g id="Outline_6" data-name="Outline 6">
    <path d="M1413.2,273c-4.8-3.3-11.4.5-16.5.8-18.3,1-33.5,6.5-52.1,3.9-47.4-6.8-92.1-45.3-142.4-28.5-19,6.3-33.4,19.5-49.1,31.3-6,4.5-11.4,10.5-18.8,13-20.6,6.9-44.5,7-64.4,15.3-11.8,5-22.4,12.8-34.1,18.4-5.3,2.5-31,20.1-21.6,27.7,3.2,2.6,8.3,2.4,12.1,3.6,8.1,2.6,17.4,6.5,26.1,6.9,23.4,1,47.3-6.3,70.7-6.3,14.3,0,28.3,4.7,42.4,6.7,28.1,4,56.3,7.4,84.5,11.4a190.56,190.56,0,0,0,48.9.7c7.7-1,15.3-3.6,23.2-3.6,12,0,22.2,9.4,33.5,12.3,6.3,1.6,13-1.4,19.2-2.3,11.6-1.8,24.9-1.3,35.9-4.9" transform="translate(1000.4 0.4)" fill="none" stroke="#000" stroke-linecap="round" stroke-linejoin="round" stroke-width="8.59"/>
    <path d="M1412.4,123.9c-5.7,1.9-33.9-9.6-41.7-11.6-27.6-7.1-61.4-24.1-89.4-25.3-34.3-1.4-62.1,21.3-95.6,26.6-25,4-51.1-7.1-75.7-2.6-17.1,3.1-21.7,21.9-36.5,26.9-9.9,3.3-19.4-1.7-29.3-1.7-13.4,0-30.8,6.6-44.1,9.4-14.5,3.1-33.3,5.5-46.9,11.5s-28.3,15.8-42.9,19c-13.5,3-24.5,13.5-38.1,15.9-12.7,2.3-36.8,3.8-46.5,12.9-7.2,6.7-3.8,24.3,5.5,27.8,18.4,6.9,42.5.9,61.9,2.5a632.79,632.79,0,0,1,88.6,13.9c19,4.4,37,16.7,56.6,17.5,21.8.9,43.6-7.9,65.7-7,17.6.7,30.6,15.4,48.2,15,5.5-.1,11.8-3.4,17.1-5.1" transform="translate(1000.4 0.4)" fill="none" stroke="#000" stroke-linecap="round" stroke-linejoin="round" stroke-width="8.59"/>
    <path d="M3.1,264.2c.4-2.2,4.1,4.1,5.4,6,2.8,4,9.8,9.2,15.3,7.1,7-2.6,10.1-11.2,15.2-16,5-4.6,17.7-11.2,24.1-13.6,8.1-3,15.9,8,23.5,5.7,7.3-2.1,4.3-16.4,19.6-16.6s27.8,12.1,42.3,9.2c14-2.8,24.2-16.2,39-15.9,6.8.1,20.6,3.5,26.1,7,7.1,4.5,12.5,10.7,21.9,10.5,14.2-.2,28.9-8.6,43.1-2.9,7.6,3,7.4,11.5,17.1,13.2,10.7,2,18.7-4.1,29-4.8,18.1-1.2,44.2,7.5,56.2,20.4,9.6,10.4,27.3,5.4,39.2,10.8,7.5,3.4,7.3,14.6,12.2,20.3,3.7,4.2,9.5,8.3,9.6,14.7.3,20.1-48,11-61.1,10.4-8-.3-15.8-3.8-23.7-4.4-38.3-2.7-80.6,7.5-117.7,16-19.6,4.5-40.1-2.3-59.8,3.5-7.9,2.3-14.6,7.7-22.7,9.6-13.9,3.2-32.5-1.1-46.7-1.3-8.1-.1-17.9,5.7-25.9,7.5-9.3,2.1-24.3,1.1-34.1,1-17-.3-33.5,9-52.3,5.6" transform="translate(1000.4 0.4)" fill="none" stroke="#000" stroke-linecap="round" stroke-linejoin="round" stroke-width="8.59"/>
    <path d="M-6.1,192.5c5.9,1.1,10.6,6.1,17.3,3.9,21.8-7.1,43.9-39.8,66.2-42,9.6-.9,12.2,8.5,18.6,12.8,9.9,6.6,28.8,10.6,39,3.6,7.8-5.4,9-16.8,13.1-24.3,11.9-21.7,40.5-30.3,63.4-31,23.3-.7,42.4,27.5,64.5,34.2,19.4,5.8,39.8,7.3,59.9,8.1,7.1.3,15.8,0,22.6,2.7,7.8,3.1,14.3,17.2,18.8,23.6,3.5,5.1,13.5,8,19.1,10,13.5,4.9,28.6-1.4,42.5,4.2,9,3.6,13.3,10.7,20,16.7,17.1,15.1,36.1,4.8,53.2,12.6,6.4,2.9,5.5,13.5,8.1,18.8,2.3,4.5,6.5,8.2,4,13.7-3.8,8.4-29.2,9.5-36.5,9.9-26.9,1.7-54-1.2-80.2.5-3.5.2-4.1,2.2-6.5,3.9-4.4,3-11.6,2-16.5,3.5" transform="translate(1000.4 0.4)" fill="none" stroke="#000" stroke-linecap="round" stroke-linejoin="round" stroke-width="8.59"/>
  </g>
  <g id="Outline_7" data-name="Outline 7">
    <path d="M193.8,728.7l-190-.2" transform="translate(1000.4 0.4)" fill="none" stroke="#000" stroke-linecap="round" stroke-linejoin="round" stroke-width="8.59"/>
    <path d="M1412.4,734.2l-203.8,1.9" transform="translate(1000.4 0.4)" fill="none" stroke="#000" stroke-linecap="round" stroke-linejoin="round" stroke-width="8.59"/>
    <path d="M1300.5,684.3c-1.7,4.6.1,10.5,1.1,15.1,1.6,7.2,3.2,16,2.6,23.3-.3,3.9,1.6,7.7.2,11.5" transform="translate(1000.4 0.4)" fill="none" stroke="#000" stroke-linecap="round" stroke-linejoin="round" stroke-width="8.59"/>
    <path d="M1313.5,683.4c-3.3.4-.4,8.2.2,11,1.8,8.3,3.5,16.4,2.7,24.9-.4,5,1.9,10.3.1,15.2" transform="translate(1000.4 0.4)" fill="none" stroke="#000" stroke-linecap="round" stroke-linejoin="round" stroke-width="8.59"/>
    <path d="M1202.7,724.5c1.4-6.7-1.9-14.7,3-20.8,3.6-4.5,18.4-12,24.2-13.7a28,28,0,0,1,3.1-.9c1.6-.2,4.6,4.2,6,2.5,1-1.3-.2-3.8-.1-5.2.7-7.7-2.1-16,0-23.6,1.1-4,6.8-12.7,11.1-13.8,1.6-.4,4.5.4,5.8-.1.4-.1.4-.7.4-1.1.2-3.4-1.5-7,1-10.1,1.7-2.2,5.2-2.2,7.5-2.9a36.83,36.83,0,0,1,14-1.5c1.9.2,3.9,1.4,5.9,1.4,5.1.2,10.2.1,15.3.4,6.7.4,9.7-5.7,13.7-9.4,2.6-2.4,7.3-3.6,10.5-4.3,9.4-2,17.2,3,22.2,10.7,1.4,2.1,1.7,4.7,2.4,7.1.1.5-.3,1.4.2,1.6,1.5.5,3.6-2.6,4.9-3.2,3.3-1.5,6.6-.9,9.6,1s3.6,4.3,5,7.3a217,217,0,0,1,10.5,28.2c.5,1.8,1.6,13.9,2.1,14.5,1.6,1.8,3.8-4.2,6.1-1.7,8.7,9.2,12.1,23.7,13.4,35.8.7,6.5-.4,14.7-6.3,18.5" transform="translate(1000.4 0.4)" fill="none" stroke="#000" stroke-linecap="round" stroke-linejoin="round" stroke-width="8.59"/>
    <path d="M1136.9,685c-2.2,1.4-3.6-11.1-4.6-13.6-3.7-9.3-8-19.9-9.1-29.9-.4-3.3-1.2-7.1-1.1-10.4,0-.9,2.1-4.2,2.7-4.5,6.8-4.4,15.5-5.9,23.5-5.7,1.6,0,10.6,3.5,11.6.8.3-.9-2.8-8.4-2.8-10.7.2-6.5,5.1-12.2,8.6-17.2.8-1.1,4.2-7.7,6-7.5,2.3.3,1.6,7.5,2.1,9.2s4.9,9.8,6.9,5.5c.9-2,1-5.7,1.3-7.5.9-6.4,1.8-12.9,3.1-19.2,3.6-16.6,10.5-21.5,23.5-29.9,1.7-1.1,3.3-2.9,5.4-3.7a15.08,15.08,0,0,1,10.1-2.4c5.8.7,12.3,3.5,12.9,5.2,2.8,8.9-1.4,22.5,5.1,28.7,2.3,2.2,7.7,10.2,11.6,9.7,3.1-.3,6.3-6.4,8.5-8.3,7-5.9,15.1-12.3,24.9-12.2,8.6.1,5.5,18.8,4.7,23.6-.3,1.6-1.7,5.6.2,6.8,1.6.9,6.1-2.8,7-3.4,4.8-3.1,11.7-9.3,17.9-8.8,2.9.3,1.7,5,1.3,6.7-1.3,5.2-6.6,11.4-6,16.9.8,7.5,9.4,1.4,13.4,2.2,1.7.4,2.1,9.9,2.4,11.8" transform="translate(1000.4 0.4)" fill="none" stroke="#000" stroke-linecap="round" stroke-linejoin="round" stroke-width="8.59"/>
    <path d="M1343,627.2c2.9-.3,6.5-3.7,8.3-5.6,2.2-2.3,4.8-4.5,6-7.5,2-5.1,2.8-10.7,3.5-16.1.2-1.7-1.5-5.6-2.4-7.1-2-3.5-5.3-5.5-7.8-8.6s-5.3-11.5-4.3-15.3c.8-2.7,4.2-5.6,6-7.5,6.9-7,16.4-11.2,24.4-16.9,1-.7,12.5-5.2,13.6-4.7,8.2,3.9,19.3,3.9,20.5,15" transform="translate(1000.4 0.4)" fill="none" stroke="#000" stroke-linecap="round" stroke-linejoin="round" stroke-width="8.59"/>
    <path d="M993.9,567.4c0-3.7,4.6-7.2,6.5-10.3,2.7-4.6-.2-11.4,2.6-14.2,2.3-2.3,7.1-6.9,10.3-7.8,4.6-1.2,12.8.2,16.8,3.2,2.3,1.7,4.5,4.8,7.1,5.8s6.2,1.4,9,2.6,4.8,3.4,7.7,3.9c3.8.6,9.1,2.1,12.9,1.3s8-2.7,11.6,0a30.81,30.81,0,0,1,6.5,6.5c2.6,3.4,4.7,12.8,9,13.6,11.9,2,10.4-7.3,12.3-14.9,1-3.9,6.1-8.1,9-5.2,6.6,6.6,16.1,4.5,23.9,8.4,5,2.5,7,9.3,11.6,11.6,1,.5,2.8.4,3.9.6,2.3.6,4.3,3.7,5.8,5.2.9.9,2.7.7,3.9,1.3,2.6,1.3,3.9,5.7,3.9,8.4" transform="translate(1000.4 0.4)" fill="none" stroke="#000" stroke-linecap="round" stroke-linejoin="round" stroke-width="8.59"/>
    <path d="M205.3,651.6c-.6-.3-.8,6.8-.8,8.1v14.2a87,87,0,0,1-.5,11.4c-.4,3.5.4,7.2-.3,10.6-.8,4,.6,8.4,0,12.4a75,75,0,0,0-1,9.4" transform="translate(1000.4 0.4)" fill="none" stroke="#000" stroke-linecap="round" stroke-linejoin="round" stroke-width="8.59"/>
    <path d="M215.4,658.7c0,3.8-.4,7.6,0,11.4.3,2.3,1.2,4.4.8,6.8-1.4,8.4-2.8,17.3-2.8,25.8" transform="translate(1000.4 0.4)" fill="none" stroke="#000" stroke-linecap="round" stroke-linejoin="round" stroke-width="8.59"/>
    <path d="M152.8,724.5c1.1-.6.8-2.2.8-3.3v-4.1a109.73,109.73,0,0,0-.5-14.2c-.5-4.5-.2-10-1.8-14.2-1.9-5.1-3.9-10.1-5.6-15.2-.6-1.9-2.1-3.5-2.8-5.3-1.2-3-1.9-6.9-4-9.4-1.2-1.4-3.3-1.8-4.8-2.8-1.8-1.1-3.6-3-5.6-3.8-5.1-2-9.9-5.5-10.6-11.6-1.8-16.2,5.6-30,14.7-42.8,4.1-5.7,8.8-12.3,14.7-16.2,3.9-2.6,10.8-1.4,13.4-4.6,1.5-1.8,1.8-4.2,2.5-6.3a16.2,16.2,0,0,1,5.6-7.8c10.1-8.7,22.3-10.3,35.2-10.9,14.7-.6,29.7-2,44.1,2.5,5.7,1.8,10.8,4.7,16.2,7.1,6.9,3.1,13.3,5.7,18.7,11.1,8,8,6.3,19.2,10.4,28.9,2.1,4.9,7.6,8.2,8.4,13.7.5,3.6,8,19.9,5.3,22.6" transform="translate(1000.4 0.4)" fill="none" stroke="#000" stroke-linecap="round" stroke-linejoin="round" stroke-width="8.59"/>
    <path d="M267.8,561.2c-2.6-1.3,3.3-3.5,4-3.8a104.63,104.63,0,0,1,10.9-4.6c3.8-1.3,8.1-2.3,12.2-1.3,6.6,1.6,11.4,5.8,18.5,5.8,8.3,0,9.2-5.9,15.2-9.4,5.3-3,15.8-4.2,21.8-3.8a62.59,62.59,0,0,1,22.3,5.1c1.3.5,3,.4,4.1,1.3.9.7,1.6,2.1,2.8,2.5,2.4.8,6.5,1.5,8.4,3.3,2,2,1.7,4.6,4.8,4.6" transform="translate(1000.4 0.4)" fill="none" stroke="#000" stroke-linecap="round" stroke-linejoin="round" stroke-width="8.59"/>
    <path d="M7.6,626.7c-2.3,1.8,3.7,4.2,8.1,5.1,2.4.5,6.5-2.6,7.9-4.2,3.3-3.9,3.7-11.3,2.9-16-.3-1.8-1.8-5.3-.8-7.2,1.5-2.7,6.9-6.3,9.3-8.2a14.11,14.11,0,0,1,7.1-3c4.4-.7,10.7-2.6,14.8.1,3.2,2.1,5,6.2,7.6,8.9,2.4,2.5,5.5,3.5,6.2,7.2.6,3-.2,6.3-.1,9.3,0,4.9,3.9,9.2,8,11.5a19.69,19.69,0,0,0,10.7,1.9c4.2-.5,7.8-2.9,11.7-4.1,6.3-1.9,14.3,1.4,16.5,7.4" transform="translate(1000.4 0.4)" fill="none" stroke="#000" stroke-linecap="round" stroke-linejoin="round" stroke-width="8.59"/>
    <path d="M5.1,563.2c1.3-1,7-1.1,8.5-1.6,3.6-1.1,7.1-2.4,10.7-3.6,3.1-1,6.6-1.4,9.4-3.4,5.2-3.7,11.4-15.9,18.6-16.1,8.9-.2,19.1-1.2,27.9.7,2.7.6,5.4,1.3,8.1,1.9,4.2,1,6.7,3.5,11.1,1.6,5.9-2.5,12.1-9.2,12.2-15.9,0-2.4-2.5-6.6-.9-8.8,1.8-2.4,4.1-3.1,6.6-4.4,8.4-4.3,18.3-6,27.7-6.1,8.7-.1,16.8,2.1,24.7,5.8,3.2,1.5,6.1,4,9.3,5.6,4,2.1,8.6,2.7,12.7,4.4a63.55,63.55,0,0,1,11.1,6.8c5.2,4.1,12.5,13.7,8.7,21.9" transform="translate(1000.4 0.4)" fill="none" stroke="#000" stroke-linecap="round" stroke-linejoin="round" stroke-width="8.59"/>
    <path d="M86.5,669.7a272.88,272.88,0,0,1,1.8,38.2c-.1,5.3-.9,10.5-.6,15.8.1,1.5-.4,2.9.1,4.3" transform="translate(1000.4 0.4)" fill="none" stroke="#000" stroke-linecap="round" stroke-linejoin="round" stroke-width="8.59"/>
    <path d="M99.2,692.1a62,62,0,0,0,.1,12.2c.3,4.6-1.4,9.4-1.1,14.1.2,2.7-1.6,5.9-.7,8.5" transform="translate(1000.4 0.4)" fill="none" stroke="#000" stroke-linecap="round" stroke-linejoin="round" stroke-width="8.59"/>
    <path d="M1.7,831.3c5.4,5.4,18.8,3.2,26.1,3.5,20.4.7,41.4-3,61.8-1,88.5,8.5,172.5-22.4,259.1,5.8,21,6.9,42.3,6.1,63.7,8.7,6.8.8,18.8,1.1,20.1,9.6.9,6.1-12.5,9.2-16.3,9.8-19.2,2.9-39.3,5.3-58.7,7.1-54.1,4.9-109.9,3.5-164.5,3.9-27.9.2-55.9-3.4-83.9-2.1-17,.7-38,3.3-54.8,1.3-8.3-1-13.8-3-22.1-.2-4.7,1.6-32.2,4.6-30,5.4" transform="translate(1000.4 0.4)" fill="none" stroke="#000" stroke-linecap="round" stroke-linejoin="round" stroke-width="8.59"/>
    <path d="M1412.5,872.4c-1.6-5.4-13.6-5.4-18.8-3.5-22.7,8.5-46.9,5.1-71.1,7.4-48.8,4.7-97.9.1-146.2-.8-42-.7-84.8,12.5-127.1,13.1-38.4.6-76.2-10.5-114.4-12-50.1-2.1-99.4-2.7-149.2-3.6-8.3-.1-16.1,4.8-24,5.9-23.3,3.3-47.6,6.9-69.9,13.4-26.3,7.6-59,7-85.7,5.9-6-.2-25.8-1.4-28.4,5-8.6,21.5,54.5,9.4,65.7,9.9,71.5,2.9,144.3,4.4,216.2,5.7,43,.8,86.3.5,129.2-.1,21.1-.3,42.2,3.6,63.1,4.8,32,1.9,64.5,1.7,96.7,3,44.4,1.8,90.1-11.3,134.4-9.4,41.4,1.7,84.3,8.3,125.3,2.6" transform="translate(1000.4 0.4)" fill="none" stroke="#000" stroke-linecap="round" stroke-linejoin="round" stroke-width="8.59"/>
  </g>
  <g id="Colour1">
    <polygon points="1220.5 738.1 1269.1 801 1267.9 802 1137 802.8 1137 800.1 1076.6 728.1 1195.7 728.4 1212.5 728.4 1213.1 728.5 1220.5 738.1" fill="#f8f0be"/>
    <polygon points="1195.7 728.4 1076.6 728.1 1041.9 686.7 1042.2 686.4 1140.6 687.9 1147.3 688 1154.2 688.1 1154.5 688.9 1195.7 728.4" fill="#f8f0be"/>
    <path d="M1091.2,646.6l38.9,40.3v.7l-98.3-1.5-.3.3-33.3-39.7.7-.6s48.5.1,77.7,0c4.6,0,8.6,0,12-.1Z" transform="translate(1000.4 0.4)" fill="#f8f0be"/>
    <path d="M1076.6,645.9v.2c-29.1.1-77.7,0-77.7,0l-.7.6-33.3-39.8.7-.6,62.8.4,13.2.1.6.9Z" transform="translate(1000.4 0.4)" fill="#f8f0be"/>
    <polygon points="990 567.1 1001.4 566.9 1001.4 567.8 1003.8 570.2 1038.8 605.4 1038.7 607 976 606.7 975.3 607.2 942.9 568.7 943.9 567.9 990 567.1" fill="#f8f0be"/>
    <polygon points="990 567.1 943.9 567.9 942.9 568.7 911.2 530.8 912.8 529.4 946.3 529.6 955.9 529.6 956.8 530.7 990 567.1" fill="#f8f0be"/>
    <polygon points="946.3 528.4 946.3 529.6 912.8 529.4 911.2 530.8 878.4 491.6 878.4 491.6 907.9 490.6 916.2 490.3 916.3 491.4 946.3 528.4" fill="#f8f0be"/>
    <polygon points="924.8 802.4 924.8 804.1 502.4 806.7 528 745.5 886.2 745 898.2 745 899 745.1 924.8 802.4" fill="#f8f0be"/>
    <polygon points="907.9 490.2 907.9 490.6 878.4 491.6 878.4 491.6 841.9 448.1 843 447.2 860.6 447.3 868.8 447.4 869.4 448.2 907.9 490.2" fill="#f8f0be"/>
    <polygon points="886.2 743.8 886.2 745 528 745.5 551.1 690.6 856.4 692.7 865.5 692.7 865.8 692.8 886.2 743.8" fill="#f8f0be"/>
    <polygon points="824.5 407.1 860.6 446 860.6 447.3 843 447.2 841.9 448.1 809.1 409 809.1 408.4 823 408.5 823.1 407.1 824.5 407.1" fill="#f8f0be"/>
    <polygon points="835.7 651.8 856.4 690.5 856.4 692.7 551.1 690.6 566.5 653.8 828.6 651.7 835.4 651.6 835.7 651.8" fill="#f8f0be"/>
    <polygon points="828.6 651.3 828.6 651.7 566.5 653.8 581.3 618.4 582.1 618.6 805.8 617.2 815.2 617.1 815.2 617.3 828.6 651.3" fill="#f8f0be"/>
    <polygon points="805.8 615.8 805.8 617.2 582.1 618.6 581.3 618.4 598.7 576.9 773.6 576.9 789.9 576.9 790.7 577.9 805.8 615.8" fill="#f8f0be"/>
    <polygon points="773.6 575.9 773.6 576.9 598.7 576.9 615 538 744.5 538.6 757.5 538.6 757.6 540 773.6 575.9" fill="#f8f0be"/>
    <polygon points="744.5 537.3 744.5 538.6 615 538 629.2 504 727 505.4 730.6 505.4 730.8 505.3 744.5 537.3" fill="#f8f0be"/>
    <polygon points="707.8 453.2 727.1 504.5 727 505.4 629.2 504 650.5 453.4 701 453.3 707.7 453.2 707.8 453.2" fill="#f8f0be"/>
    <polygon points="672.6 407.2 695.7 407.4 695.7 408.6 696.1 409.1 694.6 410.2 701 452.8 701 453.3 650.5 453.4 669.3 408.4 669.4 407.1 671.5 407.2 672.6 407.2" fill="#f8f0be"/>
  </g>
  <g id="Colour2">
    <polygon points="524.3 474.5 524.8 475 491.8 506.1 491.5 505.8 483.9 504.7 484 503.7 512.3 472.7 512.9 473 518.8 473.8 524.3 474.5" fill="#e2dbb3"/>
    <polygon points="491.5 505.8 491.8 506.1 459.5 536.6 459.4 536.5 447.1 533.6 447.5 531.9 478.8 503.5 479.6 504 483.9 504.7 491.5 505.8" fill="#e2dbb3"/>
    <polygon points="459.5 536.6 424.9 569.3 424.5 569 412 565.7 412.4 564.4 440.5 532.3 440.8 532.2 447.1 533.6 459.4 536.5 459.5 536.6" fill="#e2dbb3"/>
    <polygon points="424.5 569 424.9 569.3 388.5 603.6 372.3 600.8 372.7 598.6 404.2 563.7 404.6 563.3 405.4 564 412 565.7 424.5 569" fill="#e2dbb3"/>
    <polygon points="388.5 603.6 344.7 645.1 344.3 644.7 323.6 640.7 323.7 639.8 363.4 599.3 372.3 600.8 388.5 603.6" fill="#e2dbb3"/>
    <polygon points="318 639.6 323.6 640.7 344.3 644.7 344.7 645.1 300.2 687.1 299.9 686.8 265.8 679.3 266.3 677.3 308.4 638.4 309.2 637.9 318 639.6" fill="#e2dbb3"/>
    <path d="M289.5,686.4l.3.3-57.3,54.1-2.6,1.7c-21.7-6.9-35.7-11.7-35.7-11.7l1.1-.3,45.6-54.8.3-.1,14.3,3.2Z" transform="translate(1000.4 0.4)" fill="#e2dbb3"/>
    <polygon points="669.4 407.1 669.3 408.4 650.5 453.4 649.4 453.4 628.1 452.6 628.1 451.5 652.8 409.1 652.8 406.9 669.4 407.1" fill="#e2dbb3"/>
    <polygon points="650.5 453.4 629.2 504 628.1 504 597.1 495.2 597.5 493.6 623.9 452.4 628.1 452.6 649.4 453.4 650.5 453.4" fill="#e2dbb3"/>
    <polygon points="629.2 504 615 538 614.5 538 578 526.2 578.4 524.8 592.3 494 592.3 493.8 597.1 495.2 628.1 504 629.2 504" fill="#e2dbb3"/>
    <polygon points="615 538 598.7 576.9 597.8 576.9 550.4 564.1 550.6 563.3 573.9 525 574.3 525 578 526.2 614.5 538 615 538" fill="#e2dbb3"/>
    <polygon points="598.7 576.9 581.3 618.4 521.3 599.6 521.7 598.6 545.1 563.2 546 562.9 550.4 564.1 597.8 576.9 598.7 576.9" fill="#e2dbb3"/>
    <polygon points="597.1 405.9 597.1 406.6 558.2 443.4 552.4 442.1 552.8 440.2 586.3 406.8 586.3 405.7 597.1 405.9" fill="#e2dbb3"/>
    <path d="M570.9,618l-14.8,35.4h-.2l-70.6-16.6.1-.7c5.5-9.5,21.7-37.7,21.7-37.7l.1-.3,3.7,1.1Z" transform="translate(1000.4 0.4)" fill="#e2dbb3"/>
    <path d="M556.1,653.4l-15.4,36.8h-3.3s-55.2-9-80.2-15l.3-1.3c3.6-5.6,16-25.9,22.5-36.5l.6-1.8,4.7,1.1,70.6,16.6h.2Z" transform="translate(1000.4 0.4)" fill="#e2dbb3"/>
    <polygon points="558.2 443.4 524.8 475 524.3 474.5 518.8 473.8 519 472.9 548.5 441.5 549.2 441.4 552.4 442.1 558.2 443.4" fill="#e2dbb3"/>
    <path d="M540.7,690.2l-23,55h0L417.5,728.7l.4-2.4,33-52,.2-.7c1.8.5,3.8,1,6.2,1.6,25,6,80.2,15,80.2,15Z" transform="translate(1000.4 0.4)" fill="#e2dbb3"/>
    <path d="M517.6,745.1,492,806.3l-2-.2s-57.2-9-123.1-24.7l.1-.2,38.2-54.6,12.3,2,100.1,16.5Z" transform="translate(1000.4 0.4)" fill="#e2dbb3"/>
  </g>
  <g id="Colour3">
    <path d="M378.1,603.2l36.3-34.3,34.7-32.8,32.3-30.5,33-31.1,33.5-31.6,38.9-36.7v-.7l19.3.3v.7L248.8,746.7l-.5,1.6c-6.6-2.1-12.8-4-18.5-5.8l2.6-1.7,57.3-54.1,44.5-42Z" transform="translate(1000.4 0.4)" fill="#cdc5a8"/>
    <path d="M606,405.8l28.5.5v1.1L336.7,773.1l-.2.8c-31.4-8.2-62.8-17.6-88.2-25.5l.5-1.6L606,406.5Z" transform="translate(1000.4 0.4)" fill="#cdc5a8"/>
    <path d="M405.2,726.6,367,781.2l-.1.2c-6.7-1.6-13.5-3.3-20.3-5-3.3-.9-6.7-1.7-10.1-2.6l.2-.8L634.5,407.4v-1.1l7.9.1v2.2l-24.6,42.5v1.1l-4.2-.1-26.4,41.1-.5,1.6-4.8-1.4v.1L568,524.4l-.4,1.4-3.6-1.2h-.4l-23.3,38.3-.2.8-4.5-1.2-.8.3-23.5,35.4-.3,1-3.7-1.1-.1.3s-16.3,28.2-21.7,37.7l-.1.7-4.7-1.1-.6,1.8c-6.5,10.5-18.9,30.9-22.5,36.5l-.3,1.3c-2.4-.6-4.4-1.1-6.2-1.6l-.2.7-33,52-.4,2.4Z" transform="translate(1000.4 0.4)" fill="#cdc5a8"/>
    <polygon points="707.8 453.2 707.7 453.2 701 453.3 701 452.8 694.6 410.2 696.1 409.1 695.7 408.6 695.7 407.4 716.9 407.6 716.9 409.6 997.9 801.5 998 803.7 924.8 804.1 924.8 802.4 899 745.1 898.2 745 886.2 745 886.2 743.8 865.8 692.8 865.5 692.7 856.4 692.7 856.4 690.5 835.7 651.8 835.4 651.6 828.6 651.7 828.6 651.3 815.2 617.3 815.2 617.1 805.8 617.2 805.8 615.8 790.7 577.9 789.9 576.9 773.6 576.9 773.6 575.9 757.6 540 757.5 538.6 744.5 538.6 744.5 537.3 730.8 505.3 730.6 505.4 727 505.4 727.1 504.5 707.8 453.2" fill="#d7cfab"/>
    <polygon points="1076.6 728.1 1137 800.1 1137 802.8 1115.7 802.9 1115.7 800.8 789.7 408.5 789.7 408.2 809.1 408.4 809.1 409 841.9 448.1 878.4 491.6 911.2 530.8 942.9 568.7 975.3 607.2 1008.6 647 1041.9 686.7 1076.6 728.1" fill="#d7cfab"/>
    <polygon points="1115.7 800.8 1115.7 802.9 998 803.7 997.9 801.5 716.9 409.6 716.9 407.6 740.1 407.8 789.7 408.2 789.7 408.5 1115.7 800.8" fill="#e3dab3"/>
  </g>
  <g id="Colour4">
    <polygon points="668.4 347.9 669.6 369.7 582.2 385.8 581 386 577.9 371.5 578.6 371.4 668.2 347.8 668.4 347.9" fill="#f8f0be"/>
    <polygon points="670.4 385.2 671.6 405.9 671.5 407.2 669.4 407.1 652.8 406.9 644.9 406.7 616.4 406.2 597.1 405.9 586.3 405.7 585.3 405.7 583.2 396 584.6 395.7 670.4 385.2" fill="#f8f0be"/>
    <polygon points="672.6 407.2 671.5 407.2 671.6 405.9 670.4 385.2 670.7 385.2 738 385.2 738 385.5 740.1 407.6 740.1 407.8 716.9 407.6 695.7 407.4 672.6 407.2" fill="#e3dab3"/>
    <polygon points="760 385.9 738 385.5 738 385.2 823.7 385.2 824.3 385.2 823.1 407.1 823 408.5 809.1 408.4 789.7 408.2 740.1 407.8 740.1 407.6 761.9 407.1 760 385.9" fill="#e3dab3"/>
    <polygon points="760 385.9 761.9 407.1 740.1 407.6 738 385.5 760 385.9"/>
    <polygon points="825.3 364.6 824.8 375.1 822.9 375 669.6 369.7 669.6 369.7 668.4 347.9 823.2 364.4 825.3 364.6" fill="#e3dab3"/>
  </g>
  <g id="Colour5">
    <polygon points="667.4 331.3 668.4 347.9 668.2 347.8 578.6 371.4 577.9 371.5 574.7 356.7 667.4 331.3" fill="#d7cfab"/>
    <polygon points="669.6 369.7 670.4 385.2 584.6 395.7 583.2 396 581 386 582.2 385.8 669.6 369.7" fill="#d7cfab"/>
    <polygon points="824.8 375.1 824.3 385.2 823.7 385.2 738 385.2 670.7 385.2 670.4 385.2 669.6 369.7 669.6 369.7 822.9 375 824.8 375.1" fill="#d7cfab"/>
    <polygon points="826 352.8 825.3 364.6 823.2 364.4 668.4 347.9 667.4 331.3 668.8 331 826 352.8" fill="#d7cfab"/>
  </g>
  <g id="Colour6">
    <path d="M1258.7,800.6l-48.6-62.9,189.3-1.7h1.3V869.5a20.6,20.6,0,0,0-6.7,1.2c-22.7,8.5-46.9,5.1-71.1,7.4-48.8,4.7-97.9.1-146.2-.7-42-.7-84.8,12.5-127.1,13.1-38.4.6-76.2-10.5-114.4-12-50.1-2.1-99.4-2.7-149.1-3.6-8.3-.1-16.1,4.8-24,5.9-23.3,3.3-47.6,6.9-69.9,13.4-26.3,7.6-59,7-85.7,5.9-6-.3-25.8-1.4-28.4,5-8.6,21.5,54.5,9.4,65.7,9.9,71.5,2.9,144.3,4.4,216.2,5.7,43,.8,86.3.5,129.2-.1,21.1-.3,42.2,3.6,63.1,4.8,32,1.9,64.5,1.7,96.7,3,44.4,1.8,90.1-11.3,134.4-9.4,38.7,1.6,78.8,7.5,117.4,3.6v34.3H2V884.6h.2c0-.9,25.6-3.7,30.1-5.3,8.3-2.8,13.8-.8,22.1.1,16.9,2,37.8-.5,54.8-1.3,28-1.2,56,2.3,83.9,2.1,54.6-.4,110.4,1,164.5-3.9,19.5-1.8,39.5-4.2,58.7-7.1,3.7-.6,17.2-3.8,16.3-9.8-1.3-8.5-13.3-8.8-20.1-9.6-21.4-2.5-42.6-1.8-63.7-8.6-86.6-28.2-170.6,2.7-259.1-5.8-20.4-2-41.4,1.8-61.8,1-7.2-.3-20.6,1.9-26.1-3.5V730.1H3.9l148.8.2,41.2.1.1.6s14,4.8,35.7,11.7c5.7,1.8,11.9,3.8,18.5,5.8,25.4,7.9,56.8,17.2,88.2,25.5,3.4.9,6.7,1.7,10.1,2.6,6.8,1.7,13.6,3.4,20.3,5,65.9,15.7,123.1,24.7,123.1,24.7l2,.2,422.4-2.6,73.2-.4,117.7-.7,21.3-.1,130.9-.8Z" transform="translate(1000.4 0.4)" fill="#b0ca67"/>
    <path d="M1400.8,869.4v52.8c-38.6,3.9-78.6-2-117.4-3.6-44.3-1.8-90,11.3-134.4,9.4-32.2-1.3-64.6-1.1-96.7-3-20.9-1.2-42.1-5.1-63.1-4.8-43,.6-86.2.9-129.2.1-71.9-1.3-144.7-2.8-216.2-5.7-11.2-.5-74.2,11.6-65.7-9.9,2.6-6.4,22.4-5.3,28.4-5,26.7,1.1,59.4,1.7,85.7-5.9,22.4-6.4,46.6-10.1,69.9-13.4,7.9-1.1,15.7-6,24-5.9,49.7.9,99.1,1.5,149.1,3.6,38.2,1.6,76,12.6,114.4,12,42.3-.6,85.1-13.8,127.1-13.1,48.4.9,97.5,5.4,146.2.7,24.3-2.3,48.5,1,71.1-7.4A38.79,38.79,0,0,1,1400.8,869.4Z" transform="translate(1000.4 0.4)" fill="#95a54e"/>
    <path d="M432.7,859.3c.9,6-12.5,9.2-16.3,9.8-19.2,2.9-39.3,5.3-58.7,7.1-54.1,4.9-109.9,3.5-164.5,3.9-27.9.2-56-3.4-83.9-2.1-17,.7-38,3.3-54.8,1.3-8.3-1-13.8-3-22.1-.1-4.5,1.5-30.1,4.4-30.1,5.3H2V833.1c5.4,5.4,18.8,3.2,26.1,3.5,20.4.7,41.4-3,61.8-1,88.5,8.5,172.5-22.4,259.1,5.8,21,6.8,42.3,6.1,63.7,8.6C419.5,850.6,431.5,850.8,432.7,859.3Z" transform="translate(1000.4 0.4)" fill="#95a54e"/>
  </g>
  <g id="Colour7">
    <path d="M35.3,597.8c-2.4,1.9-7.9,5.5-9.3,8.2-1,1.9.4,5.3.8,7.2.8,4.7.5,12.1-2.9,16-1.4,1.6-5.5,4.7-7.9,4.2-3.6-.8-12.3-2.8-14-4.6V564.6c1.3-1,10.4-1.1,12-1.6,3.6-1.1,7.1-2.4,10.7-3.6,3.1-1,6.6-1.4,9.4-3.4,5.2-3.7,11.4-15.9,18.6-16.1,8.9-.2,19.1-1.2,27.9.7,2.7.6,5.4,1.3,8.1,1.9,4.2,1,6.7,3.5,11.1,1.6,5.9-2.5,12.1-9.2,12.2-15.9,0-2.4-2.5-6.6-.9-8.8,1.8-2.4,4.1-3.1,6.6-4.4,8.4-4.3,18.3-6,27.7-6,8.7-.1,16.8,2.1,24.7,5.8,3.2,1.5,6.1,4,9.3,5.6,4,2.1,8.6,2.7,12.7,4.4a58,58,0,0,1,11.1,6.8c4.8,3.7,10.3,13.6,8.3,21.5l-7.1.3c-12.9.6-25.1,2.2-35.2,10.9a17.15,17.15,0,0,0-5.6,7.9c-.7,2.1-1.1,4.6-2.5,6.3-2.7,3.2-9.5,1.9-13.4,4.6-5.9,3.9-10.6,10.5-14.7,16.2-8.1,11.4-14.9,23.6-15,37.6h-.2c-2.2-6-10.2-9.3-16.5-7.4-4,1.2-7.6,3.5-11.7,4.1a19.69,19.69,0,0,1-10.7-1.9c-4.1-2.4-7.9-6.6-8-11.5,0-3,.7-6.3.1-9.3-.8-3.7-3.8-4.7-6.2-7.2-2.7-2.7-4.4-6.8-7.6-8.9-4.1-2.7-10.3-.8-14.8-.1A15.18,15.18,0,0,0,35.3,597.8Z" transform="translate(1000.4 0.4)" fill="#94a456"/>
    <path d="M16,633.5c2.4.5,6.5-2.6,7.9-4.2,3.3-3.9,3.7-11.3,2.9-16-.3-1.8-1.8-5.3-.8-7.2,1.5-2.7,6.9-6.3,9.3-8.2a14.11,14.11,0,0,1,7.1-3c4.4-.7,10.7-2.6,14.8.1,3.2,2.1,5,6.2,7.6,8.9,2.4,2.5,5.5,3.5,6.2,7.2.6,3-.1,6.3-.1,9.3,0,4.9,3.9,9.2,8,11.5a19.69,19.69,0,0,0,10.7,1.9c4.2-.5,7.8-2.9,11.7-4.1,6.3-1.9,14.3,1.4,16.5,7.4h.2a46.66,46.66,0,0,0,.3,5.2c.7,6.2,5.5,9.6,10.6,11.6,2,.8,3.8,2.7,5.6,3.8,1.5.9,3.6,1.4,4.8,2.8,2.1,2.5,2.9,6.4,4.1,9.4.7,1.8,2.1,3.4,2.8,5.3,1.7,5.1,3.7,10.1,5.6,15.2,1.6,4.2,1.3,9.7,1.8,14.2a93.91,93.91,0,0,1,.5,14.2c0,1.3-1.2,8.4-1.2,9.8,0,.3.1.4.2.4v1.3l-149-.2H2V628.9C3.7,630.6,12.4,632.7,16,633.5Z" transform="translate(1000.4 0.4)" fill="#94a456"/>
    <path d="M211.4,553.3c12.4-.6,24.9-1,37,2.9,5.7,1.8,10.8,4.7,16.2,7.1.9.4,1.9.8,2.8,1.2,5.9,2.6,11.3,5.2,16,9.9,8,8,6.3,19.3,10.4,28.9,2.1,4.9,7.6,8.3,8.3,13.7.5,3.5,7.5,18.8,5.5,22.3l-8.7-1.7-.9.4-42.2,39-.4,1.9-14.3-3.2-.3.1-45.6,54.8-1.1.3-.1-.6-41.2-.1v-1.3c.3,0,.7-.8-.2-.4,0-1.3,1.2-8.4,1.2-9.8a109.73,109.73,0,0,0-.5-14.2c-.5-4.5-.2-10-1.8-14.2-1.9-5.1-3.8-10.1-5.6-15.2-.6-1.9-2.1-3.5-2.8-5.3-1.2-3-1.9-6.9-4.1-9.4-1.2-1.4-3.3-1.8-4.8-2.8-1.8-1.1-3.6-3-5.6-3.8-5.1-2-10-5.5-10.6-11.6a46.66,46.66,0,0,1-.3-5.2c.1-14,6.8-26.2,15-37.6,4.1-5.7,8.8-12.3,14.7-16.2,3.9-2.6,10.8-1.4,13.4-4.6,1.5-1.8,1.8-4.2,2.5-6.3a17,17,0,0,1,5.6-7.9c10.1-8.7,22.3-10.3,35.2-10.9A58.25,58.25,0,0,0,211.4,553.3Z" transform="translate(1000.4 0.4)" fill="#94a456"/>
    <path d="M353,598.9l-39.7,40.5-.2.9-5.6-1.1c2-3.5-5-18.7-5.5-22.3-.8-5.4-6.3-8.8-8.3-13.7-4.1-9.6-2.4-20.9-10.4-28.9-4.7-4.7-10.1-7.3-16-9.9l.8-1.7c-2.6-1.3,3.3-3.5,4.1-3.8a104.63,104.63,0,0,1,10.9-4.6c3.8-1.3,8.1-2.3,12.2-1.3,6.6,1.6,11.4,5.8,18.5,5.8,8.3,0,9.2-5.9,15.2-9.4,5.3-3,15.8-4.2,21.8-3.8a62.59,62.59,0,0,1,22.3,5.1c1.3.5,3,.4,4.1,1.3,1,.7,1.6,2.1,2.8,2.5,2.4.8,6.5,1.5,8.3,3.3,2,2,1.7,4.6,4.8,4.6l.9.8-31.5,34.9-.4,2.2Z" transform="translate(1000.4 0.4)" fill="#94a456"/>
    <path d="M1088.6,646c-3.4,0-7.4.1-12,.1v-.2l-34.5-38.3-.6-.9-13.2-.1v-1.7l-34.9-35.2.8-.8c0-3.7,4.6-7.2,6.5-10.3,2.7-4.6-.2-11.4,2.6-14.2,2.3-2.3,7.1-6.9,10.3-7.7,4.6-1.2,12.8.2,16.8,3.2,2.3,1.7,4.5,4.8,7.1,5.8s6.2,1.4,9,2.6,4.8,3.4,7.7,3.9c3.8.6,9.1,2.1,12.9,1.3s8-2.7,11.6,0a30.81,30.81,0,0,1,6.5,6.5c2.6,3.4,4.7,12.8,9,13.6,11.9,2,10.4-7.3,12.3-14.9,1-3.9,6.1-8.1,9-5.2,6.6,6.6,16.1,4.5,23.9,8.4,5,2.5,7,9.3,11.6,11.6,1,.5,2.8.4,3.9.6,2.3.6,4.3,3.7,5.8,5.2.9.9,2.7.7,3.9,1.3,2.6,1.3,3.9,5.7,3.9,8.4l1.1.6c-1.5,2-3.1,5-3.7,5.7-3.5,5-8.4,10.7-8.6,17.2-.1,2.3,3.1,9.8,2.8,10.7-1,2.7-10-.8-11.6-.8-8-.1-16.7,1.4-23.5,5.7a14.18,14.18,0,0,0-2.7,4.5c-.1,3.3.8,7.1,1.1,10.4,1.1,10,5.4,20.6,9.1,29.9,1,2.4,2.3,13.8,4.3,13.8v.9l-6.8-.1v-.7l-38.9-40.3Z" transform="translate(1000.4 0.4)" fill="#94a456"/>
    <path d="M1136.9,686.8c-2,0-3.4-11.4-4.3-13.8-3.7-9.3-8-19.9-9.1-29.9-.4-3.3-1.2-7.1-1.1-10.4,0-.9,2.1-4.2,2.7-4.5,6.8-4.4,15.5-5.9,23.5-5.7,1.6,0,10.6,3.5,11.6.8.3-.9-2.8-8.4-2.8-10.7.2-6.5,5.1-12.2,8.6-17.2.5-.7,2.1-3.7,3.7-5.7.8-1.1,1.7-1.9,2.3-1.8,2.3.3,1.6,7.5,2.1,9.2s4.9,9.8,6.9,5.5c.9-2,1-5.7,1.3-7.5.9-6.4,1.8-12.9,3.1-19.2,3.6-16.6,10.5-21.5,23.5-29.9,1.7-1.1,3.3-2.9,5.4-3.7a15.08,15.08,0,0,1,10.1-2.4c5.8.7,12.3,3.5,12.9,5.2,2.8,8.9-1.4,22.5,5.1,28.7,2.3,2.2,7.7,10.2,11.6,9.7,3.1-.3,6.3-6.4,8.5-8.3,7-5.9,15.1-12.3,24.9-12.2,8.6.1,5.5,18.8,4.7,23.6-.3,1.6-1.7,5.6.2,6.8,1.6.9,6.1-2.8,7-3.4,4.8-3.1,11.7-9.3,17.9-8.8,2.9.3,1.7,5,1.3,6.7-1.3,5.2-6.6,11.4-6,16.9.8,7.5,9.4,1.3,13.4,2.2,1.7.4,2.1,13.5,2.4,15.5h0a15.53,15.53,0,0,0-3.7.4c-3.3.7-8,1.9-10.5,4.3-4,3.7-6.9,9.7-13.7,9.4-5.1-.3-10.2-.2-15.3-.4-2-.1-4-1.3-5.9-1.4a38.93,38.93,0,0,0-14,1.5c-2.3.7-5.8.8-7.5,2.9-2.5,3.1-.8,6.7-1,10.1,0,.4,0,1-.4,1.1-1.3.5-4.2-.3-5.8.1-4.2,1.1-10,9.8-11.1,13.8-2.1,7.6.7,15.9,0,23.6-.1,1.4,1.1,3.9.1,5.2-1.4,1.8-4.5-2.7-6-2.5a21.16,21.16,0,0,0-3.1.9c-5.8,1.6-20.6,9.2-24.2,13.7-4.9,6.1-1.5,14.1-3,20.8l-.9,1.9h-16.8l-41.2-39.5-.4-.7-6.9-.1Z" transform="translate(1000.4 0.4)" fill="#94a456"/>
    <path d="M1349,642.3c-.5-.2,0-1-.2-1.5-.7-2.3-1-5-2.4-7.1a38.65,38.65,0,0,0-3.5-4.5l.4-.4c2.9-.3,6.5-3.7,8.3-5.6,2.2-2.3,4.8-4.5,6-7.5,2-5.1,2.8-10.7,3.5-16.1.2-1.7-1.5-5.6-2.4-7.1-2-3.5-5.3-5.5-7.8-8.6s-5.3-11.5-4.3-15.3c.8-2.7,4.2-5.6,6-7.5,6.9-7,16.4-11.2,24.4-16.9,1-.7,12.5-5.2,13.6-4.7,3.2,1.5,6.8,2.5,10.1,3.7V727.6c0-1.2-.1-2.4-.2-3.5-1.3-12.1-4.7-26.5-13.4-35.8-2.3-2.5-4.5,3.5-6.1,1.7-.6-.6-1.6-12.6-2.1-14.5a203.33,203.33,0,0,0-10.5-28.2c-1.4-3-2.1-5.4-5-7.3a9.48,9.48,0,0,0-9.6-1C1352.6,639.7,1350.5,642.8,1349,642.3Z" transform="translate(1000.4 0.4)" fill="#94a456"/>
    <path d="M1399.4,736l-189.3,1.7-7.4-9.7-.5-.1.9-1.9c1.4-6.7-1.9-14.7,3-20.8,3.6-4.5,18.4-12,24.2-13.7a28,28,0,0,1,3.1-.9c1.6-.2,4.6,4.2,6,2.5,1-1.3-.2-3.8-.1-5.2.7-7.7-2.1-16,0-23.6,1.1-4,6.8-12.7,11.1-13.8,1.6-.4,4.5.4,5.8-.1.4-.1.4-.7.4-1.1.2-3.4-1.5-7,1-10.1,1.7-2.2,5.2-2.2,7.5-2.9a36.83,36.83,0,0,1,14-1.5c1.9.2,3.9,1.4,5.9,1.4,5.1.2,10.2.1,15.3.4,6.7.4,9.7-5.7,13.7-9.4,2.6-2.4,7.3-3.6,10.5-4.3a16.1,16.1,0,0,1,3.7-.4c5.8-.1,10.9,2.5,14.9,6.6a30.19,30.19,0,0,1,3.5,4.5c1.4,2.1,1.7,4.7,2.4,7.1.1.5-.3,1.4.2,1.5,1.5.5,3.6-2.6,4.9-3.2,3.3-1.5,6.6-.9,9.6,1s3.6,4.3,5,7.3a217,217,0,0,1,10.5,28.2c.5,1.8,1.6,13.9,2.1,14.5,1.6,1.8,3.8-4.2,6.1-1.7,8.7,9.2,12.1,23.7,13.4,35.8.1,1.1.2,2.3.2,3.5A29.1,29.1,0,0,1,1399.4,736Z" transform="translate(1000.4 0.4)" fill="#94a456"/>
  </g>
  <g id="Colour8">
    <path d="M2,265.8V197.1c2.9,1.2,5.9,2.1,9.5.9,21.8-7.1,43.9-39.8,66.2-42,9.6-.9,12.2,8.5,18.6,12.8,10,6.6,28.8,10.6,39,3.5,7.8-5.4,9-16.8,13.1-24.3,11.9-21.7,40.5-30.3,63.4-31,23.3-.7,42.4,27.5,64.5,34.2,19.4,5.8,39.8,7.3,59.9,8.1,7.1.3,15.8,0,22.6,2.7,7.8,3.1,14.3,17.2,18.8,23.6,3.5,5.1,13.5,8,19.1,10,13.5,4.9,28.6-1.4,42.5,4.2,9,3.6,13.3,10.7,20,16.7,17.1,15.1,36.1,4.8,53.3,12.7,6.4,2.9,5.5,13.5,8.1,18.8,2.3,4.5,6.5,8.2,4,13.7-3.8,8.3-29.2,9.4-36.5,9.9-26.9,1.7-54-1.2-80.2.4-3.5.2-4.1,2.2-6.5,3.9-4,2.7-10.1,2.2-14.9,3.1a17.34,17.34,0,0,1-5.1-3.9c-11.9-12.9-38-21.6-56.2-20.4-10.4.7-18.3,6.8-29,4.8-9.7-1.8-9.5-10.2-17.1-13.2-14.2-5.7-28.9,2.7-43.1,2.9-9.4.1-14.8-6-21.9-10.5-5.5-3.5-19.3-6.9-26.1-7-14.8-.2-25,13.1-39,15.9-14.5,2.9-27-9.4-42.3-9.2S94.3,252.9,87.1,255c-7.6,2.2-15.4-8.8-23.5-5.8-6.5,2.4-19.2,9-24.1,13.6-5.1,4.7-8.2,13.4-15.2,16-5.5,2.1-12.5-3.1-15.3-7.1-1.3-1.9-5-8.2-5.4-6H2Z" transform="translate(1000.4 0.4)" fill="#fff"/>
    <path d="M657,330.9l-92.7,25.4,3.2,14.8,3.1,14.5,2.2,10,2.1,9.7h1v1l-33.5,33.4-.4,1.9-3.2-.7-.7.1-29.5,31.4-.1.9-5.9-.8-.6-.3-28.3,31-.1.9-4.2-.6-.9-.5-31.3,28.4-.4,1.7-6.3-1.5-.3.2L402,564l-.4,1.4-6.6-1.7-.8-.7-.4.4-.9-.8c-3.1,0-2.8-2.6-4.8-4.6-1.8-1.8-6-2.5-8.3-3.3-1.2-.4-1.8-1.8-2.8-2.5s-2.8-.7-4.1-1.3a67.18,67.18,0,0,0-22.3-5.1c-6-.4-16.5.8-21.8,3.8-6,3.4-6.9,9.4-15.2,9.4-7.1,0-11.9-4.2-18.5-5.8-4.1-1-8.3,0-12.2,1.3a86.76,86.76,0,0,0-10.9,4.6c-.7.3-6.7,2.5-4.1,3.8l-.8,1.7c-.9-.4-1.8-.8-2.8-1.2-5.4-2.4-10.5-5.3-16.2-7.1-12.1-3.8-24.6-3.5-37-2.9,2-7.9-3.5-17.8-8.3-21.5a60.05,60.05,0,0,0-11.1-6.8c-4.1-1.7-8.6-2.3-12.7-4.4-3.2-1.6-6.1-4.1-9.3-5.6-7.9-3.7-16-5.9-24.7-5.8-9.4.1-19.3,1.8-27.7,6-2.6,1.3-4.8,1.9-6.6,4.4-1.6,2.2.9,6.4.9,8.8,0,6.7-6.3,13.4-12.2,15.9-4.4,1.9-6.9-.6-11.1-1.6-2.7-.7-5.4-1.3-8.1-1.9-8.7-1.9-19-.9-27.9-.7-7.2.2-13.4,12.4-18.6,16.1-2.7,1.9-6.3,2.4-9.4,3.4-3.6,1.1-7.1,2.5-10.7,3.6-1.6.5-10.7.5-12,1.6V369.3c17.2,1.7,32.6-6.3,48.5-6.1,9.8.2,24.8,1.1,34.1-1,8-1.8,17.8-7.7,25.9-7.5,14.2.2,32.7,4.5,46.7,1.3,8.1-1.8,14.7-7.3,22.7-9.6,19.7-5.7,40.2,1,59.8-3.5,37.1-8.4,79.4-18.7,117.7-16,8,.6,15.8,4,23.7,4.4,13.1.5,61.4,9.7,61.1-10.4-.1-6.5-5.9-10.5-9.6-14.7-4.9-5.7-4.6-16.9-12.2-20.3-9.9-4.5-24.1-1.7-34-6.9,4.8-.9,11-.4,14.9-3.1,2.4-1.6,3-3.6,6.5-3.9,26.2-1.7,53.3,1.3,80.2-.4,7.2-.5,32.7-1.6,36.5-9.9,2.5-5.5-1.7-9.2-4-13.7-2.6-5.3-1.7-15.9-8.1-18.8-17.2-7.8-36.1,2.4-53.3-12.7-6.7-5.9-11.1-13.1-20-16.7-14-5.6-29.1.7-42.5-4.2-5.6-2-15.6-4.9-19.1-10-4.4-6.4-11-20.6-18.8-23.6-6.8-2.7-15.5-2.4-22.6-2.7-20.1-.8-40.5-2.3-59.9-8.1-22.1-6.6-41.2-34.9-64.5-34.2-22.9.7-51.5,9.3-63.4,31-4.1,7.5-5.3,18.9-13.1,24.3-10.3,7.1-29.1,3.1-39-3.5-6.4-4.3-9-13.7-18.6-12.8-22.3,2.2-44.4,34.9-66.2,42-3.6,1.2-6.6.3-9.5-.9V3.7H1400.2v120c-10.6-3-24.6-8.5-29.7-9.8-27.6-7.1-61.4-24.1-89.4-25.3-34.3-1.4-62.1,21.3-95.6,26.6-25,4-51.1-7.1-75.7-2.6-17.1,3.1-21.7,21.9-36.5,26.8-9.9,3.3-19.4-1.7-29.3-1.7-13.4,0-30.8,6.6-44.1,9.4-14.5,3.1-33.3,5.5-46.9,11.5s-28.3,15.8-42.9,19c-13.5,3-24.5,13.5-38.1,15.9-12.7,2.3-36.8,3.8-46.5,12.9-7.2,6.7-3.8,24.3,5.5,27.8,18.4,6.9,42.5.9,61.9,2.5a632.79,632.79,0,0,1,88.6,13.9c19,4.4,37,16.7,56.6,17.5,21.8.9,43.6-7.9,65.7-7,17.6.7,30.6,15.4,48.2,15,4.3-.1,9.1-2.1,13.5-3.8-4.1,3.2-8.2,6.5-12.5,9.6-6,4.5-11.4,10.5-18.8,13-20.6,6.9-44.5,7-64.4,15.3-11.8,5-22.4,12.8-34.1,18.4-5.3,2.5-31,20.1-21.6,27.7,3.2,2.6,8.3,2.4,12.1,3.6,8.1,2.6,17.4,6.5,26.1,6.9,23.4,1,47.3-6.3,70.7-6.3,14.3,0,28.3,4.7,42.4,6.7,28.1,4,56.3,7.4,84.5,11.4a190.56,190.56,0,0,0,48.9.7c7.7-1,15.3-3.6,23.2-3.6,12,0,22.2,9.4,33.5,12.3,6.3,1.6,13-1.4,19.2-2.3,8.2-1.2,17.3-1.4,25.7-2.6V542.9c-3.3-1.2-6.9-2.1-10.1-3.7-1.1-.5-12.6,3.9-13.6,4.7-8,5.6-17.5,9.8-24.4,16.9-1.8,1.9-5.2,4.7-6,7.5-1,3.7,1.9,12.3,4.3,15.3s5.8,5,7.8,8.6c.8,1.5,2.6,5.4,2.4,7.1-.7,5.5-1.4,11-3.5,16.1-1.2,3-3.8,5.1-6,7.5-1.8,1.9-5.4,5.3-8.3,5.6l-.4.4c-4-4.1-9.1-6.7-14.9-6.6h0c-.2-1.9-.6-15.1-2.4-15.5-3.9-.8-12.5,5.3-13.4-2.2-.6-5.5,4.7-11.7,6-16.9.4-1.7,1.6-6.4-1.3-6.7-6.2-.5-13.1,5.7-17.9,8.8-.9.6-5.4,4.3-7,3.4-2-1.2-.5-5.2-.2-6.8.8-4.8,3.9-23.5-4.7-23.6-9.8-.1-17.8,6.3-24.9,12.2-2.3,1.9-5.5,8-8.5,8.3-3.9.4-9.3-7.5-11.6-9.7-6.5-6.3-2.3-19.8-5.1-28.7-.5-1.7-7.1-4.5-12.9-5.2a15.48,15.48,0,0,0-10.1,2.4c-2,.9-3.6,2.6-5.4,3.7-12.9,8.4-19.9,13.3-23.5,29.9-1.3,6.3-2.2,12.8-3.1,19.2-.2,1.8-.3,5.5-1.3,7.5-2,4.3-6.5-3.8-6.9-5.5s.2-8.9-2.1-9.2c-.6-.1-1.5.7-2.3,1.8l-1.1-.6c0-2.7-1.3-7.1-3.9-8.4-1.2-.6-2.9-.3-3.9-1.3-1.5-1.5-3.5-4.6-5.8-5.2-1.1-.3-2.9-.2-3.9-.6-4.6-2.3-6.6-9.1-11.6-11.6-7.8-3.9-17.3-1.8-23.9-8.4-3-3-8.1,1.3-9,5.2-1.9,7.6-.4,16.8-12.3,14.9-4.3-.7-6.5-10.1-9-13.6a33.35,33.35,0,0,0-6.5-6.5c-3.7-2.7-7.8-.8-11.6,0s-9.2-.7-12.9-1.3c-2.9-.5-5.1-2.8-7.7-3.9-2.9-1.2-6.4-1.5-9-2.6s-4.9-4.1-7.1-5.8c-4-3-12.1-4.4-16.8-3.2-3.2.8-8,5.4-10.3,7.7-2.8,2.8.2,9.7-2.6,14.2-1.9,3.2-6.5,6.6-6.5,10.3l-.8.8-2.4-2.4v-.9l-11.4.2L946,530.2l-.9-1.1h-9.6V528l-30-37-.1-1.1-8.4.3v-.4l-38.5-42-.6-.9-8.2-.1v-1.3l-36.1-38.8-1.4-.1,1.1-21.8.5-10.2.5-10.5.6-11.7L657.8,330.5Z" transform="translate(1000.4 0.4)" fill="#afd8ca"/>
    <path d="M386.4,279.1c10,5.2,24.1,2.4,34,6.9,7.5,3.4,7.3,14.6,12.2,20.3,3.7,4.2,9.5,8.3,9.6,14.7.3,20.1-48,11-61.1,10.4-8-.3-15.8-3.8-23.7-4.4-38.3-2.7-80.5,7.5-117.7,16-19.6,4.5-40.1-2.3-59.8,3.5-7.9,2.3-14.6,7.7-22.7,9.6-13.9,3.2-32.5-1.1-46.7-1.3-8.1-.1-17.9,5.7-25.9,7.5-9.3,2.1-24.3,1.1-34.1,1-15.9-.3-31.3,7.8-48.5,6.1V265.8H3.4c.4-2.2,4.1,4.1,5.4,6,2.8,4,9.8,9.2,15.3,7.1,7-2.6,10.1-11.2,15.2-16,5-4.6,17.7-11.2,24.1-13.6,8.1-3,15.9,8,23.5,5.8,7.3-2.1,4.3-16.4,19.6-16.6s27.8,12.1,42.3,9.2c14-2.8,24.2-16.2,39-15.9,6.8.1,20.6,3.5,26.1,7,7.1,4.5,12.5,10.7,21.9,10.5,14.2-.2,28.9-8.6,43.1-2.9,7.6,3,7.4,11.5,17.1,13.2,10.7,2,18.7-4.1,29-4.8,18.1-1.2,44.2,7.5,56.2,20.4A23.57,23.57,0,0,0,386.4,279.1Z" transform="translate(1000.4 0.4)" fill="#fff"/>
    <path d="M1400.8,123.7V274.8a16.76,16.76,0,0,1-3.7.6c-18.3,1-33.5,6.5-52.1,3.9-47.4-6.8-92.1-45.3-142.4-28.5-13.9,4.6-25.4,13-36.7,21.7-4.4,1.7-9.2,3.7-13.5,3.8-17.5.4-30.6-14.3-48.2-15-22.1-.9-44,7.9-65.7,7-19.6-.8-37.6-13.1-56.6-17.5a647.84,647.84,0,0,0-88.6-13.9c-19.4-1.6-43.5,4.4-61.9-2.5-9.2-3.5-12.6-21.1-5.5-27.8,9.6-9.1,33.8-10.5,46.5-12.9,13.6-2.5,24.6-13,38.1-15.9,14.6-3.2,29.2-12.9,42.9-19s32.4-8.5,46.9-11.5c13.3-2.8,30.7-9.4,44.1-9.4,10,0,19.4,5,29.3,1.7,14.8-4.9,19.4-23.7,36.5-26.8,24.6-4.5,50.7,6.6,75.7,2.6,33.5-5.3,61.3-28.1,95.6-26.6,28,1.2,61.8,18.2,89.4,25.3C1376.2,115.2,1390.2,120.7,1400.8,123.7Z" transform="translate(1000.4 0.4)" fill="#fff"/>
    <path d="M1165.9,272.6c11.3-8.8,22.7-17.1,36.7-21.7,50.3-16.8,95,21.7,142.4,28.5,18.7,2.7,33.8-2.9,52.1-3.9a25.83,25.83,0,0,0,3.7-.6V383.6c-8.5,1.3-17.5,1.4-25.7,2.6-6.2.9-12.9,3.9-19.2,2.3-11.3-2.9-21.4-12.3-33.5-12.3-7.8,0-15.4,2.7-23.2,3.6a190.49,190.49,0,0,1-48.9-.7c-28.2-4-56.4-7.4-84.5-11.4-14.1-2-28.2-6.7-42.4-6.7-23.4,0-47.3,7.2-70.7,6.3-8.7-.4-17.9-4.3-26.1-6.9-3.8-1.2-8.9-1-12.1-3.6-9.4-7.7,16.3-25.2,21.6-27.7,11.6-5.6,22.3-13.4,34.1-18.4,19.9-8.4,43.8-8.5,64.4-15.3,7.5-2.5,12.8-8.5,18.8-13C1157.6,279,1161.7,275.8,1165.9,272.6Z" transform="translate(1000.4 0.4)" fill="#fff"/>
  </g>
</svg>
