<?xml version="1.0" encoding="utf-8"?>
<!-- Generator: Adobe Illustrator 24.0.2, SVG Export Plug-In . SVG Version: 6.00 Build 0)  -->
<svg version="1.1" id="Layer_1" xmlns:vectornator="http://vectornator.io"
	 xmlns="http://www.w3.org/2000/svg" xmlns:xlink="http://www.w3.org/1999/xlink" x="0px" y="0px" viewBox="0 0 1400 1400"
	 style="enable-background:new 0 0 1400 1400;" xml:space="preserve">
<style type="text/css">
	.st0{display:none;}
	.st1{opacity:0.235;}
	.st2{display:none;fill:none;stroke:#000000;stroke-width:3;}
	.st3{fill:#8E7D6E;}
	.st4{fill:#9AB245;}
	.st5{fill:#A2A189;}
	.st6{fill:#64BADA;}
	.st7{fill:#E2E2E2;}
	.st8{fill:#F0DDC9;}
	.st9{fill:#BFB2A5;}
	.st10{fill:none;stroke:#000000;stroke-width:8;stroke-linecap:round;}
	.st11{fill:none;stroke:#000000;stroke-width:8;stroke-linecap:round;stroke-linejoin:round;}
	.st12{fill:none;stroke:#000000;stroke-width:8.5947;stroke-linecap:round;stroke-linejoin:round;}
	.st13{display:inline;fill:none;stroke:#000000;stroke-width:8;stroke-linecap:round;}
	.st14{display:inline;fill:none;stroke:#000000;stroke-width:8;stroke-linecap:round;stroke-linejoin:round;}
	.st15{display:inline;fill:none;stroke:#000000;stroke-width:8.5947;stroke-linecap:round;stroke-linejoin:round;}
	.st16{display:none;fill:#9B9B9B;}
	.st17{display:none;fill:#797979;}
</style>
<g id="Layer_1_1_" vectornator:layerName="Layer_1">
	<path class="st0" d="M1204.4,457.9c1.9,0,1.9-3,0-3C1202.5,454.9,1202.5,457.9,1204.4,457.9L1204.4,457.9z"/>
</g>
<image style="display:none;overflow:visible;enable-background:new    ;" width="907" height="680" id="Image" xlink:href="9C237F84.jpeg"  transform="matrix(1.4532 0 0 1.4538 45.1567 110.6)">
</image>
<g id="Outlines" vectornator:layerName="Outlines" class="st1">
	<path class="st2" d="M107.5,417.5c0-152.4,271.5-276,606.5-276c335,0,606.5,123.6,606.5,276s-271.5,276-606.5,276
		C379,693.5,107.5,569.9,107.5,417.5z"/>
	<path class="st2" d="M107.5,417.5l-70,558L107.5,417.5z"/>
	<path class="st2" d="M1320.5,417.5l51,571c0,0-508.3,25.9-671,26c-171.7,0.1-663-39-663-39"/>
	<path class="st2" d="M74.8,677.7c0,0,126.8-78.7,177.7-91.2c108.4-26.6,340.4-63,452-63c116,0,334.5,3.1,439.6,30.6
		c50.8,13.3,199.4,74.4,199.4,74.4"/>
	<path class="st2" d="M52,852.4c0,0,149.3-44,200.5-51.9c114.3-17.7,346.3-25.6,462-25c109.2,0.5,327.9,12,436,28
		c53.2,7.9,209.5,48.9,209.5,48.9"/>
	<path class="st2" d="M94,508.3c0,0,144.3-73.7,192.5-90.8c103.6-36.6,303.4-72.8,413-72c109.2,0.8,366.4,38.3,469.9,74
		c48.4,16.7,159.6,88.8,159.6,88.8"/>
	<path class="st2" d="M742.8,770.8l-65.7-249.2l-64.9,2.4l-35.6-171.7h-22.9l-97.3-191.4"/>
</g>
<g id="Draw_lines_1_" vectornator:layerName="Draw lines">
	<g id="XMLID_1_">
		<g>
			<polygon class="st3" points="1084.3,607.2 1085.3,636.7 1068.7,636.7 1068.7,605 			"/>
			<path class="st4" d="M62.2,971.9c0,0,249.5,28.2,429.3,34.9s336.7,5.5,336.7,5.5l152.7,64.9H62.2V971.9z"/>
			<path class="st5" d="M638.8,986.2c15.3,0.3,30.7,0.5,46.1,0.7c11.2,0.1,22.5,0.2,33.7,0.2c13.2,0,26.3,0,39.4-0.2
				c16.6-0.2,33-0.4,49.4-0.7c15.1-0.3,30.1-0.7,44.9-1.2c6.7-0.2,13.4-0.4,20.1-0.7c10-0.4,20-0.7,29.8-1.1
				c13.1-0.5,26-1.1,38.7-1.7c8.8-0.4,17.5-0.9,26.1-1.3c18.9-1,37.2-2.1,55-3.2c14.6-0.9,28.7-1.9,42.4-2.9
				c36.2-2.6,69.2-5.3,97.8-7.8c38.3-3.4,68.9-6.5,89.5-8.8c4.5-0.5,8.5-0.9,12.1-1.3c10.1-1.1,16-1.8,17.1-2c0.1,0,0.2,0,0.2,0
				l2-0.2l-5.8-69.6l56.6-2h1.5v93.2c0,0-80,20.2-149.3,25.7c-69.3,5.5-194,7.3-194,7.3l287.6,68.6H980.9l-152.7-64.9
				c0,0-156.9,1.1-336.7-5.5S62.2,971.9,62.2,971.9v-87.5l58.5-2l-5.1,70.8l0.5,0c0,0,4.6,0.5,13.3,1.4c4.9,0.5,11.2,1.1,18.6,1.8
				c3.8,0.4,7.9,0.8,12.4,1.2c5.7,0.5,11.9,1.1,18.6,1.8c3.7,0.3,7.4,0.7,11.4,1c8.4,0.8,17.4,1.6,27,2.4c6.3,0.5,12.8,1.1,19.6,1.7
				c11.2,0.9,23.1,1.9,35.6,2.9c5.4,0.4,10.9,0.8,16.5,1.3c0.3,0,0.6,0.1,0.9,0.1c11.5,0.9,23.5,1.8,35.9,2.7
				c4.3,0.3,8.6,0.6,13,0.9c10.6,0.7,21.4,1.5,32.5,2.2c10.1,0.7,20.3,1.3,30.7,1.9c7.5,0.5,15.1,0.9,22.9,1.4
				c12.7,0.7,25.6,1.4,38.7,2.1c5.1,0.3,10.3,0.5,15.5,0.8c14.2,0.7,28.7,1.4,43.3,2c15.8,0.7,31.8,1.3,48,1.8
				c5,0.2,9.9,0.3,14.9,0.5C603,985.4,620.9,985.8,638.8,986.2z"/>
			<path class="st4" d="M1185.9,1001.3c69.3-5.5,149.3-25.7,149.3-25.7v101.6h-55.6L992,1008.6
				C992,1008.6,1116.6,1006.8,1185.9,1001.3z"/>
			<path class="st3" d="M1046.4,974.8l17.8-1.6l0,0.7c-13.7,1-27.8,1.9-42.4,2.9l-0.1-1.3l-1.4-78.9c0,0,1.9-14.1,8.2-22.5l0.9,0.5
				c16.1,2.9,15.9,28.9,15.9,28.9L1046.4,974.8z"/>
			<path class="st6" d="M673.8,571.7l-1.6-0.6l-9.5-2l-8.3-1.7l-38.5-104.2l-17.5-47.4l-18.5,3.3l-87-155.3L474,253.1l-1.4,0.8
				l-0.6-1.1l-2.7-0.1c-20.9,6.4-126.9,40-194.5,85.4C199.6,388.6,172,453.8,172,453.8l0,0l7.7,11.9l-0.3,2L161.9,588l0,0
				c-14.5,17.5-15.3,21.1-17.5,32.2c-2,10.2,0.8,20.2,1.8,23.3c0.1,0.4,0.2,0.7,0.3,0.9l0.6,57.3l0.1,0.1
				c-14.4,11.1-18.2,19.8-19.1,28.7c-0.1,0.9-0.2,1.8-0.2,2.8c-0.5,8.7,4.6,17.9,5.8,20c0.2,0.3,0.3,0.4,0.3,0.4l0.5,0.4l-7.9,92.4
				l0.1,0.3c-6.6,2.9-10.4,5.6-10.9,7.6c-0.6,2.8,3.9,6.2,6,7.7c0.3,0.2,0.6,0.4,0.8,0.5l-0.5,0.8l-1.4,19l-58.5,2V277.8
				c17.5,3.2,33-5.5,48.9-5.2c9.2,0.2,23.2,1.1,31.9-0.9c7.5-1.7,16.7-7.2,24.2-7c13.3,0.2,30.6,4.2,43.7,1.3
				c7.6-1.7,13.8-6.8,21.2-8.9c18.4-5.3,37.6,0.9,56-3.2c34.7-7.9,74.3-17.5,110.1-14.9c7.4,0.5,14.8,3.8,22.2,4.1
				c12.3,0.5,57.5,9,57.2-9.8c-0.1-6.1-5.5-9.8-8.9-13.8c-4.6-5.3-4.3-15.8-11.4-19c-9-4.1-21.6-1.8-30.8-5.9
				c2.2-1.5,3.3-4.1,6.6-4.3c24.5-1.6,49.8,1.2,75-0.4c6.8-0.4,30.6-1.5,34.1-9.3c2.3-5.1-1.6-8.6-3.7-12.8
				c-2.5-4.9-1.6-14.9-7.6-17.6c-16.1-7.3-33.8,2.3-49.8-11.8c-6.3-5.6-10.4-12.3-18.8-15.6c-13.1-5.2-27.2,0.6-39.8-3.9
				c-5.2-1.9-14.6-4.6-17.9-9.4c-4.1-6-10.3-19.2-17.5-22.1c-6.3-2.5-14.5-2.3-21.1-2.5c-18.8-0.7-37.9-2.1-56-7.6
				c-20.7-6.2-38.5-32.6-60.3-32c-21.4,0.6-48.2,8.7-59.3,29c-3.8,7-5,17.7-12.3,22.7c-9.6,6.6-27.2,2.9-36.5-3.3
				c-6-4-8.4-12.8-17.4-12c-20.8,2-41.5,32.6-61.9,39.3V28.1h1273v183.1c-25.8-6.7-67-23.6-93.2-24.7c-32.1-1.3-58.1,19.9-89.4,24.9
				c-23.4,3.7-47.9-6.6-70.8-2.4c-16,2.9-20.3,20.5-34.2,25.1c-9.3,3.1-18.1-1.6-27.4-1.6c-12.5,0-28.8,6.2-41.3,8.8
				c-13.6,2.9-31.2,5.2-43.9,10.8c-12.8,5.7-26.5,14.8-40.2,17.8c-12.7,2.8-22.9,12.6-35.7,14.9c-11.9,2.2-34.5,3.6-43.5,12
				c-6.7,6.3-3.5,22.8,5.1,26c17.2,6.5,39.7,0.9,57.9,2.4c27.5,2.3,55.9,6.8,82.9,13c17.8,4.1,34.6,15.6,52.9,16.4
				c20.4,0.9,40.8-7.4,61.5-6.5c16.4,0.7,28.7,14.5,45,14.1c4-0.1,8.5-2,12.6-3.5c-3.8,3-7.7,6-11.6,9c-5.6,4.2-10.6,9.9-17.6,12.2
				c-19.3,6.4-41.7,6.5-60.3,14.3c-11,4.6-21,12-31.9,17.2c-5,2.4-29,18.8-20.2,25.9c3,2.4,7.8,2.3,11.3,3.4
				c7.6,2.4,16.3,6.1,24.4,6.4c21.9,0.9,44.2-5.9,66.1-5.9c13.4,0,26.5,4.4,39.7,6.3c26.3,3.8,52.7,6.9,79,10.7
				c14.6,2.1,31.1,2.5,45.8,0.6c7.2-0.9,14.3-3.4,21.7-3.4c11.3,0,20.8,8.8,31.3,11.5c5.9,1.5,18-2.5,23.8-3.3v418.7h-1.5l-56.6,2
				l-0.7-8.7c1.8-1,6.2-3.9,5.9-7c-0.1-1.1-3.7-2.8-8.8-4.7l1.8-0.3l-26.7-191.7c0,0-17.9-26.2-57.3-45.7
				c-39.4-19.5-100.3-32.4-100.3-32.4s-48.1-10.3-115.4-17c-67.3-6.7-153.9-9.6-153.9-9.6l-6.4,38.1l0.1,2.3L702,611.7L691.3,578
				L673.8,571.7z"/>
			<path class="st7" d="M1133.7,358.7c10.6-8.2,21.3-16,34.3-20.4c47.1-15.7,122.9,17.6,167.2,23.9v101.4
				c-5.8,0.9-17.9,4.9-23.8,3.3c-10.5-2.7-20-11.5-31.3-11.5c-7.3,0-14.5,2.5-21.7,3.4c-14.7,1.8-31.2,1.4-45.8-0.6
				c-26.3-3.8-52.8-6.9-79-10.7c-13.2-1.9-26.3-6.3-39.7-6.3c-21.9,0-44.2,6.8-66.1,5.9c-8.1-0.3-16.8-4-24.4-6.4
				c-3.5-1.1-8.3-0.9-11.3-3.4c-8.8-7.2,15.2-23.6,20.2-25.9c10.9-5.2,20.8-12.6,31.9-17.2c18.6-7.8,41-7.9,60.3-14.3
				c7-2.3,12-8,17.6-12.2C1126,364.7,1129.9,361.7,1133.7,358.7z"/>
			<path class="st7" d="M1335.2,211.2v151c-44.3-6.3-120.1-39.6-167.2-23.9c-13.1,4.4-23.8,12.1-34.3,20.4
				c-4.1,1.6-8.6,3.5-12.6,3.5c-16.4,0.4-28.6-13.4-45-14.1c-20.7-0.9-41.2,7.4-61.5,6.5c-18.3-0.8-35.1-12.3-52.9-16.4
				c-26.9-6.2-55.4-10.7-82.9-13c-18.2-1.5-40.7,4.1-57.9-2.4c-8.6-3.3-11.8-19.7-5.1-26c9-8.5,31.6-9.9,43.5-12
				c12.7-2.3,23-12.1,35.7-14.9c13.7-3,27.3-12.1,40.2-17.8c12.7-5.6,30.3-7.9,43.9-10.8c12.5-2.6,28.7-8.8,41.3-8.8
				c9.3,0,18.1,4.6,27.4,1.6c13.9-4.6,18.2-22.2,34.2-25.1c23-4.2,47.4,6.2,70.8,2.4c31.3-4.9,57.3-26.2,89.4-24.9
				C1268.2,187.6,1309.4,204.6,1335.2,211.2z"/>
			<path class="st8" d="M517.8,870c-3.7-6.2-9.5-11.7-18.7-12.3c-32.8-2-34.2,32.9-34.2,32.9l-1.2,87.8l-0.1,1.3
				c-13.1-0.7-26-1.4-38.7-2.1l1.5-87.2c0,0,0-12.2-7.3-21.3c-3.9-4.9-9.9-8.8-19.1-9.5c-21.2-1.6-26.2,32.9-26.2,32.9l-2.4,81.6
				l0,0.3c-11.1-0.7-21.9-1.5-32.5-2.2l0-0.3l5.1-80.6c0,0-0.2-7.7-4.7-14.7c-3.3-5.2-9-9.9-18.6-10.6
				c-20.9-1.5-25.6,23.4-25.6,23.4s-5.2,60.9-6,78.6l0,0.6c-5.6-0.4-11.1-0.8-16.5-1.3l0-0.3l2.5-77.4c0,0,0.5-22.9-17.4-23.4
				c-14.4-0.4-18.2,22.3-18.2,22.3l-2.4,75.8l0,0.3c-6.8-0.6-13.3-1.1-19.6-1.7l1.4-75.8c0,0-0.1-17.2-10.3-17.5
				c-9.4-0.3-13.3,23.9-13.3,23.9l-4.8,66.8l0,0.3c-3.9-0.4-7.7-0.7-11.4-1l0-0.2l3.9-60.8c0,0,0.3-19.9-6-24.5
				c-7.9-5.8-12.5,23-12.5,23s-2.7,48.6-4,60.8c-4.4-0.4-8.6-0.8-12.4-1.2v0l3.3-60.5c0,0,0.6-12.9-5.6-17.5
				c-7.9-5.9-10.9,18.8-10.9,18.8s-4.1,45-5.4,57.5c-8.7-0.9-13.3-1.4-13.3-1.4l-0.5,0l5.1-70.8l1.4-19l0.5-0.8
				c-0.2-0.1-0.5-0.3-0.8-0.5l2-0.2c0,0,287.9-46.6,575.1-42.7c287.2,3.9,575,56.1,575,56.1l1.7,0.8c0,0,0.3-0.1,0.8-0.4l0.7,8.7
				l5.8,69.6l-2,0.2l-0.2,0l-17.1,1.5l-2.5-59.8c0,0-2-13.6-6.5-14.3c-3.2-0.5-4.6,12.6-4.6,12.6l1.5,62.5l-17.1,1.5l-3.1-65.5
				c0,0-2.5-10.6-6.7-12.3c-4.2-1.7-7.4,11.9-7.4,11.9l2.2,67.2l-15.2,1.3l-0.1-1.2l0.7-61.1c0,0,0.2-20-14.8-20
				c-11.3,0-9.9,17.2-9.9,17.2l0.5,67.2l-18.6,1.6l-0.4-63.7c0,0,0.8-20.8-14.1-21.9c-8.1-0.6-11.4,5.3-12.7,11
				c-1.2,5.2-0.7,10.3-0.7,10.3l-0.6,66.7l0,0.1l-18.6,1.6l0-0.4l-3.5-81.1c0,0-0.8-17.9-15.7-19.1c-8.4-0.6-13.2,5.4-15.8,11
				c-2.2,4.7-2.9,9.2-2.9,9.2l0.2,83.5l0,0.3l-12.8,1.1l-3.5-77.6c0,0-5.9-26.5-20.8-27.6c-4.8-0.4-8.5,2.3-11.3,6
				c-6.3,8.4-8.2,22.5-8.2,22.5l1.4,78.9l0.1,1.3c-17.8,1.1-36.1,2.2-55,3.2v0l-2.8-90.5c0,0-1.6-20.1-36.4-23.3
				c-27.9-2.5-28.5,25.8-28.5,25.8l0,0.5l2.9,90l0,0.5c-9.8,0.4-19.8,0.8-29.8,1.1l-3.1-89.5c0,0,0.2-25.3-34.7-28.5
				c-27-2.4-31.2,29.7-31.5,32c0,0.1,0,0.1,0,0.1l4.2,86.4l0,1.3c-16.3,0.3-32.8,0.6-49.4,0.7l0-0.8l-1.8-91.2c0,0,5.5-42-36.1-43.5
				c-38.1-1.4-37,46.3-37,46.3l1.8,88.8v0.5c-15.3-0.1-30.7-0.4-46.1-0.7l3.5-90.4c0,0,0.8-6.6-1.5-14c-2.9-9.5-10.9-20.3-32.1-19.6
				c-35.5,1.1-36.4,34.5-36.4,34.5l-1.9,87.7c-16.1-0.5-32.1-1.1-48-1.8l0-0.4l1.4-93.3C523.8,888.8,522.9,878.7,517.8,870z"/>
			<path class="st9" d="M1072.5,815.2c7.5,1,14.2,1.9,20.1,2.8c5.7,0.8,10.7,1.6,15.1,2.3c33.7,5.3,35.8,7.6,64.5,13.5
				c0.1,0,0.1,0,0.2,0c2.1,0.4,3.9,0.8,5.7,1.2c10.2,2.1,15.3,3.3,18.6,4.1c4.8,1.3,5.6,1.8,13,4c2.2,0.6,4.9,1.4,8.5,2.3
				c4.2,1.1,7.5,2,10.1,2.8c13.2,4.1,8.4,4.7,8.8,4.7c0.1,0,9.7,2.6,20,5.7c5.7,1.7,11.6,3.6,16.3,5.3c5.1,1.9,8.7,3.6,8.8,4.7
				c0.3,3.1-4.1,5.9-5.9,7c-0.5,0.3-0.8,0.4-0.8,0.4l-1.7-0.8c0,0-287.7-52.1-575-56.1c-287.2-3.9-575.1,42.7-575.1,42.7l-2,0.2
				c-2.2-1.5-6.6-4.8-6-7.7c0.4-2.1,4.2-4.7,10.9-7.6c5.2-2.3,12.1-4.8,20.4-7.4c18.9-6,24.5-8.1,58.1-12.9
				c33.6-4.8,30.9-5.6,91-12.6c60.1-7,46.4-5.6,135.6-11.3c89.1-5.7,110.8-9.9,220.9-11.6c36-0.6,60.9-0.9,81.6-0.9
				c42.6,0,68,1.5,138,5.6c31,1.8,54.6,3.4,74.3,4.9c12.7,1,23.9,2.1,34.4,3.1c3.4,0.4,6.7,0.7,10,1.1c8.2,0.9,16.3,1.9,24.6,3
				c8.5,1.1,17.3,2.3,27,3.6c3.6,0.5,7.2,1,11.1,1.5c5,0.7,10.2,1.4,15.8,2.1C1070.5,815,1071.5,815.1,1072.5,815.2z"/>
			<path class="st8" d="M1030.6,705.3l15.2,1.4l1.3-36.1c0,0-3.3-11.5-16.1-12.5c-17.2-1.4-19.9,5.7-19.9,5.7l0,3.2l-0.1,36.4
				L1030.6,705.3z M889.6,611.8l-0.7-6.9l-73.7,2.7l-0.1-2.3l6.4-38.1c0,0,86.6,3,153.9,9.6c67.3,6.7,115.4,17,115.4,17
				s60.9,12.9,100.3,32.4c39.4,19.5,57.3,45.7,57.3,45.7l26.7,191.7l-1.8,0.3c-4.7-1.7-10.6-3.6-16.3-5.3c-10.3-3.1-19.9-5.7-20-5.7
				c-0.5-0.1,4.3-0.6-8.8-4.7l0-0.1l-3.9-76.1c0,0-2.6-16-6.8-17.7c-4.2-1.7-6.1,18.3-6.1,18.3l0.6,69.5l-2.4,1
				c-7.4-2.1-8.2-2.7-13-4l0.3-1l-4.6-75.2c0,0-0.8-15-9.2-17.5c-4.2-1.3-6.8,1.8-8.5,5.7c-2.1,5-2.5,11.2-2.5,11.2l0.1,71.2
				l-0.1,0.3c-28.7-5.9-30.8-8.2-64.5-13.5l0.1-0.7l-2.1-69.9c0,0-4.3-21.3-19.1-22.4c-5.1-0.4-8.7,1.8-11.3,4.9
				c-5.2,6.3-6.1,16.5-6.1,16.5l3.3,66.6c-1-0.1-2.1-0.3-3.1-0.4c-5.5-0.7-10.8-1.4-15.8-2.1l0-0.3l-1.7-71.7c0,0-1.8-18.5-18.3-20
				c-7.1-0.6-11.5,1.3-14.2,4.3c-5.7,6.3-3.7,17.1-3.7,17.1l0.1,63.2l-0.3,2.2c-8.4-1.1-16.4-2.1-24.6-3l0.2-1.7l-1.6-70
				c0,0-4.8-22.5-19.7-23.6c-5.3-0.4-9.5,2.4-12.8,6.2c-6.2,7.3-8.9,18.4-8.9,18.4l-1.6,65.5l-0.1,1c-19.7-1.6-43.2-3.1-74.3-4.9
				c-70.1-4-95.4-5.5-138-5.6v-0.2l-8.1-29.3l29,0.1l7.2,0l-7.9-58.1c0,0-1.4-15.7-25.5-16.1c-14.7-0.2-19.4,8.4-20.4,10.7
				l-16.6-59.9l1.7-0.5l197.3-5.9l0.5,0L889.6,611.8z M792.4,721.6l-0.3,40.6l43.9,1.2l28.3,0.8l0.2-57.7c0,0-3-26.4-32.8-28.1
				c-31.8-1.9-39.1,24.2-39.1,24.2L792.4,721.6z M1235.9,686.5l-0.5-19.5l-3.1-1.3v21.9L1235.9,686.5z M1220,677.3l-0.1-22.7l-6.7-3
				v27L1220,677.3z M1209,734.8l-1.1-25.9c0,0,1.5-10.3-5.9-11.3c-9.3-1.3-9.1,8-9.1,8l1.3,24.5L1209,734.8z M1171.3,674.9
				l-0.6-39.6l-11.6-4.7l0.3,42.4L1171.3,674.9z M1085.3,636.7l-0.9-29.5l-15.7-2.2v31.7H1085.3z M969,627.6v-35.5h-18.9v35.5H969z"
				/>
			<path class="st9" d="M1261.2,895.9l2.5,59.8l-12.1,1.1l-1.5-62.5c0,0,1.4-13.1,4.6-12.6C1259.1,882.3,1261.2,895.9,1261.2,895.9z
				"/>
			<path class="st9" d="M1231.4,892.7l3.1,65.5l-15,1.3l-2.2-67.2c0,0,3.2-13.6,7.4-11.9C1228.8,882.2,1231.4,892.7,1231.4,892.7z"
				/>
			<path class="st9" d="M1224.3,772l3.9,76.1l0,0.1c-2.6-0.8-5.9-1.8-10.1-2.8c-3.6-0.9-6.3-1.7-8.5-2.3l2.4-1l-0.6-69.5
				c0,0,2-20,6.1-18.3C1221.7,756,1224.3,772,1224.3,772z"/>
			<polygon class="st3" points="1219.9,654.6 1220,677.3 1213.2,678.7 1213.2,651.7 			"/>
			<path class="st3" d="M1207.9,708.9l1.1,25.9l-14.8-4.7l-1.3-24.5c0,0-0.2-9.3,9.1-8C1209.4,698.6,1207.9,708.9,1207.9,708.9z"/>
			<path class="st9" d="M1190.1,878.7c14.9,0,14.8,20,14.8,20l-0.7,61.1l0.1,1.2l-23.6,2.1l-0.5-67.2
				C1180.2,895.8,1178.8,878.7,1190.1,878.7z"/>
			<path class="st9" d="M1192.4,762.8l4.6,75.2l-0.3,1c-3.3-0.9-8.3-2-18.6-4.1l0.2-0.9l-3.2-82.8l-0.4-0.2c1.6-3.9,4.2-7,8.5-5.7
				C1191.6,747.9,1192.4,762.8,1192.4,762.8z"/>
			<polygon class="st3" points="1170.7,635.3 1171.3,674.9 1159.3,673 1159.1,630.6 			"/>
			<path class="st9" d="M1161.6,900.9l0.4,63.7l-18.3,1.6l0-0.1l-4.2-65.5c0,0-1-9.9-4.8-10.7l-0.1,0c1.3-5.7,4.6-11.6,12.7-11
				C1162.4,880.2,1161.6,900.9,1161.6,900.9z"/>
			<path class="st3" d="M1143.8,966.2L1143.8,966.2l-10.3,1l0-0.1l0.6-66.7c0,0-0.5-5.1,0.7-10.3l0.1,0c3.8,0.8,4.8,10.7,4.8,10.7
				L1143.8,966.2z"/>
			<path class="st9" d="M1114.8,968.4l0,0.4l-21.4,1.9l0-0.3l-5-78.9c0,0-0.2-9.7-8.1-12.1l-0.5-0.1c2.6-5.6,7.4-11.6,15.8-11
				c14.9,1.2,15.7,19.1,15.7,19.1L1114.8,968.4z"/>
			<path class="st9" d="M1105.7,749.7l2.1,69.9l-0.1,0.7c-4.4-0.7-9.4-1.4-15.1-2.3l-0.6-65.5c0,0,1.9-4.4-8.1-15
				c-4.6-4.8-7.2-5.6-8.7-5.4c2.6-3.1,6.2-5.3,11.3-4.9C1101.4,728.4,1105.7,749.7,1105.7,749.7z"/>
			<path class="st3" d="M1093.4,970.3l0,0.3l-16.4,1.5l0-0.3l-0.2-83.5c0,0,0.7-4.4,2.9-9.2l0.5,0.1c7.9,2.4,8.1,12.1,8.1,12.1
				L1093.4,970.3z"/>
			<path class="st3" d="M1092.1,752.5l0.6,65.5c-5.9-0.9-12.6-1.8-20.1-2.8l-3.3-66.6c0,0,0.8-10.2,6.1-16.5
				c1.4-0.2,4.1,0.5,8.7,5.4C1093.9,748.1,1092.1,752.5,1092.1,752.5z"/>
			<path class="st9" d="M1060.7,895.7l3.5,77.6l-17.8,1.6l-1-71.4c0,0,0.2-26-15.9-28.9l-0.9-0.5c2.8-3.8,6.5-6.4,11.3-6
				C1054.8,869.2,1060.7,895.7,1060.7,895.7z"/>
			<path class="st9" d="M1047.2,670.6l-1.3,36.1l-15.2-1.4l1.1-26.2c0,0-2.4-12.6-19-12.1h-1.5l0-3.2c0,0,2.7-7.1,19.9-5.7
				C1043.8,659.2,1047.2,670.6,1047.2,670.6z"/>
			<path class="st3" d="M1042.5,747.6l0.3,62.4l-0.2,1.2c-9.7-1.3-18.5-2.5-27-3.6l0.3-2.2l-0.1-63.2c0,0-2-10.8,3.7-17.1l0.5,0.4
				c0,0,6.9-1,12.6,4.5C1038.2,735.5,1042.5,747.6,1042.5,747.6z"/>
			<path class="st3" d="M1031.7,679.1l-1.1,26.2l-19.6-1.8l0.1-36.4h1.5C1029.3,666.5,1031.7,679.1,1031.7,679.1z"/>
			<path class="st9" d="M989.5,733l1.6,70l-0.2,1.7c-3.3-0.4-6.6-0.7-10-1.1l0-0.1l-0.6-65.6c0,0-4.3-12.1-9.9-17.6
				c-5.6-5.5-12.6-4.5-12.6-4.5l-0.8-0.2c3.2-3.8,7.5-6.6,12.8-6.2C984.7,710.5,989.5,733,989.5,733z"/>
			<path class="st3" d="M980.4,737.8l0.6,65.6l0,0.1c-10.5-1.1-21.6-2.1-34.4-3.1l0.1-1l1.6-65.5c0,0,2.7-11.1,8.9-18.4l0.8,0.2
				c0,0,6.9-1,12.6,4.5C976.1,725.7,980.4,737.8,980.4,737.8z"/>
			<rect x="950.1" y="592.1" class="st3" width="18.9" height="35.5"/>
			<path class="st9" d="M966.8,980.1L966.8,980.1c-8.6,0.5-17.3,0.9-26.1,1.4l0-0.5l-2.3-82.4c0,0-0.8-14.3-18-16
				c-9.4-1-20.6,10.2-20.6,10.2l-0.8,0l0-0.5c0,0,0.6-28.3,28.5-25.8c34.8,3.2,36.4,23.3,36.4,23.3L966.8,980.1z"/>
			<path class="st3" d="M940.7,980.9l0,0.5c-12.7,0.6-25.6,1.2-38.7,1.7l0-0.5l-2.9-90l0.8,0c0,0,11.1-11.1,20.6-10.2
				c17.2,1.7,18,16,18,16L940.7,980.9z"/>
			<polygon class="st9" points="702,611.7 815.2,607.6 889,604.9 889.6,611.8 890.9,630.8 693.6,636.7 691.9,637.2 691.9,637.2 
				687.3,620.4 685,612.3 			"/>
			<path class="st9" d="M869.2,894.8l3.1,89.5c-6.7,0.2-13.3,0.4-20.1,0.7l0-0.3l-2.4-83.4c0,0-3.1-16.4-20.4-16.8
				c-17.4-0.3-24.7,10.8-26.3,13.8c0.3-2.3,4.5-34.4,31.5-32C869.4,869.5,869.2,894.8,869.2,894.8z"/>
			<path class="st9" d="M864.4,706.5l-0.2,57.7l-28.3-0.8l0-1.5l1.5-35.6c0,0-4.6-13-23.1-12.6c-15.1,0.3-20.5,5.7-22,7.8l0.1-19.1
				c0,0,7.3-26,39.1-24.2C861.4,680.2,864.4,706.5,864.4,706.5z"/>
			<path class="st3" d="M852.2,984.7l0,0.3c-14.8,0.5-29.8,0.8-44.9,1.2l0-1.3l-4.2-86.4c0,0,0,0,0-0.1c1.6-3,8.9-14.2,26.3-13.8
				c17.3,0.4,20.4,16.8,20.4,16.8L852.2,984.7z"/>
			<path class="st3" d="M837.5,726.5L836,762l0,1.5l-43.9-1.2l0.3-40.6c1.5-2.1,7-7.5,22-7.8C833,713.5,837.5,726.5,837.5,726.5z"/>
			<path class="st9" d="M754.4,702.5l7.9,58.1l-7.2,0v-0.4l-3.6-33.2c0,0-0.6-16.8-15.9-17.2c-14.4-0.4-17.7,17.2-18.1,19.6l-9-32.4
				c1-2.2,5.7-10.9,20.4-10.7C753,686.8,754.4,702.5,754.4,702.5z"/>
			<path class="st3" d="M757.9,986l0,0.8c-13.1,0.1-26.2,0.2-39.4,0.2c-11.2,0-22.4-0.1-33.7-0.2v-0.5l-1.8-88.8
				c0,0-1.1-47.6,37-46.3c41.5,1.5,36.1,43.5,36.1,43.5L757.9,986z"/>
			<path class="st3" d="M755.2,760.3v0.4l-29-0.1l-8.6-31c0.4-2.4,3.6-20,18.1-19.6c15.4,0.4,15.9,17.2,15.9,17.2L755.2,760.3z"/>
			<path class="st8" d="M468.7,772.5l12-0.7l50.2-2.7l-2.5-72c0,0-1-11.5-7.1-20.6c-3.7-5.4-9.2-10-17.6-10.5
				c-32.9-2-34.2,32.9-34.2,32.9l-0.9,72.9L468.7,772.5z M579.9,765.4l58.8-1.8l0.5-74.3c0,0,2.1-18.2-11-27.8
				c-5-3.7-12.2-6.1-22.7-5.8c-35.5,1.1-36.4,34.5-36.4,34.5l-1,75.5l0.2,0.1L579.9,765.4z M373.5,779.2l29.3-1.5l26.4-1.3
				l-0.7-70.3c0,0,0-10.1-5.5-18.8c-3.8-6-10.1-11.2-20.9-12c-21.2-1.6-26.2,32.9-26.2,32.9L373.5,779.2z M245.6,794.9h0.3l34-4.9
				l2.4-63.2c0,0,0.5-22.9-17.4-23.4c-14.4-0.5-18.2,22.3-18.2,22.3L245.6,794.9z M295.6,787.1l38.2-4.5l12.9-1.5l1.5-65
				c0,0-0.2-7.4-4.3-14.2c-3.3-5.4-9-10.4-18.9-11.1c-20.9-1.5-25.6,23.4-25.6,23.4S296.4,769.3,295.6,787.1L295.6,787.1z
				 M155.6,818.6l19.7-5.3l2.2-58.4c0,0,0.8-18.4-5.5-23c-7.9-5.9-11.5,21.7-11.5,21.7l-5.1,64.2L155.6,818.6z M726.1,760.5
				l8.1,29.3v0.2c-20.7,0-45.6,0.3-81.6,0.9c-110.1,1.7-131.8,5.9-220.9,11.6c-89.1,5.7-75.5,4.3-135.6,11.3
				c-60.1,7-57.5,7.8-91,12.6c-33.6,4.8-39.2,6.9-58.1,12.9c-8.3,2.6-15.2,5.1-20.4,7.4l-0.1-0.3l7.9-92.4l-0.5-0.4
				c0,0-0.1-0.2-0.3-0.4l1.1-0.1c0,0-1.2-25.2,56.7-46.9c61.9-23.2,49.3-25.4,181-50.8c131.7-25.4,313.9-34.7,313.9-34.7l1-0.3
				l4.6,16.8h0l16.6,59.9l9,32.4L726.1,760.5z M221.4,801.7l0.6-65.6c0,0-0.2-17.2-10.3-17.5c-9.4-0.3-13.3,23.9-13.3,23.9
				l-3.7,65.4l0.1,0.6L221.4,801.7z"/>
			<polygon class="st9" points="691.3,578 702,611.7 685,612.3 679.7,593.1 679.7,593.1 673.8,571.7 			"/>
			<path class="st9" d="M685,612.3l2.3,8.1l-1,0.3c0,0-182.2,9.3-313.9,34.7c-131.7,25.4-119.1,27.6-181,50.8
				c-57.9,21.7-56.7,46.9-56.7,46.9l-1.1,0.1c-1.2-2.1-6.3-11.4-5.8-20c0.1-0.9,0.1-1.8,0.2-2.8l1.4,0c0,0,16.2-21.3,72.8-49.6
				c58.6-29.3,130.8-47,168.8-53.5c122.4-20.9,308.1-34.1,308.1-34.1l0.5-0.1h0L685,612.3z"/>
			<path class="st9" d="M233.3,651.8c7.3-3.3,14.5-6.4,22.2-9.5c5.5-2.2,11.1-4.4,17.2-6.6c7.5-2.8,13.5-5.2,20-7.6
				c2.3-0.8,4.7-1.7,7.3-2.5c4.9-1.6,10.4-3.3,17.1-5.2c7.9-2.2,17.5-4.5,29.8-7.3c1.3-0.3,2.7-0.6,4.1-0.9c5.4-1.2,10.4-2.3,15-3.3
				c10.9-2.4,19.8-4.3,28.1-6c16.9-3.4,31.4-5.9,55-9.6v0c3.2-0.5,6.6-1,10.3-1.6c7.5-1.2,14.8-2.3,21.8-3.3
				c3.7-0.6,7.4-1.1,10.9-1.6c20.3-3,37-5.3,46.7-6.7c5.8-0.8,9-1.2,9-1.2l68.6-8c0,0,7.7-0.5,17.5-0.9c9.3-0.4,20.6-0.7,29.1-0.6
				l9.5,2l1.6,0.6l5.9,21.4l-0.5,0.1c0,0-185.7,13.2-308.1,34.1c-38,6.5-110.2,24.2-168.8,53.5c-56.6,28.3-72.8,49.6-72.8,49.6
				l-1.4,0c1-8.9,4.7-17.6,19.1-28.7c0,0,0.1,0,0.1-0.1c6.2-4.8,13.2-9.5,20.1-14c6.9-4.4,13.8-8.6,20.1-12.2
				c5.7-3.3,10.8-6.1,14.8-8.2c1.1-0.6,2.1-1.1,3.2-1.7C215.2,660.4,224.3,655.9,233.3,651.8z"/>
			<path class="st9" d="M654.4,567.4l8.3,1.7c-8.4-0.1-19.8,0.2-29.1,0.6l-35.1-97.2l20.7,3l-4.1-12.1l0.8-0.3L654.4,567.4z"/>
			<path class="st3" d="M639.7,882.1l1.1-0.3c2.3,7.4,1.5,14,1.5,14l-3.5,90.4c-17.9-0.3-35.8-0.8-53.6-1.3l0-0.2l3.1-83.3
				c0,0,6.2-26.6,26.8-28.4C632.5,871.4,639,881,639.7,882.1z"/>
			<path class="st9" d="M640.8,881.8l-1.1,0.3c-0.7-1.1-7.1-10.8-24.5-9.2c-20.6,1.8-26.8,28.4-26.8,28.4l-3.1,83.3l0,0.2
				c-5-0.2-9.9-0.3-14.9-0.5l1.9-87.7c0,0,0.9-33.4,36.4-34.5C629.8,861.5,637.8,872.3,640.8,881.8z"/>
			<path class="st3" d="M628.2,661.5c13.1,9.6,11,27.8,11,27.8l-0.5,74.3l-58.8,1.8l1.3-58.3c0,0-4.2-24.1,13.4-34
				c21.1-11.9,33.3-11.1,33.3-11.1L628.2,661.5z"/>
			<path class="st8" d="M146.5,644.3c-0.1-0.1-0.2-0.4-0.3-0.9l0,0c0,0,13.1-38.1,52.6-67.1c38.5-28.3,73.4-46,138.2-69.9
				c77.6-28.6,250.5-55.4,250.5-55.4l3.7,1.7l7.2,19.8l35.1,97.2c-9.8,0.4-17.5,0.9-17.5,0.9l-68.6,8c0,0-3.3,0.4-9,1.2l-0.1-0.8
				l-1.5-68.8c0,0-1.5-6.8-6.3-13.3c-4.6-6.3-12.3-12.1-24.7-10.8c-30.3,3.2-26.9,33.4-26.9,33.4l1.8,67.6l0.1,1
				c-7,1-14.3,2.2-21.8,3.3c-3.6,0.6-7,1.1-10.3,1.6l0-0.1l-3.3-77c0,0-5-15.9-26.5-12.8c-22.9,3.3-25.1,27-25.1,27l-0.3,71.6l0.2,1
				c-8.3,1.7-17.2,3.6-28.1,6l-0.1-0.4l2.1-71.8c0,0-0.4-1.1-1.2-2.6c-2.5-4.5-9.1-12.9-22.5-10.5c-21,3.7-24.6,26.9-24.6,26.9
				l-2.5,69.8l0.1,0.3c-6.7,1.8-12.2,3.5-17.1,5.2l-0.1-0.4l1.8-67.3c0,0-0.1-1.5-0.8-3.5c-1.6-4.3-6.3-10.8-20.5-9.1
				c-19,2.3-22.7,25.4-22.7,25.4l-2.4,71l0.2,0.6c-7.6,3.1-14.9,6.2-22.2,9.5l4.1-62.9c0,0-1.8-13-13.8-13
				c-11.8,0-13.9,18.5-13.9,18.5l-4.3,70.9l0.2,0.3c-1.1,0.6-2.1,1.1-3.2,1.7c-3.9,2.1-9,4.9-14.8,8.2l-0.8-1.4l2.2-60
				c0,0,1.6-14.8-10.3-11.4c-12.1,3.5-10.6,20-10.6,20l-1.3,62.4l0.8,2.4c-7,4.5-13.9,9.2-20.1,14c0,0-0.1,0-0.1,0.1l-0.1-0.1
				L146.5,644.3z"/>
			<path class="st9" d="M628.2,661.5l-0.4,0.5c0,0-12.2-0.8-33.3,11.1c-17.6,9.9-13.4,34-13.4,34l-1.3,58.3l-11.5,0.4l-0.2-0.1
				l1-75.5c0,0,0.9-33.4,36.4-34.5C616,655.4,623.2,657.8,628.2,661.5z"/>
			<polygon class="st9" points="615.1,463.5 619.2,475.5 598.5,472.5 591.3,452.7 			"/>
			<polygon class="st9" points="579.6,420.4 579.5,420.1 579.8,419.1 598.4,415.8 615.9,463.2 615.1,463.5 591.3,452.7 			"/>
			<path class="st9" d="M591.3,452.7l-3.7-1.7c0,0-172.9,26.8-250.5,55.4c-64.9,23.9-99.7,41.6-138.2,69.9
				c-39.5,29-52.6,67.1-52.6,67.1l0,0c-1-3.1-3.8-13.1-1.8-23.3c2.2-11.1,3.1-14.7,17.5-32.2c1.6-2,3.4-4.1,5.3-6.4
				c19.6-23.2,29.3-31.7,60.8-54.1c31.5-22.3,35.6-23.5,70.1-39.7c26-12.2,43-17.6,83.4-29.3c40.4-11.7,39.1-11.5,80.8-20
				c41.7-8.5,86.1-13.8,86.1-13.8l31.1-4.4L591.3,452.7z"/>
			<polygon class="st9" points="492.8,263.8 579.8,419.1 579.5,420.1 564.6,420.6 487.1,280 472.7,253.8 474,253.1 			"/>
			<path class="st8" d="M184.8,462.3l-7.7-8.1l3.8-5.7l7.7,9.4l5.1-6.9l-8.1-7.8l4.4-7.2l8.4,9.4l5.7-6.2l-8.5-9.9l5.3-7.4l9.1,10.8
				l6.9-6.8L206.3,415l6.9-8l10.4,12.4l7.1-7.3l-10.9-12.8l7.3-7.3l11.4,13.1l8-7.3l-11.7-13.5l9.7-8.7l12.9,13.9l12.3-8.6
				l-12.4-16.2l13.2-9.1l12.5,17.9l13.7-10l-9.7-17.5l13-8.4l10.8,18.6l12.7-6.9l-0.1-0.3l-10.4-19.6l12.6-5.9l10.7,19.4l7.5-3.9
				l7.4-3.5l-0.2-0.3l-12.3-18.4l15-6.6l11.5,18.4l7.6-3.6l8.6-3.6l-0.2-0.4l-10.2-18.7l14.8-6.4l10,19.2l15-6.8l3.5-1.4l-10.2-18.3
				l16.8-6.3l11.1,17.4l16.9-5.6l0.1,0.3l1.6-0.7L440,275.7l16.8-6.3l11.1,17.4l16.9-5.6l2.4-1.3l77.5,140.7l14.9-0.5l0.1,0.3
				l-31.1,4.4c0,0-44.4,5.4-86.1,13.8c-41.7,8.5-40.4,8.3-80.8,20c-40.4,11.7-57.4,17-83.4,29.3c-34.6,16.3-38.6,17.4-70.1,39.7
				c-31.5,22.3-41.2,30.9-60.8,54.1c-2,2.3-3.7,4.4-5.3,6.4l0,0l17.4-120.3l0.9,0.1l4.3-5.3L184.8,462.3z M244.3,444.7l-0.8,24.4
				l12.5-5.8l-0.1-0.2l-1.4-30.9l-9.7,12.4L244.3,444.7z M367.9,405.5v-34.1L349,385.3l1.4,30L367.9,405.5z M195.1,518.2l-0.3-31.1
				l-9.2,13.7l-1.1,26.8L195.1,518.2z"/>
			<path class="st7" d="M538.4,167.6c2.1,4.2,6.1,7.7,3.7,12.8c-3.5,7.8-27.3,8.9-34.1,9.3c-25.2,1.6-50.5-1.1-75,0.4
				c-3.3,0.2-4.4,2.8-6.6,4.3c-2.2-1-4.1-2.3-5.8-4.1c-11.2-12.1-35.6-20.2-52.5-19.1c-9.7,0.6-17.1,6.3-27.1,4.5
				c-9-1.7-8.9-9.6-16-12.4c-13.3-5.3-27,2.5-40.3,2.7c-8.8,0.1-13.8-5.6-20.5-9.8c-5.2-3.3-18.1-6.4-24.5-6.5
				c-13.9-0.2-23.4,12.3-36.5,14.9c-13.6,2.8-25.3-8.8-39.6-8.6c-14.3,0.2-11.6,13.6-18.4,15.5c-7.1,2.1-14.4-8.2-22-5.4
				c-6.1,2.3-17.9,8.4-22.6,12.7c-4.8,4.4-7.7,12.5-14.2,14.9c-5.1,1.9-11.7-2.9-14.3-6.7c-1.2-1.8-9.5-8.6-9.9-6.6v-59.8
				c20.4-6.7,41.1-37.3,61.9-39.3c8.9-0.9,11.4,8,17.4,12c9.3,6.2,26.9,9.9,36.5,3.3c7.3-5,8.4-15.7,12.3-22.7
				c11.1-20.3,37.9-28.3,59.3-29c21.8-0.6,39.6,25.8,60.3,32c18.1,5.5,37.2,6.8,56,7.6c6.6,0.3,14.8,0,21.1,2.5
				c7.3,2.9,13.4,16.1,17.5,22.1c3.3,4.7,12.6,7.5,17.9,9.4c12.6,4.5,26.7-1.3,39.8,3.9c8.4,3.3,12.4,10,18.8,15.6
				c16,14.1,33.7,4.5,49.8,11.8C536.8,152.7,536,162.6,538.4,167.6z"/>
			<path class="st3" d="M538.5,579.1l0.1,0.8c-9.7,1.3-26.4,3.6-46.7,6.7l-0.1-0.4l1.1-60.8c0,0,1.7-13.2,11-20
				c9.2-6.8,26-7.3,26-7.3l0.8-1c4.8,6.4,6.3,13.3,6.3,13.3L538.5,579.1z"/>
			<path class="st3" d="M528.3,697.1l2.5,72l-50.2,2.7l-0.1-0.9l0.8-58.5c0,0,2.7-17.3,11.9-24.8c9.2-7.5,27.6-10.9,27.6-10.9
				l0.4-0.3C527.4,685.6,528.3,697.1,528.3,697.1z"/>
			<path class="st9" d="M530.7,497.1l-0.8,1c0,0-16.7,0.4-26,7.3c-9.2,6.8-11,20-11,20l-1.1,60.8l0.1,0.4c-3.5,0.5-7.2,1.1-10.9,1.6
				l-0.1-1l-1.8-67.6c0,0-3.3-30.2,26.9-33.4C518.3,485,526,490.8,530.7,497.1z"/>
			<path class="st3" d="M523.8,888.8l-1.4,93.3l0,0.4c-14.6-0.6-29-1.3-43.3-2l3.1-82.3c0,0,6.2-26.6,26.9-28.4
				c3.3-0.3,6.2-0.2,8.8,0.2C522.9,878.7,523.8,888.8,523.8,888.8z"/>
			<path class="st9" d="M521.3,676.6l-0.4,0.3c0,0-18.4,3.3-27.6,10.9c-9.2,7.5-11.9,24.8-11.9,24.8l-0.8,58.5l0.1,0.9l-12,0.7
				l0-0.6l0.9-72.9c0,0,1.4-35,34.2-32.9C512,666.6,517.6,671.1,521.3,676.6z"/>
			<path class="st9" d="M517.8,870c-2.5-0.4-5.5-0.5-8.8-0.2c-20.6,1.8-26.9,28.4-26.9,28.4l-3.1,82.3c-5.2-0.3-10.4-0.5-15.5-0.8
				l0.1-1.3l1.2-87.8c0,0,1.4-34.9,34.2-32.9C508.4,858.3,514.2,863.8,517.8,870z"/>
			<path class="st9" d="M323.2,349.1l0.1,0.3l-12.7,6.9l-10.8-18.6l-13,8.4l9.7,17.5l-13.7,10l-12.5-17.9l-13.2,9.1l12.4,16.2
				l-12.3,8.6l-12.9-13.9l-9.7,8.7l11.7,13.5l-8,7.3l-11.4-13.1l-7.3,7.3l10.9,12.8l-7.1,7.3l-10.4-12.4l-6.9,8l10.6,10.9l-6.9,6.8
				l-9.1-10.8l-5.3,7.4l8.5,9.9l-5.7,6.2l-8.4-9.4l-4.4,7.2l8.1,7.8l-5.1,6.9l-7.7-9.4l-3.8,5.7l7.7,8.1l-0.2,0.2l-4.3,5.3l-0.9-0.1
				l0.3-2l-7.7-11.9l0,0c0,0,27.5-65.2,102.8-115.7c67.6-45.4,173.7-79.1,194.5-85.4l2.7,0.1l0.6,1.1l14.4,26.2l-2.4,1.3l-16.9,5.6
				l-11.1-17.4l-16.8,6.3l10.2,18.3l-1.6,0.7l-0.1-0.3l-16.9,5.6l-11.1-17.4l-16.8,6.3l10.2,18.3l-3.5,1.4l-15,6.8l-10-19.2
				l-14.8,6.4l10.2,18.7l-8.4,4l-7.6,3.6l-11.5-18.4l-15,6.6l12.3,18.4l-7.2,3.7l-7.5,3.9l-10.7-19.4l-12.6,5.9L323.2,349.1z"/>
			<path class="st7" d="M477.5,233.1c0.3,18.8-44.9,10.3-57.2,9.8c-7.5-0.3-14.8-3.5-22.2-4.1c-35.8-2.5-75.4,7-110.1,14.9
				c-18.4,4.2-37.5-2.1-56,3.2c-7.4,2.1-13.6,7.2-21.2,8.9c-13,3-30.4-1-43.7-1.3c-7.5-0.1-16.8,5.3-24.2,7
				c-8.7,2-22.7,1.1-31.9,0.9c-15.9-0.3-31.4,8.4-48.9,5.2v-97.3c0.4-2,8.6,4.8,9.9,6.6c2.6,3.8,9.2,8.6,14.3,6.7
				c6.5-2.4,9.4-10.5,14.2-14.9c4.7-4.3,16.5-10.5,22.6-12.7c7.6-2.8,14.9,7.4,22,5.4c6.8-2,4.1-15.3,18.4-15.5
				c14.3-0.2,26,11.4,39.6,8.6c13.1-2.6,22.6-15.1,36.5-14.9c6.4,0.1,19.3,3.3,24.5,6.5c6.7,4.2,11.7,10,20.5,9.8
				c13.3-0.2,27-8,40.3-2.7c7.1,2.8,6.9,10.7,16,12.4c10.1,1.8,17.5-3.9,27.1-4.5c17-1.1,41.4,7,52.5,19.1c1.7,1.8,3.7,3.2,5.8,4.1
				c9.2,4.2,21.8,1.9,30.8,5.9c7,3.2,6.8,13.7,11.4,19C472,223.3,477.5,227,477.5,233.1z"/>
			<path class="st9" d="M448.9,593.1L448.9,593.1c-23.6,3.7-38.1,6.3-55,9.7l-0.2-1l0.3-71.6c0,0,2.2-23.8,25.1-27
				c21.5-3.1,26.5,12.8,26.5,12.8L448.9,593.1L448.9,593.1z"/>
			<path class="st3" d="M428.5,706.2l0.7,70.3l-26.4,1.3l0-0.7l1.1-60.8c0,0-4.6-26.6,19-28.8l0.1,0
				C428.4,696,428.5,706.2,428.5,706.2z"/>
			<path class="st3" d="M426.4,890.5l-1.5,87.2c-7.7-0.4-15.3-0.9-22.9-1.4l0.1-2.2l3.1-83.3c0,0-1-18,13.6-21.4l0.3-0.2
				C426.4,878.3,426.4,890.5,426.4,890.5z"/>
			<path class="st9" d="M423,687.3L423,687.3c-23.7,2.3-19.1,28.9-19.1,28.9l-1.1,60.8l0,0.7l-29.3,1.5l2.4-70.9
				c0,0,5-34.5,26.2-32.9C412.8,676.1,419.2,681.4,423,687.3z"/>
			<path class="st9" d="M419.1,869.2l-0.3,0.2c-14.6,3.4-13.6,21.4-13.6,21.4l-3.1,83.3l-0.1,2.2c-10.4-0.6-20.6-1.3-30.7-1.9l0-0.3
				l2.4-81.6c0,0,5-34.5,26.2-32.9C409.2,860.3,415.2,864.3,419.1,869.2z"/>
			<polygon class="st3" points="367.9,371.4 367.9,405.5 350.4,415.2 349,385.3 			"/>
			<path class="st3" d="M367.8,536.6l-2.1,71.8l0.1,0.4c-4.6,1-9.6,2.1-15,3.3c-1.4,0.3-2.7,0.6-4.1,0.9l1.1-60.6
				c0,0,1.4-19.3,18.3-18.5l0.4,0C367.4,535.5,367.8,536.6,367.8,536.6z"/>
			<path class="st9" d="M366.6,534l-0.4,0c-16.9-0.9-18.3,18.5-18.3,18.5l-1.1,60.6c-12.3,2.8-21.9,5.2-29.8,7.3l-0.1-0.3l2.5-69.8
				c0,0,3.6-23.2,24.6-26.9C357.5,521.1,364.1,529.5,366.6,534z"/>
			<path class="st3" d="M348.1,716.2l-1.5,65l-12.9,1.5l-0.2-1.5l1.1-60.8c0,0-0.2-11.6,9-18.4C347.9,708.8,348.1,716.2,348.1,716.2
				z"/>
			<path class="st3" d="M344,891.3l-5.1,80.6l0,0.3c-4.4-0.3-8.7-0.6-13-0.9l0-0.6l7.7-83.4c0,0,2.4-12.3,5.7-10.7
				C343.8,883.5,344,891.3,344,891.3z"/>
			<path class="st9" d="M339.4,876.6c-3.3-1.6-5.7,10.7-5.7,10.7l-7.7,83.4l0,0.6c-12.4-0.9-24.3-1.8-35.9-2.7c-0.3,0-0.6,0-0.9-0.1
				l0-0.6c0.8-17.7,6-78.6,6-78.6s4.8-24.9,25.6-23.4C330.4,866.7,336,871.4,339.4,876.6z"/>
			<path class="st9" d="M343.8,702c-9.2,6.8-9,18.4-9,18.4l-1.1,60.8l0.2,1.5l-38.2,4.5l0-0.1c0.8-17.7,3.6-72.7,3.6-72.7
				s4.8-24.9,25.6-23.4C334.8,691.6,340.5,696.6,343.8,702z"/>
			<path class="st3" d="M301.6,557.8l-1.8,67.3l0.1,0.4c-2.6,0.9-5,1.7-7.3,2.5l0-0.9l1.1-55.9c0,0-2-10.1,7.1-16.9
				C301.5,556.3,301.6,557.8,301.6,557.8z"/>
			<path class="st9" d="M293.7,571.3l-1.1,55.9l0,0.9c-6.5,2.4-12.5,4.8-20,7.6c-6,2.2-11.7,4.4-17.2,6.6l-0.2-0.6l2.4-71
				c0,0,3.7-23.1,22.7-25.4c14.2-1.7,18.9,4.9,20.5,9.1C291.7,561.2,293.7,571.3,293.7,571.3z"/>
			<path class="st9" d="M264.9,703.4c17.9,0.5,17.4,23.4,17.4,23.4l-2.4,63.2l-34,4.9h-0.3l1-69.3
				C246.6,725.6,250.5,702.9,264.9,703.4z"/>
			<path class="st9" d="M257.7,866.1c17.9,0.5,17.4,23.4,17.4,23.4l-2.5,77.4l0,0.3c-12.4-1-24.3-1.9-35.6-2.9l0-0.3l2.4-75.8
				C239.5,888.4,243.3,865.7,257.7,866.1z"/>
			<polygon class="st3" points="255.9,463.1 256,463.3 243.5,469.1 244.3,444.7 244.9,444.7 254.6,432.2 			"/>
			<path class="st9" d="M237.3,588.9l-4.1,62.9c-9,4.1-18,8.6-27.8,13.8l-0.2-0.3l4.3-70.9c0,0,2.1-18.5,13.9-18.5
				C235.5,575.9,237.3,588.9,237.3,588.9z"/>
			<path class="st9" d="M222,736.1l-0.6,65.6l-26.5,6.7l-0.1-0.6l3.7-65.4c0,0,3.8-24.2,13.3-23.9C221.8,718.9,222,736.1,222,736.1z
				"/>
			<path class="st9" d="M218.8,887l-1.4,75.8c-9.6-0.8-18.6-1.6-27-2.4l0-0.3l4.8-66.8c0,0,3.8-24.2,13.3-23.9
				C218.7,869.8,218.8,887,218.8,887z"/>
			<polygon class="st3" points="194.9,487.1 195.1,518.2 184.5,527.6 185.6,500.8 			"/>
			<path class="st9" d="M178.6,602.8c11.9-3.4,10.3,11.4,10.3,11.4l-2.2,60l0.8,1.4c-6.2,3.6-13.1,7.8-20.1,12.2l-0.8-2.4l1.3-62.4
				C168,622.8,166.5,606.3,178.6,602.8z"/>
			<path class="st9" d="M177,873.9c6.2,4.6,6,24.5,6,24.5l-3.9,60.8l0,0.2c-6.7-0.6-12.9-1.2-18.6-1.8c1.3-12.2,4-60.8,4-60.8
				S169.1,868,177,873.9z"/>
			<path class="st9" d="M172,731.9c6.2,4.6,5.5,23,5.5,23l-2.2,58.4l-19.7,5.3l-0.2-0.8l5.1-64.2C160.5,753.6,164.1,726,172,731.9z"
				/>
			<path class="st9" d="M145.8,878.3c6.2,4.6,5.6,17.5,5.6,17.5l-3.3,60.5v0c-7.4-0.7-13.7-1.3-18.6-1.8c1.4-12.5,5.4-57.5,5.4-57.5
				S137.8,872.5,145.8,878.3z"/>
		</g>
		<g>
			<polygon class="st10" points="1335.2,975.6 1335.2,1077.2 1279.6,1077.2 980.9,1077.2 62.2,1077.2 62.2,971.9 62.2,884.4 
				62.2,277.8 62.2,180.5 62.2,120.8 62.2,28.1 1335.2,28.1 1335.2,211.2 1335.2,362.2 1335.2,463.6 1335.2,882.4 			"/>
			<path class="st10" d="M473,251.5c0,0-1.3,0.4-3.6,1.1c-20.9,6.4-126.9,40-194.5,85.4C199.6,388.6,172,453.8,172,453.8"/>
			<path class="st10" d="M581.5,420.1l-1.9,0.3l-31.1,4.4c0,0-44.4,5.4-86.1,13.8c-41.7,8.5-40.4,8.3-80.8,20
				c-40.4,11.7-57.4,17-83.4,29.3c-34.6,16.3-38.6,17.4-70.1,39.7c-31.5,22.3-41.2,30.9-60.8,54.1c-2,2.3-3.7,4.4-5.3,6.4
				c-14.5,17.5-15.3,21.1-17.5,32.2c-2,10.2,0.8,20.2,1.8,23.3c0.1,0.4,0.2,0.7,0.3,0.9c0,0.1,0,0.1,0,0.1"/>
			<path class="st10" d="M673.3,569.9c-2.1-0.4-5.9-0.7-10.6-0.8c-8.4-0.1-19.8,0.2-29.1,0.6c-9.8,0.4-17.5,0.9-17.5,0.9l-68.6,8
				c0,0-3.3,0.4-9,1.2c-9.7,1.3-26.4,3.6-46.7,6.7c-3.5,0.5-7.2,1.1-10.9,1.6c-7,1-14.3,2.2-21.8,3.3c-3.6,0.6-7,1.1-10.3,1.6v0
				c-23.6,3.7-38.1,6.2-55,9.6c-8.3,1.7-17.2,3.6-28.1,6c-4.6,1-9.6,2.1-15,3.3c-1.4,0.3-2.7,0.6-4.1,0.9
				c-12.3,2.8-21.9,5.2-29.8,7.3c-6.7,1.8-12.2,3.5-17.1,5.2c-2.6,0.9-5,1.7-7.3,2.5c-6.5,2.4-12.5,4.8-20,7.6
				c-6,2.2-11.7,4.4-17.2,6.6c-7.6,3.1-14.9,6.2-22.2,9.5c-9,4.1-18,8.6-27.8,13.8c-1.1,0.6-2.1,1.1-3.2,1.7
				c-3.9,2.1-9,4.9-14.8,8.2c-6.2,3.6-13.1,7.8-20.1,12.2c-7,4.5-13.9,9.2-20.1,14c0,0-0.1,0-0.1,0.1
				c-14.4,11.1-18.2,19.8-19.1,28.7c-0.1,0.9-0.2,1.8-0.2,2.8c-0.5,8.7,4.6,17.9,5.8,20c0.2,0.3,0.3,0.4,0.3,0.4"/>
			<path class="st10" d="M1275.6,876c0,0,0.3-0.1,0.8-0.4c1.8-1,6.2-3.9,5.9-7c-0.1-1.1-3.7-2.8-8.8-4.7c-4.7-1.7-10.6-3.6-16.3-5.3
				c-10.3-3.1-19.9-5.7-20-5.7c-0.5-0.1,4.3-0.6-8.8-4.7c-2.6-0.8-5.9-1.8-10.1-2.8c-3.6-0.9-6.3-1.7-8.5-2.3c-7.4-2.1-8.2-2.7-13-4
				c-3.3-0.9-8.3-2-18.6-4.1c-1.7-0.4-3.6-0.8-5.7-1.2c-0.1,0-0.1,0-0.2,0c-28.7-5.9-30.8-8.2-64.5-13.5c-4.4-0.7-9.4-1.4-15.1-2.3
				c-5.9-0.9-12.6-1.8-20.1-2.8c-1-0.1-2.1-0.3-3.1-0.4c-5.5-0.7-10.8-1.4-15.8-2.1c-3.8-0.5-7.5-1-11.1-1.5
				c-9.7-1.3-18.5-2.5-27-3.6c-8.4-1.1-16.4-2.1-24.6-3c-3.3-0.4-6.6-0.7-10-1.1c-10.5-1.1-21.6-2.1-34.4-3.1
				c-19.7-1.6-43.2-3.1-74.3-4.9c-70.1-4-95.4-5.5-138-5.6c-20.7,0-45.6,0.3-81.6,0.9c-110.1,1.7-131.8,5.9-220.9,11.6
				c-89.1,5.7-75.5,4.3-135.6,11.3c-60.1,7-57.5,7.8-91,12.6c-33.6,4.8-39.2,6.9-58.1,12.9c-8.3,2.6-15.2,5.1-20.4,7.4
				c-6.6,2.9-10.4,5.6-10.9,7.6c-0.6,2.8,3.9,6.2,6,7.7c0.3,0.2,0.6,0.4,0.8,0.5s0.3,0.2,0.3,0.2"/>
			<polyline class="st10" points="161.9,588 179.4,467.7 179.7,465.6 172,453.8 171.6,453.2 			"/>
			<polyline class="st10" points="147.1,701.7 146.5,644.3 146.5,643.2 			"/>
			<line class="st10" x1="126.5" y1="846.4" x2="134.4" y2="754"/>
			<polyline class="st10" points="115.5,955.7 115.6,953.2 120.7,882.4 122.1,863.4 			"/>
			<polyline class="st10" points="1283,954.2 1282.9,953.9 1277.1,884.3 1276.4,875.6 1276.2,873.9 			"/>
			<polyline class="st10" points="472.1,252.7 472.7,253.8 487.1,280 564.6,420.6 579.5,420.1 579.6,420.4 591.3,452.7 598.5,472.5 
				633.6,569.8 634.2,571.2 			"/>
			<polyline class="st10" points="734.2,789.8 726.1,760.5 717.5,729.5 708.5,697.1 691.9,637.2 691.9,637.2 687.3,620.4 685,612.3 
				679.7,593.1 679.7,593.1 673.8,571.7 673.7,571.3 			"/>
			<polyline class="st10" points="693.6,636.7 890.9,630.8 891.4,630.8 889.6,611.8 889,604.9 815.2,607.6 702,611.7 685,612.3 
				684.2,612.3 			"/>
			<path class="st10" d="M1275.2,863.7l-26.7-191.7c0,0-17.9-26.2-57.3-45.7c-39.4-19.5-100.3-32.4-100.3-32.4s-48.1-10.3-115.4-17
				c-67.3-6.7-153.9-9.6-153.9-9.6l-6.4,38.1"/>
			<polygon class="st10" points="350.4,415.2 367.9,405.5 367.9,371.4 349,385.3 			"/>
			<polyline class="st10" points="255.9,463.1 254.6,432.2 244.9,444.7 			"/>
			<polyline class="st10" points="256.4,463.1 256,463.3 243.5,469.1 244.3,444.7 244.4,442.4 			"/>
			<polygon class="st10" points="184.5,527.6 195.1,518.2 194.9,487.1 185.6,500.8 			"/>
			<path class="st10" d="M538.5,579.1l-1.5-68.8c0,0-1.5-6.8-6.3-13.3c-4.6-6.3-12.3-12.1-24.7-10.8c-30.3,3.2-26.9,33.4-26.9,33.4
				l1.8,67.6"/>
			<path class="st10" d="M448.9,593l-3.3-77c0,0-5-15.9-26.5-12.8c-22.9,3.3-25.1,27-25.1,27l-0.3,71.6"/>
			<path class="st10" d="M365.7,608.4l2.1-71.8c0,0-0.4-1.1-1.2-2.6c-2.5-4.5-9.1-12.9-22.5-10.5c-21,3.7-24.6,26.9-24.6,26.9
				l-2.5,69.8"/>
			<path class="st10" d="M255.2,641.6l2.4-71c0,0,3.7-23.1,22.7-25.4c14.2-1.7,18.9,4.9,20.5,9.1c0.7,2,0.8,3.5,0.8,3.5l-1.8,67.3"
				/>
			<path class="st10" d="M205.3,665.3l4.3-70.9c0,0,2.1-18.5,13.9-18.5c12,0,13.8,13,13.8,13l-4.1,62.9l0,0.3"/>
			<path class="st10" d="M166.7,685.3l1.3-62.4c0,0-1.5-16.6,10.6-20c11.9-3.4,10.3,11.4,10.3,11.4l-2.2,60"/>
			<path class="st10" d="M568.2,765.7l1-75.5c0,0,0.9-33.4,36.4-34.5c10.4-0.3,17.7,2.1,22.7,5.8c13.1,9.6,11,27.8,11,27.8
				l-0.5,74.3l-58.8,1.8l-11.5,0.4"/>
			<path class="st10" d="M570.3,984.9l0-0.5l1.9-87.7c0,0,0.9-33.4,36.4-34.5c21.2-0.6,29.2,10.1,32.1,19.6c2.3,7.4,1.5,14,1.5,14
				l-3.5,90.4l0,0.4"/>
			<path class="st10" d="M468.6,771.9l0.9-72.9c0,0,1.4-35,34.2-32.9c8.3,0.5,13.9,5,17.6,10.5c6.1,9,7.1,20.6,7.1,20.6l2.5,72
				l-50.2,2.7l-12,0.7l-1.3,0.1"/>
			<path class="st10" d="M463.7,978.5l1.2-87.8c0,0,1.4-34.9,34.2-32.9c9.3,0.6,15.1,6.1,18.7,12.3c5.1,8.7,5.9,18.8,5.9,18.8
				l-1.4,93.3"/>
			<path class="st10" d="M373.4,779.5l0-0.3l2.4-70.9c0,0,5-34.5,26.2-32.9c10.7,0.8,17.1,6,20.9,12c5.5,8.7,5.5,18.8,5.5,18.8
				l0.7,70.3l-26.4,1.3l-29.3,1.5l-0.4,0"/>
			<path class="st10" d="M371.4,974.2l2.4-81.6c0,0,5-34.5,26.2-32.9c9.2,0.7,15.2,4.7,19.1,9.5c7.3,9.1,7.3,21.3,7.3,21.3
				l-1.5,87.2v0.1"/>
			<path class="st10" d="M295.6,787.1c0.8-17.7,3.6-72.7,3.6-72.7s4.8-24.9,25.6-23.4c10,0.7,15.7,5.7,18.9,11.1
				c4.1,6.8,4.3,14.2,4.3,14.2l-1.5,65l-12.9,1.5L295.6,787.1l-0.4,0.1"/>
			<path class="st10" d="M289.1,968c0.8-17.7,6-78.6,6-78.6s4.8-24.9,25.6-23.4c9.6,0.7,15.3,5.4,18.6,10.6
				c4.4,6.9,4.7,14.7,4.7,14.7l-5.1,80.6"/>
			<path class="st10" d="M245.6,795.3l0-0.4l1-69.3c0,0,3.9-22.7,18.2-22.3c17.9,0.5,17.4,23.4,17.4,23.4l-2.4,63.2l-34,4.9"/>
			<path class="st10" d="M237,964.2l2.4-75.8c0,0,3.8-22.7,18.2-22.3c17.9,0.5,17.4,23.4,17.4,23.4l-2.5,77.4"/>
			<path class="st10" d="M194.7,807.8l3.7-65.4c0,0,3.8-24.2,13.3-23.9c10.2,0.3,10.3,17.5,10.3,17.5l-0.6,65.6l-26.5,6.7"/>
			<path class="st10" d="M190.5,960.1l4.8-66.8c0,0,3.8-24.2,13.3-23.9c10.2,0.3,10.3,17.5,10.3,17.5l-1.4,75.8"/>
			<path class="st10" d="M155.4,817.8l5.1-64.2c0,0,3.6-27.6,11.5-21.7c6.2,4.6,5.5,23,5.5,23l-2.2,58.4l-19.7,5.3l-0.4,0.1"/>
			<path class="st10" d="M160.4,958c0-0.1,0-0.2,0-0.3c1.3-12.2,4-60.8,4-60.8s4.6-28.8,12.5-23c6.2,4.6,6,24.5,6,24.5l-3.9,60.8"/>
			<path class="st10" d="M129.4,955.2c0-0.2,0-0.4,0.1-0.6c1.4-12.5,5.4-57.5,5.4-57.5s2.9-24.7,10.9-18.8
				c6.2,4.6,5.6,17.5,5.6,17.5l-3.3,60.5"/>
			<path class="st10" d="M726,760.5h0.2l29,0.1l7.2,0l-7.9-58.1c0,0-1.4-15.7-25.5-16.1c-14.7-0.2-19.4,8.4-20.4,10.7
				c-0.1,0.3-0.2,0.5-0.2,0.5"/>
			<path class="st10" d="M792.4,721.6l0.1-19.1c0,0,7.3-26,39.1-24.2c29.7,1.7,32.8,28.1,32.8,28.1l-0.2,57.7l-28.3-0.8l-43.9-1.2
				L792.4,721.6z"/>
			<path class="st10" d="M991.1,803l-1.6-70c0,0-4.8-22.5-19.7-23.6c-5.3-0.4-9.5,2.4-12.8,6.2c-6.2,7.3-8.9,18.4-8.9,18.4
				l-1.6,65.5"/>
			<path class="st10" d="M1064.3,974.4l0-0.3l0-0.7l-3.5-77.6c0,0-5.9-26.5-20.8-27.6c-4.8-0.4-8.5,2.3-11.3,6
				c-6.3,8.4-8.2,22.5-8.2,22.5l1.4,78.9"/>
			<path class="st10" d="M1114.8,968.4l-3.5-81.1c0,0-0.8-17.9-15.7-19.1c-8.4-0.6-13.2,5.4-15.8,11c-2.2,4.7-2.9,9.2-2.9,9.2
				l0.2,83.5"/>
			<path class="st10" d="M1053.7,812.5l-1.7-71.7c0,0-1.8-18.5-18.3-20c-7.1-0.6-11.5,1.3-14.2,4.3c-5.7,6.3-3.7,17.1-3.7,17.1
				l0.1,63.2"/>
			<path class="st10" d="M1107.8,819.5l-2.1-69.9c0,0-4.3-21.3-19.1-22.4c-5.1-0.4-8.7,1.8-11.3,4.9c-5.2,6.3-6.1,16.5-6.1,16.5
				l3.3,66.6v0"/>
			<path class="st10" d="M1162.1,966.6v-0.4l0-1.6l-0.4-63.7c0,0,0.8-20.8-14.1-21.9c-8.1-0.6-11.4,5.3-12.7,11
				c-1.2,5.2-0.7,10.3-0.7,10.3l-0.6,66.7"/>
			<path class="st10" d="M1155.4,827.3l0.6-69.7c0,0,1.7-21.7-13.2-22.8c-15.5-1.2-14.6,18.8-14.6,18.8l2.8,69.1"/>
			<path class="st10" d="M1204.2,959.7l0.7-61.1c0,0,0.2-20-14.8-20c-11.3,0-9.9,17.2-9.9,17.2l0.5,67.2v0.1"/>
			<path class="st10" d="M1197,838l-4.6-75.2c0,0-0.8-15-9.2-17.5c-4.2-1.3-6.8,1.8-8.5,5.7c-2.1,5-2.5,11.2-2.5,11.2l0.1,71.2"/>
			<path class="st10" d="M1228.3,848.1l-3.9-76.1c0,0-2.6-16-6.8-17.7c-4.2-1.7-6.1,18.3-6.1,18.3l0.6,69.5"/>
			<path class="st10" d="M1234.6,959.2l-0.1-0.9l-3.1-65.5c0,0-2.5-10.6-6.7-12.3c-4.2-1.7-7.4,11.9-7.4,11.9l2.2,67.2l0,0.7"/>
			<path class="st10" d="M1257.1,859l0-0.4l-2.2-77.4c0,0-1-17.5-7.1-19c-5.4-1.2-6.6,17-6.6,17l1.3,73"/>
			<path class="st10" d="M1263.7,957.1l0-1l0-0.5l-2.5-59.8c0,0-2-13.6-6.5-14.3c-3.2-0.5-4.6,12.6-4.6,12.6l1.5,62.5l0,0.7l0,0.4"
				/>
			<path class="st10" d="M1029.5,874.6c16.1,2.9,15.9,28.9,15.9,28.9l1,71.4l17.8-1.6l12.8-1.1l16.4-1.5l21.4-1.9l18.6-1.6l10.4-0.9
				l18.3-1.6l18.6-1.6l23.6-2.1l15.2-1.3l15-1.3l17.1-1.5l12.1-1.1l17.1-1.5l0.2,0c0,0-0.1,0-0.2,0c-1.1,0.1-7,0.8-17.1,2
				c-3.5,0.4-7.5,0.8-12.1,1.3c-20.6,2.2-51.2,5.4-89.5,8.8c-28.7,2.5-61.6,5.3-97.8,7.8c-13.7,1-27.8,1.9-42.4,2.9
				c-17.8,1.1-36.1,2.2-55,3.2c-8.6,0.5-17.3,0.9-26.1,1.3c-12.7,0.6-25.6,1.2-38.7,1.7c-9.8,0.4-19.8,0.8-29.8,1.1
				c-6.7,0.2-13.3,0.4-20.1,0.7c-14.8,0.5-29.8,0.8-44.9,1.2c-16.3,0.3-32.8,0.6-49.4,0.7c-13.1,0.1-26.2,0.2-39.4,0.2
				c-11.2,0-22.4-0.1-33.7-0.2c-15.3-0.1-30.7-0.4-46.1-0.7c-17.9-0.3-35.8-0.8-53.6-1.3c-5-0.2-9.9-0.3-14.9-0.5
				c-16.1-0.5-32.1-1.1-48-1.8c-14.6-0.6-29-1.3-43.3-2c-5.2-0.3-10.4-0.5-15.5-0.8c-13.1-0.7-26-1.4-38.7-2.1
				c-7.7-0.4-15.3-0.9-22.9-1.4c-10.4-0.6-20.6-1.3-30.7-1.9c-11.1-0.7-21.9-1.5-32.5-2.2c-4.4-0.3-8.7-0.6-13-0.9
				c-12.4-0.9-24.3-1.8-35.9-2.7c-0.3,0-0.6,0-0.9-0.1c-5.6-0.4-11.1-0.8-16.5-1.3c-12.4-1-24.3-1.9-35.6-2.9
				c-6.8-0.6-13.3-1.1-19.6-1.7c-9.6-0.8-18.6-1.6-27-2.4c-3.9-0.4-7.7-0.7-11.4-1c-6.7-0.6-12.9-1.2-18.6-1.8
				c-4.4-0.4-8.6-0.8-12.4-1.2c-7.4-0.7-13.7-1.3-18.6-1.8c-8.7-0.9-13.3-1.4-13.3-1.4"/>
			<path class="st10" d="M757.9,986l-1.8-91.2c0,0,5.5-42-36.1-43.5c-38.1-1.4-37,46.3-37,46.3l1.8,88.8"/>
			<path class="st10" d="M872.3,984.3L872.3,984.3l-3.1-89.6c0,0,0.2-25.3-34.7-28.5c-27-2.4-31.2,29.7-31.5,32c0,0.1,0,0.1,0,0.1
				l4.2,86.4"/>
			<path class="st10" d="M966.8,980.1l-2.8-90.5c0,0-1.6-20.1-36.4-23.3c-27.9-2.5-28.5,25.8-28.5,25.8l0,0.5l2.9,90"/>
			<rect x="950.1" y="592.1" class="st11" width="18.9" height="35.5"/>
			<polygon class="st11" points="1068.7,605 1084.3,607.2 1085.3,636.7 1068.7,636.7 			"/>
			<polygon class="st11" points="1159.1,630.6 1170.7,635.3 1171.3,674.9 1159.3,673 			"/>
			<polygon class="st11" points="1213.2,651.7 1219.9,654.6 1220,677.3 1213.2,678.7 			"/>
			<polygon class="st11" points="1232.4,665.7 1235.4,667 1235.9,686.5 1232.4,687.6 			"/>
			<path class="st11" d="M1273.9,875.3c0,0-287.7-52.1-575-56.1c-287.2-3.9-575.1,42.7-575.1,42.7"/>
			<path class="st11" d="M686.3,620.7c0,0-182.2,9.3-313.9,34.7c-131.7,25.4-119.1,27.6-181,50.8c-57.9,21.7-56.7,46.9-56.7,46.9"/>
			<path class="st10" d="M980.9,1077.2l-152.7-64.9c0,0-156.9,1.1-336.7-5.5S62.2,971.9,62.2,971.9"/>
			<path class="st10" d="M1335.2,975.6c0,0-80,20.2-149.3,25.7c-69.3,5.5-194,7.3-194,7.3l287.6,68.6"/>
			<path class="st10" d="M1011.1,667.1l0-3.2c0,0,2.7-7.1,19.9-5.7c12.7,1,16.1,12.5,16.1,12.5l-1.3,36.1l-15.2-1.4l-19.6-1.8
				L1011.1,667.1z"/>
			<path class="st10" d="M1192.9,705.7c0,0-0.2-9.3,9.1-8c7.4,1,5.9,11.3,5.9,11.3l1.1,25.9l-14.8-4.7L1192.9,705.7z"/>
			<polyline class="st10" points="702.1,611.8 702,611.7 691.3,578 673.8,571.7 672.2,571.1 662.7,569.2 654.4,567.4 615.9,463.2 
				598.4,415.8 579.8,419.1 492.8,263.8 474,253.1 			"/>
			<path class="st10" d="M679.2,593.2c0,0-185.7,13.2-308.1,34.1c-38,6.5-110.2,24.2-168.8,53.5c-56.6,28.3-72.8,49.6-72.8,49.6"/>
			<path class="st11" d="M529.9,498.1c0,0-16.7,0.4-26,7.3c-9.2,6.8-11,20-11,20l-1.1,60.8"/>
			<path class="st11" d="M627.8,662.1c0,0-12.2-0.8-33.3,11.1c-17.6,9.9-13.4,34-13.4,34l-1.3,58.3l0,0.3"/>
			<path class="st11" d="M520.9,676.8c0,0-18.4,3.3-27.6,10.9c-9.2,7.5-11.9,24.8-11.9,24.8l-0.8,58.5"/>
			<path class="st11" d="M422.9,687.4c-23.6,2.3-19,28.8-19,28.8l-1.1,60.8"/>
			<path class="st11" d="M343.8,702c-9.2,6.8-9,18.4-9,18.4l-1.1,60.8"/>
			<path class="st11" d="M443.9,515.3c0,0-12.9-1.6-22.1,5.3c-9.2,6.8-11,20-11,20l-0.2,55.9"/>
			<path class="st11" d="M300.9,554.3c0,0-0.1,0.1-0.1,0.1c-9.1,6.8-7.1,16.9-7.1,16.9l-1.1,55.9"/>
			<path class="st11" d="M366.2,534c-16.9-0.9-18.3,18.5-18.3,18.5l-1.1,60.6v0.3"/>
			<path class="st11" d="M755.2,760.3l-3.6-33.2c0,0-0.6-16.8-15.9-17.2c-14.4-0.4-17.7,17.2-18.1,19.6c0,0.2,0,0.3,0,0.3"/>
			<path class="st11" d="M836,762l1.5-35.6c0,0-4.6-13-23.1-12.6c-15.1,0.3-20.5,5.7-22,7.8c-0.4,0.5-0.5,0.8-0.5,0.8"/>
			<path class="st11" d="M957.9,715.7c0,0,6.9-1,12.6,4.5c5.6,5.5,9.9,17.6,9.9,17.6l0.6,65.6"/>
			<path class="st11" d="M1020,725.5c0,0,6.9-1,12.6,4.5c5.6,5.5,9.9,17.6,9.9,17.6l0.3,62.4"/>
			<path class="st11" d="M1073.8,733.2c0,0,0.4-0.8,1.5-1c1.4-0.2,4.1,0.5,8.7,5.4c10,10.5,8.1,15,8.1,15l0.6,65.5v0.1"/>
			<path class="st11" d="M1131.7,740.2c5.6,5.5,8.5,17.2,8.5,17.2l0.6,65.6"/>
			<line class="st10" x1="1175.1" y1="751.2" x2="1178.3" y2="834"/>
			<path class="st10" d="M1012.6,667.1c16.6-0.5,19,12.1,19,12.1l-1.1,26.2l0,0.4"/>
			<polyline class="st10" points="432.4,301.3 448.6,294.7 450.3,294 440,275.7 456.8,269.4 467.8,286.9 484.7,281.3 			"/>
			<polyline class="st10" points="396.2,314.4 410.5,308.5 414,307.1 403.8,288.8 420.5,282.5 431.6,300 448.5,294.4 			"/>
			<polyline class="st10" points="365.1,328.3 371.6,325.7 372.5,325.3 381.1,321.7 380.9,321.3 370.7,302.6 385.5,296.2 
				395.5,315.4 410.5,308.5 413.9,307 			"/>
			<polyline class="st10" points="336.2,342.6 343.6,339.1 351,335.7 350.8,335.4 338.5,317.1 353.5,310.5 365,328.9 372.5,325.3 
				380.9,321.3 381,321.2 			"/>
			<polyline class="st10" points="315.9,353.1 323.2,349.1 312.8,329.6 325.4,323.6 336.1,343 343.6,339.1 350.8,335.4 351,335.3 
							"/>
			<polyline class="st10" points="323.5,349.4 323.4,349.4 315.2,354 			"/>
			<polyline class="st10" points="184.8,462.4 184.8,462.3 177.1,454.2 180.9,448.5 188.6,457.9 193.6,451 185.5,443.2 189.9,436 
				198.3,445.4 204,439.2 195.5,429.3 200.9,421.9 210,432.7 216.9,425.9 206.3,415 213.2,407.1 223.6,419.5 230.7,412.1 
				219.8,399.4 227.1,392.1 238.5,405.2 246.5,397.9 234.8,384.4 244.5,375.8 257.4,389.7 269.6,381.1 257.3,364.9 270.5,355.7 
				282.9,373.6 296.6,363.6 286.9,346.2 299.9,337.7 310.7,356.4 323.4,349.4 			"/>
			<line class="st10" x1="184.6" y1="462.5" x2="180.3" y2="467.8"/>
			<path class="st10" d="M588.7,452.2l9.4,20.3l0.3,0.1l20.7,3l-4.1-12.1l-23.8-10.7l-3.7-1.7c0,0-172.9,26.8-250.5,55.4
				c-64.9,23.9-99.7,41.6-138.2,69.9c-39.5,29-52.6,67.1-52.6,67.1"/>
			<path class="st10" d="M585.3,984.6l3.1-83.3c0,0,6.2-26.6,26.8-28.4c17.3-1.5,23.8,8.1,24.5,9.2c0,0.1,0.1,0.1,0.1,0.1"/>
			<path class="st10" d="M479.1,981.5l0-1l3.1-82.3c0,0,6.2-26.6,26.9-28.4c3.3-0.3,6.2-0.2,8.8,0.2c0.1,0,0.2,0,0.3,0"/>
			<path class="st10" d="M402.2,974.1l3.1-83.3c0,0-1-18,13.6-21.4"/>
			<path class="st10" d="M325.9,970.7l7.7-83.4c0,0,2.4-12.3,5.7-10.7c0.2,0.1,0.5,0.3,0.7,0.5"/>
			<path class="st10" d="M852.2,984.7l-2.4-83.4c0,0-3.1-16.4-20.4-16.8c-17.4-0.3-24.7,10.8-26.3,13.8c-0.3,0.5-0.4,0.8-0.4,0.8"/>
			<path class="st10" d="M940.7,980.9l-2.3-82.4c0,0-0.8-14.3-18-16c-9.4-1-20.6,10.2-20.6,10.2"/>
			<path class="st10" d="M1093.4,970.3l-5-78.9c0,0-0.2-9.7-8.1-12.1"/>
			<path class="st10" d="M1143.8,966.2l-4.2-65.5c0,0-1-9.9-4.8-10.7"/>
			<polyline class="st11" points="897.6,635 890.9,630.9 890.9,630.8 889.6,611.8 889.2,605.1 898.1,614.3 			"/>
			<path class="st12" d="M1335.2,362.2c-44.3-6.3-120.1-39.6-167.2-23.9c-13.1,4.4-23.8,12.1-34.3,20.4c-3.8,3-7.7,6-11.6,9
				c-5.6,4.2-10.6,9.9-17.6,12.2c-19.3,6.4-41.7,6.5-60.3,14.3c-11,4.6-21,12-31.9,17.2c-5,2.4-29,18.8-20.2,25.9
				c3,2.4,7.8,2.3,11.3,3.4c7.6,2.4,16.3,6.1,24.4,6.4c21.9,0.9,44.2-5.9,66.1-5.9c13.4,0,26.5,4.4,39.7,6.3
				c26.3,3.8,52.7,6.9,79,10.7c14.6,2.1,31.1,2.5,45.8,0.6c7.2-0.9,14.3-3.4,21.7-3.4c11.3,0,20.8,8.8,31.3,11.5
				c5.9,1.5,18-2.5,23.8-3.3"/>
			<path class="st12" d="M1335.2,211.2c-25.8-6.7-67-23.6-93.2-24.7c-32.1-1.3-58.1,19.9-89.4,24.9c-23.4,3.7-47.9-6.6-70.8-2.4
				c-16,2.9-20.3,20.5-34.2,25.1c-9.3,3.1-18.1-1.6-27.4-1.6c-12.5,0-28.8,6.2-41.3,8.8c-13.6,2.9-31.2,5.2-43.9,10.8
				c-12.8,5.7-26.5,14.8-40.2,17.8c-12.7,2.8-22.9,12.6-35.7,14.9c-11.9,2.2-34.5,3.6-43.5,12c-6.7,6.3-3.5,22.8,5.1,26
				c17.2,6.5,39.7,0.9,57.9,2.4c27.5,2.3,55.9,6.8,82.9,13c17.8,4.1,34.6,15.6,52.9,16.4c20.4,0.9,40.8-7.4,61.5-6.5
				c16.4,0.7,28.7,14.5,45,14.1c4-0.1,8.5-2,12.6-3.5c1.2-0.4,2.3-0.9,3.4-1.2"/>
			<path class="st12" d="M62.2,180.5c0.4-2,8.6,4.8,9.9,6.6c2.6,3.8,9.2,8.6,14.3,6.7c6.5-2.4,9.4-10.5,14.2-14.9
				c4.7-4.3,16.5-10.5,22.6-12.7c7.6-2.8,14.9,7.4,22,5.4c6.8-2,4.1-15.3,18.4-15.5c14.3-0.2,26,11.4,39.6,8.6
				c13.1-2.6,22.6-15.1,36.5-14.9c6.4,0.1,19.3,3.3,24.5,6.5c6.7,4.2,11.7,10,20.5,9.8c13.3-0.2,27-8,40.3-2.7
				c7.1,2.8,6.9,10.7,16,12.4c10.1,1.8,17.5-3.9,27.1-4.5c17-1.1,41.4,7,52.5,19.1c1.7,1.8,3.7,3.2,5.8,4.1
				c9.2,4.2,21.8,1.9,30.8,5.9c7,3.2,6.8,13.7,11.4,19c3.4,3.9,8.9,7.7,8.9,13.8c0.3,18.8-44.9,10.3-57.2,9.8
				c-7.5-0.3-14.8-3.5-22.2-4.1c-35.8-2.5-75.4,7-110.1,14.9c-18.4,4.2-37.5-2.1-56,3.2c-7.4,2.1-13.6,7.2-21.2,8.9
				c-13,3-30.4-1-43.7-1.3c-7.5-0.1-16.8,5.3-24.2,7c-8.7,2-22.7,1.1-31.9,0.9c-15.9-0.3-31.4,8.4-48.9,5.2"/>
			<path class="st12" d="M62.2,120.8c20.4-6.7,41.1-37.3,61.9-39.3c8.9-0.9,11.4,8,17.4,12c9.3,6.2,26.9,9.9,36.5,3.3
				c7.3-5,8.4-15.7,12.3-22.7c11.1-20.3,37.9-28.3,59.3-29c21.8-0.6,39.6,25.8,60.3,32c18.1,5.5,37.2,6.8,56,7.6
				c6.6,0.3,14.8,0,21.1,2.5c7.3,2.9,13.4,16.1,17.5,22.1c3.3,4.7,12.6,7.5,17.9,9.4c12.6,4.5,26.7-1.3,39.8,3.9
				c8.4,3.3,12.4,10,18.8,15.6c16,14.1,33.7,4.5,49.8,11.8c6,2.7,5.1,12.7,7.6,17.6c2.1,4.2,6.1,7.7,3.7,12.8
				c-3.5,7.8-27.3,8.9-34.1,9.3c-25.2,1.6-50.5-1.1-75,0.4c-3.3,0.2-4.4,2.8-6.6,4.3"/>
			<polyline class="st10" points="62.2,884.4 120.7,882.4 122.1,882.4 			"/>
			<polyline class="st10" points="1273.9,884.4 1277.1,884.3 1333.7,882.4 			"/>
		</g>
	</g>
</g>
<g id="Draw_lines" vectornator:layerName="Draw lines" class="st0">
	<rect x="61.7" y="28.1" class="st13" width="1273" height="1049.1"/>
	<path class="st13" d="M472.5,251.5c0,0-122.9,36-198.2,86.5S171.5,453.7,171.5,453.7"/>
	<path class="st13" d="M581,420.1l-33,4.6c0,0-44.4,5.4-86.1,13.8s-40.4,8.3-80.8,20c-40.4,11.7-57.4,17.1-83.4,29.3
		c-34.6,16.3-38.6,17.4-70.1,39.7c-31.5,22.3-41.2,30.9-60.8,54.1c-19.6,23.2-20.4,26.2-22.9,38.6c-2.4,12.3,2.1,24.3,2.1,24.3"/>
	<path class="st13" d="M672.8,569.9c-10.1-2.1-57.1,0.7-57.1,0.7l-68.6,8.1c0,0-40,5.3-88.4,12.8c-48.5,7.6-60.7,10-108.3,20.6
		c-47.6,10.6-56.4,15.5-78.2,23.5c-26.1,9.6-45.6,18.3-70.4,31.6c-12.5,6.7-36.8,20.6-54.9,34.4c-16,12.2-18.9,21.6-19.5,31.5
		c-0.5,9.8,6.1,20.5,6.1,20.5"/>
	<path class="st13" d="M1275.1,876c0,0,7.1-3.5,6.6-7.4c-0.4-3.9-44.9-15.7-45.2-15.7c-0.6-0.1,6.4-0.9-18.9-7.6
		c-25.4-6.7-8.5-3.9-45.7-11.6c-37.2-7.6-29.9-9.2-103-19c-73.1-9.7-92.9-13.3-197.1-19.3c-104.2-6-109.5-6.4-219.7-4.7
		c-110.1,1.7-131.8,5.9-220.9,11.6c-89.1,5.7-75.5,4.3-135.6,11.3s-57.5,7.8-91,12.6s-39.2,6.9-58.1,12.9
		c-18.9,6-30.5,11.4-31.3,15.1c-0.7,3.7,7.2,8.4,7.2,8.4"/>
	<path class="st13" d="M161.4,587.9l17.7-122.3l-8-12.5"/>
	<path class="st13" d="M146.7,701.6l-0.7-58.5"/>
	<path class="st13" d="M126,846.4l7.9-92.4"/>
	<path class="st13" d="M115,955.7l6.6-92.4"/>
	<path class="st13" d="M1282.5,954.2l-6.7-80.3"/>
	<path class="st13" d="M471.6,252.7l92.6,167.9l14.9-0.5l54.6,151.1"/>
	<path class="st13" d="M733.7,789.7l-60.6-218.5"/>
	<path class="st13" d="M693.1,636.7l197.8-5.9l-2.4-25.8l-204.7,7.4"/>
	<path class="st13" d="M1274.7,863.6l-26.7-191.7c0,0-17.9-26.2-57.3-45.7c-39.4-19.5-100.3-32.4-100.3-32.4s-48.1-10.4-115.5-17
		c-67.3-6.7-153.9-9.6-153.9-9.6l-6.4,38.1"/>
	<path class="st13" d="M349.9,415.2l17.5-9.7v-34.1l-18.9,13.8L349.9,415.2z"/>
	<path class="st13" d="M255.4,463.1l-1.4-30.9l-9.7,12.4"/>
	<path class="st13" d="M255.9,463.1l-12.9,6l0.9-26.7"/>
	<path class="st13" d="M184,527.5l10.6-9.4l-0.3-31.1l-9.2,13.7L184,527.5z"/>
	<path class="st13" d="M537.9,579.1l-1.5-68.8c0,0-6-26.7-31-24.1c-30.3,3.2-26.9,33.4-26.9,33.4l1.8,67.6"/>
	<path class="st13" d="M448.4,593l-3.3-77c0,0-5-15.9-26.5-12.8c-22.9,3.3-25.1,27-25.1,27l-0.3,71.6"/>
	<path class="st13" d="M365.2,608.4l2.1-71.8c0,0-5.7-16.3-23.7-13.2c-21,3.7-24.6,26.9-24.6,26.9l-2.5,69.8"/>
	<path class="st13" d="M254.7,641.6l2.4-71c0,0,3.7-23.1,22.7-25.4c20.6-2.5,21.3,12.6,21.3,12.6l-1.8,67.3"/>
	<path class="st13" d="M204.8,665.3l4.3-70.9c0,0,2.1-18.5,13.9-18.5c12,0,13.8,12.9,13.8,12.9l-4.1,63.1"/>
	<path class="st13" d="M166.2,685.2l1.3-62.4c0,0-1.5-16.6,10.6-20c11.9-3.4,10.3,11.4,10.3,11.4l-2.2,60"/>
	<path class="st13" d="M567.7,765.6l1-75.5c0,0,0.9-33.4,36.4-34.5c37.7-1.1,33.6,33.6,33.6,33.6l-0.5,74.3l-70.2,2.2"/>
	<path class="st13" d="M569.8,984.8l1.9-88.2c0,0,0.9-33.4,36.4-34.5c37.7-1.1,33.6,33.6,33.6,33.6l-3.5,90.7"/>
	<path class="st13" d="M468.2,771.9L469,699c0,0,1.3-34.9,34.2-32.9c22.2,1.4,24.7,31,24.7,31l2.5,72l-63.5,3.5"/>
	<path class="st13" d="M463.2,978.4l1.2-87.7c0,0,1.3-34.9,34.2-32.9c22.2,1.4,24.7,31,24.7,31l-1.4,93.3"/>
	<path class="st13" d="M372.9,779.5l2.4-71.3c0,0,5-34.5,26.2-32.9c26.3,1.9,26.4,30.8,26.4,30.8l0.7,70.3l-56.2,2.8"/>
	<path class="st13" d="M370.9,974.1l2.4-81.5c0,0,5-34.5,26.2-32.9c26.3,1.9,26.4,30.8,26.4,30.8l-1.5,87.3"/>
	<path class="st13" d="M295.1,787c0.8-17.7,3.6-72.7,3.6-72.7s4.8-24.9,25.6-23.4c22.5,1.6,23.3,25.3,23.3,25.3l-1.5,65l-51.5,6"/>
	<path class="st13" d="M288.6,968c0.8-17.7,6-78.6,6-78.6s4.8-24.9,25.6-23.4c22.5,1.6,23.3,25.3,23.3,25.3l-5.1,80.6"/>
	<path class="st13" d="M245.1,795.3l1-69.7c0,0,3.9-22.7,18.2-22.3c17.9,0.6,17.4,23.4,17.4,23.4l-2.4,63.2l-34,4.9"/>
	<path class="st13" d="M236.5,964.1l2.4-75.8c0,0,3.9-22.7,18.2-22.3c17.9,0.6,17.4,23.4,17.4,23.4l-2.5,77.4"/>
	<path class="st13" d="M194.2,807.8l3.7-65.4c0,0,3.8-24.2,13.3-23.9c10.2,0.3,10.3,17.5,10.3,17.5l-0.6,65.6l-26.5,6.7"/>
	<path class="st13" d="M190,960.1l4.8-66.8c0,0,3.8-24.2,13.3-23.9c10.2,0.3,10.3,17.5,10.3,17.5l-1.4,75.8"/>
	<path class="st13" d="M154.9,817.8l5.1-64.2c0,0,3.6-27.6,11.5-21.7c6.2,4.6,5.5,23,5.5,23l-2.2,58.4l-20.1,5.4"/>
	<path class="st13" d="M159.9,957.9c1.3-11.6,4-61.1,4-61.1s4.6-28.8,12.5-23c6.2,4.6,6,24.5,6,24.5l-3.9,60.8"/>
	<path class="st13" d="M128.9,955.2c1.3-11.6,5.5-58,5.5-58s2.9-24.6,10.9-18.8c6.2,4.6,5.6,17.5,5.6,17.5l-3.3,60.5"/>
	<path class="st13" d="M725.5,760.5l36.4,0.2l-7.9-58.1c0,0-1.4-15.7-25.5-16.1c-16.9-0.3-20.6,11.2-20.6,11.2"/>
	<path class="st13" d="M792,702.6c0,0,7.3-26,39.1-24.2c29.7,1.7,32.8,28.1,32.8,28.1l-0.2,57.7l-72.1-2L792,702.6z"/>
	<path class="st13" d="M990.6,803l-1.6-70c0,0-4.8-22.5-19.6-23.6c-15.5-1.2-21.6,24.6-21.6,24.6l-1.6,65.5"/>
	<path class="st13" d="M1063.8,974.3l-3.6-78.7c0,0-5.9-26.5-20.8-27.6c-15.5-1.2-19.5,28.6-19.5,28.6l1.4,78.9"/>
	<path class="st13" d="M1114.3,968.4l-3.5-81.1c0,0-0.8-17.9-15.7-19c-15.5-1.2-18.7,20.2-18.7,20.2l0.2,83.5"/>
	<path class="st13" d="M1053.2,812.4l-1.7-71.7c0,0-1.8-18.5-18.3-20c-22.2-2-17.9,21.4-17.9,21.4l0.1,63.2"/>
	<path class="st13" d="M1107.3,819.5l-2.1-69.9c0,0-4.3-21.3-19.1-22.4c-15.5-1.2-17.4,21.4-17.4,21.4l3.3,66.6"/>
	<path class="st13" d="M1161.6,966.6l-0.5-65.7c0,0,0.8-20.8-14.1-21.9c-15.5-1.2-13.4,21.3-13.4,21.3l-0.6,66.7"/>
	<path class="st13" d="M1154.9,827.3l0.6-69.7c0,0,1.7-21.7-13.2-22.8c-15.5-1.2-14.6,18.8-14.6,18.8l2.8,69.1"/>
	<path class="st13" d="M1203.7,959.7l0.7-61.1c0,0,0.2-20-14.8-20c-11.3,0-9.9,17.1-9.9,17.1l0.5,67.3"/>
	<path class="st13" d="M1196.5,838l-4.6-75.2c0,0-0.8-14.9-9.2-17.5c-9.6-2.9-10.9,16.9-10.9,16.9l0.1,71.2"/>
	<path class="st13" d="M1227.8,848l-3.9-76.1c0,0-2.6-16-6.8-17.7c-4.2-1.7-6.1,18.3-6.1,18.3l0.6,69.5"/>
	<path class="st13" d="M1234.1,959.1l-3.2-66.4c0,0-2.5-10.5-6.7-12.3c-4.2-1.7-7.4,11.9-7.4,11.9l2.2,67.8"/>
	<path class="st13" d="M1256.6,859l-2.2-77.9c0,0-1-17.6-7.1-19c-5.4-1.2-6.6,17-6.6,17l1.3,73"/>
	<path class="st13" d="M1263.2,957.1l-2.5-61.2c0,0-2-13.6-6.5-14.3c-3.2-0.5-4.6,12.6-4.6,12.6l1.6,63.6"/>
	<path class="st13" d="M1029,874.6c16.1,2.9,15.9,28.9,15.9,28.9l1,71.4l234.5-20.7c0,0-271.2,33.1-562.4,32.9
		c-153.5-0.1-312.5-9.5-428.5-18.3c-104.2-7.9-173.8-15.5-173.8-15.5"/>
	<path class="st13" d="M757.4,986l-1.9-91.2c0,0,5.5-42-36.1-43.5c-38.1-1.4-37,46.2-37,46.2l1.8,88.8"/>
	<path class="st13" d="M871.8,984.3l-3.1-89.6c0,0,0.2-25.3-34.7-28.4c-27.9-2.5-31.5,32.1-31.5,32.1l4.2,86.4"/>
	<path class="st13" d="M966.3,980l-2.8-90.5c0,0-1.6-20.1-36.4-23.3c-27.9-2.5-28.5,25.8-28.5,25.8l2.9,90.5"/>
	<path class="st14" d="M949.6,592.1h18.9v35.5h-18.9V592.1z"/>
	<path class="st14" d="M1068.2,605l15.7,2.2l0.9,29.5h-16.6V605z"/>
	<path class="st14" d="M1158.6,630.6l11.6,4.7l0.6,39.6l-12-1.9L1158.6,630.6z"/>
	<path class="st14" d="M1212.7,651.7l6.7,2.9l0.1,22.6l-6.8,1.4V651.7z"/>
	<path class="st14" d="M1231.9,665.7l3.1,1.3l0.5,19.5l-3.6,1.1V665.7z"/>
	<path class="st14" d="M1273.4,875.2c0,0-287.7-52.1-575-56.1c-287.2-3.9-575.1,42.7-575.1,42.7"/>
	<path class="st14" d="M685.8,620.6c0,0-182.2,9.3-313.9,34.7c-131.7,25.4-119.1,27.6-181,50.8C133,727.8,134.2,753,134.2,753"/>
	<path class="st13" d="M1004.3,1077.2l-176.6-64.9c0,0-156.9,1.1-336.7-5.5c-179.8-6.6-429.3-31.2-429.3-31.2"/>
	<path class="st13" d="M1336.2,975.6c0,0-81.5,20.2-150.8,25.7c-69.3,5.5-193.9,7.3-193.9,7.3l298.2,68.6"/>
	<path class="st13" d="M1010.6,663.9c0,0,2.7-7.1,19.9-5.7c12.7,1,16.1,12.5,16.1,12.5l-1.3,36.1l-34.8-3.3L1010.6,663.9z"/>
	<path class="st13" d="M1192.4,705.7c0,0-0.2-9.3,9.1-8c7.4,1,5.9,11.3,5.9,11.3l1.1,25.9l-14.8-4.7L1192.4,705.7z"/>
	<path class="st13" d="M701.6,611.7L690.8,578l-19.1-6.9l-17.8-3.7l-56.1-151.7l-18.5,3.3l-87-155.2L473.5,253"/>
	<path class="st13" d="M678.7,593.2c0,0-185.7,13.2-308.1,34.1c-38.1,6.5-110.2,24.2-168.8,53.5c-56.6,28.3-72.8,49.6-72.8,49.6"/>
	<path class="st14" d="M529.4,498.1c0,0-16.7,0.4-26,7.3c-9.2,6.8-11,20-11,20l-1.1,60.8"/>
	<path class="st14" d="M529.4,498.1c0,0-16.7,0.4-26,7.3c-9.2,6.8-11,20-11,20l-1.1,60.8"/>
	<path class="st14" d="M627.3,662c0,0-12.2-0.8-33.3,11.1c-17.6,9.9-13.4,34-13.4,34l-1.3,58.5"/>
	<path class="st14" d="M520.4,676.8c0,0-18.4,3.3-27.6,10.9c-9.2,7.5-11.9,24.8-11.9,24.8l-0.8,58.5"/>
	<path class="st14" d="M422.4,687.4c-23.6,2.3-19,28.8-19,28.8l-1.1,60.8"/>
	<path class="st14" d="M343.3,702c-9.2,6.8-9,18.4-9,18.4l-1.1,60.8"/>
	<path class="st14" d="M443.4,515.3c0,0-12.9-1.5-22.2,5.3c-9.2,6.8-11,20-11,20l-0.2,55.9"/>
	<path class="st14" d="M300.4,554.3c-9.2,6.8-7.3,17-7.3,17l-1.1,55.9"/>
	<path class="st14" d="M365.7,534c-16.9-0.9-18.3,18.5-18.3,18.5l-1.1,60.8"/>
	<path class="st14" d="M754.7,760.3L751,727c0,0-0.6-16.8-15.9-17.2c-15.5-0.4-18.1,19.9-18.1,19.9"/>
	<path class="st14" d="M835.5,762l1.5-35.6c0,0-4.6-13-23.1-12.6c-18.7,0.4-22.6,8.6-22.6,8.6"/>
	<path class="st14" d="M957.4,715.7c0,0,6.9-1,12.6,4.5c5.6,5.5,9.9,17.6,9.9,17.6l0.6,65.6"/>
	<path class="st14" d="M1019.5,725.5c0,0,6.9-1,12.6,4.5c5.6,5.5,9.9,17.6,9.9,17.6l0.3,62.4"/>
	<path class="st14" d="M1073.3,733.1c0,0,2-4.3,10.2,4.4c10,10.5,8.1,15,8.1,15l0.6,65.6"/>
	<path class="st14" d="M1131.2,740.2c5.6,5.5,8.5,17.2,8.5,17.2l0.6,65.6"/>
	<path class="st13" d="M1174.6,751.2l3.2,82.8"/>
	<path class="st13" d="M1012.1,667c16.6-0.5,19,12.1,19,12.1l-1.1,26.5"/>
	<path class="st13" d="M431.9,301.2l17.8-7.2l-10.2-18.3l16.8-6.3l11.1,17.4l16.9-5.6"/>
	<path class="st13" d="M395.7,314.3l17.8-7.2l-10.2-18.3l16.8-6.3l11.1,17.4l16.9-5.6"/>
	<path class="st13" d="M364.6,328.3l6.4-2.7l9.6-4l-10.4-19.1l14.8-6.4l10,19.2l18.4-8.4"/>
	<path class="st13" d="M335.7,342.6l14.8-6.9L338,317l15-6.6l11.5,18.4l16.1-7.7"/>
	<path class="st13" d="M315.4,353.1l7.4-3.9l-10.4-19.6l12.6-5.9l10.7,19.4l14.9-7.7"/>
	<path class="st13" d="M184.3,462.4l-7.8-8.2l3.8-5.7l7.7,9.5l5.1-6.9l-8.1-7.8l4.4-7.2l8.4,9.4l5.7-6.2l-8.5-9.9l5.3-7.4l9.1,10.7
		l6.9-6.8L205.8,415l6.9-8l10.4,12.4l7.1-7.3l-10.9-12.8l7.2-7.3l11.4,13.1l8-7.3l-11.7-13.5l9.7-8.7l12.8,13.9l12.3-8.6l-12.4-16.2
		l13.2-9.1l12.5,17.9l13.7-10l-9.7-17.5l13-8.4l10.8,18.6l12.8-7l-8.3,4.6"/>
	<path class="st13" d="M184.1,462.5l-4.3,5.3"/>
	<path class="st13" d="M588.2,452.1l9.4,20.3l21.1,3l-4.1-12L587.1,451c0,0-172.9,26.8-250.5,55.4c-64.8,23.9-99.7,41.6-138.2,69.9
		c-39.5,29-52.6,67.1-52.6,67.1"/>
	<path class="st13" d="M584.7,984.6l3.1-83.3c0,0,6.2-26.6,26.9-28.4c18.4-1.6,24.5,9.3,24.5,9.3"/>
	<path class="st13" d="M584.7,984.6l3.1-83.3c0,0,6.2-26.6,26.9-28.4c18.4-1.6,24.5,9.3,24.5,9.3"/>
	<path class="st13" d="M478.6,981.5l3.1-83.3c0,0,6.2-26.6,26.9-28.4c3.4-0.3,6.4-0.2,9,0.3"/>
	<path class="st13" d="M401.7,974.1l3.1-83.3c0,0-1-18,13.6-21.4"/>
	<path class="st13" d="M325.4,970.7l7.7-83.4c0,0,2.8-14.1,6.4-10.2"/>
	<path class="st13" d="M851.7,984.6l-2.4-83.4c0,0-3.1-16.4-20.4-16.8c-20.1-0.4-26.7,14.6-26.7,14.6"/>
	<path class="st13" d="M940.2,980.9l-2.3-82.4c0,0-0.7-14.3-18-16c-9.4-1-20.6,10.2-20.6,10.2"/>
	<path class="st13" d="M1092.9,970.3l-5-78.9c0,0-0.2-9.7-8.1-12.1"/>
	<path class="st13" d="M1143.3,966.2l-4.2-65.5c0,0-1-9.9-4.8-10.7"/>
	<path class="st14" d="M897.1,635l-6.7-4.1l-1.7-25.8l8.9,9.2"/>
	<path class="st15" d="M1334.7,362.2c-44.3-6.3-120.1-39.6-167.2-23.9c-17.8,5.9-31.2,18.3-46,29.3c-5.6,4.2-10.6,9.9-17.6,12.2
		c-19.3,6.4-41.7,6.5-60.3,14.3c-11,4.6-21,12-31.9,17.2c-5,2.4-29,18.8-20.2,25.9c3,2.4,7.7,2.3,11.3,3.4
		c7.6,2.4,16.3,6.1,24.4,6.4c21.9,0.9,44.2-5.9,66.1-5.9c13.4,0,26.5,4.4,39.7,6.2c26.3,3.7,52.7,6.9,79,10.7
		c14.6,2.1,31.1,2.5,45.8,0.6c7.2-0.9,14.3-3.4,21.7-3.4c11.3,0,20.8,8.8,31.3,11.5c5.9,1.5,18-2.5,23.8-3.4"/>
	<path class="st15" d="M1340.2,362.2"/>
	<path class="st15" d="M1334.7,211.2c-25.8-6.7-67-23.6-93.2-24.7c-32.1-1.3-58.1,19.9-89.4,24.9c-23.4,3.7-47.9-6.6-70.8-2.4
		c-16,2.9-20.3,20.5-34.2,25.1c-9.3,3.1-18.1-1.6-27.4-1.6c-12.5,0-28.8,6.2-41.3,8.8c-13.6,2.9-31.2,5.2-43.9,10.8
		c-12.8,5.7-26.5,14.8-40.2,17.8c-12.6,2.8-22.9,12.6-35.7,14.9c-11.9,2.2-34.5,3.6-43.5,12c-6.7,6.3-3.5,22.8,5.1,26
		c17.2,6.5,39.7,0.9,57.9,2.4c27.5,2.3,55.9,6.8,82.8,13c17.8,4.1,34.6,15.6,53,16.4c20.4,0.9,40.8-7.4,61.5-6.5
		c16.4,0.7,28.7,14.5,45,14.1c5.1-0.1,11.1-3.1,16-4.8"/>
	<path class="st15" d="M61.7,180.5c0.4-2,8.6,4.8,9.9,6.6c2.6,3.8,9.2,8.6,14.3,6.7c6.5-2.5,9.4-10.5,14.2-14.9
		c4.7-4.3,16.5-10.5,22.6-12.7c7.6-2.8,14.9,7.4,22,5.4c6.8-2,4-15.3,18.4-15.5c14.3-0.2,26,11.4,39.6,8.6
		c13.1-2.6,22.6-15.1,36.5-14.9c6.4,0.1,19.3,3.3,24.5,6.5c6.7,4.2,11.7,10,20.5,9.8c13.3-0.2,27-8,40.3-2.7
		c7.1,2.8,6.9,10.7,16,12.4c10.1,1.8,17.5-3.9,27.2-4.5c17-1.1,41.4,7,52.5,19.1c9,9.7,25.6,5.1,36.6,10.1c7,3.2,6.8,13.7,11.4,19
		c3.4,4,8.9,7.7,8.9,13.8c0.3,18.8-44.9,10.3-57.2,9.8c-7.4-0.3-14.8-3.5-22.2-4.1c-35.8-2.5-75.4,7-110.1,14.9
		c-18.4,4.2-37.5-2.1-56,3.2c-7.4,2.2-13.6,7.2-21.2,8.9c-13,3-30.4-1-43.7-1.3c-7.6-0.1-16.8,5.3-24.2,7c-8.7,2-22.7,1.1-31.9,0.9
		c-15.9-0.3-31.4,8.4-48.9,5.2"/>
	<path class="st15" d="M61.7,120.7c20.4-6.7,41.1-37.3,61.9-39.3c8.9-0.9,11.4,8,17.4,12c9.3,6.2,26.9,9.9,36.5,3.3
		c7.3-5,8.4-15.7,12.3-22.7c11.1-20.3,37.9-28.3,59.3-29c21.8-0.6,39.6,25.8,60.3,32c18.1,5.5,37.2,6.8,56,7.6
		c6.6,0.3,14.8,0,21.1,2.5c7.3,2.9,13.4,16.1,17.6,22.1c3.3,4.7,12.6,7.5,17.9,9.4c12.6,4.6,26.7-1.3,39.8,3.9
		c8.4,3.3,12.4,10,18.7,15.6c16,14.1,33.7,4.5,49.8,11.8c6,2.7,5.1,12.7,7.6,17.6c2.1,4.2,6,7.7,3.7,12.8
		c-3.5,7.8-27.3,8.8-34.1,9.3c-25.2,1.6-50.5-1.1-75,0.4c-3.3,0.2-4.4,2.7-6.6,4.3"/>
	<line class="st13" x1="61.7" y1="884.4" x2="121.6" y2="882.3"/>
	<line class="st13" x1="1273.4" y1="884.4" x2="1333.2" y2="882.3"/>
</g>
<g id="Layer_1_2_" vectornator:layerName="Layer 1">
	<path class="st16" d="M38.4,966.1c-2.9-4.4,1.2-25.2,6.9-26.2c4.7-0.8,9.5,5.2,11.4,8.9c0.6,1.2,1.7,3.6,2,4.9c0.1,0.5,0,2,0,1.5
		c0-3-0.9-7.5,1.5-9.9c3.3-3.3,13.2-1.6,16.3,1.5c3.4,3.4-0.6,10.6-0.5,10.9c0.2,0.4,5.9-0.1,6.4,0c3.4,0.5,5.3,4.3,4.9,7.4
		c-0.5,3.7-2.8,5.8-6.4,6.4c-1.5,0.2-4.4,0.5-4.4,0.5s3.1-0.7,4.4,0c1,0.5,0.2,2.7,0,3c-2.6,4-8.1,3.6-11.9,5.4
		c-6.2,3.1,3.7,11.3-4,12.4c-6,0.9-11.9-1.6-17.3-4c-0.6-0.3-5.1-3.6-5.9-2.5c-1,1.4,0.2,8.2-2.5,8.9c-0.7,0.2-3.1-3-3.5-3.5
		c-3.1-4.4-5.2-10.8-4-16.3c1.1-4.8,4.2-3.4,6.9-5.4c0.1-0.1,2.9-2.2,2.5-2.5c-1.2-0.8-3,0.2-4.4,0c-5.6-0.7-11-1-16.8-1
		c-1.2,0-2.5,0.6-3.5,0c-0.4-0.3-0.3-1-0.5-1.5"/>
	<path class="st16" d="M88.8,988.3c-2.4,0.1-9,2.6-11.4,1.5c-2.6-1.2-5.2-2.5-7.4-4.4c-2.4-2.1-1.2-11.3,0.5-13.3
		c3.7-4.5,11.8-6.2,17.3-6.9c4-0.5,7.5,3.1,4.9,6.9c-0.7,1-0.9-3.9-0.5-4.9c0.9-2.3,3.1-3.2,5.4-3.5c8.2-1,15.1,2.2,19.8,8.4
		c4.4,5.9-2.4,8.9-6.9,11.4c-4.3,2.3-11.4,8.4-16.8,6.9C92.1,989.8,90.6,988.3,88.8,988.3z"/>
	<path class="st16" d="M82.7,961.9c-1.7-0.8-4.9-2-4.2-3.7c2.8-7.3,19.7-19.5,27.2-21.2c7.6-1.7,15.3,4.6,17.8,11.4
		c0.8,2.1,0.7,5,1.5,6.9c0.3,0.8,12.2-1.2,14.3,1c0.3,0.3-0.2,17.4-0.5,19.3c-0.3,2-4.4,2.6-5.9,3c-3.3,0.8-20.2,2.5-22.7,0
		c-1.2-1.2-0.3-3.5-1-4.4c-0.8-1-4,2.7-4.9,3c-4.2,1.4-9.2,0.4-12.8-2c-2.9-1.9-5.4-4.3-6.9-7.4c-0.4-0.7-1.5-3.1-1.5-4
		c0-0.8,2.6-0.9,2-1.5C84.4,961.6,83.4,962.2,82.7,961.9z"/>
	<path class="st16" d="M141,989.6c-10.3,4.3-15.7-1.8-20.5-10.1c-2.5-4.5-5.1-7.5,1-10.9c4.9-2.7,15.4-3.5,20.3-0.5
		c1.3,0.8,7.7,6.6,5.4,8.9c-0.7,0.7-1.2-1.6-1.5-2.5c-0.8-2.3-0.5-1-0.5-4c0-6.6,3.2-11.4,10.4-11.4c0.8,0,2.3-0.2,3,0.5
		c1.1,1.1,1,5.6,1,6.9c0,4-2.6,19.7-5.9,22.2c-2.1,1.5-5.1-1.4-7.4-1C144.4,988.1,142.7,988.9,141,989.6z"/>
	<path class="st16" d="M1273.6,978.9c-1.3-0.2-8.8,0.2-10.1-1.1c-5.2-5.2-2.5-20,4.2-23.3c6.1-3,7.3,4.1,9.5,6.4
		c0.8,0.8,11.9-6.3,15.9-5.3c3.5,0.9,10.8,9.3,7.4,12.7C1294.1,974.7,1282.3,980.4,1273.6,978.9z"/>
	<path class="st16" d="M1319.1,974.1c-8.2,0.5-13,1.1-19.6-4.8c-8.5-7.6,0.3-16.4,8.5-18c4.7-0.9,8.3,0.9,11.7,4.2
		c2,2,4.2,7.4,4.2,7.4s-1.3-9.6,2.1-11.6c6.2-3.7,7.6,3,12.7,4.2c1.4,0.3,3.2-1,4.2,0c1,1,0,2.8,0,4.2
		C1342.9,970.3,1327.8,973.5,1319.1,974.1z"/>
	<path class="st16" d="M1325.5,950.8c1.2,0.2,0.8-2.5,0.5-3.7c-0.3-1-2.4-1.2-2.1-2.1c0.7-2,7.8-2.1,9.5-2.1
		c7.9,0,13.3,7.4,14.8,14.8c0.3,1.3,0.7,12.7-1.1,12.7c-2,0,8.6-9.4,11.6-6.4c0.7,0.7,0.2,6.3,0,7.4c-3.3,16.3-26.9,9-38.1,10.6
		c-5.2,0.7-9.6,3.1-14.8,1.1c-1.2-0.5-9.5-8.3-9.5-8.5c0-0.2,15.3-0.7,7.4,3.2c-4.8,2.4-15.7-7.8-16.9-11.6c-0.7-2-0.3-7.8,1.1-9.5
		c3.2-4,25.3-13.4,30.7-11.6C1321.9,946.1,1322.2,950.3,1325.5,950.8z"/>
	<path class="st16" d="M1366.2,957.7c-1.9,2.5-5.4,7.4-9.5,6.4c-4-1-6.2-9.7-3.2-12.7c3.9-3.9,13.3-4.5,18-2.1
		c1.6,0.8,1.4,4.2,3.2,4.2c0.8,0,0.4-1.8,1.1-2.1c1.9-0.9,4.3-0.4,6.3,0c4.9,1,9.4,10.3,6.4,14.8c-1.5,2.2-22.4,3.2-26.5,4.2
		c-1.6,0.4-6.8,4.8-8.5,3.2c-3.5-3.5,1.8-7.9,0-10.6c-1.2-1.8-7.8-8.7-6.3-11.6c0-0.1,11.6,0,12.7,0c3.3,0,9.5-1.5,9.5-1.1
		C1369.4,952.9,1367.9,955.5,1366.2,957.7z"/>
	<path class="st16" d="M1252.9,984.1c-9.4,9.4-16.6,1.4-19.1-8.5c-2.1-8.6,0.5-16.6,6.4-23.3c4.9-5.6,14.9-13.5,22.2-7.4
		c3.8,3.2,9.5,14.3,15.9,12.7c4-1,10.7-16.2,19.1-10.6c6.3,4.2,5,18.8-1.1,22.2c-10,5.7-24.9,6.4-36,8.5c-4.3,0.8-12.7,3.2-12.7,3.2
		s3.4-1.7,5.3-2.1c4-0.8,10.8,1.3,13.8,4.2c5.1,5.1-3.1,12.7,6.4,9.5"/>
	<path class="st17" d="M1270.9,973.6c-5.1,0-3.2,5.8-1.1,8.5c0.6,0.7,5,2,5.3,2.1c8.5,2.8,14.4-1.4,19.1-8.5
		c0.4-0.6,4.6-6.3,4.2-7.4c-1.4-4.3-7.1,1.8-7.4,2.1c-1.6,1.8-15.1,21.5-10.6,23.3c4.8,1.9,23.4-9.8,27.5-12.7
		c2-1.5,3.8-3.3,5.3-5.3c0.4-0.6,1.9-4.7,3.2-4.2c1.3,0.4,0.6,7.1,7.4,8.5c8.9,1.8,16.2-10.6,25.4-10.6"/>
	<path class="st17" d="M1242.3,977.3c0-1.7-1.7-9.4,0-11.1c4.4-4.4,18-4.1,23.3-1.1c4.7,2.7,9.8,13.8,15.9,13.8
		c3,0,9.4-8.4,14.8-9.5c2.7-0.5,9.8,7.4,9.5,8.5c-1.2,4.7-15.8,5.7-19.1,6.4C1275.8,986.3,1242.3,999.9,1242.3,977.3z"/>
	<path class="st17" d="M1326,965.1c1.9-3.5,2.9-12.3,6.3-14.8c8.2-5.9,13.8,11,13.8,15.9c0,1.6,1-3.1,2.1-4.2
		c1.7-1.7,2.3-3.3,5.3-2.1c2.5,1,3.5,10.5,2.1,12.7c-6.2,10.4-20.6,5.8-29.7,4.2c-1.2-0.2-6.7-0.1-7.4-2.1
		C1318.2,973.3,1324.6,967.6,1326,965.1z"/>
	<path class="st17" d="M46.2,984.7c-1.2-0.3-3.4,0.7-3.7-0.5c-0.9-4,13.3-27.8,19.1-20.1c4,5.3,4.4,12.8,5.3,19.1
		c0.2,1.7,0,3.5,0,5.3c0,0.7,0,2.8,0,2.1c0-8.3,12.1-18.8,20.1-20.1c4.1-0.7,10.3,0.7,12.7,4.2c0.8,1.2,1,5.2,0,4.2
		c-2-2-1.1-8.1-1.1-10.6c0-0.5-0.5-6.9,0-7.4c2.2-2.2,18-0.6,21.2,0c5.4,1.1,6.7,9.2,3.2,12.7c-1,1-4.2,2.5-4.2,1.1
		c0-4.3,9.5-4.3,10.6,0c0.8,3.2-3.6,19.9-7.4,18c-0.3-0.1-0.1-5.4-1.1-6.4c-2.3-2.3-9.1-1.3-11.6,0c-3.3,1.7-24.2,13.3-26.5,12.7
		c-5-1.3-4-15.8-1.1-14.8c2.2,0.7,1.1,7.3,0,8.5c-4.1,4.1-8.5,9.3-14.8,10.6c-5,1-14.9-5.5-16.9-9.5C48.5,991,48.6,985.3,46.2,984.7
		z"/>
	<path class="st17" d="M849.3,972.3c-3-3.8-6.4,4.1-4.5,6.6c1.9,2.5,7.8,1,7.8-2.3C852.6,975.2,850.1,973.2,849.3,972.3z"/>
	<path class="st17" d="M724.1,971.2c-3-3.8-6.4,4.1-4.5,6.6c1.9,2.5,7.8,1,7.8-2.3C727.3,974.1,724.8,972.2,724.1,971.2z"/>
	<path class="st17" d="M935.3,972.3c-3-3.8-6.4,4.1-4.5,6.6c1.9,2.5,7.8,1,7.8-2.3C938.5,975.2,936,973.2,935.3,972.3z"/>
	<path class="st17" d="M810,971.2c-3-3.8-6.4,4.1-4.5,6.6c1.9,2.5,7.8,1,7.8-2.3C813.2,974.1,810.8,972.2,810,971.2z"/>
	<path class="st17" d="M620.5,980.6c-3-3.8-6.4,4.1-4.5,6.6c1.9,2.5,7.8,1,7.8-2.3C623.8,983.5,621.3,981.5,620.5,980.6z"/>
	<path class="st17" d="M585.3,980.6c-3-3.8-6.4,4.1-4.5,6.6c1.9,2.5,7.8,1,7.8-2.3C588.6,983.5,586.1,981.5,585.3,980.6z"/>
	<path class="st17" d="M522.2,970.2c-3-3.8-6.4,4.1-4.5,6.6c1.9,2.5,7.8,1,7.8-2.3C525.4,973.1,522.9,971.2,522.2,970.2z"/>
	<path class="st17" d="M487,970.2c-3-3.8-6.4,4.1-4.5,6.6c1.9,2.5,7.8,1,7.8-2.3C490.2,973.1,487.7,971.2,487,970.2z"/>
	<path class="st17" d="M711.6,979c2.5-3.2,5.4,3.4,3.8,5.5c-1.6,2.1-6.5,0.8-6.5-2C708.9,981.4,711,979.8,711.6,979z"/>
	<path class="st17" d="M676.4,979c2.5-3.2,5.4,3.4,3.8,5.5c-1.6,2.1-6.5,0.8-6.5-2C673.7,981.4,675.8,979.8,676.4,979z"/>
	<path class="st17" d="M613.3,968.7c2.5-3.2,5.4,3.4,3.8,5.5c-1.6,2.1-6.5,0.8-6.5-2C610.6,971.1,612.7,969.5,613.3,968.7z"/>
	<path class="st17" d="M578.1,968.7c2.5-3.2,5.4,3.4,3.8,5.5c-1.6,2.1-6.5,0.8-6.5-2C575.4,971.1,577.5,969.5,578.1,968.7z"/>
	<path class="st17" d="M1149.6,973.8c2.5-3.2,5.4,3.4,3.8,5.5c-1.6,2.1-6.5,0.8-6.5-2C1146.9,976.3,1148.9,974.6,1149.6,973.8z"/>
	<path class="st17" d="M334.8,973.8c2.5-3.2,5.4,3.4,3.8,5.5c-1.6,2.1-6.5,0.8-6.5-2C332.1,976.3,334.2,974.6,334.8,973.8z"/>
	<path class="st17" d="M1155.8,954.7c-3-3.8-6.4,4.1-4.5,6.6c1.9,2.5,7.8,1,7.8-2.3C1159,957.6,1156.6,955.6,1155.8,954.7z"/>
	<path class="st17" d="M341,954.7c-3-3.8-6.4,4.1-4.5,6.6c1.9,2.5,7.8,1,7.8-2.3C344.2,957.6,341.8,955.6,341,954.7z"/>
	<path class="st17" d="M850,978.2c-2.1,2.4-0.6,5.3-1.6,8.1c-0.7,2.1-2.8,8.6-1.3,10.6c3,4,8.8-2.5,9.3-5.7
		c0.9-5.2,0.9-9.7-3.4-12.9C851.4,977.1,852.3,975.6,850,978.2z"/>
	<path class="st17" d="M724.7,977.2c-2.1,2.4-0.6,5.3-1.6,8.1c-0.7,2.1-2.8,8.6-1.3,10.6c3,4,8.8-2.5,9.3-5.7
		c0.9-5.2,0.9-9.7-3.4-12.9C726.1,976,727,974.5,724.7,977.2z"/>
	<path class="st17" d="M935.9,978.2c-2.1,2.4-0.6,5.3-1.6,8.1c-0.7,2.1-2.8,8.6-1.3,10.6c3,4,8.8-2.5,9.3-5.7
		c0.9-5.2,0.9-9.7-3.4-12.9C937.3,977.1,938.2,975.6,935.9,978.2z"/>
	<path class="st17" d="M810.7,977.2c-2.1,2.4-0.6,5.3-1.6,8.1c-0.7,2.1-2.8,8.6-1.3,10.6c3,4,8.8-2.5,9.3-5.7
		c0.9-5.2,0.9-9.7-3.4-12.9C812,976,813,974.5,810.7,977.2z"/>
	<path class="st17" d="M621.2,986.5c-2.1,2.4-0.6,5.3-1.6,8.1c-0.7,2.1-2.8,8.6-1.3,10.6c3,4,8.8-2.5,9.3-5.7
		c0.9-5.2,0.9-9.7-3.4-12.9C622.6,985.4,623.5,983.9,621.2,986.5z"/>
	<path class="st17" d="M586,986.5c-2.1,2.4-0.6,5.3-1.6,8.1c-0.7,2.1-2.8,8.6-1.3,10.6c3,4,8.8-2.5,9.3-5.7
		c0.9-5.2,0.9-9.7-3.4-12.9C587.4,985.4,588.3,983.9,586,986.5z"/>
	<path class="st17" d="M522.8,976.2c-2.1,2.4-0.6,5.3-1.6,8.1c-0.7,2.1-2.8,8.6-1.3,10.6c3,4,8.8-2.5,9.3-5.7
		c0.9-5.2,0.9-9.7-3.4-12.9C524.2,975,525.1,973.5,522.8,976.2z"/>
	<path class="st17" d="M487.6,976.2c-2.1,2.4-0.6,5.3-1.6,8.1c-0.7,2.1-2.8,8.6-1.3,10.6c3,4,8.8-2.5,9.3-5.7
		c0.9-5.2,0.9-9.7-3.4-12.9C489,975,489.9,973.5,487.6,976.2z"/>
	<path class="st17" d="M711.1,984c1.7,2,0.5,4.4,1.3,6.8c0.6,1.8,2.3,7.3,1.1,8.9c-2.5,3.4-7.4-2.1-7.8-4.8
		c-0.7-4.3-0.7-8.2,2.8-10.8C709.9,983,709.2,981.8,711.1,984z"/>
	<path class="st17" d="M675.9,984c1.7,2,0.5,4.4,1.3,6.8c0.6,1.8,2.3,7.3,1.1,8.9c-2.5,3.4-7.4-2.1-7.8-4.8
		c-0.7-4.3-0.7-8.2,2.8-10.8C674.7,983,674,981.8,675.9,984z"/>
	<path class="st17" d="M612.7,973.6c1.7,2,0.5,4.4,1.3,6.8c0.6,1.8,2.3,7.3,1.1,8.9c-2.5,3.4-7.4-2.1-7.8-4.8
		c-0.7-4.3-0.7-8.2,2.8-10.8C611.6,972.7,610.8,971.4,612.7,973.6z"/>
	<path class="st17" d="M577.5,973.6c1.7,2,0.5,4.4,1.3,6.8c0.6,1.8,2.3,7.3,1.1,8.9c-2.5,3.4-7.4-2.1-7.8-4.8
		c-0.7-4.3-0.7-8.2,2.8-10.8C576.4,972.7,575.6,971.4,577.5,973.6z"/>
	<path class="st17" d="M1149,978.8c1.7,2,0.5,4.4,1.3,6.8c0.6,1.8,2.3,7.3,1.1,8.9c-2.5,3.4-7.4-2.1-7.8-4.8
		c-0.7-4.3-0.8-8.2,2.8-10.8C1147.9,977.8,1147.1,976.6,1149,978.8z"/>
	<path class="st17" d="M334.2,978.8c1.7,2,0.5,4.4,1.3,6.8c0.6,1.8,2.3,7.3,1.1,8.9c-2.5,3.4-7.4-2.1-7.8-4.8
		c-0.7-4.3-0.7-8.2,2.8-10.8C333.1,977.8,332.3,976.6,334.2,978.8z"/>
	<path class="st17" d="M1156.4,960.6c-2.1,2.4-0.6,5.3-1.6,8.1c-0.7,2.1-2.8,8.6-1.3,10.6c3,4,8.8-2.5,9.3-5.7
		c0.9-5.2,0.9-9.7-3.4-12.9C1157.8,959.5,1158.8,958,1156.4,960.6z"/>
	<path class="st17" d="M341.7,960.6c-2.1,2.4-0.6,5.3-1.6,8.1c-0.7,2.1-2.8,8.6-1.3,10.6c3,4,8.8-2.5,9.3-5.7
		c0.9-5.2,0.9-9.7-3.4-12.9C343,959.5,344,958,341.7,960.6z"/>
	<path class="st17" d="M852.1,997c-0.2-0.2-1.1-1.3-1.6-0.5c-0.7,1.4,1.5,4.2,2.1,5.4c0.4,0.9,5,9.8,5.4,9.8c1.1,0,1.7-2.1,2.1-2.8"
		/>
	<path class="st17" d="M726.8,995.9c-0.2-0.2-1.1-1.3-1.6-0.5c-0.7,1.4,1.5,4.2,2.1,5.4c0.4,0.9,5,9.8,5.4,9.8
		c1.1,0,1.7-2.1,2.1-2.8"/>
	<path class="st17" d="M938,997c-0.2-0.2-1.1-1.3-1.6-0.5c-0.7,1.4,1.5,4.2,2.1,5.4c0.4,0.9,5,9.8,5.4,9.8c1.1,0,1.7-2.1,2.1-2.8"/>
	<path class="st17" d="M812.7,995.9c-0.2-0.2-1.1-1.3-1.6-0.5c-0.7,1.4,1.5,4.2,2.1,5.4c0.4,0.9,5,9.8,5.4,9.8
		c1.1,0,1.7-2.1,2.1-2.8"/>
	<path class="st17" d="M623.3,1005.3c-0.2-0.2-1.1-1.3-1.6-0.5c-0.7,1.4,1.5,4.2,2.1,5.4c0.4,0.9,5,9.8,5.4,9.8
		c1.1,0,1.7-2.1,2.1-2.8"/>
	<path class="st17" d="M588.1,1005.3c-0.2-0.2-1.1-1.3-1.6-0.5c-0.7,1.4,1.5,4.2,2.1,5.4c0.4,0.9,5,9.8,5.4,9.8
		c1.1,0,1.7-2.1,2.1-2.8"/>
	<path class="st17" d="M524.9,994.9c-0.2-0.2-1.1-1.3-1.6-0.5c-0.7,1.4,1.5,4.2,2.1,5.4c0.4,0.9,5,9.8,5.4,9.8
		c1.1,0,1.7-2.1,2.1-2.9"/>
	<path class="st17" d="M489.7,994.9c-0.2-0.2-1.1-1.3-1.6-0.5c-0.7,1.4,1.5,4.2,2.1,5.4c0.4,0.9,5,9.8,5.4,9.8
		c1.1,0,1.7-2.1,2.1-2.9"/>
	<path class="st17" d="M709.4,999.7c0.2-0.2,1-1.1,1.3-0.4c0.6,1.2-1.2,3.5-1.7,4.6c-0.4,0.8-4.2,8.3-4.6,8.3
		c-0.9,0-1.4-1.8-1.7-2.4"/>
	<path class="st17" d="M674.2,999.7c0.2-0.2,1-1.1,1.3-0.4c0.6,1.2-1.2,3.5-1.7,4.6c-0.4,0.8-4.2,8.3-4.6,8.3
		c-0.9,0-1.4-1.8-1.7-2.4"/>
	<path class="st17" d="M611,989.4c0.2-0.2,1-1.1,1.3-0.4c0.6,1.2-1.2,3.5-1.7,4.6c-0.4,0.8-4.2,8.2-4.6,8.2c-0.9,0-1.4-1.8-1.7-2.4"
		/>
	<path class="st17" d="M575.8,989.4c0.2-0.2,1-1.1,1.3-0.4c0.6,1.2-1.2,3.5-1.7,4.6c-0.4,0.8-4.2,8.2-4.6,8.2
		c-0.9,0-1.4-1.8-1.7-2.4"/>
	<path class="st17" d="M1147.3,994.6c0.2-0.2,1-1.1,1.3-0.4c0.6,1.2-1.2,3.5-1.7,4.6c-0.4,0.8-4.2,8.2-4.5,8.2
		c-0.9,0-1.4-1.8-1.7-2.4"/>
	<path class="st17" d="M332.5,994.6c0.2-0.2,1-1.1,1.3-0.4c0.6,1.2-1.2,3.5-1.7,4.6c-0.4,0.8-4.2,8.2-4.6,8.2
		c-0.9,0-1.4-1.8-1.7-2.4"/>
	<path class="st17" d="M1158.5,979.4c-0.2-0.2-1.2-1.3-1.6-0.5c-0.7,1.4,1.5,4.2,2.1,5.4c0.4,0.9,5,9.8,5.4,9.8
		c1.1,0,1.7-2.1,2.1-2.8"/>
	<path class="st17" d="M343.7,979.4c-0.2-0.2-1.1-1.3-1.6-0.5c-0.7,1.4,1.5,4.2,2.1,5.4c0.4,0.9,5,9.8,5.4,9.8
		c1.1,0,1.7-2.1,2.1-2.8"/>
	<path class="st17" d="M850.8,997c-0.2-0.3-3.2-1.2-3.6-1c-0.8,0.3-0.1,4.8-0.3,5.4c-0.5,2.8-3.7,9,0.8,9"/>
	<path class="st17" d="M725.5,995.9c-0.2-0.3-3.2-1.2-3.6-1c-0.8,0.3-0.1,4.8-0.3,5.4c-0.5,2.9-3.7,9,0.8,9"/>
	<path class="st17" d="M936.7,997c-0.2-0.3-3.2-1.2-3.6-1c-0.8,0.3-0.1,4.8-0.3,5.4c-0.5,2.8-3.7,9,0.8,9"/>
	<path class="st17" d="M811.4,995.9c-0.2-0.3-3.2-1.2-3.6-1c-0.8,0.3-0.1,4.8-0.3,5.4c-0.5,2.9-3.7,9,0.8,9"/>
	<path class="st17" d="M622,1005.3c-0.2-0.3-3.2-1.2-3.6-1c-0.8,0.3-0.1,4.8-0.3,5.4c-0.5,2.9-3.7,9.1,0.8,9.1"/>
	<path class="st17" d="M586.8,1005.3c-0.2-0.3-3.2-1.2-3.6-1c-0.8,0.3-0.1,4.8-0.3,5.4c-0.5,2.9-3.7,9.1,0.8,9.1"/>
	<path class="st17" d="M523.6,994.9c-0.2-0.3-3.2-1.2-3.6-1c-0.8,0.3-0.1,4.8-0.3,5.4c-0.5,2.9-3.7,9.1,0.8,9.1"/>
	<path class="st17" d="M488.4,994.9c-0.2-0.3-3.2-1.2-3.6-1c-0.8,0.3-0.1,4.8-0.3,5.4c-0.5,2.9-3.7,9.1,0.8,9.1"/>
	<path class="st17" d="M710.4,999.7c0.1-0.3,2.7-1,3-0.9c0.6,0.2,0.1,4,0.2,4.6c0.4,2.4,3.1,7.6-0.7,7.6"/>
	<path class="st17" d="M675.2,999.7c0.1-0.3,2.7-1,3-0.9c0.6,0.2,0.1,4,0.2,4.6c0.4,2.4,3.1,7.6-0.7,7.6"/>
	<path class="st17" d="M612.1,989.4c0.1-0.3,2.7-1,3-0.9c0.6,0.2,0.1,4,0.2,4.6c0.4,2.4,3.1,7.6-0.7,7.6"/>
	<path class="st17" d="M576.9,989.4c0.1-0.3,2.7-1,3-0.9c0.6,0.2,0.1,4,0.2,4.6c0.4,2.4,3.1,7.6-0.7,7.6"/>
	<path class="st17" d="M1148.4,994.6c0.1-0.3,2.7-1,3-0.9c0.6,0.2,0.1,4,0.2,4.6c0.4,2.4,3.1,7.6-0.7,7.6"/>
	<path class="st17" d="M333.6,994.6c0.1-0.3,2.7-1,3-0.9c0.6,0.2,0.1,4,0.2,4.6c0.4,2.4,3.1,7.6-0.7,7.6"/>
	<path class="st17" d="M1157.2,979.4c-0.2-0.3-3.2-1.2-3.6-1c-0.8,0.3-0.1,4.8-0.3,5.4c-0.5,2.9-3.7,9.1,0.8,9.1"/>
	<path class="st17" d="M342.4,979.4c-0.2-0.3-3.2-1.2-3.6-1c-0.8,0.3-0.1,4.8-0.3,5.4c-0.5,2.9-3.7,9.1,0.8,9.1"/>
	<path class="st17" d="M872.5,975.5c-4.3-2.1-9.5,6.7-1.6,8c1.9,0.3,2,0.1,2.8-1.6"/>
	<path class="st17" d="M747.2,974.5c-4.3-2.1-9.5,6.7-1.6,8c1.9,0.3,2,0.1,2.8-1.6"/>
	<path class="st17" d="M958.4,975.5c-4.3-2.1-9.5,6.7-1.6,8c1.9,0.3,2,0.1,2.8-1.6"/>
	<path class="st17" d="M833.2,974.5c-4.3-2.1-9.5,6.7-1.6,8c1.9,0.3,2,0.1,2.8-1.6"/>
	<path class="st17" d="M643.7,983.8c-4.3-2.1-9.5,6.7-1.6,8c1.9,0.3,2,0.1,2.8-1.6"/>
	<path class="st17" d="M608.5,983.8c-4.3-2.1-9.5,6.7-1.6,8c1.9,0.3,2,0.1,2.8-1.6"/>
	<path class="st17" d="M545.3,973.4c-4.3-2.1-9.5,6.7-1.6,8c1.9,0.3,2,0.1,2.8-1.6"/>
	<path class="st17" d="M510.1,973.4c-4.3-2.1-9.5,6.7-1.6,8c1.9,0.3,2,0.1,2.8-1.6"/>
	<path class="st17" d="M692.2,981.7c3.6-1.8,7.9,5.6,1.3,6.7c-1.6,0.3-1.7,0.1-2.4-1.3"/>
	<path class="st17" d="M657,981.7c3.6-1.8,7.9,5.6,1.3,6.7c-1.6,0.3-1.7,0.1-2.4-1.3"/>
	<path class="st17" d="M593.9,971.4c3.6-1.8,7.9,5.6,1.3,6.7c-1.6,0.3-1.7,0.1-2.4-1.3"/>
	<path class="st17" d="M558.7,971.4c3.6-1.8,7.9,5.6,1.3,6.7c-1.6,0.3-1.7,0.1-2.4-1.3"/>
	<path class="st17" d="M1130.2,976.5c3.6-1.8,7.9,5.6,1.3,6.7c-1.6,0.3-1.7,0.1-2.4-1.3"/>
	<path class="st17" d="M315.4,976.5c3.6-1.8,7.9,5.6,1.3,6.7c-1.6,0.3-1.7,0.1-2.4-1.3"/>
	<path class="st17" d="M1178.9,957.9c-4.3-2.1-9.5,6.7-1.5,8c1.9,0.3,2,0.1,2.8-1.6"/>
	<path class="st17" d="M364.2,957.9c-4.3-2.1-9.5,6.7-1.6,8c1.9,0.3,2,0.1,2.8-1.6"/>
	<path class="st17" d="M868.4,982.5c-3.9,2-3.3,10.2-0.5,12.9c4.8,4.8,11.4,3.2,11.4-4.1c0-1.7-0.6-2.7-1.3-4.1
		c-0.7-1.4-2.4-3.7-3.6-4.9"/>
	<path class="st17" d="M743.1,981.5c-3.9,2-3.3,10.2-0.5,12.9c4.8,4.8,11.4,3.2,11.4-4.1c0-1.7-0.6-2.7-1.3-4.1
		c-0.7-1.4-2.4-3.7-3.6-4.9"/>
	<path class="st17" d="M954.3,982.5c-3.9,2-3.3,10.2-0.5,12.9c4.8,4.8,11.4,3.2,11.4-4.1c0-1.7-0.6-2.7-1.3-4.1
		c-0.7-1.4-2.4-3.7-3.6-4.9"/>
	<path class="st17" d="M829,981.5c-3.9,2-3.3,10.2-0.5,12.9c4.8,4.8,11.4,3.2,11.4-4.1c0-1.7-0.6-2.7-1.3-4.1
		c-0.7-1.4-2.4-3.7-3.6-4.9"/>
	<path class="st17" d="M639.6,990.8c-3.9,2-3.3,10.2-0.5,12.9c4.8,4.8,11.4,3.2,11.4-4.1c0-1.7-0.6-2.7-1.3-4.1
		c-0.7-1.4-2.4-3.7-3.6-4.9"/>
	<path class="st17" d="M604.4,990.8c-3.9,2-3.3,10.2-0.5,12.9c4.8,4.8,11.4,3.2,11.4-4.1c0-1.7-0.6-2.7-1.3-4.1
		c-0.7-1.4-2.4-3.7-3.6-4.9"/>
	<path class="st17" d="M541.2,980.4c-3.9,2-3.3,10.2-0.5,12.9c4.8,4.8,11.4,3.2,11.4-4.1c0-1.7-0.6-2.7-1.3-4.1
		c-0.7-1.4-2.4-3.7-3.6-4.9"/>
	<path class="st17" d="M506,980.4c-3.9,2-3.3,10.2-0.5,12.9c4.8,4.8,11.4,3.2,11.4-4.1c0-1.7-0.6-2.7-1.3-4.1
		c-0.7-1.4-2.4-3.7-3.6-4.9"/>
	<path class="st17" d="M695.7,987.6c3.3,1.6,2.7,8.5,0.4,10.8c-4,4-9.5,2.7-9.5-3.5c0-1.4,0.5-2.2,1.1-3.5c0.6-1.2,2.1-3.1,3-4.1"/>
	<path class="st17" d="M660.5,987.6c3.3,1.6,2.7,8.5,0.4,10.8c-4,4-9.5,2.7-9.5-3.5c0-1.4,0.5-2.2,1.1-3.5c0.6-1.2,2.1-3.1,3-4.1"/>
	<path class="st17" d="M597.3,977.2c3.3,1.6,2.7,8.5,0.4,10.8c-4,4-9.5,2.7-9.5-3.5c0-1.4,0.5-2.2,1.1-3.5c0.6-1.2,2.1-3.1,3-4.1"/>
	<path class="st17" d="M562.1,977.2c3.3,1.6,2.7,8.5,0.4,10.8c-4,4-9.5,2.7-9.5-3.5c0-1.4,0.5-2.2,1.1-3.5c0.6-1.2,2.1-3.1,3-4.1"/>
	<path class="st17" d="M1133.6,982.4c3.3,1.6,2.7,8.5,0.4,10.8c-4,4-9.6,2.7-9.6-3.5c0-1.4,0.5-2.2,1.1-3.5c0.6-1.2,2.1-3.1,3-4.1"
		/>
	<path class="st17" d="M318.8,982.4c3.3,1.6,2.7,8.5,0.4,10.8c-4,4-9.5,2.7-9.5-3.5c0-1.4,0.5-2.2,1.1-3.5c0.6-1.2,2.1-3.1,3-4.1"/>
	<path class="st17" d="M1174.8,964.9c-3.9,2-3.3,10.2-0.5,12.9c4.8,4.8,11.4,3.2,11.4-4.1c0-1.7-0.6-2.7-1.3-4.1
		c-0.7-1.4-2.4-3.7-3.6-4.9"/>
	<path class="st17" d="M360,964.9c-3.9,2-3.3,10.2-0.5,12.9c4.8,4.8,11.4,3.2,11.4-4.1c0-1.7-0.6-2.7-1.3-4.1
		c-0.7-1.4-2.4-3.7-3.6-4.9"/>
	<path class="st17" d="M870.4,996.1c-0.6-0.5-1.4-1.6-2.1-1.2c-0.3,0.2-0.7,4.7-0.8,5.2c-0.1,1.1-1.1,12.8-0.3,13.5
		c0.6,0.4,4,0.1,4.1-0.5c0.5-2.5-0.6-5.4-0.3-8c0.2-1.4,1.7-5.2,1-6.5C871.8,997.6,871.2,996.8,870.4,996.1z"/>
	<path class="st17" d="M745.2,995c-0.6-0.5-1.4-1.6-2.1-1.2c-0.3,0.2-0.7,4.7-0.8,5.2c-0.1,1.1-1.1,12.8-0.3,13.5
		c0.6,0.4,4,0.1,4.1-0.5c0.5-2.5-0.6-5.4-0.3-8c0.2-1.4,1.7-5.1,1-6.5C746.5,996.6,745.9,995.7,745.2,995z"/>
	<path class="st17" d="M956.4,996.1c-0.6-0.5-1.4-1.6-2.1-1.2c-0.3,0.2-0.7,4.7-0.8,5.2c-0.1,1.1-1.1,12.8-0.3,13.5
		c0.6,0.4,4,0.1,4.1-0.5c0.5-2.5-0.6-5.4-0.3-8c0.2-1.4,1.7-5.2,1-6.5C957.7,997.6,957.1,996.8,956.4,996.1z"/>
	<path class="st17" d="M831.1,995c-0.6-0.5-1.4-1.6-2.1-1.2c-0.3,0.2-0.7,4.7-0.8,5.2c-0.1,1.1-1.1,12.8-0.3,13.5
		c0.6,0.4,4,0.1,4.1-0.5c0.5-2.5-0.6-5.4-0.3-8c0.2-1.4,1.7-5.1,1-6.5C832.4,996.6,831.8,995.7,831.1,995z"/>
	<path class="st17" d="M641.6,1004.4c-0.6-0.5-1.4-1.6-2.1-1.2c-0.3,0.2-0.7,4.7-0.8,5.2c-0.1,1.1-1.1,12.9-0.3,13.5
		c0.6,0.4,4,0.1,4.1-0.5c0.5-2.5-0.6-5.4-0.3-8c0.2-1.4,1.7-5.2,1-6.5C643,1005.9,642.4,1005,641.6,1004.4z"/>
	<path class="st17" d="M606.4,1004.4c-0.6-0.5-1.4-1.6-2.1-1.2c-0.3,0.2-0.7,4.7-0.8,5.2c-0.1,1.1-1.1,12.9-0.3,13.5
		c0.6,0.4,4,0.1,4.1-0.5c0.5-2.5-0.6-5.4-0.3-8c0.2-1.4,1.7-5.2,1-6.5C607.8,1005.9,607.2,1005,606.4,1004.4z"/>
	<path class="st17" d="M543.3,994c-0.6-0.5-1.4-1.6-2.1-1.2c-0.3,0.2-0.7,4.7-0.8,5.2c-0.1,1.1-1.1,12.8-0.3,13.4
		c0.6,0.4,4,0.1,4.1-0.5c0.5-2.5-0.6-5.4-0.3-8c0.2-1.5,1.7-5.2,1-6.5C544.6,995.6,544,994.7,543.3,994z"/>
	<path class="st17" d="M508.1,994c-0.6-0.5-1.4-1.6-2.1-1.2c-0.3,0.2-0.7,4.7-0.8,5.2c-0.1,1.1-1.1,12.8-0.3,13.4
		c0.6,0.4,4,0.1,4.1-0.5c0.5-2.5-0.6-5.4-0.3-8c0.2-1.5,1.7-5.2,1-6.5C509.4,995.6,508.8,994.7,508.1,994z"/>
	<path class="st17" d="M694,999c0.5-0.5,1.2-1.3,1.7-1c0.2,0.2,0.6,3.9,0.7,4.3c0.1,1,0.9,10.8,0.2,11.3c-0.5,0.4-3.4,0.1-3.5-0.4
		c-0.4-2.1,0.5-4.5,0.2-6.7c-0.2-1.2-1.4-4.3-0.9-5.4C692.8,1000.3,693.3,999.6,694,999z"/>
	<path class="st17" d="M658.8,999c0.5-0.5,1.2-1.3,1.7-1c0.2,0.2,0.6,3.9,0.7,4.3c0.1,1,0.9,10.8,0.2,11.3c-0.5,0.4-3.4,0.1-3.5-0.4
		c-0.4-2.1,0.5-4.5,0.2-6.7c-0.2-1.2-1.4-4.3-0.9-5.4C657.6,1000.3,658.1,999.6,658.8,999z"/>
	<path class="st17" d="M595.6,988.6c0.5-0.5,1.2-1.3,1.7-1c0.2,0.2,0.6,3.9,0.7,4.3c0.1,0.9,0.9,10.8,0.2,11.3
		c-0.5,0.3-3.4,0.1-3.5-0.4c-0.4-2.1,0.5-4.5,0.2-6.7c-0.2-1.2-1.4-4.3-0.9-5.4C594.5,989.9,595,989.2,595.6,988.6z"/>
	<path class="st17" d="M560.4,988.6c0.5-0.5,1.2-1.3,1.7-1c0.2,0.2,0.6,3.9,0.6,4.3c0.1,0.9,0.9,10.8,0.2,11.3
		c-0.5,0.3-3.4,0.1-3.5-0.4c-0.4-2.1,0.5-4.5,0.2-6.7c-0.2-1.2-1.4-4.3-0.9-5.4C559.3,989.9,559.8,989.2,560.4,988.6z"/>
	<path class="st17" d="M1131.9,993.8c0.5-0.5,1.2-1.3,1.7-1c0.2,0.2,0.6,3.9,0.7,4.3c0.1,0.9,0.9,10.8,0.2,11.3
		c-0.5,0.3-3.4,0.1-3.5-0.4c-0.4-2.1,0.5-4.5,0.2-6.7c-0.2-1.2-1.4-4.3-0.9-5.4C1130.8,995.1,1131.3,994.4,1131.9,993.8z"/>
	<path class="st17" d="M317.1,993.8c0.5-0.5,1.2-1.3,1.7-1c0.2,0.2,0.6,3.9,0.7,4.3c0.1,0.9,0.9,10.8,0.2,11.3
		c-0.5,0.3-3.4,0.1-3.5-0.4c-0.4-2.1,0.5-4.5,0.2-6.7c-0.2-1.2-1.4-4.3-0.9-5.4C316,995.1,316.5,994.4,317.1,993.8z"/>
	<path class="st17" d="M1176.9,978.5c-0.6-0.5-1.4-1.6-2.1-1.2c-0.3,0.2-0.7,4.7-0.8,5.2c-0.1,1.1-1.1,12.8-0.3,13.4
		c0.6,0.4,4,0.1,4.1-0.5c0.5-2.5-0.6-5.4-0.3-8c0.2-1.4,1.7-5.2,1-6.5C1178.2,980,1177.6,979.2,1176.9,978.5z"/>
	<path class="st17" d="M362.1,978.5c-0.6-0.5-1.4-1.6-2.1-1.2c-0.3,0.2-0.7,4.7-0.8,5.2c-0.1,1.1-1.1,12.8-0.3,13.4
		c0.6,0.4,4,0.1,4.1-0.5c0.5-2.5-0.6-5.4-0.3-8c0.2-1.4,1.7-5.2,1-6.5C363.4,980,362.8,979.2,362.1,978.5z"/>
	<path class="st17" d="M874.6,996.5c-0.8,0.2-1.7,0.4-2.1,1c-0.4,0.8,0.1,3.3,0.3,4.4c0.6,3.4,0.7,6.8,1.3,10.1
		c0.1,0.6-0.4,1.4,0,1.8c0.3,0.3,0.9,0.3,1.3,0.3c0.4,0,2.6-1.3,2.6-1.8c0-3.8-1.3-7.7-1.3-11.6c0-0.5,0.4-3.6-0.3-3.9
		C875.8,996.5,875.2,996.3,874.6,996.5z"/>
	<path class="st17" d="M749.3,995.4c-0.8,0.2-1.7,0.4-2.1,1c-0.4,0.8,0.1,3.3,0.3,4.4c0.6,3.4,0.7,6.8,1.3,10.1
		c0.1,0.6-0.4,1.4,0,1.8c0.3,0.3,0.9,0.3,1.3,0.3c0.4,0,2.6-1.3,2.6-1.8c0-3.8-1.3-7.7-1.3-11.6c0-0.5,0.4-3.6-0.3-3.9
		C750.5,995.5,749.9,995.3,749.3,995.4z"/>
	<path class="st17" d="M960.5,996.5c-0.8,0.2-1.7,0.4-2.1,1c-0.4,0.8,0.1,3.3,0.3,4.4c0.6,3.4,0.7,6.8,1.3,10.1
		c0.1,0.6-0.4,1.4,0,1.8c0.3,0.3,0.9,0.3,1.3,0.3c0.4,0,2.6-1.3,2.6-1.8c0-3.8-1.3-7.7-1.3-11.6c0-0.5,0.4-3.6-0.3-3.9
		C961.7,996.5,961.1,996.3,960.5,996.5z"/>
	<path class="st17" d="M835.2,995.4c-0.8,0.2-1.7,0.4-2.1,1c-0.4,0.8,0.1,3.3,0.3,4.4c0.6,3.4,0.7,6.8,1.3,10.1
		c0.1,0.6-0.4,1.4,0,1.8c0.3,0.3,0.9,0.3,1.3,0.3c0.4,0,2.6-1.3,2.6-1.8c0-3.8-1.3-7.7-1.3-11.6c0-0.5,0.4-3.6-0.3-3.9
		C836.5,995.5,835.8,995.3,835.2,995.4z"/>
	<path class="st17" d="M645.8,1004.7c-0.8,0.2-1.7,0.4-2.1,1c-0.4,0.8,0.1,3.3,0.3,4.4c0.6,3.4,0.7,6.8,1.3,10.1
		c0.1,0.6-0.4,1.4,0,1.8c0.3,0.3,0.9,0.3,1.3,0.3c0.4,0,2.6-1.3,2.6-1.8c0-3.8-1.3-7.7-1.3-11.6c0-0.5,0.4-3.7-0.3-3.9
		C647,1004.8,646.4,1004.6,645.8,1004.7z"/>
	<path class="st17" d="M610.6,1004.7c-0.8,0.2-1.7,0.4-2.1,1c-0.4,0.8,0.1,3.3,0.3,4.4c0.6,3.4,0.7,6.8,1.3,10.1
		c0.1,0.6-0.4,1.4,0,1.8c0.3,0.3,0.9,0.3,1.3,0.3c0.4,0,2.6-1.3,2.6-1.8c0-3.8-1.3-7.7-1.3-11.6c0-0.5,0.4-3.7-0.3-3.9
		C611.8,1004.8,611.2,1004.6,610.6,1004.7z"/>
	<path class="st17" d="M547.4,994.4c-0.8,0.2-1.7,0.4-2.1,1c-0.4,0.8,0.1,3.3,0.3,4.4c0.6,3.4,0.7,6.7,1.3,10.1
		c0.1,0.6-0.4,1.4,0,1.8c0.3,0.3,0.9,0.3,1.3,0.3c0.4,0,2.6-1.3,2.6-1.8c0-3.8-1.3-7.7-1.3-11.6c0-0.5,0.4-3.6-0.3-3.9
		C548.6,994.4,548,994.3,547.4,994.4z"/>
	<path class="st17" d="M512.2,994.4c-0.8,0.2-1.7,0.4-2.1,1c-0.4,0.8,0.1,3.3,0.3,4.4c0.6,3.4,0.7,6.7,1.3,10.1
		c0.1,0.6-0.4,1.4,0,1.8c0.3,0.3,0.9,0.3,1.3,0.3c0.4,0,2.6-1.3,2.6-1.8c0-3.8-1.3-7.7-1.3-11.6c0-0.5,0.4-3.6-0.3-3.9
		C513.4,994.4,512.8,994.3,512.2,994.4z"/>
	<path class="st17" d="M690.5,999.3c0.6,0.1,1.4,0.3,1.7,0.9c0.4,0.7-0.1,2.8-0.2,3.7c-0.5,2.9-0.6,5.7-1.1,8.5
		c-0.1,0.5,0.4,1.2,0,1.5c-0.3,0.3-0.7,0.2-1.1,0.2c-0.3,0-2.2-1.1-2.2-1.5c0-3.2,1.1-6.5,1.1-9.8c0-0.4-0.3-3.1,0.2-3.3
		C689.4,999.3,690,999.2,690.5,999.3z"/>
	<path class="st17" d="M655.3,999.3c0.6,0.1,1.4,0.3,1.7,0.9c0.4,0.7-0.1,2.8-0.2,3.7c-0.5,2.9-0.6,5.7-1.1,8.5
		c-0.1,0.5,0.4,1.2,0,1.5c-0.3,0.3-0.7,0.2-1.1,0.2c-0.3,0-2.2-1.1-2.2-1.5c0-3.2,1.1-6.5,1.1-9.8c0-0.4-0.3-3.1,0.2-3.3
		C654.2,999.3,654.8,999.2,655.3,999.3z"/>
	<path class="st17" d="M592.1,988.9c0.6,0.1,1.4,0.3,1.7,0.9c0.4,0.7-0.1,2.8-0.2,3.7c-0.5,2.9-0.6,5.7-1.1,8.5
		c-0.1,0.5,0.4,1.2,0,1.5c-0.3,0.3-0.7,0.2-1.1,0.2c-0.3,0-2.2-1.1-2.2-1.5c0-3.2,1.1-6.5,1.1-9.8c0-0.4-0.3-3.1,0.2-3.3
		C591.1,989,591.6,988.8,592.1,988.9z"/>
	<path class="st17" d="M556.9,988.9c0.6,0.1,1.4,0.3,1.7,0.9c0.4,0.7-0.1,2.8-0.2,3.7c-0.5,2.9-0.6,5.7-1.1,8.5
		c-0.1,0.5,0.4,1.2,0,1.5c-0.3,0.3-0.7,0.2-1.1,0.2c-0.3,0-2.2-1.1-2.2-1.5c0-3.2,1.1-6.5,1.1-9.8c0-0.4-0.3-3.1,0.2-3.3
		C555.9,989,556.4,988.8,556.9,988.9z"/>
	<path class="st17" d="M1128.4,994.1c0.6,0.1,1.4,0.3,1.7,0.9c0.3,0.7-0.1,2.8-0.2,3.7c-0.5,2.9-0.6,5.7-1.1,8.5
		c-0.1,0.5,0.4,1.2,0,1.5c-0.3,0.3-0.7,0.2-1.1,0.2c-0.3,0-2.2-1.1-2.2-1.5c0-3.2,1.1-6.5,1.1-9.8c0-0.4-0.3-3.1,0.2-3.3
		C1127.4,994.2,1127.9,994,1128.4,994.1z"/>
	<path class="st17" d="M313.6,994.1c0.6,0.1,1.4,0.3,1.7,0.9c0.4,0.7-0.1,2.8-0.2,3.7c-0.5,2.9-0.6,5.7-1.1,8.5
		c-0.1,0.5,0.4,1.2,0,1.5c-0.3,0.3-0.7,0.2-1.1,0.2c-0.3,0-2.2-1.1-2.2-1.5c0-3.2,1.1-6.5,1.1-9.8c0-0.4-0.3-3.1,0.2-3.3
		C312.6,994.2,313.1,994,313.6,994.1z"/>
	<path class="st17" d="M1181,978.9c-0.8,0.2-1.7,0.4-2.1,1c-0.4,0.8,0.1,3.3,0.3,4.4c0.6,3.4,0.7,6.8,1.3,10.1
		c0.1,0.6-0.4,1.4,0,1.8c0.3,0.3,0.8,0.3,1.3,0.3c0.4,0,2.6-1.3,2.6-1.8c0-3.8-1.3-7.7-1.3-11.6c0-0.5,0.3-3.6-0.3-3.9
		C1182.3,978.9,1181.6,978.7,1181,978.9z"/>
	<path class="st17" d="M366.2,978.9c-0.8,0.2-1.7,0.4-2.1,1c-0.4,0.8,0.1,3.3,0.3,4.4c0.6,3.4,0.7,6.8,1.3,10.1
		c0.1,0.6-0.4,1.4,0,1.8c0.3,0.3,0.9,0.3,1.3,0.3c0.4,0,2.6-1.3,2.6-1.8c0-3.8-1.3-7.7-1.3-11.6c0-0.5,0.4-3.6-0.3-3.9
		C367.5,978.9,366.8,978.7,366.2,978.9z"/>
	<path class="st17" d="M925.9,970.3c-2.5-3-6.7,3.5-4.5,5.7c1.2,1.2,5.2,1.9,6.5,0.3C929,974.8,926.9,971.5,925.9,970.3z"/>
	<path class="st17" d="M800.6,969.3c-2.5-3-6.7,3.5-4.5,5.7c1.2,1.2,5.2,1.9,6.5,0.3C803.7,973.8,801.6,970.5,800.6,969.3z"/>
	<path class="st17" d="M1011.8,970.3c-2.5-3-6.7,3.5-4.5,5.7c1.2,1.2,5.2,1.9,6.5,0.3C1014.9,974.8,1012.8,971.5,1011.8,970.3z"/>
	<path class="st17" d="M886.6,969.3c-2.5-3-6.7,3.5-4.5,5.7c1.2,1.2,5.2,1.9,6.5,0.3C889.6,973.8,887.5,970.5,886.6,969.3z"/>
	<path class="st17" d="M697.1,978.6c-2.5-3-6.7,3.5-4.5,5.7c1.2,1.2,5.2,1.9,6.5,0.3C700.2,983.1,698.1,979.8,697.1,978.6z"/>
	<path class="st17" d="M661.9,978.6c-2.5-3-6.7,3.5-4.5,5.7c1.2,1.2,5.2,1.9,6.5,0.3C665,983.1,662.9,979.8,661.9,978.6z"/>
	<path class="st17" d="M598.7,968.3c-2.5-3-6.7,3.5-4.5,5.7c1.2,1.2,5.2,1.9,6.5,0.3C601.8,972.7,599.7,969.4,598.7,968.3z"/>
	<path class="st17" d="M563.5,968.3c-2.5-3-6.7,3.5-4.5,5.7c1.2,1.2,5.2,1.9,6.5,0.3C566.6,972.7,564.5,969.4,563.5,968.3z"/>
	<path class="st17" d="M647.4,977.4c2.1-2.5,5.6,3,3.8,4.8c-1,1-4.4,1.6-5.4,0.2C644.8,981.1,646.6,978.4,647.4,977.4z"/>
	<path class="st17" d="M612.2,977.4c2.1-2.5,5.6,3,3.8,4.8c-1,1-4.4,1.6-5.4,0.2C609.7,981.1,611.4,978.4,612.2,977.4z"/>
	<path class="st17" d="M549.1,967c2.1-2.5,5.6,3,3.8,4.8c-1,1-4.4,1.6-5.4,0.2C546.5,970.8,548.2,968,549.1,967z"/>
	<path class="st17" d="M513.9,967c2.1-2.5,5.6,3,3.8,4.8c-1,1-4.4,1.6-5.4,0.2C511.3,970.8,513,968,513.9,967z"/>
	<path class="st17" d="M1085.3,972.2c2.1-2.5,5.6,3,3.8,4.8c-1,1-4.4,1.6-5.4,0.2C1082.8,975.9,1084.5,973.2,1085.3,972.2z"/>
	<path class="st17" d="M1232.4,952.7c-2.5-3-6.7,3.5-4.5,5.7c1.2,1.2,5.2,1.9,6.5,0.3C1235.4,957.2,1233.3,953.9,1232.4,952.7z"/>
	<path class="st17" d="M922.7,975.5c0-1.8-1.2,2.8-1.3,3.9c-0.3,2.5-0.5,5.6-1.3,8c-0.3,0.8-1.8,3.9-0.5,4.1
		c1.3,0.3,9.8,0.4,10.3-0.8c1.3-2.5-0.8-5.8-1.3-8c-0.3-1.3,0.8-2.4,0.5-3.6c-0.1-0.6-0.9-1.1-1.3-1.6"/>
	<path class="st17" d="M797.4,974.5c0-1.8-1.2,2.8-1.3,3.9c-0.3,2.5-0.5,5.6-1.3,8c-0.3,0.8-1.8,3.9-0.5,4.1
		c1.3,0.3,9.8,0.4,10.3-0.8c1.3-2.5-0.8-5.8-1.3-8c-0.3-1.3,0.8-2.4,0.5-3.6c-0.1-0.6-0.9-1.1-1.3-1.6"/>
	<path class="st17" d="M1008.6,975.5c0-1.8-1.2,2.8-1.3,3.9c-0.3,2.5-0.5,5.6-1.3,8c-0.3,0.8-1.8,3.9-0.5,4.1
		c1.3,0.3,9.8,0.4,10.3-0.8c1.3-2.5-0.8-5.8-1.3-8c-0.3-1.3,0.8-2.4,0.5-3.6c-0.1-0.6-0.9-1.1-1.3-1.6"/>
	<path class="st17" d="M883.3,974.5c0-1.8-1.2,2.8-1.3,3.9c-0.3,2.5-0.5,5.6-1.3,8c-0.3,0.8-1.8,3.9-0.5,4.1
		c1.3,0.3,9.8,0.4,10.3-0.8c1.3-2.5-0.8-5.8-1.3-8c-0.3-1.3,0.8-2.4,0.5-3.6c-0.1-0.6-0.9-1.1-1.3-1.6"/>
	<path class="st17" d="M693.9,983.8c0-1.8-1.2,2.8-1.3,3.9c-0.3,2.5-0.5,5.6-1.3,8c-0.3,0.8-1.8,3.9-0.5,4.1
		c1.3,0.3,9.8,0.4,10.3-0.8c1.3-2.5-0.8-5.8-1.3-8c-0.3-1.3,0.8-2.4,0.5-3.6c-0.1-0.6-0.9-1.1-1.3-1.6"/>
	<path class="st17" d="M658.7,983.8c0-1.8-1.2,2.8-1.3,3.9c-0.3,2.5-0.5,5.6-1.3,8c-0.3,0.8-1.8,3.9-0.5,4.1
		c1.3,0.3,9.8,0.4,10.3-0.8c1.3-2.5-0.8-5.8-1.3-8c-0.3-1.3,0.8-2.4,0.5-3.6c-0.1-0.6-0.9-1.1-1.3-1.6"/>
	<path class="st17" d="M595.5,973.4c0-1.8-1.2,2.8-1.3,3.9c-0.3,2.5-0.5,5.6-1.3,8c-0.3,0.8-1.8,3.9-0.5,4.1
		c1.3,0.3,9.8,0.4,10.3-0.8c1.3-2.5-0.8-5.8-1.3-8c-0.3-1.3,0.8-2.4,0.5-3.6c-0.1-0.6-0.9-1.1-1.3-1.6"/>
	<path class="st17" d="M560.3,973.4c0-1.8-1.2,2.8-1.3,3.9c-0.3,2.5-0.5,5.6-1.3,8c-0.3,0.8-1.8,3.9-0.5,4.1
		c1.3,0.3,9.8,0.4,10.3-0.8c1.3-2.5-0.8-5.8-1.3-8c-0.3-1.3,0.8-2.4,0.5-3.6c-0.1-0.6-0.9-1.1-1.3-1.6"/>
	<path class="st17" d="M650.1,981.7c0-1.5,1,2.4,1.1,3.3c0.3,2.1,0.4,4.7,1.1,6.7c0.2,0.7,1.5,3.3,0.4,3.5c-1.1,0.2-8.2,0.3-8.7-0.7
		c-1-2.1,0.7-4.8,1.1-6.7c0.2-1.1-0.6-2-0.4-3c0.1-0.5,0.7-0.9,1.1-1.3"/>
	<path class="st17" d="M614.9,981.7c0-1.5,1,2.4,1.1,3.3c0.3,2.1,0.4,4.7,1.1,6.7c0.2,0.7,1.5,3.3,0.4,3.5c-1.1,0.2-8.2,0.3-8.7-0.7
		c-1-2.1,0.7-4.8,1.1-6.7c0.2-1.1-0.6-2-0.4-3c0.1-0.5,0.7-0.9,1.1-1.3"/>
	<path class="st17" d="M551.8,971.4c0-1.5,1,2.4,1.1,3.3c0.3,2.1,0.4,4.7,1.1,6.7c0.2,0.7,1.5,3.3,0.4,3.5c-1.1,0.2-8.2,0.3-8.7-0.7
		c-1-2.1,0.7-4.8,1.1-6.7c0.2-1.1-0.6-2-0.4-3c0.1-0.5,0.7-0.9,1.1-1.3"/>
	<path class="st17" d="M516.6,971.4c0-1.5,1,2.4,1.1,3.3c0.3,2.1,0.4,4.7,1.1,6.7c0.2,0.7,1.5,3.3,0.4,3.5c-1.1,0.2-8.2,0.3-8.7-0.7
		c-1-2.1,0.7-4.8,1.1-6.7c0.2-1.1-0.6-2-0.4-3c0.1-0.5,0.7-0.9,1.1-1.3"/>
	<path class="st17" d="M1088.1,976.5c0-1.5,1,2.4,1.1,3.3c0.3,2.1,0.4,4.7,1.1,6.7c0.2,0.7,1.5,3.3,0.4,3.5
		c-1.1,0.2-8.2,0.3-8.7-0.7c-1.1-2.1,0.7-4.8,1.1-6.7c0.2-1.1-0.6-2-0.4-3c0.1-0.5,0.7-0.9,1.1-1.3"/>
	<path class="st17" d="M1229.1,957.9c0-1.8-1.2,2.8-1.3,3.9c-0.3,2.5-0.5,5.6-1.3,8c-0.3,0.8-1.8,3.9-0.5,4.1
		c1.3,0.3,9.8,0.4,10.3-0.8c1.3-2.5-0.8-5.8-1.3-8c-0.3-1.3,0.8-2.4,0.5-3.6c-0.1-0.6-0.9-1.1-1.3-1.6"/>
	<path class="st17" d="M920.6,991c-0.4-0.2-0.3-1-0.8-1c-0.9,0-1.2,5.2-1.3,5.7c-0.2,0.9-2,10.5-1.8,10.9c0.4,0.7,4,0.3,4.7,0"/>
	<path class="st17" d="M795.3,990c-0.4-0.2-0.3-1-0.8-1c-0.9,0-1.2,5.2-1.3,5.7c-0.2,0.9-2,10.5-1.8,10.9c0.4,0.8,4,0.3,4.7,0"/>
	<path class="st17" d="M1006.5,991c-0.4-0.2-0.3-1-0.8-1c-0.9,0-1.2,5.2-1.3,5.7c-0.2,0.9-2,10.5-1.8,10.9c0.4,0.7,4,0.3,4.7,0"/>
	<path class="st17" d="M881.3,990c-0.4-0.2-0.3-1-0.8-1c-0.9,0-1.2,5.2-1.3,5.7c-0.2,0.9-2,10.5-1.8,10.9c0.4,0.8,4.1,0.3,4.7,0"/>
	<path class="st17" d="M691.8,999.3c-0.4-0.2-0.3-1-0.8-1c-0.9,0-1.2,5.2-1.3,5.7c-0.2,0.9-2,10.5-1.8,10.9c0.4,0.7,4,0.3,4.7,0"/>
	<path class="st17" d="M656.6,999.3c-0.4-0.2-0.3-1-0.8-1c-0.9,0-1.2,5.2-1.3,5.7c-0.2,0.9-2,10.5-1.8,10.9c0.4,0.7,4,0.3,4.7,0"/>
	<path class="st17" d="M593.4,989c-0.4-0.2-0.3-1-0.8-1c-0.9,0-1.2,5.2-1.3,5.7c-0.2,0.9-2,10.5-1.8,10.9c0.4,0.7,4,0.3,4.7,0"/>
	<path class="st17" d="M558.2,989c-0.4-0.2-0.3-1-0.8-1c-0.9,0-1.2,5.2-1.3,5.7c-0.2,0.9-2,10.5-1.8,10.9c0.4,0.7,4,0.3,4.7,0"/>
	<path class="st17" d="M651.9,994.7c0.3-0.2,0.3-0.9,0.7-0.9c0.7,0,1,4.3,1.1,4.8c0.1,0.7,1.7,8.8,1.5,9.1c-0.3,0.6-3.4,0.3-3.9,0"
		/>
	<path class="st17" d="M616.7,994.7c0.3-0.2,0.3-0.9,0.7-0.9c0.7,0,1,4.3,1.1,4.8c0.1,0.7,1.7,8.8,1.5,9.1c-0.3,0.6-3.4,0.3-3.9,0"
		/>
	<path class="st17" d="M553.5,984.4c0.3-0.2,0.3-0.9,0.7-0.9c0.7,0,1,4.3,1.1,4.8c0.1,0.7,1.7,8.8,1.5,9.1c-0.3,0.6-3.4,0.3-3.9,0"
		/>
	<path class="st17" d="M518.3,984.4c0.3-0.2,0.3-0.9,0.7-0.9c0.7,0,1,4.3,1.1,4.8c0.1,0.7,1.7,8.8,1.5,9.1c-0.3,0.6-3.4,0.3-3.9,0"
		/>
	<path class="st17" d="M1089.8,989.6c0.3-0.2,0.3-0.9,0.6-0.9c0.7,0,1,4.3,1.1,4.8c0.1,0.7,1.7,8.8,1.5,9.1c-0.3,0.6-3.4,0.3-3.9,0"
		/>
	<path class="st17" d="M1227.1,973.4c-0.4-0.2-0.3-1-0.8-1c-0.9,0-1.2,5.2-1.3,5.7c-0.2,0.9-2,10.5-1.8,10.9c0.4,0.7,4,0.3,4.7,0"/>
	<path class="st17" d="M925.5,991.2c-5-2,0.2,8.5,2.1,11c0.2,0.2,2.1,5.4,3.1,4.4c0.4-0.4-0.1-2.5,0-3.1c0.2-1.2,1.1-0.3,1.3-0.5
		c0,0-1.7-1.9-1.8-2.3C929.4,996.8,929.4,992.8,925.5,991.2z"/>
	<path class="st17" d="M800.2,990.1c-5-2,0.2,8.5,2.1,11c0.2,0.2,2.1,5.4,3.1,4.4c0.4-0.4-0.1-2.5,0-3.1c0.2-1.2,1.1-0.3,1.3-0.5
		c0,0-1.7-1.9-1.8-2.3C804.1,995.8,804.2,991.7,800.2,990.1z"/>
	<path class="st17" d="M1011.5,991.2c-5-2,0.2,8.5,2.1,11c0.1,0.2,2.1,5.4,3.1,4.4c0.4-0.4-0.1-2.5,0-3.1c0.2-1.2,1.1-0.3,1.3-0.5
		c0,0-1.7-1.9-1.8-2.3C1015.3,996.8,1015.4,992.8,1011.5,991.2z"/>
	<path class="st17" d="M886.2,990.1c-5-2,0.2,8.5,2.1,11c0.2,0.2,2.1,5.4,3.1,4.4c0.4-0.4-0.1-2.5,0-3.1c0.2-1.2,1.1-0.3,1.3-0.5
		c0,0-1.7-1.9-1.8-2.3C890.1,995.8,890.1,991.7,886.2,990.1z"/>
	<path class="st17" d="M696.7,999.4c-5-2,0.2,8.5,2.1,11c0.2,0.2,2.1,5.4,3.1,4.4c0.4-0.4-0.1-2.5,0-3.1c0.2-1.2,1.1-0.3,1.3-0.5
		c0,0-1.7-1.9-1.8-2.3C700.6,1005.1,700.6,1001,696.7,999.4z"/>
	<path class="st17" d="M661.5,999.4c-5-2,0.2,8.5,2.1,11c0.2,0.2,2.1,5.4,3.1,4.4c0.4-0.4-0.1-2.5,0-3.1c0.2-1.2,1.1-0.3,1.3-0.5
		c0,0-1.7-1.9-1.8-2.3C665.4,1005.1,665.4,1001,661.5,999.4z"/>
	<path class="st17" d="M598.4,989.1c-5-2,0.2,8.5,2.1,11c0.2,0.2,2.1,5.4,3.1,4.4c0.4-0.4-0.1-2.5,0-3.1c0.2-1.2,1.1-0.3,1.3-0.5
		c0,0-1.7-1.9-1.8-2.3C602.3,994.8,602.3,990.7,598.4,989.1z"/>
	<path class="st17" d="M563.2,989.1c-5-2,0.2,8.5,2.1,11c0.2,0.2,2.1,5.4,3.1,4.4c0.4-0.4-0.1-2.5,0-3.1c0.2-1.2,1.1-0.3,1.3-0.5
		c0,0-1.7-1.9-1.8-2.3C567.1,994.8,567.1,990.7,563.2,989.1z"/>
	<path class="st17" d="M647.7,994.8c4.2-1.7-0.2,7.1-1.7,9.2c-0.1,0.2-1.8,4.5-2.6,3.7c-0.3-0.3,0.1-2.1,0-2.6
		c-0.2-1-0.9-0.2-1.1-0.4c0,0,1.4-1.6,1.5-1.9C644.5,999.6,644.5,996.2,647.7,994.8z"/>
	<path class="st17" d="M612.5,994.8c4.2-1.7-0.2,7.1-1.7,9.2c-0.1,0.2-1.8,4.5-2.6,3.7c-0.3-0.3,0.1-2.1,0-2.6
		c-0.2-1-0.9-0.2-1.1-0.4c0,0,1.4-1.6,1.5-1.9C609.3,999.6,609.3,996.2,612.5,994.8z"/>
	<path class="st17" d="M549.4,984.5c4.2-1.7-0.2,7.1-1.7,9.2c-0.1,0.2-1.8,4.5-2.6,3.7c-0.3-0.3,0.1-2.1,0-2.6
		c-0.2-1-0.9-0.2-1.1-0.4c0,0,1.4-1.6,1.5-2C546.1,989.2,546.1,985.8,549.4,984.5z"/>
	<path class="st17" d="M514.2,984.5c4.2-1.7-0.2,7.1-1.7,9.2c-0.1,0.2-1.8,4.5-2.6,3.7c-0.3-0.3,0.1-2.1,0-2.6
		c-0.2-1-0.9-0.2-1.1-0.4c0,0,1.4-1.6,1.5-2C510.9,989.2,510.9,985.8,514.2,984.5z"/>
	<path class="st17" d="M1085.7,989.7c4.2-1.7-0.2,7.1-1.7,9.2c-0.1,0.2-1.8,4.5-2.6,3.7c-0.3-0.3,0.1-2.1,0-2.6
		c-0.2-1-0.9-0.2-1.1-0.4c0,0,1.4-1.6,1.5-2C1082.4,994.4,1082.4,991,1085.7,989.7z"/>
	<path class="st17" d="M1232,973.6c-5-2,0.2,8.5,2.1,11c0.1,0.2,2.1,5.4,3.1,4.4c0.4-0.4-0.1-2.5,0-3.1c0.2-1.2,1.1-0.3,1.3-0.5
		c0,0-1.7-1.9-1.8-2.3C1235.9,979.2,1235.9,975.2,1232,973.6z"/>
	<path class="st17" d="M1232.9,972.9c-0.3-0.4-0.2-1.9-1.2-1.6c-3.5,0.9-6.7,7.4-2.7,9.8c3.5,2.1,7.6-5.6,6.8-6.8
		C1235.2,973.3,1233.6,973.9,1232.9,972.9z"/>
	<path class="st17" d="M1229,980.8c-1.3,1.3-0.8,7.9-0.8,9c-0.2,4.9-1.4,6-0.8,8.7c0.6,2.7,9.8,4,11.7,1.1c2.4-3.6-0.1-6.8-1.1-10.9
		c-0.6-2.5,0.3-3.6-0.8-5.7"/>
	<path class="st17" d="M1230.8,998.8c-6.4-1-4.6,4.4-7.5,7.4c-0.5,0.5-1.7,0.5-2.2,0.8c-4.2,2.8,5.6,8.4,6.8,10.1c1,1.4,2,5.2,3.3,6
		c2.4,1.6,0.2-7.7,0-8.5c-0.8-3.3-5-3.9-6.3-5.7c-0.3-0.5,2.8-1.7,3.3-2.2c1.3-1.3,1.5-3.4,2.7-4.6c0.2-0.1,2-1.8,1.9-1.9
		C1232.3,999.5,1231.6,998.9,1230.8,998.8z"/>
	<path class="st17" d="M1236.3,1001.9c-0.6-0.2-1.3-0.3-1.9-0.1c-1.1,0.4,0.1,2.4,0.3,3.5c0.6,3.8,1.4,7.6,1.4,11.5
		c0,1.1-1.3,4.9,0,5.2c0.7,0.2,2.8-0.5,3-1.1c0.5-2.1-0.4-5.6-0.8-7.6c-0.6-3.1,1-6.6,0.3-9.5
		C1238.3,1002.7,1237.2,1002.2,1236.3,1001.9z"/>
	<path class="st17" d="M1214,983.5c-1.6,3.1-3.2,6-3.8,9.5c-0.5,2.6-2.1,8.2-0.3,10.6c0.4,0.5,2.2,1.2,2.7,1.6
		c0.8,0.7,1.3,1.4,2.4,1.6c6.2,1.3,4.7-5.1,7.4-8.5c0.7-0.8,1.3-1.6,1.9-2.5c0.3-0.4,0.6-1.5,0.8-1.1c0.4,0.8,0.3,2.7,0.3,2.7
		s0-3.7-0.3-5.5c-0.3-1.9-1.6-4.5-0.5-6c0.1-0.2,0.1-0.4,0-0.5c-0.5-0.8-3-1.4-3.8-1.6"/>
	<path class="st17" d="M1213.2,1002.6c-1.7-1.7-2.5,5.5-2.7,6.6c-0.3,1.6-2.3,8.9-1.9,10.4c0.2,1,1.1,1.5,1.4,2.7
		c0.1,0.4-0.3,0.8,0,1.1c3.6,3.6,2.6-12,3.3-13.4"/>
	<path class="st17" d="M1213.4,1012.2c0,0.3,0,1.1,0,0.8c0-0.7,0-1.5,0-2.2"/>
	<path class="st17" d="M1213.4,1008.3l0.3-0.5l0.3-0.5v-0.8v-0.5l0.3-0.5v-0.5l0,0"/>
	<path class="st17" d="M1219.7,1006.8c-0.3-0.5-1.1-0.1-1.6,0.1c-0.3,0.1,0,4.8,0,5.7c0,1.1-0.7,7.8-0.5,8.2c0.5,1.5,3.4-2,3.5-2.7
		C1221.8,1014.7,1221.7,1009.5,1219.7,1006.8z"/>
	<path class="st17" d="M1219.2,984.1c-0.9-0.9-1.1-1.5-1.1-2.7c0-0.9,0-1.8,0-2.7c0-5.6,7.8,6.5,2.7,6.5c-0.5,0,0-0.9,0-1.4
		c0-1.3,1.8-9.5,2.4-9c2.5,1.7,2.6,6.4,1.9,9c-0.1,0.2,0.2,1.1-0.5,0.8c-0.3-0.1-1.1-1.7-1.4-1.9c-1.2-1.2-5.7-1.8-4.4-4.4
		c0.5-1,3.6-3.4,4.4-1.9"/>
</g>
</svg>
