<svg width="226" height="197" viewBox="0 0 226 197" fill="none" xmlns="http://www.w3.org/2000/svg">
<path d="M111.7 0.899994V195.2" stroke="black" stroke-width="1.869" stroke-miterlimit="2.391" stroke-linecap="round" stroke-linejoin="round"/>
<path d="M111.2 179.1C152.014 179.1 185.1 140.104 185.1 92C185.1 43.896 152.014 4.89999 111.2 4.89999C70.3862 4.89999 37.3 43.896 37.3 92C37.3 140.104 70.3862 179.1 111.2 179.1Z" stroke="black" stroke-width="1.869" stroke-miterlimit="2.391" stroke-linecap="round" stroke-linejoin="round"/>
<path d="M145.8 75.7C145.8 73.3266 146.504 71.0065 147.822 69.0332C149.141 67.0598 151.015 65.5217 153.208 64.6135C155.401 63.7052 157.813 63.4676 160.141 63.9306C162.469 64.3936 164.607 65.5365 166.285 67.2147C167.964 68.893 169.106 71.0311 169.569 73.3589C170.032 75.6867 169.795 78.0995 168.887 80.2922C167.978 82.4849 166.44 84.3591 164.467 85.6776C162.493 86.9962 160.173 87.7 157.8 87.7C156.221 87.7122 154.655 87.4102 153.193 86.8115C151.732 86.2128 150.404 85.3293 149.287 84.2126C148.171 83.0958 147.287 81.7681 146.688 80.3067C146.09 78.8452 145.788 77.2793 145.8 75.7Z" fill="white" stroke="black" stroke-width="1.869" stroke-miterlimit="2.391" stroke-linecap="round" stroke-linejoin="round"/>
<path d="M55.8 76.2C55.8 73.8266 56.5038 71.5065 57.8224 69.5332C59.1409 67.5598 61.0151 66.0217 63.2078 65.1134C65.4005 64.2052 67.8133 63.9676 70.1411 64.4306C72.4689 64.8936 74.607 66.0365 76.2853 67.7147C77.9635 69.393 79.1064 71.5311 79.5694 73.8589C80.0324 76.1867 79.7948 78.5995 78.8865 80.7922C77.9783 82.9849 76.4402 84.8591 74.4668 86.1776C72.4934 87.4962 70.1734 88.2 67.8 88.2C66.2207 88.2122 64.6548 87.9102 63.1933 87.3115C61.7319 86.7128 60.4042 85.8293 59.2874 84.7126C58.1707 83.5958 57.2872 82.2681 56.6885 80.8067C56.0898 79.3452 55.7877 77.7793 55.8 76.2Z" fill="white" stroke="black" stroke-width="1.869" stroke-miterlimit="2.391" stroke-linecap="round" stroke-linejoin="round"/>
<path d="M76.7 15.6L1.2 30.9L21.2 119.5L76.7 15.6Z" stroke="black" stroke-width="1.869" stroke-miterlimit="2.391" stroke-linecap="round" stroke-linejoin="round"/>
<path d="M144.7 14L201.7 119.2L224.9 33.7L144.7 14Z" stroke="black" stroke-width="1.869" stroke-miterlimit="2.391" stroke-linecap="round" stroke-linejoin="round"/>
<path d="M94.563 102.935C94.563 95.835 102.663 90.135 112.763 90.135C122.763 90.135 130.963 95.835 130.963 102.935C130.963 110.035 122.863 115.735 112.763 115.735C102.663 115.735 94.563 110.035 94.563 102.935Z" stroke="black" stroke-width="1.869" stroke-miterlimit="2.391" stroke-linecap="round" stroke-linejoin="round"/>
<path d="M112.863 24.735C109.563 24.735 106.363 26.235 105.563 29.935C102.363 43.435 106.163 67.135 102.363 79.235C98.763 90.135 78.163 91.235 68.963 111.035C58.463 133.435 62.263 172.135 76.663 174.735C90.263 177.135 94.563 145.335 112.363 145.235C130.263 145.135 134.363 173.635 148.063 174.235C166.363 175.135 167.063 133.535 155.563 111.435C146.763 94.435 127.363 90.535 121.763 78.135C118.063 69.935 121.163 45.835 118.563 32.535C117.763 28.235 116.163 24.735 112.863 24.735Z" stroke="black" stroke-width="1.869" stroke-miterlimit="2.391" stroke-linecap="round" stroke-linejoin="round"/>
<path d="M120.363 53.835C120.363 53.835 126.563 29.835 140.563 32.935C154.563 36.035 169.863 48.635 175.163 68.635C180.463 88.735 163.563 100.435 161.863 113.135C160.063 126.135 177.763 128.435 175.163 157.635C172.263 190.335 149.363 191.835 141.363 189.935C131.763 187.635 137.063 168.235 137.063 168.235" stroke="black" stroke-width="1.869" stroke-miterlimit="2.391" stroke-linecap="round" stroke-linejoin="round"/>
<path d="M103.863 56.135C103.863 56.135 97.763 32.435 83.863 35.535C69.963 38.635 54.863 51.035 49.563 70.835C44.263 90.635 61.063 102.335 62.763 114.835C64.463 127.735 47.063 129.935 49.563 158.835C52.463 191.135 75.063 192.635 82.963 190.735C92.463 188.435 87.263 169.235 87.263 169.235" stroke="black" stroke-width="1.869" stroke-miterlimit="2.391" stroke-linecap="round" stroke-linejoin="round"/>
<path d="M76.663 15.635C76.663 15.635 67.663 10.435 60.063 11.335C52.463 12.235 51.863 16.735 46.263 19.335C32.163 25.835 1.36299 23.435 0.962995 43.735C0.0629949 79.935 20.363 90.535 20.363 97.235C20.363 106.035 18.563 116.635 20.763 118.835C23.063 121.035 25.263 113.235 27.663 106.735C30.063 100.235 29.963 97.735 31.563 90.335C32.663 85.335 34.363 83.435 36.563 77.635C41.163 65.235 35.763 57.735 45.863 42.235C55.863 26.735 76.663 15.635 76.663 15.635Z" stroke="black" stroke-width="1.869" stroke-miterlimit="2.391" stroke-linecap="round" stroke-linejoin="round"/>
<path d="M144.663 14.035C144.663 14.035 153.863 8.735 161.563 9.635C169.363 10.535 169.963 15.135 175.663 17.735C190.063 24.335 221.363 21.935 221.863 42.635C222.763 79.635 202.063 90.335 202.063 97.235C202.063 106.235 203.963 117.035 201.663 119.235C199.363 121.435 197.063 113.535 194.663 106.935C192.163 100.235 192.363 97.835 190.663 90.235C189.563 85.135 187.763 83.235 185.563 77.235C180.863 64.635 186.363 56.935 176.063 41.135C165.863 25.335 144.663 14.035 144.663 14.035Z" stroke="black" stroke-width="1.869" stroke-miterlimit="2.391" stroke-linecap="round" stroke-linejoin="round"/>
<path d="M75.563 16.235C75.563 16.235 99.763 12.335 107.863 12.135C117.163 11.935 145.163 15.135 145.163 15.135" stroke="black" stroke-width="1.869" stroke-miterlimit="2.391" stroke-linecap="round" stroke-linejoin="round"/>
<path d="M38.263 73.535C38.263 73.535 35.663 90.635 38.663 107.335C41.663 124.035 50.763 141.335 50.763 141.335" stroke="black" stroke-width="1.869" stroke-miterlimit="2.391" stroke-linecap="round" stroke-linejoin="round"/>
<path d="M184.563 73.935C184.563 73.935 187.463 92.935 184.763 108.835C182.163 124.735 174.163 141.135 174.163 141.135" stroke="black" stroke-width="1.869" stroke-miterlimit="2.391" stroke-linecap="round" stroke-linejoin="round"/>
<path d="M89.563 181.935L101.163 173.935L123.563 174.535L135.463 181.635" stroke="black" stroke-width="1.869" stroke-miterlimit="2.391" stroke-linecap="round" stroke-linejoin="round"/>
<path d="M112.363 115.935L112.763 145.435" stroke="black" stroke-width="1.869" stroke-miterlimit="2.391" stroke-linecap="round" stroke-linejoin="round"/>
<path d="M94.063 159.235C94.063 159.235 93.663 154.235 91.663 140.035C89.763 125.835 81.563 118.835 86.063 105.535C90.563 92.235 96.863 87.135 109.763 86.835C122.663 86.435 132.263 89.035 137.963 102.335C143.763 115.635 134.563 125.735 132.763 140.035C131.063 154.335 130.863 157.935 130.863 157.935" stroke="black" stroke-width="1.869" stroke-miterlimit="2.391" stroke-linecap="round" stroke-linejoin="round"/>
<path d="M55.963 74.635C55.963 72.7165 56.5319 70.8411 57.5977 69.246C58.6636 67.6508 60.1785 66.4075 61.951 65.6734C63.7234 64.9392 65.6738 64.7471 67.5554 65.1214C69.437 65.4957 71.1654 66.4195 72.5219 67.7761C73.8785 69.1326 74.8023 70.861 75.1766 72.7426C75.5509 74.6242 75.3588 76.5746 74.6246 78.347C73.8905 80.1195 72.6472 81.6344 71.052 82.7003C69.4569 83.7661 67.5815 84.335 65.663 84.335V84.335C64.4023 84.3482 63.1513 84.1129 61.9815 83.6427C60.8118 83.1724 59.7461 82.4763 58.8453 81.5941C57.9446 80.7119 57.2264 79.661 56.7319 78.5012C56.2373 77.3415 55.9761 76.0957 55.963 74.835C55.963 74.835 55.963 74.735 55.963 74.635Z" fill="#231F20" stroke="black" stroke-width="1.869" stroke-miterlimit="2.391" stroke-linecap="round" stroke-linejoin="round"/>
<path d="M146.263 74.235C146.263 72.3759 146.814 70.5585 147.847 69.0126C148.88 67.4668 150.348 66.262 152.066 65.5505C153.783 64.8391 155.673 64.6529 157.497 65.0156C159.32 65.3783 160.995 66.2736 162.31 67.5882C163.624 68.9028 164.52 70.5777 164.882 72.4012C165.245 74.2246 165.059 76.1146 164.347 77.8322C163.636 79.5499 162.431 81.0179 160.885 82.0508C159.34 83.0837 157.522 83.635 155.663 83.635V83.635C154.428 83.6364 153.205 83.3943 152.064 82.9224C150.923 82.4505 149.886 81.7582 149.013 80.885C148.14 80.0119 147.447 78.975 146.976 77.8339C146.504 76.6928 146.262 75.4698 146.263 74.235Z" fill="#231F20" stroke="black" stroke-width="1.869" stroke-miterlimit="2.391" stroke-linecap="round" stroke-linejoin="round"/>
<path d="M157.463 72.235C157.463 71.6021 157.651 70.9834 158.002 70.4572C158.354 69.9309 158.854 69.5208 159.438 69.2786C160.023 69.0364 160.667 68.973 161.287 69.0965C161.908 69.22 162.478 69.5247 162.926 69.9723C163.373 70.4198 163.678 70.99 163.802 71.6107C163.925 72.2315 163.862 72.8749 163.619 73.4596C163.377 74.0443 162.967 74.5441 162.441 74.8957C161.915 75.2473 161.296 75.435 160.663 75.435V75.435C159.816 75.4292 159.006 75.0903 158.407 74.4914C157.808 73.8925 157.469 73.0819 157.463 72.235V72.235Z" fill="white" stroke="black" stroke-width="1.869" stroke-miterlimit="2.391" stroke-linecap="round" stroke-linejoin="round"/>
<path d="M66.063 72.435C66.063 71.8021 66.2507 71.1834 66.6023 70.6572C66.9539 70.1309 67.4537 69.7208 68.0384 69.4786C68.6231 69.2364 69.2665 69.173 69.8873 69.2965C70.508 69.42 71.0782 69.7247 71.5257 70.1723C71.9733 70.6198 72.278 71.19 72.4015 71.8107C72.525 72.4315 72.4616 73.0749 72.2194 73.6596C71.9772 74.2443 71.5671 74.7441 71.0408 75.0957C70.5146 75.4473 69.8959 75.635 69.263 75.635V75.635C68.4161 75.6292 67.6055 75.2903 67.0066 74.6914C66.4078 74.0925 66.0688 73.2819 66.063 72.435V72.435Z" fill="white" stroke="black" stroke-width="1.869" stroke-miterlimit="2.391" stroke-linecap="round" stroke-linejoin="round"/>
<path d="M220.9 42.7C221.5 68.3 211.6 81.2 205.7 88.9C203 92.4 201.1 94.9 201.1 97.2C201.1 100.2 201.3 103.3 201.5 106.4C201.8 111.5 202.2 117.4 201 118.6C200.948 118.657 200.877 118.693 200.8 118.7C199.7 118.6 197.6 112.6 196.5 109.4C196.2 108.5 195.8 107.6 195.5 106.7C194.255 103.367 193.35 99.9157 192.8 96.4C192.5 94.7 192.1 92.7 191.6 90.2C191.01 87.6311 190.103 85.1454 188.9 82.8C187.999 80.9441 187.198 79.0414 186.5 77.1C186.124 76.1927 185.823 75.2563 185.6 74.3V74C185.6 73.9 185.5 73.8 185.5 73.6C184.818 70.4417 184.416 67.2291 184.3 64C183.9 57.4 183.4 50.6 177.1 40.8C168.4 27.3 152 17.2 146.9 14.2C149.8 12.8 156.2 10.1 161.7 10.7C166.1 11.2 168 12.9 170.2 14.9C171.792 16.4391 173.614 17.7211 175.6 18.7C180 20.7 185.8 21.9 191.9 23.1C205.8 25.9 220.6 28.9 220.9 42.7Z" fill="#6B645C"/>
<path d="M183.7 74.4C184.1 77.1 186.3 94.3 183.8 108.6C181.8 120.7 176.6 133.3 174.3 138.3C172.691 133.726 170.362 129.439 167.4 125.6C164.4 121.4 162.1 118.1 162.7 113.2C163.3 108.7 165.9 104.2 168.8 99.5C173.8 91 179.5 81.4 176 68.4C170.4 47.4 154.3 35 140.7 32C129.4 29.5 123.1 42.9 120.6 49.8C120.6 43.4 120.4 37.2 119.4 32.4C118.3 26.7 116.1 23.8 112.8 23.8C108.5 23.8 105.4 26 104.6 29.7C103.2 35.6 103.1 43.4 103.2 51.1C100.5 44.1 94.3 32.2 83.6 34.6C70.2 37.6 54.1 49.9 48.6 70.6C45.1 83.5 50.8 93 55.8 101.5C58.6 106.2 61.2 110.6 61.8 115C62.4 119.9 60.1 123.1 57.2 127.3C54.4349 130.889 52.2112 134.865 50.6 139.1C48.2 134.2 41.9 120.5 39.5 107.3C36.6 91 39.1 74 39.1 73.8C39.1079 73.5045 39.0003 73.2175 38.8 73C39.3359 70.264 39.637 67.4872 39.7 64.7C40.1 58.2 40.5 52.1 46.5 42.9C54.9 29.9 71.3 19.9 75.8 17.3C78.2 16.9 100.2 13.4 107.8 13.2C116.9 13 144.7 16.2 145 16.2C145.296 16.208 145.583 16.1004 145.8 15.9C150.9 18.9 166.9 28.9 175.2 41.8C181.3 51.2 181.8 57.7 182.2 64.1C182.398 67.5705 182.9 71.017 183.7 74.4V74.4Z" fill="#C68632"/>
<path d="M174.3 68.9C177.5 81.2 172.1 90.5 167.3 98.6C164.4 103.5 161.6 108.2 161 113C160.7 115.012 160.871 117.066 161.5 119L160 119.5C159.025 116.576 157.822 113.734 156.4 111C151.6 101.8 143.7 96.3 136.8 91.4C130.8 87.2 125.2 83.3 122.6 77.7C120.7 73.4 120.7 64.4 120.7 54.9V54.7C120.842 54.657 120.97 54.5798 121.075 54.4751C121.18 54.3705 121.257 54.2416 121.3 54.1C121.4 53.9 127.4 31 140.4 33.9C153.4 36.7 168.9 48.7 174.3 68.9ZM166 74.2C166 71.4683 164.915 68.8484 162.983 66.9168C161.052 64.9852 158.432 63.9 155.7 63.9C152.968 63.9 150.348 64.9852 148.417 66.9168C146.485 68.8484 145.4 71.4683 145.4 74.2C145.398 75.5532 145.663 76.8934 146.18 78.144C146.697 79.3945 147.456 80.5308 148.412 81.4876C149.369 82.4444 150.505 83.2031 151.756 83.72C153.007 84.2369 154.347 84.502 155.7 84.5V84.5C157.056 84.5104 158.4 84.2511 159.654 83.7371C160.908 83.2232 162.048 82.4649 163.006 81.5063C163.965 80.5478 164.723 79.4082 165.237 78.1539C165.751 76.8995 166.01 75.5555 166 74.2V74.2Z" fill="#44413D"/>
<path d="M173.3 141.4C174.523 146.675 174.827 152.121 174.2 157.5C173.1 170.3 168.8 179.5 161.4 184.7C158.545 186.72 155.306 188.134 151.884 188.856C148.462 189.579 144.928 189.594 141.5 188.9C140.768 188.732 140.08 188.415 139.477 187.967C138.875 187.52 138.372 186.952 138 186.3C137.194 184.819 136.717 183.182 136.6 181.5C136.328 177.335 136.699 173.152 137.7 169.1C140.6 172.5 143.9 174.9 147.9 175C152.3 175.2 156.2 173.1 158.9 168.8C165.5 158.4 165.6 136.5 159.8 119.3L161.3 118.8C162.372 121.625 163.891 124.258 165.8 126.6C168.5 130.3 171.5 134.6 173.1 141.1C173.3 141.3 173.3 141.4 173.3 141.4Z" fill="#44413D"/>
<path d="M164.1 74.5C164.039 76.7077 163.115 78.8034 161.525 80.3368C159.936 81.8701 157.808 82.7186 155.6 82.7C153.376 82.6866 151.248 81.7973 149.675 80.2249C148.103 78.6525 147.213 76.5237 147.2 74.3C147.199 73.1835 147.418 72.0778 147.845 71.0461C148.272 70.0144 148.898 69.077 149.688 68.2875C150.477 67.4981 151.414 66.872 152.446 66.4451C153.478 66.0183 154.584 65.7991 155.7 65.8C156.793 65.7925 157.877 66.0006 158.889 66.4124C159.901 66.8243 160.823 67.4317 161.6 68.2C161.308 68.1175 161.003 68.0837 160.7 68.1C159.614 68.1047 158.574 68.5382 157.806 69.3061C157.038 70.074 156.605 71.1141 156.6 72.2V72.3C156.594 72.8393 156.697 73.3742 156.904 73.8726C157.11 74.371 157.415 74.8225 157.8 75.2C158.164 75.5754 158.599 75.8749 159.08 76.0809C159.56 76.2869 160.077 76.3953 160.6 76.4C161.296 76.4003 161.98 76.2267 162.591 75.8948C163.203 75.563 163.721 75.0835 164.1 74.5V74.5Z" fill="#231F20"/>
<path d="M137.1 102.7C140.7 110.9 138.3 117.8 135.6 125.8C133.875 130.364 132.602 135.087 131.8 139.9C130.8 148.4 130.3 153.1 130.1 155.5C125.9 149.9 120.9 144.8 113.7 144.3L113.3 116.6C123.8 116.4 131.9 110.4 131.9 102.9C131.9 95.3 123.3 89.2 112.8 89.2V87.7C123.7 87.8 132 90.8 137.1 102.7Z" fill="#B2B2B2"/>
<path d="M112.8 91.1C122.3 91.1 130.1 96.4 130.1 103C130.1 109.6 122.3 114.9 112.8 114.9C103.3 114.9 95.5 109.6 95.5 103C95.5 96.4 103.2 91.1 112.8 91.1Z" fill="#4C4C4C"/>
<path d="M112.8 87.7V89.2C102.1 89.2 93.7 95.2 93.7 102.9C93.7 110.3 101.4 116.1 111.5 116.6L111.9 144.3C104.4 144.6 99.2 150.3 94.8 156.6C94.5 153.8 93.9 148.5 92.7 139.9C91.9569 135.172 90.6822 130.542 88.9 126.1C86.5 119.5 84.4 113.8 87.1 105.8C91.5 92.8 97.5 88 109.9 87.7H112.8Z" fill="#B2B2B2"/>
<path d="M103.3 56.8C103.4 65.1 103.2 73.4 101.5 78.9C100 83.4 95.3 86.2 89.7 89.5C82.4 93.8 73.4 99.2 68.1 110.6C66.6681 113.652 65.5297 116.833 64.7 120.1L63.4 119.8C63.8107 118.133 63.9124 116.404 63.7 114.7C63 109.9 60.3 105.3 57.5 100.5C52.7 92.4 47.3 83.3 50.5 71.1C55.8 51.2 71.2 39.3 84.1 36.5C96.9 33.6 102.9 56.2 103 56.4C103 56.6 103.1 56.7 103.3 56.8ZM76.3 74.6C76.3 71.7754 75.178 69.0666 73.1807 67.0693C71.1834 65.0721 68.4746 63.95 65.65 63.95C62.8254 63.95 60.1166 65.0721 58.1193 67.0693C56.1221 69.0666 55 71.7754 55 74.6V74.8C55.0177 76.1838 55.3096 77.5503 55.8589 78.8205C56.4081 80.0907 57.2039 81.2394 58.2 82.2C60.1588 84.0989 62.7721 85.1728 65.5 85.2H65.6C67.0017 85.2181 68.393 84.9569 69.6928 84.4319C70.9926 83.9068 72.1749 83.1283 73.1708 82.1417C74.1667 81.1552 74.9563 79.9802 75.4935 78.6854C76.0307 77.3906 76.3049 76.0018 76.3 74.6V74.6Z" fill="#44413D"/>
<path d="M86.8 171.2C87.5 174.7 88.9 182.9 86.3 187.2C85.9442 187.864 85.446 188.442 84.8409 188.892C84.2358 189.341 83.5389 189.651 82.8 189.8C79.4249 190.463 75.951 190.442 72.5843 189.737C69.2175 189.033 66.0264 187.66 63.2 185.7C55.9 180.5 51.7 171.4 50.5 158.8C49.9 151.6 50.5 146.1 51.8 141.7C53.5 135.8 56.3 131.9 58.7 128.4C60.7 125.6 62.6 123 63.4 119.9L64.7 120.2C60.5 136 61.2 156 67.1 167.4C69.6 172.2 72.8 175 76.5 175.7C77.0294 175.78 77.5648 175.814 78.1 175.8C81.5 175.8 84.2 173.9 86.8 171.2Z" fill="#44413D"/>
<path d="M65.7 65.9C68.0339 65.9 70.2722 66.8271 71.9225 68.4775C73.5729 70.1278 74.5 72.3661 74.5 74.7C74.5 77.0339 73.5729 79.2722 71.9225 80.9225C70.2722 82.5729 68.0339 83.5 65.7 83.5C64.5629 83.5496 63.4286 83.3517 62.3754 82.9201C61.3222 82.4884 60.3753 81.8333 59.6 81C58.7715 80.2159 58.1131 79.2697 57.6658 78.2203C57.2185 77.1709 56.9919 76.0407 57 74.9V74.7C56.9731 73.5454 57.1789 72.3973 57.6053 71.324C58.0318 70.2508 58.67 69.2744 59.4819 68.4531C60.2938 67.6318 61.2629 66.9825 62.3312 66.5439C63.3995 66.1052 64.5452 65.8863 65.7 65.9ZM73.4 72.4C73.3953 71.3141 72.9618 70.274 72.1939 69.5061C71.426 68.7382 70.3859 68.3047 69.3 68.3C68.2157 68.3157 67.1783 68.7449 66.4 69.5C66.0074 69.8719 65.6976 70.3224 65.4908 70.8221C65.2841 71.3218 65.185 71.8594 65.2 72.4V72.5C65.2261 73.57 65.6696 74.5873 66.4357 75.3347C67.2017 76.0821 68.2297 76.5003 69.3 76.5C69.8401 76.5062 70.3761 76.4043 70.8763 76.2005C71.3765 75.9966 71.8309 75.6948 72.2129 75.3129C72.5948 74.9309 72.8966 74.4765 73.1005 73.9763C73.3043 73.476 73.4062 72.9401 73.4 72.4V72.4Z" fill="#231F20"/>
<path d="M61.9 12.2C66.9 12.2 72.2 14.5 74.7 15.7C69.7 18.6 53.6 28.5 45.1 41.8C38.8 51.3 38.4 58 38 64.5C37.8588 67.4189 37.5247 70.3252 37 73.2C36.7 74.5 36.3 75.9 35.8 77.4C34.9 79.6 34.2 81.3 33.5 82.8C32.2818 85.1738 31.3744 87.6945 30.8 90.3C30.3 92.6 30 94.5 29.7 96.1C29.165 99.6839 28.2602 103.203 27 106.6C26.6 107.6 26.3 108.6 25.9 109.7C24.8 112.9 22.8 118.4 21.8 118.5C21.7232 118.493 21.6519 118.457 21.6 118.4C20.4 117.2 20.8 111.5 21.1 106.4C21.3 103.4 21.5 100.4 21.5 97.5C21.5 95.2 19.6 92.7 17 89.3C11 81.5 1.3 68.9 1.9 43.7C2.2 30.2 16.6 27.3 30.6 24.5C36.6 23.3 42.3 22.1 46.6 20.2C48.5272 19.2226 50.2833 17.9393 51.8 16.4C53.9 14.5 55.8 12.8 60.1 12.2H61.9Z" fill="#6B645C"/>
</svg>
