<svg width="989" height="564" viewBox="0 0 989 564" fill="none" xmlns="http://www.w3.org/2000/svg">
<g>
	<path d="M400.407 12.581C340.332 -5.36201 304.712 51.923 307.901 108.281C311.038 163.693 323.851 191.749 340.332 226.306C365.582 279.25 386.186 330.374 438.153 318.811C490.12 307.248 556.178 291.692 548.203 180.048C543.646 116.252 460.482 30.524 400.407 12.581Z" stroke="black" stroke-width="9.601" stroke-linejoin="round"/>
	<path d="M765.419 43.854C726.687 61.154 702.794 115.077 722.795 182.382C742.796 249.687 806.695 330.375 845.422 313.073C884.149 295.771 891.453 146.081 871.453 78.777C851.453 11.473 804.153 26.552 765.419 43.854Z" stroke="black" stroke-width="9.601" stroke-linecap="round" stroke-linejoin="round"/>
</g>
<path d="M455.829 39.086C455.829 39.086 705.656 5.88601 724.204 57.405C742.752 108.924 617.654 243.805 539.181 243.805" stroke="black" stroke-width="9.601" stroke-linecap="round" stroke-linejoin="round"/>
<path d="M676.116 222.277C719.521 222.277 744.493 244.856 772.75 273.112" stroke="black" stroke-width="9.601" stroke-linecap="round" stroke-linejoin="round"/>
<path d="M222.236 14.368C246.855 26.678 319.309 6.43098 251.668 48.706" stroke="black" stroke-width="9.601" stroke-linecap="round" stroke-linejoin="round"/>
<path d="M33.0281 47.308C33.0281 48.119 72.2531 41.702 79.9801 41.702" stroke="black" stroke-width="9.601" stroke-linecap="round" stroke-linejoin="round"/>
<path d="M57.553 112.48C64.268 115.838 195.1 109.58 91.19 161.534" stroke="black" stroke-width="9.601" stroke-linecap="round" stroke-linejoin="round"/>
<path d="M115.018 179.754C109.038 183.741 151.711 151.854 164.773 144.015" stroke="black" stroke-width="9.601" stroke-linecap="round" stroke-linejoin="round"/>
<path d="M413.1 339.529C412.329 338.373 420.44 378.482 422.21 389.985C425.844 413.609 427.265 436.976 428.517 460.762C429.133 472.462 431.317 507.518 431.317 495.801" stroke="black" stroke-width="9.601" stroke-linecap="round" stroke-linejoin="round"/>
<path d="M503.499 343.734C497.763 340.866 499.193 350.014 497.893 355.647C490.458 387.867 466.486 464.521 483.177 497.903" stroke="black" stroke-width="9.601" stroke-linecap="round" stroke-linejoin="round"/>
<path d="M266.193 216.895C254.138 241.005 287.314 302.447 308.239 315.002" stroke="black" stroke-width="9.601" stroke-linecap="round" stroke-linejoin="round"/>
<path d="M339.073 349.34C339.073 363.74 367.896 455.202 386.025 464.266" stroke="black" stroke-width="9.601" stroke-linecap="round" stroke-linejoin="round"/>
<path d="M658.624 269.452C676.368 265.016 696.879 251.026 713.284 242.823" stroke="black" stroke-width="9.601" stroke-linecap="round" stroke-linejoin="round"/>
<path d="M819.801 331.821C843.121 355.141 853.876 396.588 864.65 426.421C868.898 438.182 888.686 483.603 887.776 481.782" stroke="black" stroke-width="9.601" stroke-linecap="round" stroke-linejoin="round"/>
<path d="M890.719 248.306C890.719 294.124 894.998 366.457 930.909 402.367" stroke="black" stroke-width="9.601" stroke-linecap="round" stroke-linejoin="round"/>
<path d="M890.719 111.368C916.652 163.234 922.572 225.981 952.492 275.849" stroke="black" stroke-width="9.601" stroke-linecap="round" stroke-linejoin="round"/>
<path d="M886.253 45.124C942.503 120.124 937.465 212.871 983.753 292.217" stroke="black" stroke-width="9.601" stroke-linecap="round" stroke-linejoin="round"/>
<path d="M286.476 17.935C302.836 28.843 313.795 27.088 332.237 27.088" stroke="black" stroke-width="9.601" stroke-linecap="round" stroke-linejoin="round"/>
<path d="M66.8191 18.768C90.4651 3.00401 144.976 6.281 171.655 9.616" stroke="black" stroke-width="9.601" stroke-linecap="round" stroke-linejoin="round"/>
<path d="M20.225 60.368C-19.847 80.403 29.473 101.603 41.853 107.795" stroke="black" stroke-width="9.601" stroke-linecap="round" stroke-linejoin="round"/>
<g>
	<path d="M83.459 171.862C83.459 183.397 98.148 183.728 105.924 186.838" stroke="black" stroke-width="9.601" stroke-linecap="round" stroke-linejoin="round"/>
	<path d="M172.487 171.862C192.28 132.275 212.867 94.792 252.362 72.85" stroke="black" stroke-width="9.601" stroke-linecap="round" stroke-linejoin="round"/>
	<path d="M545.238 304.155C593.638 279.955 675.644 287.589 730.782 269.21" stroke="black" stroke-width="9.601" stroke-linecap="round" stroke-linejoin="round"/>
</g>
<path d="M320.892 35.408C305.628 35.408 334.016 62.98 340.028 77.008C343.218 84.45 331.833 55.366 330.044 49.551C318.131 10.834 342.844 82.934 342.524 80.336C335.641 25.267 324.445 48.336 359.165 117.778" stroke="black" stroke-width="9.601" stroke-linecap="round" stroke-linejoin="round"/>
<path d="M349.181 20.432C349.181 35.139 367.281 58.532 373.31 68.69C376.519 74.09 379.167 79.572 386.622 94.483" stroke="black" stroke-width="9.601" stroke-linecap="round" stroke-linejoin="round"/>
<path d="M371.646 15.439C361.593 35.545 382.462 82.002 382.462 82.002C382.462 82.002 374.377 42.302 360.829 28.752C353.499 21.422 391.557 110.435 365.821 50.385C361.876 41.18 348.414 17.191 360.829 33.744C366.739 41.624 356.108 13.755 362.493 32.912" stroke="black" stroke-width="9.601" stroke-linecap="round" stroke-linejoin="round"/>
<path d="M418.542 39.152C421.604 22.513 437.679 103.081 437.679 86.162C437.679 -16.99 407.253 100.504 418.542 39.152Z" stroke="black" stroke-width="9.601" stroke-linecap="round" stroke-linejoin="round"/>
<path d="M500.081 38.736C490.081 18.741 535.081 109.889 513.394 104.467C491.133 98.902 476.305 20.833 482.609 42.896C489.286 66.268 492.539 134.528 503.409 112.787C514.879 89.847 453.779 27.005 475.119 41.232C498.137 56.577 510.897 143.779 510.897 116.115C510.897 58.736 451.958 18.139 508.397 102.803C521.919 123.086 498.638 70.651 496.748 65.361C476.34 8.21799 498.741 76.842 509.229 80.338" stroke="black" stroke-width="9.601" stroke-linecap="round" stroke-linejoin="round"/>
<path d="M543.347 33.744C514.285 33.744 574.764 145.323 563.316 118.612C559.23 109.078 536.208 31.073 544.179 27.088C574.302 12.026 576.629 156.451 576.629 122.772C576.629 107.881 571.757 91.647 566.644 77.842C527.985 -26.537 604.5 160.459 561.652 66.193C532.808 2.736 564.952 81.106 575.797 102.803" stroke="black" stroke-width="9.601" stroke-linecap="round" stroke-linejoin="round"/>
<path d="M619.894 45.393C611.035 9.95499 631.994 108.627 628.215 108.627C601.433 108.627 579.8 31.248 606.582 31.248C634.033 31.248 623.694 135.502 632.375 109.459C641.147 83.143 596.119 8.305 615.734 27.92C625.511 37.697 628.215 132.903 628.215 84.498" stroke="black" stroke-width="9.601" stroke-linecap="round" stroke-linejoin="round"/>
<path d="M662.328 33.744C666.807 42.703 700.688 76.464 694.777 85.33C689.297 93.552 645.513 38.794 650.677 37.072C668.444 31.15 738.79 141.221 673.142 66.193C644.615 33.593 670.872 49.477 686.454 72.85" stroke="black" stroke-width="9.601" stroke-linecap="round" stroke-linejoin="round"/>
<path d="M723.899 47.889C722.399 47.889 748.878 77.879 754.684 89.489C758.005 96.132 711.533 65.245 718.906 57.872C723.056 53.722 741.182 75.023 743.035 77.009C780.521 117.172 717.935 56.481 720.57 51.216C727.352 37.654 762.308 94.572 749.692 86.161C702.68 54.82 687.492 28.747 741.371 90.321C749.548 99.666 735.927 90.178 733.051 87.821C729.145 84.8338 725.525 81.4916 722.235 77.837C717.812 73.074 712.647 66.982 709.754 61.196C704.13 49.948 729.154 77.265 738.043 86.157" stroke="black" stroke-width="9.601" stroke-linecap="round" stroke-linejoin="round"/>
<path d="M776.317 42.896C794.409 56.465 791.143 99.475 813.758 99.475C829.569 99.475 788.888 41.403 796.286 55.375C819.22 98.695 803.941 74.182 794.621 46.223C792.45 39.708 809.598 67.234 809.598 60.367" stroke="black" stroke-width="9.601" stroke-linecap="round" stroke-linejoin="round"/>
<path d="M831.231 37.904C839.085 61.467 890.056 113.911 867.84 102.804C846.105 91.936 822.911 21.093 822.911 45.394C822.911 72.078 890.869 127.494 872.001 108.628C866.044 102.672 812.679 47.14 822.911 43.728C856.042 32.685 852.032 106.328 852.032 74.514" stroke="black" stroke-width="9.601" stroke-linecap="round" stroke-linejoin="round"/>
<path d="M913.602 91.154C913.602 129.73 899.033 118.824 916.102 110.291" stroke="black" stroke-width="9.601" stroke-linecap="round" stroke-linejoin="round"/>
<path d="M930.243 145.237C922.728 167.781 930.889 171.709 931.907 171.03" stroke="black" stroke-width="9.601" stroke-linecap="round" stroke-linejoin="round"/>
<path d="M954.372 212.631C941.872 250.14 956.872 231.295 956.872 237.592" stroke="black" stroke-width="9.601" stroke-linecap="round" stroke-linejoin="round"/>
<path d="M964.353 268.378C963.339 268.885 961.72 291.602 964.353 285.018" stroke="black" stroke-width="9.601" stroke-linecap="round" stroke-linejoin="round"/>
<path d="M64.73 71.354C79.497 41.819 112.092 51.233 135.73 43.354" stroke="black" stroke-width="9.601" stroke-linecap="round" stroke-linejoin="round"/>
<path d="M67.73 144.354C70.692 150.277 78.204 172.354 85.73 172.354" stroke="black" stroke-width="9.601" stroke-linecap="round" stroke-linejoin="round"/>
<path d="M72.73 145.354C78.89 148.434 87.236 154.354 94.73 154.354" stroke="black" stroke-width="9.601" stroke-linecap="round" stroke-linejoin="round"/>
<path d="M31.73 105.354V107.354L32.73 111.354L35.73 120.354L36.73 122.354L38.73 126.354L40.73 128.354L41.73 130.354L42.73 132.354L44.73 133.354V127.354L45.73 123.354V119.354L46.73 117.354V112.354" stroke="black" stroke-width="9.601" stroke-linecap="round" stroke-linejoin="round"/>
<path d="M208.73 164.354C236.573 178.276 260.085 213.064 273.73 240.354" stroke="black" stroke-width="9.601" stroke-linecap="round" stroke-linejoin="round"/>
<path d="M256.73 192.354C270.499 192.354 311.088 235.033 327.73 243.354" stroke="black" stroke-width="9.601" stroke-linecap="round" stroke-linejoin="round"/>
<path d="M310.094 317.354C315.294 332.954 329.494 347.146 337.094 362.354" stroke="black" stroke-width="9.601" stroke-linecap="round" stroke-linejoin="round"/>
<path d="M337.094 496.354C354.926 469.605 365.588 467.095 381.094 490.354" stroke="black" stroke-width="9.601" stroke-linecap="round" stroke-linejoin="round"/>
<path d="M356.094 517.354C356.094 526.411 399.094 530.691 399.094 523.354" stroke="black" stroke-width="9.601" stroke-linecap="round" stroke-linejoin="round"/>
<path d="M413.094 522.354C399.703 495.573 438.145 496.354 448.094 496.354" stroke="black" stroke-width="9.601" stroke-linecap="round" stroke-linejoin="round"/>
<path d="M435.094 528.354C440.112 520.827 450.364 501.354 460.094 501.354" stroke="black" stroke-width="9.601" stroke-linecap="round" stroke-linejoin="round"/>
<path d="M466.094 541.354C471.448 530.646 478.316 521.686 482.094 510.354" stroke="black" stroke-width="9.601" stroke-linecap="round" stroke-linejoin="round"/>
<path d="M671.094 293.354C748.567 370.828 737.094 393.335 737.094 490.354" stroke="black" stroke-width="9.601" stroke-linecap="round" stroke-linejoin="round"/>
<path d="M797.094 296.354C777.9 334.741 808.094 362.163 808.094 395.354" stroke="black" stroke-width="9.601" stroke-linecap="round" stroke-linejoin="round"/>
<path d="M807.094 401.354C793.242 429.054 779.867 457.808 766.094 485.354" stroke="black" stroke-width="9.601" stroke-linecap="round" stroke-linejoin="round"/>
<path d="M847.453 31.354C860.125 31.354 887.94 42.84 897.453 52.354" stroke="black" stroke-width="9.601" stroke-linecap="round" stroke-linejoin="round"/>
<path d="M929.453 405.354C929.453 440.436 907.453 475.73 907.453 511.354" stroke="black" stroke-width="9.601" stroke-linecap="round" stroke-linejoin="round"/>
<path d="M51.4529 116.354C61.9049 121.58 76.8789 92.067 91.4529 99.354" stroke="black" stroke-width="9.601" stroke-linecap="round" stroke-linejoin="round"/>
<path d="M85.4529 100.354C105.18 93.779 123.086 116.302 132.453 130.354" stroke="black" stroke-width="9.601" stroke-linecap="round" stroke-linejoin="round"/>
<path d="M150.453 21.354C163.905 48.254 225.211 -39.161 187.453 36.354" stroke="black" stroke-width="9.601" stroke-linecap="round" stroke-linejoin="round"/>
<path d="M874.453 481.354C874.453 477.628 836.753 500.954 845.453 518.354" stroke="black" stroke-width="9.601" stroke-linecap="round" stroke-linejoin="round"/>
<path d="M867.453 505.354C859.332 509.415 858.453 531.509 858.453 538.354" stroke="black" stroke-width="9.601" stroke-linecap="round" stroke-linejoin="round"/>
<path d="M886.453 509.354C881.62 516.605 875.295 535.274 885.453 540.354" stroke="black" stroke-width="9.601" stroke-linecap="round" stroke-linejoin="round"/>
<path d="M727.821 487.354C713.501 487.354 706.15 503.696 700.821 514.354" stroke="black" stroke-width="9.601" stroke-linecap="round" stroke-linejoin="round"/>
<path d="M727.821 506.354C715.862 506.354 708.826 537.354 716.821 537.354" stroke="black" stroke-width="9.601" stroke-linecap="round" stroke-linejoin="round"/>
<path d="M742.821 513.354V531.354L744.821 532.354" stroke="black" stroke-width="9.601" stroke-linecap="round" stroke-linejoin="round"/>
<path d="M773.821 495.354C773.821 521.402 733.589 572.89 708.821 523.354" stroke="black" stroke-width="9.601" stroke-linecap="round" stroke-linejoin="round"/>
<path d="M693.185 256.354C688.018 266.688 685.885 280.264 682.185 291.354" stroke="black" stroke-width="9.601" stroke-linecap="round" stroke-linejoin="round"/>
<path d="M705.185 251.354C705.185 262.104 698.621 274.044 695.185 284.354C694.865 285.313 692.536 290.599 692.185 292.354C691.915 293.702 692.157 297.326 691.185 296.354C689.665 294.834 695.785 282.478 696.185 281.354C700.211 270.079 703.47 258.968 709.185 248.354C712.621 241.973 716.074 236.465 721.185 231.354C722.157 230.382 724.99 228.993 725.185 230.354C725.647 233.587 721.735 243.611 721.185 245.354C717.09 258.321 713.24 271.376 709.185 284.354C707.776 288.863 706.936 292.976 705.185 297.354C704.631 298.738 703.656 299.94 703.185 301.354C702.974 301.986 702.885 303.954 703.185 303.354C706.769 296.186 708.529 287.665 712.185 280.354C716.796 270.945 722.146 261.917 728.185 253.354C732.157 247.892 735.564 245.422 736.185 246.354C737.885 248.911 735.029 252.399 734.185 255.354C731.193 265.827 727.385 275.939 724.185 286.354C723.037 290.083 721.257 293.602 720.185 297.354C719.807 298.675 718.851 302.687 719.185 301.354C722.012 290.044 729.023 279.678 734.185 269.354C735.185 267.354 736.034 265.271 737.185 263.354C738.56 260.826 740.239 258.475 742.185 256.354C742.712 255.827 743.908 254.662 744.185 255.354C746.818 261.937 738.242 286.154 736.185 293.354C735.141 297.008 734.107 300.667 733.185 304.354C732.773 306.003 732.185 309.354 732.185 309.354C732.073 308.692 732.073 308.016 732.185 307.354C733.223 304.239 735.147 301.468 736.185 298.354C738.876 290.28 741.785 282.688 746.185 275.354C747.803 272.654 748.961 269.578 751.185 267.354C751.712 266.827 752.801 265.715 753.185 266.354C757.432 273.432 745.885 298.854 744.185 307.354C743.325 311.654 743.045 316.054 742.185 320.354C741.915 321.702 741.411 322.998 741.185 324.354C741.075 325.012 740.713 326.825 741.185 326.354C744.657 322.881 744.234 319.58 746.185 315.354C750.639 305.738 755.647 296.389 761.185 287.354C763.317 283.889 765.928 280.739 768.185 277.354C768.851 276.354 770.893 274.188 771.185 275.354C772.009 278.654 770.119 282.085 769.185 285.354C766.298 295.459 761.953 305.205 759.185 315.354C759.046 315.863 757.208 327.354 756.185 327.354C753.255 327.354 761.103 314.505 761.185 314.354C765.315 306.782 768.491 298.997 774.185 292.354C775.285 291.071 777.614 287.64 780.185 289.354C783.452 291.532 776.256 309.676 775.185 312.354C773.227 317.247 771.851 322.354 770.185 327.354L767.185 336.354C766.75 337.654 766.185 341.728 766.185 340.354C766.185 331.363 780.027 307.433 788.185 303.354" stroke="black" stroke-width="9.601" stroke-linecap="round" stroke-linejoin="round"/>
<path d="M300.185 222.354C300.185 225.871 300.294 225.254 299.185 230.354C297.948 236.042 296.385 241.654 295.185 247.354C293.938 253.277 307.4 229.569 311.185 233.354C315.285 237.454 310.379 255.578 309.185 260.354C308.654 262.397 307.986 264.401 307.185 266.354C306.908 267.046 305.439 268.354 306.185 268.354C307.503 268.354 315.553 255.986 317.185 254.354C317.704 253.834 322.436 251.232 323.185 252.354C325.857 256.363 315.839 280.805 314.185 285.354C313.166 288.154 311.292 290.586 310.185 293.354C310.054 294.014 310.054 294.694 310.185 295.354C311.067 292.972 312.068 290.636 313.185 288.354C314.255 286.391 315.185 284.354 316.185 282.354C319.629 275.456 324.003 269.063 329.185 263.354C331.969 260.172 334.855 255.467 336.185 256.354C338.279 257.754 336.493 263.506 336.185 264.354C333.306 272.536 329.968 280.549 326.185 288.354L322.185 296.354C322.185 296.354 324.585 290.224 326.185 287.354C329.212 281.905 332.344 274.388 337.185 270.354C337.323 270.239 343.662 264.787 344.185 266.354C346.948 274.644 338.442 294.538 335.185 302.354C334.038 305.106 332.518 307.687 331.185 310.354C330.713 311.297 331.239 313.354 330.185 313.354C327.828 313.354 330.309 308.542 331.185 306.354C332.065 304.296 333.067 302.293 334.185 300.354C338.645 292.177 343.102 283.454 349.185 276.354C350.934 274.313 354.694 270.118 356.185 272.354C358.043 275.141 356.105 279.133 355.185 282.354C352.66 291.192 348.625 300.754 345.185 309.354C343.468 313.645 343.35 312.746 341.185 316.354C340.478 317.532 340.185 321.728 340.185 320.354C340.185 311.331 349.471 300.02 355.185 293.354C355.529 292.954 362.285 285.101 363.185 287.354C367.103 297.154 357.959 311.862 354.185 320.354C352.974 323.078 351.518 325.687 350.185 328.354C349.851 329.021 348.949 331.061 349.185 330.354C352.349 320.862 358.53 312.431 364.185 304.354C365.685 302.216 369.35 295.354 373.185 295.354C373.851 295.354 373.075 296.696 373.185 297.354C373.411 298.71 374.185 299.98 374.185 301.354C374.097 303.387 373.761 305.402 373.185 307.354C370.099 319.126 365.74 330.526 360.185 341.354C358.985 343.754 358.872 348.354 356.185 348.354C355.022 348.354 355.376 347.094 358.185 340.354C359.161 338.011 360.049 335.625 361.185 333.354C367.115 321.54 374.877 310.74 384.185 301.354C385.131 300.407 391.21 294.721 393.185 297.354C396.368 301.598 392.832 306.784 391.185 310.354C386.585 320.324 381.725 329.854 376.185 339.354C374.226 342.712 372.245 346.054 370.185 349.354C368.956 351.101 367.62 352.771 366.185 354.354C366.185 354.354 368.851 350.354 370.185 348.354C372.553 344.802 375.817 341.906 378.185 338.354C383.8 329.931 389.108 319.816 397.185 313.354C399.513 311.491 402.518 308.021 405.185 309.354C408.237 310.88 402.045 325.634 401.185 327.354C395.01 339.704 387.619 350.671 380.185 362.354C378.33 365.126 376.327 367.797 374.185 370.354C373.719 370.936 373.93 372.354 373.185 372.354C372.518 372.354 372.922 370.967 373.185 370.354C375.965 364.063 379.312 358.038 383.185 352.354C388.834 344.194 395.085 336.197 401.185 328.354C401.991 327.317 405.755 321.924 408.185 324.354C412.157 328.326 404.633 337.454 403.185 340.354C397.099 352.525 390.579 364.364 384.185 376.354C382.006 380.44 379.753 384.501 377.185 388.354C376.436 389.645 375.768 390.98 375.185 392.354C374.851 393.021 373.738 394.954 374.185 394.354C382.661 383.054 389.423 370.619 398.185 359.354C400.585 356.268 405.775 351.126 406.185 352.354C407.763 357.089 405.496 361.091 404.185 365.354C400.37 377.754 394.602 388.616 389.185 400.354C386.685 405.768 384.041 410.785 382.185 416.354C381.619 417.735 380.951 419.073 380.185 420.354L381.185 418.354C382.797 415.129 385.249 412.396 387.185 409.354C392.037 401.728 397.203 394.826 402.185 387.354C402.912 386.263 411.199 377.375 413.185 380.354C413.956 381.511 412.367 386.806 412.185 387.354C411.285 390.054 410.185 392.687 409.185 395.354C405.199 405.984 399.941 416.054 395.185 426.354C393.556 429.883 391.245 433.054 389.185 436.354C388.395 437.618 387.851 439.021 387.185 440.354C386.851 441.021 385.949 443.061 386.185 442.354C388.154 436.446 392.077 432.681 395.185 427.354C399.372 420.176 403.2 412.339 409.185 406.354C410.303 405.235 416.9 399.592 419.185 400.354C419.817 400.565 419.279 401.694 419.185 402.354C418.406 407.803 416.151 413.241 414.185 418.354C409.972 429.306 405.003 440.754 400.185 451.354C398.826 454.343 397.085 457.197 396.185 460.354C395.918 461.052 395.583 461.722 395.185 462.354C395.185 462.354 397.742 457.621 399.185 455.354C400.475 453.326 401.974 451.43 403.185 449.354C406.145 444.173 409.851 439.456 414.185 435.354C416.577 432.961 420.195 428.374 421.185 430.354C423.473 434.931 417.746 442.606 416.185 446.354C413.335 453.193 410.534 460.308 408.185 467.354" stroke="black" stroke-width="9.601" stroke-linecap="round" stroke-linejoin="round"/>
<path d="M502.185 53.354C499.963 57.5812 497.96 61.9203 496.185 66.354C494.736 69.976 493.062 73.554 492.185 77.354C492.017 78.08 492.518 79.687 493.185 79.354C494.614 78.639 510.611 54.488 512.185 62.354C513.713 69.995 507.096 81.562 504.185 88.354C503.049 91.004 502.485 93.754 501.185 96.354C500.851 97.021 499.439 98.354 500.185 98.354C503.532 98.354 515.493 79.56 518.185 81.354C521.668 83.676 517.009 92.086 516.185 94.354C513.295 102.3 510.949 109.825 507.185 117.354C505.453 120.818 505.305 123.173 503.185 126.354C502.662 127.138 501.185 129.297 501.185 128.354C501.185 125.735 512.029 112.51 514.185 110.354C515.363 109.175 517.006 106.175 518.185 107.354C519.702 108.871 516.37 113.892 516.185 114.354C512.766 122.9 509.311 131.102 505.185 139.354C504.01 141.704 501.153 147.322 501.185 147.354C502.694 148.863 504.818 144.994 506.185 143.354C507.8 141.416 518.074 128.654 520.185 129.354C523.149 130.342 518.351 138.895 518.185 139.354C514.69 148.964 509.92 158.017 506.185 167.354C504.185 172.354 518.026 157.513 519.185 156.354C520.363 155.175 522.785 151.737 523.185 153.354C524.908 160.247 514.825 175.194 512.185 181.354C511.321 183.419 510.319 185.424 509.185 187.354C508.801 187.993 507.439 189.354 508.185 189.354C510.128 189.354 511.446 187.223 513.185 186.354" stroke="black" stroke-width="9.601" stroke-linecap="round" stroke-linejoin="round"/>
<path d="M575.185 83.354C569.103 92.477 567.819 104.009 564.185 114.354C563.096 117.454 561.543 120.365 560.185 123.354C559.568 124.711 557.518 128.687 558.185 127.354C561.206 120.983 564.894 114.949 569.185 109.354C570.068 108.254 571.457 105.141 572.185 106.354C575.114 111.236 568.124 130.535 566.185 136.354C565.385 138.762 564.128 140.997 563.185 143.354C562.908 144.046 562.185 146.099 562.185 145.354C562.185 140.096 572.39 128.244 575.185 123.354C576.12 121.717 577.498 118.511 579.185 119.354C581.053 120.288 576.585 132.307 576.185 133.354C572.894 141.911 570.59 150.84 567.185 159.354C566.242 161.711 565.128 163.997 564.185 166.354C563.908 167.046 562.658 168.881 563.185 168.354C565.579 165.726 568.263 163.378 571.185 161.354C572.968 160.165 576.899 156.354 579.185 156.354C584.45 156.354 577.996 172.123 577.185 174.354C573.674 184.009 567.185 196.2 567.185 206.354" stroke="black" stroke-width="9.601" stroke-linecap="round" stroke-linejoin="round"/>
<path d="M633.185 77.354C622.997 90.937 618.102 109.137 611.185 124.354C610.909 124.961 610.937 122.973 611.185 122.354C611.631 121.238 612.647 120.429 613.185 119.354C613.985 117.748 614.385 115.954 615.185 114.354C618.305 108.115 622.351 102.383 627.185 97.354L632.185 92.354C632.638 93.714 629.407 102.821 629.185 103.354C625.931 111.162 624.407 119.965 620.185 127.354C619.45 128.307 618.782 129.309 618.185 130.354C618.015 130.777 618.672 134.354 617.185 134.354C615.39 134.354 618.294 130.912 619.185 129.354C622.112 124.232 624.985 119.554 629.185 115.354C630.363 114.175 632.785 110.737 633.185 112.354C634.185 116.354 631.913 120.61 630.185 124.354C625.508 134.486 619.215 144.294 614.185 154.354C613.242 156.24 613.675 158.863 612.185 160.354C611.713 160.825 611.974 158.986 612.185 158.354C612.727 156.962 613.396 155.623 614.185 154.354C615.129 152.654 616.185 151.021 617.185 149.354C620.569 143.586 624.595 138.218 629.185 133.354C629.712 132.827 630.565 131.94 631.185 132.354C633.861 134.138 630.685 139.346 630.185 140.354C627.048 146.628 624.331 153.062 621.185 159.354L618.185 165.354C617.851 166.021 616.546 167.737 617.185 167.354C621.911 164.518 629.343 156.899 631.185 159.354C635.636 165.29 626.123 179.539 624.185 185.354" stroke="black" stroke-width="9.601" stroke-linecap="round" stroke-linejoin="round"/>
<path d="M697.185 77.354C691.347 77.354 693.085 85.364 691.185 89.354C688.428 95.143 684.93 100.554 682.185 106.354C681.899 106.954 681.585 108.654 682.185 108.354C683.763 107.565 689.828 97.711 692.185 95.354C692.267 95.271 697.939 90.616 698.185 91.354C699.347 94.84 693.746 103.622 692.185 106.354C691.707 107.19 689.522 110.006 689.185 111.354C689.023 112.001 688.713 113.825 689.185 113.354C690.691 111.848 697.606 96.161 701.185 97.354C708.226 99.701 692.345 117.247 701.185 111.354" stroke="black" stroke-width="9.601" stroke-linecap="round" stroke-linejoin="round"/>
<path d="M665.185 43.354C665.185 54.707 663.872 66.022 663.185 77.354C662.469 89.169 674.721 70.586 677.185 69.354C677.851 69.021 678.658 67.827 679.185 68.354C683.951 73.12 672.357 99.94 679.185 103.354" stroke="black" stroke-width="9.601" stroke-linecap="round" stroke-linejoin="round"/>
<path d="M426.185 36.354C422.821 38.036 419.185 47.719 419.185 51.354C419.185 52.554 420.518 49.354 421.185 48.354C421.852 47.354 422.585 46.397 423.185 45.354C423.924 44.06 424.395 42.618 425.185 41.354C425.465 40.906 433.26 28.967 434.185 30.354C435.919 32.954 427.375 54.18 426.185 57.354C424.791 61.071 423.894 60.807 423.185 64.354C422.923 65.661 421.992 68.954 423.185 68.354C428.578 65.654 432.336 57.991 437.185 54.354C437.785 53.907 438.738 52.754 439.185 53.354C443.729 59.413 434.952 73.82 432.185 79.354C429.738 84.248 430.975 80.633 428.185 84.354C427.738 84.954 426.518 86.687 427.185 86.354C432.585 83.654 436.373 75.203 441.185 71.354C442.349 70.423 444.418 68.076 445.185 69.354C449.241 76.114 442.239 89.245 439.185 95.354C438.316 97.092 437.054 98.615 436.185 100.354C435.851 101.021 434.439 102.354 435.185 102.354C437.319 102.354 438.203 99.147 440.185 98.354C445.833 96.095 441.506 110.745 441.185 112.354" stroke="black" stroke-width="9.601" stroke-linecap="round" stroke-linejoin="round"/>
<path d="M371.185 10.354C371.185 7.503 371.485 7.876 370.185 10.354C366.864 16.694 363.506 23.014 360.185 29.354C359.973 29.754 357.574 35.744 356.185 34.354C353.985 32.154 360.085 26.824 361.185 25.354C361.414 25.054 365.348 18.954 366.185 20.354C369.985 26.684 365.143 47.687 364.185 55.354C364.129 55.803 362.108 62.277 363.185 63.354C368.234 68.404 374.097 57.629 378.185 60.354C383.158 63.67 373.906 87.075 375.185 88.354C377.339 90.508 382.554 83.723 386.185 87.354C388.506 89.675 384.564 102.596 383.185 105.354" stroke="black" stroke-width="9.601" stroke-linecap="round" stroke-linejoin="round"/>
<path d="M321.185 30.354C318.904 34.915 319.291 40.376 318.185 45.354C316.466 53.089 312.259 60.054 309.185 67.354C308.895 68.041 307.658 69.881 308.185 69.354C315.179 62.36 318.847 51.954 325.185 44.354C325.413 44.08 330.485 38.265 331.185 40.354C332.703 44.909 326.058 63.354 324.185 68.354C323.874 69.184 319.662 77.831 320.185 78.354C320.708 78.877 321.585 77.801 322.185 77.354C324.466 75.643 332.829 64.88 336.185 69.354C338.645 72.634 332.122 92.669 331.185 97.354C331.039 98.085 329.851 98.687 330.185 99.354C330.485 99.954 331.585 99.654 332.185 99.354C333.685 98.604 345.347 84.679 348.185 90.354C350.877 95.739 344.344 105.036 342.185 109.354C341.996 109.732 339.224 115.713 340.185 116.354C342.951 118.198 348.895 113.161 352.185 115.354C352.743 115.726 351.185 127.764 351.185 129.354" stroke="black" stroke-width="9.601" stroke-linecap="round" stroke-linejoin="round"/>
<path d="M740.185 56.354C736.485 61.911 736.042 67.254 734.185 73.354C732.435 79.103 729.363 84.461 728.185 90.354C727.949 91.532 730.335 89.204 731.185 88.354C732.035 87.504 732.335 86.204 733.185 85.354C734.403 84.136 745.601 75.979 747.185 78.354C749.685 82.107 742.699 97.568 741.185 101.354C740.198 104.274 739.527 107.291 739.185 110.354C739.062 111.089 737.439 112.354 738.185 112.354C740.37 112.354 748.766 96.935 752.185 100.354C757.13 105.299 748.785 117.554 747.185 122.354C746.518 124.354 745.696 126.309 745.185 128.354C745.023 129.001 744.63 130.724 745.185 130.354C747.71 128.671 764.14 101.554 760.185 119.354C759.816 121.013 759.518 122.687 759.185 124.354C758.852 126.021 758.518 127.687 758.185 129.354C757.491 132.641 757.156 135.994 757.185 139.354" stroke="black" stroke-width="9.601" stroke-linecap="round" stroke-linejoin="round"/>
<path d="M430.185 557.354C437.424 560.974 441.261 557.739 448.185 556.354C454.634 555.064 461.785 556.635 468.185 555.354C473.758 554.064 479.138 552.046 484.185 549.354" stroke="black" stroke-width="9.601" stroke-linecap="round" stroke-linejoin="round"/>
<path d="M356.185 542.354C355.568 543.587 353.285 546.704 357.185 547.354C362.446 548.231 367.851 547.354 373.185 547.354H394.185" stroke="black" stroke-width="9.601" stroke-linecap="round" stroke-linejoin="round"/>
<path d="M876.185 132.354C865.93 152.862 860.902 176.046 852.185 197.354C851.932 197.971 852.002 195.995 852.185 195.354C852.678 193.628 853.571 192.041 854.185 190.354C854.905 188.373 855.464 186.335 856.185 184.354C858.627 177.828 860.631 171.146 862.185 164.354C862.711 161.985 863.709 159.734 864.185 157.354C864.315 156.7 863.885 154.754 864.185 155.354C868.309 163.603 864.185 184.301 864.185 194.354V192.354C864.103 191.356 864.103 190.352 864.185 189.354C864.71 187.052 865.044 184.711 865.185 182.354V160.354C865.075 171.085 864.071 181.789 862.185 192.354C861.593 195.903 859.946 202.354 859.185 202.354C857.518 202.354 859.185 199.021 859.185 197.354V176.354C859.185 176.354 859.396 181.03 859.185 183.354C858.988 185.374 858.654 187.379 858.185 189.354C857.006 194.828 855.332 200.183 853.185 205.354C852.924 205.962 851.501 212.512 849.185 211.354C848.654 211.089 848.263 204.821 848.185 204.354C847.063 197.621 843.239 187.563 850.185 182.354C859.585 175.306 856.24 191.299 860.185 187.354C864.13 183.409 867.773 169 869.185 163.354C869.294 162.918 870.993 154.354 872.185 154.354C874.461 154.354 874.185 164.706 874.185 165.354C874.185 172.1 873.229 179.667 874.185 186.354C874.439 188.131 874.579 192.154 876.185 191.354C877.027 190.933 878.067 182.826 878.185 182.354C880.405 173.472 879.29 165.306 880.185 156.354C880.485 153.387 881.518 147.021 884.185 148.354C884.708 148.616 884.456 157.099 884.185 160.354C883.085 173.595 877.027 186.249 872.185 198.354C870.479 202.619 868.003 209.566 866.185 208.354C862.065 205.608 865.373 188.107 864.185 183.354C862.953 178.427 860.185 182.615 860.185 185.354" stroke="black" stroke-width="9.601" stroke-linecap="round" stroke-linejoin="round"/>
<path d="M839.185 264.354C839.185 268.354 838.919 272.363 839.185 276.354C839.27 278.667 839.85 280.934 840.885 283.004C841.92 285.074 843.386 286.898 845.185 288.354C845.757 288.831 845.908 287.046 846.185 286.354C847.185 283.859 846.917 281.028 847.185 278.354C847.516 275.037 848.508 252.192 850.185 251.354C850.851 251.021 851.004 252.631 851.185 253.354C851.672 255.325 852.006 257.331 852.185 259.354C852.773 265.819 850.913 272.996 852.185 279.354C852.331 280.085 852.439 281.354 853.185 281.354C855.844 281.354 855.965 272.344 856.185 271.354C857.44 265.708 857.617 259.841 859.185 254.354C859.227 254.206 862.9 246.427 864.185 248.354C865.166 249.826 864.185 264.33 864.185 267.354C864.185 268.687 862.992 271.954 864.185 271.354C867.477 269.708 867.72 260.912 868.185 258.354C869.546 250.868 876.425 224.294 884.185 222.354C889.065 221.134 884.548 242.176 884.185 244.354" stroke="black" stroke-width="9.601" stroke-linecap="round" stroke-linejoin="round"/>
<path d="M863.185 318.354C863.185 322.021 861.366 326.17 863.185 329.354C863.924 330.648 866.23 328.499 867.185 327.354C868.065 326.298 867.99 324.714 868.185 323.354C868.341 322.261 868.844 312.354 870.185 312.354C871.068 312.354 871.211 324.315 873.185 321.354C874.433 319.482 874.085 313.926 875.185 311.354C878.891 302.705 882.979 294.765 887.185 286.354C888.585 283.56 889.563 281.054 891.185 278.354C891.892 277.175 891.213 273.382 892.185 274.354C892.93 275.099 892.851 276.354 893.185 277.354" stroke="black" stroke-width="9.601" stroke-linecap="round" stroke-linejoin="round"/>
<path d="M882.185 365.354C885.622 349.888 892.659 336.088 898.185 321.354" stroke="black" stroke-width="9.601" stroke-linecap="round" stroke-linejoin="round"/>
<path d="M893.185 370.354C893.185 360.307 896.468 351.788 901.185 342.354" stroke="black" stroke-width="9.601" stroke-linecap="round" stroke-linejoin="round"/>
<path d="M903.185 406.354C903.185 393.635 906.139 383.4 915.185 374.354" stroke="black" stroke-width="9.601" stroke-linecap="round" stroke-linejoin="round"/>
<path d="M915.185 422.354C915.185 419.519 914.974 420.64 916.185 417.354C918.154 412.009 920.185 406.687 922.185 401.354" stroke="black" stroke-width="9.601" stroke-linecap="round" stroke-linejoin="round"/>
<path d="M883.185 44.354C883.185 55.794 891.339 65.261 897.185 74.354C905.154 86.754 916.099 97.225 924.185 109.354" stroke="black" stroke-width="9.601" stroke-linecap="round" stroke-linejoin="round"/>
<path d="M880.185 53.354C885.798 75.806 905.849 94.683 916.185 115.354" stroke="black" stroke-width="9.601" stroke-linecap="round" stroke-linejoin="round"/>
<path d="M871.185 56.354C874.743 74.144 893.373 94.41 903.185 110.354C905.931 114.816 911.185 120.775 911.185 126.354" stroke="black" stroke-width="9.601" stroke-linecap="round" stroke-linejoin="round"/>
<path d="M883.185 75.354C888.097 82.722 892.002 95.306 895.185 102.354C901.849 117.112 906.959 132.903 914.185 147.354" stroke="black" stroke-width="9.601" stroke-linecap="round" stroke-linejoin="round"/>
<path d="M893.185 119.354C898.57 130.124 902.039 139.18 908.185 150.354C910.042 153.731 912.185 156.354 912.185 160.354" stroke="black" stroke-width="9.601" stroke-linecap="round" stroke-linejoin="round"/>
<path d="M894.185 124.354C898.974 138.722 903.816 152.706 910.185 166.354C913.649 173.777 914.632 182.525 919.185 189.354" stroke="black" stroke-width="9.601" stroke-linecap="round" stroke-linejoin="round"/>
<path d="M886.185 124.354C892.31 138.136 898.742 151.71 905.185 165.354C910.137 175.842 914.685 187.603 921.185 197.354" stroke="black" stroke-width="9.601" stroke-linecap="round" stroke-linejoin="round"/>
<path d="M900.185 166.354C905.76 185.872 914.916 204.183 927.185 220.354" stroke="black" stroke-width="9.601" stroke-linecap="round" stroke-linejoin="round"/>
<path d="M884.185 93.354L883.185 91.354L886.185 97.354C886.851 98.687 887.557 100.002 888.185 101.354C891.891 109.336 895.526 117.354 899.185 125.354C904.338 136.627 911.285 148.654 915.185 160.354" stroke="black" stroke-width="9.601" stroke-linecap="round" stroke-linejoin="round"/>
<path d="M884.185 79.354C891.799 99.654 901.221 119.481 907.185 140.354C908.715 145.71 909.426 151.079 911.185 156.354" stroke="black" stroke-width="9.601" stroke-linecap="round" stroke-linejoin="round"/>
<path d="M419.185 279.354V281.354L421.185 283.354L423.185 278.354" stroke="black" stroke-width="9.601" stroke-linecap="round" stroke-linejoin="round"/>
<path d="M422.185 261.354C422.091 266.275 423.231 271.142 425.502 275.509C427.773 279.876 431.102 283.605 435.185 286.354C437.359 287.803 442.013 290.611 442.185 290.354C444.224 287.295 437.118 272.466 436.185 269.354C435.713 267.718 435.379 266.046 435.185 264.354C435.061 263.362 434.869 260.405 435.185 261.354C437.885 269.454 439.733 275.934 444.185 283.354C444.912 284.567 446.185 287.354 447.185 286.354C448.073 285.466 446.207 279.532 446.185 279.354C445.03 271.402 444.362 263.387 444.185 255.354C444.185 253.654 443.985 249.154 445.185 250.354C451.685 256.854 448.885 269.001 455.185 276.354C455.866 277.148 460.063 281.476 462.185 279.354C464.208 277.331 460.105 256.422 459.185 253.354C458.302 250.41 457.185 247.427 457.185 244.354C457.185 243.354 456.29 240.907 457.185 241.354C459.227 242.375 465.043 260.927 466.185 264.354C466.656 265.768 466.694 268.354 468.185 268.354C468.93 268.354 468.851 267.021 469.185 266.354" stroke="black" stroke-width="9.601" stroke-linecap="round" stroke-linejoin="round"/>
<path d="M470.185 213.354C473.372 219.727 472.662 227.393 474.185 234.354C476.429 244.612 481.97 259.247 492.185 264.354" stroke="black" stroke-width="9.601" stroke-linecap="round" stroke-linejoin="round"/>
<path d="M488.185 210.354C489.585 215.936 490.331 221.663 491.185 227.354C492.211 234.193 500.104 258.895 511.185 253.354" stroke="black" stroke-width="9.601" stroke-linecap="round" stroke-linejoin="round"/>
<path d="M511.185 203.354C511.185 218.364 516.098 230.789 521.185 244.354" stroke="black" stroke-width="9.601" stroke-linecap="round" stroke-linejoin="round"/>
<path d="M471.185 291.354C467.427 302.628 466.44 315.843 461.185 326.354" stroke="black" stroke-width="9.601" stroke-linecap="round" stroke-linejoin="round"/>
<path d="M478.185 302.354C474.375 309.973 470.185 323.354 470.185 332.354" stroke="black" stroke-width="9.601" stroke-linecap="round" stroke-linejoin="round"/>
<path d="M478.185 320.354C478.185 333.491 471.109 350.506 465.185 362.354" stroke="black" stroke-width="9.601" stroke-linecap="round" stroke-linejoin="round"/>
<path d="M476.185 355.354C476.185 363.11 471.648 371.427 468.185 378.354" stroke="black" stroke-width="9.601" stroke-linecap="round" stroke-linejoin="round"/>
<path d="M472.185 384.354C467.093 394.538 464.726 404.73 461.185 415.354" stroke="black" stroke-width="9.601" stroke-linecap="round" stroke-linejoin="round"/>
<path d="M467.185 414.354C467.185 418.705 462.409 434.906 460.185 439.354" stroke="black" stroke-width="9.601" stroke-linecap="round" stroke-linejoin="round"/>
<path d="M471.185 432.354C471.185 440.068 466.8 453.507 464.185 461.354" stroke="black" stroke-width="9.601" stroke-linecap="round" stroke-linejoin="round"/>
<path d="M526.185 294.354C526.185 300.472 531.452 302.781 537.185 303.354C544.821 304.118 552.518 304.021 560.185 304.354" stroke="black" stroke-width="9.601" stroke-linecap="round" stroke-linejoin="round"/>
<path d="M553.185 288.354C550.828 290.711 551.805 295.319 553.185 298.354C555.171 302.724 563.778 305.354 568.185 305.354" stroke="black" stroke-width="9.601" stroke-linecap="round" stroke-linejoin="round"/>
<path d="M565.185 284.354C563.344 282.513 562.785 278.354 560.185 278.354C558.253 278.354 564.999 288.829 566.185 290.354C569.434 294.531 573.708 300.369 578.185 303.354C582.577 306.282 587.844 306.184 592.185 308.354" stroke="black" stroke-width="9.601" stroke-linecap="round" stroke-linejoin="round"/>
<path d="M582.185 276.354C587.89 293.468 596.885 297.202 611.185 304.354" stroke="black" stroke-width="9.601" stroke-linecap="round" stroke-linejoin="round"/>
<path d="M603.185 280.354C603.185 294.854 618.254 298.354 630.185 298.354C633.66 298.354 637.051 298.921 640.185 297.354" stroke="black" stroke-width="9.601" stroke-linecap="round" stroke-linejoin="round"/>
<path d="M634.185 286.354C620.969 273.138 643.943 302.595 648.185 298.354C652.46 294.079 640.765 280.365 638.185 277.354C637.264 276.28 635.969 275.531 635.185 274.354C634.6 273.477 633.439 270.609 634.185 271.354C635.239 272.408 635.215 274.222 636.185 275.354C641.685 281.767 653 288.248 660.185 292.354C660.654 292.622 668.376 297.702 669.185 296.354C674.067 288.217 660.623 277.346 656.185 272.354C655.077 271.108 654.252 269.634 653.185 268.354C652.585 267.63 651.185 265.411 651.185 266.354C651.185 272.59 658.105 275.498 662.185 278.354C668.785 282.973 674.654 288.744 681.185 293.354C686.556 297.145 692.61 299.87 698.185 303.354" stroke="black" stroke-width="9.601" stroke-linecap="round" stroke-linejoin="round"/>
<path d="M202.185 146.354C202.185 156.435 203.185 164.884 204.185 175.354C204.439 178.021 203.264 177.354 206.185 177.354" stroke="black" stroke-width="9.601" stroke-linecap="round" stroke-linejoin="round"/>
<path d="M225.185 152.354C225.185 160.99 222.185 168.843 222.185 177.354" stroke="black" stroke-width="9.601" stroke-linecap="round" stroke-linejoin="round"/>
<path d="M228.185 165.354C233.814 165.354 232.185 180.704 232.185 185.354" stroke="black" stroke-width="9.601" stroke-linecap="round" stroke-linejoin="round"/>
<path d="M243.185 165.354V190.354" stroke="black" stroke-width="9.601" stroke-linecap="round" stroke-linejoin="round"/>
<path d="M250.185 175.354C257.097 168.442 255.185 192.492 255.185 196.354" stroke="black" stroke-width="9.601" stroke-linecap="round" stroke-linejoin="round"/>
<path d="M265.185 186.354C265.142 183.982 265.48 181.619 266.185 179.354C266.2 179.308 266.638 190.808 266.185 190.354C265.213 189.382 265.185 187.728 265.185 186.354Z" stroke="black" stroke-width="9.601" stroke-linecap="round" stroke-linejoin="round"/>
<path d="M290.185 182.354C290.267 189.139 289.254 195.892 287.185 202.354" stroke="black" stroke-width="9.601" stroke-linecap="round" stroke-linejoin="round"/>
<path d="M294.685 197.854C294.685 196.013 294.985 190.524 295.185 192.354C295.553 195.667 295.185 199.021 295.185 202.354C295.234 203.02 295.234 203.688 295.185 204.354C294.899 202.198 294.732 200.028 294.685 197.854V197.854Z" stroke="black" stroke-width="9.601" stroke-linecap="round" stroke-linejoin="round"/>
<path d="M247.685 43.354C245.814 43.2765 243.963 42.94 242.185 42.354C241.544 42.171 243.518 42.354 244.185 42.354C246.851 42.354 249.621 41.621 252.185 42.354C253.662 42.776 249.221 43.354 247.685 43.354Z" stroke="black" stroke-width="9.601" stroke-linecap="round" stroke-linejoin="round"/>
<path d="M258.185 50.354C251.131 49.967 250.157 49.409 247.185 55.354C245.924 57.9155 244.919 60.5952 244.185 63.354C240.651 76.309 262.936 56.608 262.185 54.354C261.588 52.568 260.068 50.457 258.185 50.354Z" stroke="black" stroke-width="9.601" stroke-linecap="round" stroke-linejoin="round"/>
<path d="M260.185 67.854C259.572 66.7131 258.717 65.7196 257.681 64.9424C256.645 64.1653 255.452 63.6232 254.185 63.354C253.703 63.254 252.724 67.663 253.185 68.354C255.106 71.237 265.343 78.65 260.185 67.854Z" stroke="black" stroke-width="9.601" stroke-linecap="round" stroke-linejoin="round"/>
<path d="M238.185 109.354C245.194 105.849 254.633 106.854 262.185 106.354" stroke="black" stroke-width="9.601" stroke-linecap="round" stroke-linejoin="round"/>
<path d="M260.185 122.354C257.597 121.628 254.792 120.702 252.185 121.354C250.739 121.715 254.751 122.944 256.185 123.354C257.561 123.747 268.145 124.587 260.185 122.354Z" stroke="black" stroke-width="9.601" stroke-linecap="round" stroke-linejoin="round"/>
<path d="M256.685 147.854C255.519 146.871 254.161 146.141 252.698 145.71C251.235 145.28 249.698 145.159 248.185 145.354C246.872 145.586 247.499 148.211 248.185 149.354C248.189 149.361 266.538 156.051 256.685 147.854Z" stroke="black" stroke-width="9.601" stroke-linecap="round" stroke-linejoin="round"/>
<path d="M241.185 144.354V140.354" stroke="black" stroke-width="9.601" stroke-linecap="round" stroke-linejoin="round"/>
<path d="M248.685 103.354C247.441 100.66 246.085 96.998 243.185 96.354C241.205 95.914 243.432 100.471 244.185 102.354C244.804 103.901 246.216 104.998 247.185 106.354C247.885 107.332 248.647 110.429 249.185 109.354C250.082 107.559 249.526 105.176 248.685 103.354Z" stroke="black" stroke-width="9.601" stroke-linecap="round" stroke-linejoin="round"/>
<path d="M256.685 94.354C255.635 92.554 253.239 90.98 251.185 91.354C249.873 91.592 250.499 94.211 251.185 95.354C252.213 97.068 258.64 97.715 256.685 94.354Z" stroke="black" stroke-width="9.601" stroke-linecap="round" stroke-linejoin="round"/>
<path d="M178.185 64.354C178.185 78.41 171.399 84.925 165.185 97.354" stroke="black" stroke-width="9.601" stroke-linecap="round" stroke-linejoin="round"/>
<path d="M191.185 65.354C185.585 73.746 185.606 85.222 180.185 93.354" stroke="black" stroke-width="9.601" stroke-linecap="round" stroke-linejoin="round"/>
<path d="M204.685 53.354C202.314 52.077 199.813 49.77 197.185 50.354C195.558 50.715 198.919 53.269 200.185 54.354C201.996 55.907 205.89 56.971 208.185 57.354C208.842 57.464 210.624 57.854 210.185 57.354C208.603 55.7052 206.741 54.3508 204.685 53.354Z" stroke="black" stroke-width="9.601" stroke-linecap="round" stroke-linejoin="round"/>
<path d="M209.685 38.354C207.192 38.546 204.685 38.354 202.185 38.354C204.517 38.4732 206.853 38.4732 209.185 38.354C211.206 38.198 213.157 37.354 215.185 37.354C217.053 37.354 211.543 38.211 209.685 38.354Z" stroke="black" stroke-width="9.601" stroke-linecap="round" stroke-linejoin="round"/>
<path d="M219.185 33.354C221.611 33.354 223.932 32.254 226.185 31.354" stroke="black" stroke-width="9.601" stroke-linecap="round" stroke-linejoin="round"/>
<path d="M85.1851 89.354C85.1851 84.564 90.3391 80.754 94.1851 78.354C101.166 73.991 108.203 69.717 115.185 65.354C120.601 61.969 138.555 46.613 141.185 41.354" stroke="black" stroke-width="9.601" stroke-linecap="round" stroke-linejoin="round"/>
<path d="M107.185 96.354C123.541 79.998 144.89 71.649 161.185 55.354" stroke="black" stroke-width="9.601" stroke-linecap="round" stroke-linejoin="round"/>
<path d="M123.185 105.354C137.424 105.354 150.912 105.034 165.185 104.354" stroke="black" stroke-width="9.601" stroke-linecap="round" stroke-linejoin="round"/>
<path d="M400.185 129.354C410.074 149.132 408.9 171.941 410.185 193.354C410.601 200.294 410.185 207.395 410.185 214.354" stroke="black" stroke-width="9.601" stroke-linecap="round" stroke-linejoin="round"/>
<path d="M375.185 150.354C386.016 166.601 385.428 187.906 387.185 206.354C387.554 210.231 387.185 214.432 387.185 218.354" stroke="black" stroke-width="9.601" stroke-linecap="round" stroke-linejoin="round"/>
<path d="M432.185 122.354C432.185 128.492 435.676 133.319 437.185 139.354C439.263 147.668 441.185 156.021 443.185 164.354" stroke="black" stroke-width="9.601" stroke-linecap="round" stroke-linejoin="round"/>
<path d="M403.185 39.354C399.049 31.083 400.702 40.054 401.185 45.354C401.797 51.1665 403.141 56.8784 405.185 62.354C406.011 64.2972 406.68 66.3037 407.185 68.354C407.315 69.008 406.713 70.825 407.185 70.354C411.905 65.634 400.308 45.307 398.185 40.354C397.711 39.249 396.631 38.47 396.185 37.354C396.015 36.931 396.672 33.354 395.185 33.354C394.518 33.354 395.185 34.687 395.185 35.354C395.185 39.022 394.53 43.044 396.185 46.354C397.774 49.2337 399.112 52.2448 400.185 55.354C402.155 60.9269 403.824 66.6018 405.185 72.354C406.116 76.638 406.357 81.054 407.185 85.354C408.432 91.7903 410.103 98.1374 412.185 104.354" stroke="black" stroke-width="9.601" stroke-linecap="round" stroke-linejoin="round"/>
<path d="M577.185 27.354C577.185 20.254 577.178 34.116 577.185 34.354C577.485 45.022 577.609 55.698 578.185 66.354C578.985 81.196 581.333 96.543 583.185 111.354C583.953 117.499 584.604 127.774 589.185 132.354" stroke="black" stroke-width="9.601" stroke-linecap="round" stroke-linejoin="round"/>
<path d="M519.185 44.354C517.843 43.907 514.92 41.986 516.185 41.354C518.094 40.399 519.392 44.372 520.185 46.354C523.454 54.526 525.159 62.846 527.185 71.354C532.566 93.954 539.821 116.082 546.185 138.354" stroke="black" stroke-width="9.601" stroke-linecap="round" stroke-linejoin="round"/>
<path d="M643.185 37.354L637.185 34.354C636.518 34.021 635.518 32.687 635.185 33.354C634.049 35.625 637.242 37.997 638.185 40.354C641.548 48.761 644.965 56.474 647.185 65.354C652.102 85.023 656.185 106.081 656.185 126.354" stroke="black" stroke-width="9.601" stroke-linecap="round" stroke-linejoin="round"/>
<path d="M830.185 154.354C822.609 154.354 819.651 157.054 812.185 159.354C808.348 160.534 804.168 158.854 800.185 158.354" stroke="black" stroke-width="9.601" stroke-linecap="round" stroke-linejoin="round"/>
<path d="M808.185 133.354C814.059 148.038 807.642 164.026 803.185 178.354C797.699 195.988 793.066 214.709 787.185 232.354" stroke="black" stroke-width="9.601" stroke-linecap="round" stroke-linejoin="round"/>
<path d="M791.185 135.354C790.518 135.687 789.485 135.67 789.185 136.354C784.074 148.172 780.072 160.442 775.185 172.354C774.729 173.466 773.685 174.263 773.185 175.354C771.685 178.614 770.566 182.04 769.185 185.354C768.656 186.623 769.559 189.354 768.185 189.354C766.185 189.354 767.485 185.227 768.185 183.354C770.956 175.488 773.292 167.476 775.185 159.354C775.508 158.06 774.966 156.669 775.185 155.354C775.307 154.619 776.185 152.609 776.185 153.354C776.185 163.224 770.277 172.94 768.185 182.354C765.551 194.174 764.21 206.245 764.185 218.354" stroke="black" stroke-width="9.601" stroke-linecap="round" stroke-linejoin="round"/>
<path d="M825.185 206.354C820.853 215.018 818.5 224.092 816.185 233.354C815.162 237.444 812.185 249.57 812.185 245.354" stroke="black" stroke-width="9.601" stroke-linecap="round" stroke-linejoin="round"/>
<path d="M821.185 219.354C823.444 230.654 820.185 247.721 820.185 260.354" stroke="black" stroke-width="9.601" stroke-linecap="round" stroke-linejoin="round"/>
<path d="M327.185 198.354C324.185 207.346 324.137 219.928 325.185 229.354C325.267 230.095 325.801 227.993 326.185 227.354C326.803 226.323 327.647 225.429 328.185 224.354C330.017 220.69 330.402 215.245 334.185 213.354C334.851 213.021 335.771 211.734 336.185 212.354C336.924 213.463 336.037 215.029 336.185 216.354C336.948 223.996 337.282 231.675 337.185 239.354V247.354C337.185 248.021 336.885 249.954 337.185 249.354C340.544 242.635 341.221 234.27 344.185 227.354C344.322 227.034 348.529 219.87 350.185 222.354C351.841 224.838 350.185 228.354 350.185 231.354V258.354C350.099 261.376 349.765 264.387 349.185 267.354C348.966 268.669 348.242 272.297 349.185 271.354C349.666 270.872 351.172 264.393 351.185 264.354C353.249 258.162 355.732 249.878 359.185 244.354C360.316 242.544 361.409 240.538 363.185 239.354C363.739 238.984 364.974 238.721 365.185 239.354C366.45 243.149 365.185 247.354 365.185 251.354C365.185 260.029 363.967 268.745 363.185 277.354C362.879 280.714 361.847 285.042 361.185 288.354C361.039 289.085 359.658 290.881 360.185 290.354C368.026 282.513 371.476 270.487 377.185 261.354C378.565 259.146 381.741 254.188 383.185 256.354C385.435 259.729 381.679 282.407 381.185 287.354C380.846 290.736 379.606 293.981 379.185 297.354C378.974 299.04 377.425 303.874 378.185 302.354C382.802 293.12 385.17 282.381 390.185 273.354C390.471 272.838 395.106 265.661 397.185 266.354C400.078 267.318 397.385 276.154 397.185 277.354C395.664 286.479 394.209 296.136 393.185 305.354V312.354C393.185 313.021 392.518 314.354 393.185 314.354C394.772 314.354 401.406 294.689 402.185 292.354C402.327 291.926 403.427 285.354 405.185 285.354C406.005 285.354 406.595 289.433 406.185 294.354C405.195 306.236 403.185 317.321 403.185 329.354" stroke="black" stroke-width="9.601" stroke-linecap="round" stroke-linejoin="round"/>
</svg>
