<svg xmlns="http://www.w3.org/2000/svg" viewBox="0 0 416.3 613.64">
  <g id="Guide" opacity="0.12">
    <path d="M53,283.56c0-99.63,80.78-180.4,180.41-180.4A180.41,180.41,0,1,1,53,283.56Z" transform="translate(-34.44 -35.56)" fill="none" stroke="#000" stroke-linecap="round" stroke-linejoin="round" stroke-width="4.51"/>
    <path d="M183.67,570.2c0-14.28,21.31-25.86,47.59-25.86s47.59,11.58,47.59,25.86-21.3,25.85-47.59,25.85S183.67,584.48,183.67,570.2Z" transform="translate(-34.44 -35.56)" fill="none" stroke="#000" stroke-linecap="round" stroke-linejoin="round" stroke-width="4.51"/>
    <path d="M68.58,360.53H434.34" transform="translate(-34.44 -35.56)" fill="none" stroke="#000" stroke-linecap="round" stroke-linejoin="round" stroke-width="4.51"/>
    <path d="M230.29,85.19V619.33" transform="translate(-34.44 -35.56)" fill="none" stroke="#000" stroke-linecap="round" stroke-linejoin="round" stroke-width="4.51"/>
    <path d="M55,322.65H416.75" transform="translate(-34.44 -35.56)" fill="none" stroke="#000" stroke-linecap="round" stroke-linejoin="round" stroke-width="4.51"/>
    <path d="M124.43,501.84H351.21" transform="translate(-34.44 -35.56)" fill="none" stroke="#000" stroke-linecap="round" stroke-linejoin="round" stroke-width="4.51"/>
    <path d="M211.86,438.24a18,18,0,1,1,18,18A18,18,0,0,1,211.86,438.24Z" transform="translate(-34.44 -35.56)" fill="none" stroke="#000" stroke-linecap="round" stroke-linejoin="round" stroke-width="4.51"/>
    <path d="M246.18,434a15.21,15.21,0,1,1,15.22,15.21A15.22,15.22,0,0,1,246.18,434Z" transform="translate(-34.44 -35.56)" fill="none" stroke="#000" stroke-linecap="round" stroke-linejoin="round" stroke-width="4.51"/>
    <path d="M183,434.82A15.21,15.21,0,1,1,198.18,450,15.21,15.21,0,0,1,183,434.82Z" transform="translate(-34.44 -35.56)" fill="none" stroke="#000" stroke-linecap="round" stroke-linejoin="round" stroke-width="4.51"/>
    <path d="M124.12,356.05a34.37,34.37,0,1,1,34.37,34.36A34.37,34.37,0,0,1,124.12,356.05Z" transform="translate(-34.44 -35.56)" fill="none" stroke="#000" stroke-linecap="round" stroke-linejoin="round" stroke-width="4.51"/>
    <path d="M272.2,354.35a34.37,34.37,0,1,1,34.36,34.37A34.36,34.36,0,0,1,272.2,354.35Z" transform="translate(-34.44 -35.56)" fill="none" stroke="#000" stroke-linecap="round" stroke-linejoin="round" stroke-width="4.51"/>
    <path d="M214.15,517.22A14.87,14.87,0,1,1,229,532.08,14.86,14.86,0,0,1,214.15,517.22Z" transform="translate(-34.44 -35.56)" fill="none" stroke="#000" stroke-linecap="round" stroke-linejoin="round" stroke-width="4.51"/>
    <path d="M229.08,494.68a11.81,11.81,0,1,1,11.81,11.82A11.81,11.81,0,0,1,229.08,494.68Z" transform="translate(-34.44 -35.56)" fill="none" stroke="#000" stroke-linecap="round" stroke-linejoin="round" stroke-width="4.51"/>
    <path d="M204.87,495.51A12.14,12.14,0,1,1,217,507.64,12.14,12.14,0,0,1,204.87,495.51Z" transform="translate(-34.44 -35.56)" fill="none" stroke="#000" stroke-linecap="round" stroke-linejoin="round" stroke-width="4.51"/>
  </g>
  <g id="Outline">
    <path d="M407.06,336.74S386.54,449.76,343,515s-76.73,76.72-110.24,82.55" transform="translate(-34.44 -35.56)" fill="none" stroke="#000" stroke-linecap="round" stroke-linejoin="round" stroke-width="4.51"/>
    <path d="M65.67,342.56S84.73,450.61,126.37,514s74.3,82.07,105.86,82.07" transform="translate(-34.44 -35.56)" fill="none" stroke="#000" stroke-linecap="round" stroke-linejoin="round" stroke-width="4.51"/>
    <path d="M80.85,391.26l17.82-78.91S86,242,102.06,219.43s18.77,11.88,60.67,2.55,59.72-36.28,106.92-39.89,56-6.47,81.89,25.46S363.63,263,373.18,309.8s16.54,84.86,16.54,84.86,18.35-3.4,25.46-13.16-1.27-12.41,3-25.88,11.77-15.27,14-28-5.09-22.91-5.09-22.91l8.48-42.85s14.85-35.43,12.73-58.13-12.94-20.26-21.21-32.67-12.41-5.62-11.88-17,20-25.35,14-28.43-33.94,24-38.19,16.13S424,100,412.21,94.27s-49.64,38.29-68.31,24.61.53-68.31-6.37-79.34S330.43,74,316.32,74.75s-2.86-26.94-35.21-32.24-66.4,3-94.19,11S183.63,66,170,74.75s-37.77,14-37.77,14-44.86,36.6-63.64,59-6.47,7.1-11.45,30.55-11.35,42.11-8.49,63.21,18.25,7.32,19.94,21.22-16.23,2.22-13.15,34.36S80.85,391.26,80.85,391.26Z" transform="translate(-34.44 -35.56)" fill="none" stroke="#000" stroke-linecap="round" stroke-linejoin="round" stroke-width="4.51"/>
    <path d="M104.61,327.2c0-4.68,4.54-8.79,7.63-11.88a11.51,11.51,0,0,1,3-2.55c.27-.11.75-.26.85,0,.88,2.2-1.13,3.93-2.12,5.52-1.52,2.42-3.07,4.82-4.67,7.21-.78,1.18-1.66,2.29-2.54,3.39-.2.25-.74.85-.43.85s.59-.54.85-.85c.59-.68,1.13-1.41,1.7-2.12a74.31,74.31,0,0,1,8.49-9.33c.45-.4,3.48-3.31,4.24-2.55s-1.38,2.95-1.7,3.4a52.9,52.9,0,0,1-5.51,6.36c-.65.64-1.49,1.06-2.13,1.7-.22.22-.7,1-.42.85,1.43-.72,2.26-2.27,3.39-3.4,2.5-2.5,5-4.84,7.64-7.21.74-.67,1.34-1.5,2.12-2.12a16.35,16.35,0,0,1,2.12-1.28c.28-.15.55-.52.85-.42,1.39.46-1,3-1.27,3.4-.87,1.22-2,2.26-3,3.39-1.38,1.57-2.34,3.61-3.82,5.09-.36.36-.91.49-1.27.85s-.74.85-.43.85.57-.57.85-.85c.57-.57,1.16-1.1,1.7-1.7,2.62-2.91,5.29-5.71,8.06-8.48.76-.77,1.77-1.93,2.12-1.7,1.42.95-1.32,4.1-1.69,4.67-1.57,2.35-3.48,4.52-5.1,6.78a12.79,12.79,0,0,0-.84,1.7c-.15.28-.71.71-.43.85,1,.51,2.07-1,3-1.7.71-.55,1.41-1.13,2.12-1.69,2.88-2.31,5.14-5.45,8.06-7.64a10.38,10.38,0,0,1,1.7-.85c.28-.14.67-.69.85-.42.65,1-.47,2.71-.85,3.39a67.66,67.66,0,0,1-5.52,7.64,23.9,23.9,0,0,1-2.12,3c-.22.22-.84.74-.84.42,0-.12,2.88-3,3.39-3.39,3.59-2.87,6.95-6.07,10.61-8.91.84-.66,2.47-2,3-1.7.81.54-.73,2.42-.84,2.55-.52.6-1.21,1.06-1.7,1.69-2,2.57-3.81,5.16-5.94,7.64-.59.69-1.7,2.12-1.7,2.12s1.93-2,3-3c.68-.61,1.45-1.09,2.13-1.7,2.91-2.62,5.62-5.87,8.9-8.06.9-.6,1.95-1.61,3-1.27.36.12.4.58-1.28,2.55-2.22,2.58-4.81,5.24-7.21,7.63-.36.36-.91.49-1.27.85a10.64,10.64,0,0,0-1.28,2.12c1.78,0,4.57-3.19,5.52-4.24,2.4-2.67,4.61-5.62,7.64-7.64.68-.45,1.29-1.27,2.12-1.27.42,0,0,.85,0,1.27a6.84,6.84,0,0,1,0,1.28c-.13.62-.68,1.08-.85,1.69a53.22,53.22,0,0,0-1.7,6.37c-.16,1.15-.62,2.25-.85,3.39a3.66,3.66,0,0,0,0,.85c0-2.39,1.11-4.84,1.7-7.21.14-.57.26-1.14.43-1.7s.1-1.59.42-1.27c2.11,2.11-2.12,8.92-2.12,11.45,0,.29-.09-.58,0-.84a10,10,0,0,1,.85-1.7,34.17,34.17,0,0,1,5.51-7.64c.45-.45,1.46-1.44,1.7-.85.8,2-2.46,9.77-3.4,11.88-.25.58-.56,1.13-.84,1.7-.14.28-.11.85-.43.85s-.08-.58,0-.85a16.17,16.17,0,0,1,.85-2.12c.26-.58.54-1.15.85-1.7A46,46,0,0,1,164,323c.1-.12,1.25-1.42,1.69-1.27.62.2.43,1.91.43,2.12a45.26,45.26,0,0,0,.42,5.94c0,.42-.08.86,0,1.28s.2,1.07.43.84c.7-.7,0-2,0-3a55.92,55.92,0,0,1,.42-7.21c.07-.58-.2-3.34,1.27-3,1.06.27.85,1.48,1.28,2.12,1.39,2.09,3.34,3.74,4.66,5.94a11.78,11.78,0,0,1,.85,2.55l-.42-3c-.24-1.66-.15-3.44-.43-5.1-.09-.57-1-1.69-.42-1.69.76,0,.58,1.41.85,2.12a20.31,20.31,0,0,0,.84,2.12,21.36,21.36,0,0,0,3.82,5.52c.57.56.9,1.7,1.7,1.7a19.13,19.13,0,0,0-1.7-2.55c-.49-.5-3.19-4.85-3-5.52.31-.91,2.44,1.62,2.55,1.7a27.86,27.86,0,0,1,5.09,4.67c.5.62.9,1.7,1.7,1.7V320c0,1.23-.38,7.69.42,8.49a6.3,6.3,0,0,0,1.7.85" transform="translate(-34.44 -35.56)" fill="none" stroke="#000" stroke-linecap="round" stroke-linejoin="round" stroke-width="4.51"/>
    <path d="M266.26,322.1a9.13,9.13,0,0,1,2.12.85c2.42,1.53,4.72,3.26,7.21,4.67,1.58.89,5.69,1,6.79,2.12.2.2-.57,0-.85,0a9,9,0,0,1-1.27,0,5.44,5.44,0,0,1-1.7-.42c-2.36-1.18-5.09-3.51-7.21-5.09a21.2,21.2,0,0,0-3-2.13c-.29-.14-1-.7-.85-.42,1.72,3.43,11.23,3,14.42,3,.52,0,4.35-.3,3.82,1.27-.63,1.91-3.59-1-3.82-1.27a22.74,22.74,0,0,1-3.39-5.94,16.73,16.73,0,0,1-1.27-2.54c-.07-.28-.24-1,0-.85.59.39.8,1.16,1.27,1.69a40.29,40.29,0,0,0,3.39,3.4,20.39,20.39,0,0,0,5.94,3.39c.41.18.85.28,1.28.43s.95.74,1.27.42-.64-.51-.85-.85a5,5,0,0,1-.42-1.27c-.54-1.89-1.32-4-1.7-5.94-.11-.56.09-1.14,0-1.7-.05-.31-.71-1-.42-.85.94.47,2.18,2.19,3,3,2.19,2.19,4.11,4.41,6.78,5.94,1.28.73,2,1.52,2.13,1.28.49-.75-1.85-8.08-2.13-9.34-.12-.57-.32-1.12-.42-1.7-.05-.27-.25-1,0-.84,1.19.59,1.38,2.28,2.12,3.39a7.57,7.57,0,0,0,3,3c.74.53,1.4,1.15,2.12,1.7.26.19.85.74.85.42,0-.71-1.15-1-1.27-1.7a36.77,36.77,0,0,1-.43-5.94c0-.71-.17-3.07.43-3.81.28-.35.93-.71,1.27-.43,1.34,1.12,2.47,6.43,3,8.06a33.33,33.33,0,0,0,2.12,5.09c.45.9,1.21,2.86,1.7,2.13s-.2-2.3-.43-3a31.91,31.91,0,0,1-1.69-8.06c-.15-1.66-.93-3.22-.43-3.39s1,.44,1.28.85a7.51,7.51,0,0,1,.84,2.12c.87,2.59,2.2,9.38,4.67,11,.24.16,0-.56,0-.85v-2.54c0-1.42-1.13-7.85-.42-8.91.42-.64,2.11.58,3,2.12a38.63,38.63,0,0,0,4.67,6.79c.53.64,1.33,2.42,1.69,1.69.22-.42-2.6-7.21-3-8.06-.2-.46-.66-.8-.84-1.27-.11-.26-.26-1,0-.85.74.37,1.56,2.31,2.12,3a28,28,0,0,0,5.94,5.52c.6.4,2.12,1.14,2.12.42,0-.14-2.83-3.16-3-3.39a14.09,14.09,0,0,1-1.28-3.82c-.08-.32-1.19-3.82-.85-3.82,1.15,0,1.15,2,1.7,3a28.66,28.66,0,0,0,6.79,7.64c.43.35,2.24,2.18,3,1.69,1.06-.7-.19-2.59-.42-3.39-.58-2-1.57-3.92-2.12-5.94-.23-.83-.24-1.7-.43-2.55-.1-.43-.11-1.58-.42-1.27s-.12,1.14,0,1.7a18.93,18.93,0,0,0,.85,2.54,21,21,0,0,0,4.66,8.49c.86.86,2,1.34,3,2.12.31.26.72,1.23.85.85.23-.68-.28-1.41-.42-2.12-.48-2.39-.73-4.85-1.28-7.21-.36-1.58-1-3.08-1.27-4.67-.05-.28.28-.85,0-.85-.86,0-.51,1.69-.42,2.55s.27,1.69.42,2.54a21.14,21.14,0,0,0,3.4,8.06c.5.81.84,1.7,1.27,2.55l.42.85a51.86,51.86,0,0,1-3-8.06c-.38-1.29-.9-2.53-1.27-3.82a2.33,2.33,0,0,1,0-.85c0,4.4,3.32,7.47,5.94,10.61.58.69,1.15,1.39,1.7,2.12.24.32.51,1.07.85.85.94-.64.24-5.51,0-6.37-.13-.43-.34-.83-.43-1.27-.06-.28.2-1.05,0-.85-.79.79-.34,1.75,0,2.54.93,2.18,2.57,4,3,6.37,0,.19,0,6.55,0,3.82" transform="translate(-34.44 -35.56)" fill="none" stroke="#000" stroke-linecap="round" stroke-linejoin="round" stroke-width="4.51"/>
    <path d="M268,366.23s14.22-19.62,32.67-20.79,36.5,12.63,36.5,12.63S326.56,369.16,311.29,370s-30.61-5-30.61-5Z" transform="translate(-34.44 -35.56)" fill="none" stroke="#000" stroke-linecap="round" stroke-linejoin="round" stroke-width="4.51"/>
    <path d="M189.39,366s-17.34-19.29-34.49-21.15-34.1,13.72-34.1,13.72,9.58,9.91,23.63,11.81S177,366.14,177,366.14Z" transform="translate(-34.44 -35.56)" fill="none" stroke="#000" stroke-linecap="round" stroke-linejoin="round" stroke-width="4.51"/>
    <path d="M292.65,357.85a12.86,12.86,0,1,1,12.86,12.86A12.86,12.86,0,0,1,292.65,357.85Z" transform="translate(-34.44 -35.56)" fill="none" stroke="#000" stroke-linecap="round" stroke-linejoin="round" stroke-width="4.51"/>
    <path d="M142.14,357.85A12.86,12.86,0,1,1,155,370.71,12.86,12.86,0,0,1,142.14,357.85Z" transform="translate(-34.44 -35.56)" fill="none" stroke="#000" stroke-linecap="round" stroke-linejoin="round" stroke-width="4.51"/>
    <path d="M110,355.17s20.75-15.19,40-14.82,37.06,16.3,37.06,16.3" transform="translate(-34.44 -35.56)" fill="none" stroke="#000" stroke-linecap="round" stroke-linejoin="round" stroke-width="4.51"/>
    <path d="M271.57,351.09s11.21-11.48,27.6-12.22,38,9.26,38,9.26" transform="translate(-34.44 -35.56)" fill="none" stroke="#000" stroke-linecap="round" stroke-linejoin="round" stroke-width="4.51"/>
    <path d="M196.05,445.4l9.91-1.72s12.15,14.39,22.67,14.48,19.44-14.1,19.44-14.1L263.31,446" transform="translate(-34.44 -35.56)" fill="none" stroke="#000" stroke-linecap="round" stroke-linejoin="round" stroke-width="4.51"/>
    <path d="M189.2,416.44S180,428,180.05,436.25s9.53,13.34,9.53,13.34" transform="translate(-34.44 -35.56)" fill="none" stroke="#000" stroke-linecap="round" stroke-linejoin="round" stroke-width="4.51"/>
    <path d="M267.12,415.11s11.1,15.29,11.81,24.38-8.95,12-8.95,12" transform="translate(-34.44 -35.56)" fill="none" stroke="#000" stroke-linecap="round" stroke-linejoin="round" stroke-width="4.51"/>
    <path d="M174.49,497.45l58,5.75,59.65-4.45" transform="translate(-34.44 -35.56)" fill="none" stroke="#000" stroke-linecap="round" stroke-linejoin="round" stroke-width="4.51"/>
    <path d="M201.91,483,216,478.56s6.67,5.32,14.08,5,15.56-6.3,15.56-6.3,10,6.48,12.23,5.74" transform="translate(-34.44 -35.56)" fill="none" stroke="#000" stroke-linecap="round" stroke-linejoin="round" stroke-width="4.51"/>
    <path d="M203.39,524.5s14.36,6.9,26.31,7.23a41.35,41.35,0,0,0,21.49-5.93" transform="translate(-34.44 -35.56)" fill="none" stroke="#000" stroke-linecap="round" stroke-linejoin="round" stroke-width="4.51"/>
    <path d="M407.63,336.84S421.24,317.24,424,324s2.64,11.41-5.26,39.79-16.38,54.12-26.33,73.72S379,442.16,379,442.16" transform="translate(-34.44 -35.56)" fill="none" stroke="#000" stroke-linecap="round" stroke-linejoin="round" stroke-width="4.51"/>
    <path d="M72.09,348.55S57.46,322.66,51.9,323.68s-9.14.22-2,29,15.36,48.42,24.87,68.46,17,19.31,17,19.31" transform="translate(-34.44 -35.56)" fill="none" stroke="#000" stroke-linecap="round" stroke-linejoin="round" stroke-width="4.51"/>
    <path d="M199.05,338.6s9.51,7.9,10.83,16.68-5.56,18.43-5.56,18.43" transform="translate(-34.44 -35.56)" fill="none" stroke="#000" stroke-linecap="round" stroke-linejoin="round" stroke-width="4.51"/>
    <path d="M257.27,336.26s-6.81,10.09-7.61,19.31,4.39,17.55,4.39,17.55" transform="translate(-34.44 -35.56)" fill="none" stroke="#000" stroke-linecap="round" stroke-linejoin="round" stroke-width="4.51"/>
    <path d="M343,515.59s3.44,35.32-6.73,68.16-33.93,63.19-33.93,63.19" transform="translate(-34.44 -35.56)" fill="none" stroke="#000" stroke-linecap="round" stroke-linejoin="round" stroke-width="4.51"/>
    <path d="M357.32,492.77,416.41,520" transform="translate(-34.44 -35.56)" fill="none" stroke="#000" stroke-linecap="round" stroke-linejoin="round" stroke-width="4.51"/>
    <path d="M114.8,499.79,36.69,513.25" transform="translate(-34.44 -35.56)" fill="none" stroke="#000" stroke-linecap="round" stroke-linejoin="round" stroke-width="4.51"/>
    <path d="M147,544.26,161.31,620" transform="translate(-34.44 -35.56)" fill="none" stroke="#000" stroke-linecap="round" stroke-linejoin="round" stroke-width="4.51"/>
  </g>
  <g id="Color">
    <path d="M262.83,362.47c-.55,0-3.49.88-3.89.49-.68-.69-.12-1.95,0-2.91a13.25,13.25,0,0,1,.49-2.43c1.48-4.45,5-8.51,7.77-12.14,2.15-2.8,4.15-5.9,6.8-8.26,3.13-2.78,7.23-4.32,10.2-7.28.89-.9,1.49-2.06,2.42-2.92s2.31-1.56,3.4-2.43c3.21-2.52,6.7-5.95,10.69-7.28,1.94-.64,5.78-.48,7.77-.48" transform="translate(-34.44 -35.56)" fill="none" stroke="#000" stroke-linecap="round" stroke-linejoin="round" stroke-width="21.23" opacity="0.33" style="isolation: isolate"/>
    <path d="M131.23,335.76a6,6,0,0,1,3.88-1.45c2.1-.26,4.22-.21,6.32-.49a69,69,0,0,1,9.22-1,18.33,18.33,0,0,0,2.92-.48,25.9,25.9,0,0,1,11.65,1c2.55.85,3.59,4.31,6.31,4.85,1.87.38,3.95.22,5.83.49,1.51.21,3,1.36,4.37,1.94s3.6.94,4.86,1.94c2.18,1.75,3.6,4.63,5.34,6.8s4,3.5,5.83,5.34a53,53,0,0,0,4.37,4.37" transform="translate(-34.44 -35.56)" fill="none" stroke="#000" stroke-linecap="round" stroke-linejoin="round" stroke-width="10.7" opacity="0.33" style="isolation: isolate"/>
    <path d="M188.05,496.5c2.91-2.91,8.32-2.92,12.13-3.4,2.43-.3,4.95-1,7.29-1.45,2.17-.44,4.6.27,6.8,0,1.6-.2,2.45-1.17,3.88-1.46.95-.19,2,.19,2.92,0a36.38,36.38,0,0,1,7.28-.49c3.05,0,5.82-1,8.74-1,.49,0,1.3-.46,1.46,0,.61,1.83-4.65,2.24-5.34,2.43-6.56,1.79-13.16,2.35-19.91,2.91-1.62.14-3.23.49-4.86.49-.65,0-1.94.65-1.94,0s1.3-.3,1.94-.49,1-.36,1.46-.48c2.84-.71,6-.91,8.74-1.94a20.73,20.73,0,0,0,1.94-1c.32-.16,1-.12,1-.48,0-.73-4.28-.49-5.34-.49-2.83,0-8,1.39-10.68.49-.23-.08-2.15-1.13-1.95-1.94.27-1.08,6.78-2.66,8.26-3.4.32-.17.63-.35,1-.49s1.91-.25,1.46-.48a4.27,4.27,0,0,0-2.43,0,20.22,20.22,0,0,0-3.88,1c-.64.21-1.48,0-2,.48s1,0,1.46,0h1.46c1.91,0,4.48-.45,6.31,0,2.2.55,2.28,3.21,1.46,4.86-.37.74-2.11,1.51-1.46,1.94s3.32-.3,3.88-.48c3.59-1.2,7.1-2.69,10.69-3.89.54-.18,4.24-1.58,4.85-1l-1.94,1-1.94,1c-.32.16-1.32.37-1,.49,2.71.9,8.18-2.33,10.68-3.4a28,28,0,0,1,4.37-1.46c.82-.13,2.43-.48,2.43-.48a2.36,2.36,0,0,1-1,.48c-.36,0-.72-.74-1-.48-1.11,1.1,4.41,2.72,4.85,2.91a32.36,32.36,0,0,0,12.14,2.91h4.37a21.42,21.42,0,0,0-4.37,0,53.74,53.74,0,0,1-10.19,1,18.17,18.17,0,0,0-2.92.49,6.58,6.58,0,0,1-1.45,0c2.64,0,5.73-.46,8.25.49.55.2,1.6.4,1.46,1s-1.25.76-1.94,1a22.22,22.22,0,0,1-2.92.48c-1.13.18-2.28.27-3.4.49a129.58,129.58,0,0,1-15,1.94c-1.9.16-3.88.88-5.83.49-3.41-.69,3.06-1.61,2.91-1.46-.47.47-1.3.3-1.94.49s-3.64,1.7-4.37,1c-.26-.26.63-.39,1-.49.8-.22,1.62-.31,2.43-.48a36.4,36.4,0,0,1,3.88-.49c4-.44,8.1-1.17,12.15-1.46,3.76-.26,7.45-.5,11.17-1,3.29-.41,6.49.49,9.71.49,4.19,0,7.86-.44,11.65,1.46" transform="translate(-34.44 -35.56)" fill="none" stroke="#000" stroke-linecap="round" stroke-linejoin="round" stroke-width="10.7" opacity="0.33" style="isolation: isolate"/>
    <path d="M216,537.54a12.3,12.3,0,0,1,1.21-4.13c.17-.32.23.71.49,1a2.47,2.47,0,0,0,1,.49,8.06,8.06,0,0,0,3.88.48H243.4a14.74,14.74,0,0,0-1.94,0,12,12,0,0,0-1.94.49c-1.28.36-2.58.68-3.89,1-5.33,1.18-10.59,2.13-16,2.91-1.13.16-2.42,1.08-3.4.49C215.44,539.75,215.84,538.42,216,537.54Z" transform="translate(-34.44 -35.56)" fill="none" stroke="#000" stroke-linecap="round" stroke-linejoin="round" stroke-width="10.7" opacity="0.33" style="isolation: isolate"/>
    <path d="M151.62,329.94c-2.59-1.3-1.26,4-1,4.85.49,1.34,4.58,6.7,6.32,5.83,1.16-.58.87-3.53,1-4.37.36-3.26,1.09-6.45,1.45-9.71.08-.65-.24-1.34,0-2,.14-.33.79-.79,1-.48,1.25,2.09.48,4.85.48,7.28,0,3.7.12,7.5.48,11.17a3.59,3.59,0,0,0,.49,1.94c.32.41,1.14.89,1.46.49.61-.77.32-1.94.48-2.91s.25-2,.49-2.92c.88-3.53,1.54-7.13,2.43-10.68.12-.47.77-3.3,1.94-2.91.83.27.63,1.62,1,2.42,1.41,3.3,1.45,6.25,1.94,9.72a3.85,3.85,0,0,0,.49,1c.16.32.14,1.08.48,1,.86-.28,1.39-2.87,1.46-3.4.33-2.6.55-5.21,1-7.77.07-.39-.48-2.3,1-1.94,1.23.3,1.19,2.19,1.46,2.91.9,2.39,2.46,4.45,3.4,6.8.29.71,1,2.11,1.46,1.46s0-1.3,0-1.95a46.48,46.48,0,0,1,.48-6.79c.07-.48-.09-1,0-1.46s.35-1.31.49-1c.69,1.73.48,6.21.48,7.77,0,4.24-.21,8.42.49,12.62a6.81,6.81,0,0,0,.49,1.95c.2.41.59,1.22,1,1,.72-.49.48-5,.48-5.83,0-4.12.49-8,.49-12.14v4.37c0,3.77-.49,7.41-.49,11.17a30.33,30.33,0,0,0,0,4.86c.06.35.19,1.17.49,1,1.62-1.08,1.62-7.33,1.94-9.23.08-.48-.07-1,0-1.46.09-.66.19-2.54.49-1.94.79,1.59,0,3.56,0,5.34,0,4.53.17,6,3.39,9.23" transform="translate(-34.44 -35.56)" fill="none" stroke="#000" stroke-linecap="round" stroke-linejoin="round" stroke-width="10.7" opacity="0.33" style="isolation: isolate"/>
    <path d="M329.36,168.72c-.93-3.69-.85-7.61-2.43-11.17a17.11,17.11,0,0,0-2.91-3.89,31.63,31.63,0,0,1-4.37-7.28c-1.47-3.23-1.93-7-3.41-10.2a27.53,27.53,0,0,0-3.88-5.83c-1.84-2.25-3.18-2.88-5.34-4.85a67.37,67.37,0,0,1-8.26-9.72c-2.54-3.47-4.65-7.25-7.28-10.68C285,96.67,278.14,87.87,270.6,80.33a64.78,64.78,0,0,0-10.2-7.77c-4.35-2.9-8.06-6.08-13.11-7.77-1.09-.36-7.51-1.72-8.26-1-1,1,1.87,4.3,2.43,4.86,1.69,1.69,4,2.79,5.83,4.37a57.63,57.63,0,0,1,7.77,8.74c4.25,5.56,8.43,11.55,12.14,17.48.77,1.23,1.16,2.67,1.94,3.89.69,1.06,1.71,1.87,2.43,2.91a68.92,68.92,0,0,1,5.83,11.17c2.58,5.9,3.69,12.27,6.8,18,.38.71,1.09,1.22,1.45,1.94,1.66,3.32,2.07,6.62,2.43,10.2.13,1.29,1.27,4.55,0,5.82-1,1-6.39-4.11-7.28-4.85-3.06-2.55-5.77-5.61-8.74-8.26-3.59-3.18-7.8-5.9-11.66-8.74-4.49-3.29-8.9-6.72-13.6-9.71-3.06-2-6.32-3.08-9.22-5.34-4.08-3.17-6.82-7.78-11.17-10.69a22.42,22.42,0,0,0-3.4-1.94c-1.23-.52-2.69-.37-3.89-1-2.22-1.11-1.88-1.9-3.88-3.4-1.16-.87-2.68-1.14-3.89-1.94A28.62,28.62,0,0,0,207,94.42c-1.52-.66-3.44-.61-4.85-1.46a17.19,17.19,0,0,0-2.43-1.46,8.66,8.66,0,0,1-3.89-3.4,18.53,18.53,0,0,0-1.94-1.94,33.19,33.19,0,0,0,2.92,2.91c1.34,1.08,2.56,2.3,3.88,3.4,4.28,3.57,9.58,5.22,13.6,9.23,3.64,3.65,6.27,7.87,9.71,11.65,2.14,2.36,4.59,4.58,6.31,7.29,3.26,5.13,5.36,10.94,8.74,16,1.65,2.48,3.9,4.56,5.83,6.8a45.05,45.05,0,0,1,5.83,9.23,19.38,19.38,0,0,0,1.94,2.91c.22.29.74.72.49,1s-.63-.38-1-.48c-.8-.23-1.62-.33-2.43-.49-3.54-.71-7.11-1.29-10.69-1.94A52.14,52.14,0,0,1,217.67,144c-2.61-1.92-5-4.19-7.77-5.83a92.7,92.7,0,0,0-12.14-5.83c-5-2-10.16-3.16-15.06-5.34-4.51-2-8.51-5.68-13.59-6.31-3.61-.45-7.61.71-11.17,0-1.14-.23-2.27-1.23-3.4-1.46-.66-.13-4-.25-3.4-1.94.41-1.23,4.17,1.12,4.85,1.46,1.87.93,3.12,2.72,4.86,3.88,2.88,1.92,5.81,4,8.74,5.83,5.22,3.26,10.76,6.07,16,9.23,2.31,1.38,4.42,3.09,6.79,4.37,4.48,2.41,9.43,4.36,13.6,7.28a36.94,36.94,0,0,1,6.31,6.31c2,2.25,4.39,4,6.32,6.32.74.89,1.19,2,1.94,2.91,1.25,1.5,1.85,1,1.46,2.91-.07.36-.14.89-.49,1-.85.21-5.12-1.65-6.31-1.95-6.64-1.66-13-3.56-19.43-5.83-8-2.78-16.27-4.61-24.28-7.28-3.5-1.17-6.75-3.08-10.2-4.37-3.11-1.17-6.49-1-9.71-1.46-2.07-.26-4.25-1-6.31-1.45-4.42-.89-9.09-.49-13.6-.49-1.29,0-2.64.36-3.88,0-.56-.16-.94-.71-1.46-1a24.87,24.87,0,0,0-3.4-1c-2.68-.6-5.51-1.94-8.25-1.94H111.8c-.48,0-1.8-.35-1.45,0s1.33.22,1.94.48a43.36,43.36,0,0,0,9.23,2.92c5.93,1.18,12.12,2.34,18,3.88,9.13,2.4,14.75,10,21.85,15.54,3.48,2.7,7.35,4.91,10.69,7.77,2.4,2.06,4.36,4.36,6.8,6.31,1.41,1.13,3.94,2.74,5.83,2.43a18.25,18.25,0,0,0,2.91-1.94c-.09-.09-4.31,0-4.86,0-4.92,0-10.17.51-15,0-6.28-.66-12.27-3.21-18.45-4.37s-12.62-1.09-18.94-1.46c-8.46-.5-17.23-1.74-25.74-1-4.11.37-8,2.45-12.14,2.91-2.7.3-5.29,0-7.77,1.46a37.34,37.34,0,0,0-6.31,5.34c-.9.9-1.75,1.85-2,1.46-.42-.84,1.07-2,1.46-2.43,2.32-2.32,6-3.56,9.23-3.88a53,53,0,0,1,12.14,0c5.28.81,10.07,4.16,15,5.82,3.72,1.24,7.4,1,11.17,1.46a64.64,64.64,0,0,1,10.2,2.43c4.49,1.28,8.41,4.18,13.11,4.85,2.77.4,5.94,0,8.74,0,.49,0,1,.22,1.46,0,.72-.36.67-1.74,1.46-1.94.35-.09,1,.13,1,.49,0,.88-3.72,3.72-4.36,4.37-.42.41-.49,1.13-1,1.45s-1.32.23-1.94.49-.89.83-1.46,1a16.29,16.29,0,0,1-2.42,0,40.28,40.28,0,0,1-7.77.49c-1.81-.17-3.54-.8-5.34-1a42,42,0,0,1-7.29-1c-3.78-1-7.73-2.55-11.65-2.91a20.52,20.52,0,0,0-8.74,1c-1.95.73-3.79,1.92-5.83,2.43s-4.65.13-6.8.49c-2,.32-3.38,1.8-4.86,2.91-2.56,1.92-6.21,2-8.74,3.88-3.18,2.39-2.68,3.71-3.4,7.29a11.71,11.71,0,0,1-1,1.94,22.86,22.86,0,0,0-1,4.37c-.46,2.29-2.72,4.37-3.88,6.31a17.46,17.46,0,0,0-2,10.69c.62,4.92,3.51,10,5.34,14.57a12.61,12.61,0,0,1,1,1.94,32.65,32.65,0,0,0,2.42,6.8,58.36,58.36,0,0,1,3.89,13.59c.29,2,.08,4.3.48,6.32a24.15,24.15,0,0,1,.49,7.28c-.59,5.35-3.13,10.25-3.88,15.54-.92,6.38-2.12,12.84-1.46,19.43.26,2.56.76,2.71,1.46,5.34a32,32,0,0,0,1.94,6.31" transform="translate(-34.44 -35.56)" fill="none" stroke="#000" stroke-linecap="round" stroke-linejoin="round" stroke-width="47.12" opacity="0.33" style="isolation: isolate"/>
    <path d="M348.3,168.72c-.67-.34-1.72-1.15-2.43,0a6.45,6.45,0,0,0-1,3.39c0,.59.74-.92,1-1.45s.18-1.35.48-1.94,1-1.25,1.46-1.95c1.3-2.17,2.12-4.61,3.4-6.8,2.83-4.81,6-9.51,9.23-14.08,2.09-3,3.74-5.69,6.31-8.25,1.08-1.09,3.22-3.18,4.86-1.95,2.35,1.77.32,5.88-.49,7.77-1.39,3.25-3.67,6.12-5.34,9.23a109.54,109.54,0,0,0-6.31,15.05c-.4,1.11-.63,2.28-1,3.4s-.75,1.92-1,2.92c0,.23-.18,2.2.49,2.42.89.3,1.66-.9,2.43-1.45s1.27-1,1.94-1.46,1.66-.9,2.43-1.46c6.91-5,13.43-10.56,20.39-15.54,1.13-.81,2.22-1.69,3.4-2.42,1.83-1.13,5.79-3.53,6.8,0,1.17,4.09-2.28,12.62-4.37,16-1.58,2.57-3.6,4.83-5.34,7.29a165.36,165.36,0,0,1-13.6,17c-1.32,1.43-3,2.51-4.37,3.89-.26.25.65-.33,1-.49l1.94-1a52.27,52.27,0,0,1,7.29-3.4c4.62-1.42,11.7-1.94,16.51-1.94,2.71,0,5.06,0,6.8,2.43,4.66,6.53.08,20.35-6.8,23.79-3.32,1.66-6.75,0-9.71-1.45-1.17-.59-2.28-1.28-3.4-1.95-.31-.18-1.34-.48-1-.48,1.65,0,3.66.8,5.34,1,4.08.41,8.25-.85,12.14,1,8.28,3.86,13.81,11.34,17.48,19.42,1.22,2.68,1,4.9,1,7.77,0,6.51-6,9-11.65,8.26-3.89-.49-7.5-4.32-9.72-7.29a39.36,39.36,0,0,1-2.42-3.4c-.19-.31-.49-1.33-.49-1,0,1.4,1.15,3.14,1.46,4.37s.19,2.3.48,3.4c.36,1.34,1.07,2.56,1.46,3.89s.57,2.93,1,4.37c1.74,6.26,4.57,12.17,6.31,18.45a58.18,58.18,0,0,1,1.95,10.69c.13,1.46.28,2.91.48,4.37.07.5.26,1.91.49,1.45.79-1.58-1.85-7.57-4.37-6.31-.7.35-.59,5.89-.49,6.8.64,5.72,3.89,10.72,4.37,16.51.94,11.3-1.94,22.67-1.94,34" transform="translate(-34.44 -35.56)" fill="none" stroke="#000" stroke-linecap="round" stroke-linejoin="round" stroke-width="47.12" opacity="0.33" style="isolation: isolate"/>
    <path d="M299.73,64.79c7.77,3.89,9.9,15.34,12.15,22.83,2.37,7.92,5.18,15.8,7.28,23.79,1.15,4.35,1.27,8.77,2.43,13.11,1.65,6.2,5.53,11.64,6.8,18,1.09,5.5,2.3,11,2.91,16.51.16,1.49.82,2.89,1,4.37,0,.34-.32,4.59.49,4.86,1.09.36,1.57-1.94,1.94-2.43,1.22-1.63,1.67-3.69,2.91-5.34.57-.76,1.69-.87,2.43-1.46.46-.36.52-1.08,1-1.45a16.15,16.15,0,0,1,1.95-1c2.91-1.82,5.51-4.25,8.25-6.31a65.45,65.45,0,0,1,5.34-3.88c.31-.19.65-.33,1-.49s.81-.81,1-.48-.78,2.05-1,2.42a45.43,45.43,0,0,0-2.43,5.83c-2.18,6.55-4.8,12.41-5.34,19.42-.07,1,0,1.95,0,2.92,0,1.13-.5,2.39,0,3.4,1.07,2.13,5.88-.77,6.8-1.46a41.19,41.19,0,0,1,11.66-6.31c2.05-.69,3.49-1.07,4.85,1,1.78,2.67-.42,5.49-1.45,7.77-2.6,5.71-5.24,11.47-8.26,17-.44.79-3.66,4.29-2.91,4.85s4.25-.36,4.85-.48c4-.81,14.12-5.49,17.49-1.46,1.42,1.71,1.65,3.34,1.94,5.34a36.36,36.36,0,0,1,.48,8.74c-.32,3.24-1.1,6.49-1.46,9.71a18.48,18.48,0,0,0-.48,3.89c1,8.76,6.11,15.58,9.71,23.31a66.2,66.2,0,0,1,2.92,8.25c2.15,6.82,2.34,13.85,3.4,20.88.93,6.22,3.5,11.74,6.79,17" transform="translate(-34.44 -35.56)" fill="none" stroke="#000" stroke-linecap="round" stroke-linejoin="round" stroke-width="47.12" opacity="0.33" style="isolation: isolate"/>
    <path d="M308,171.14c.37-1.49,1.46-2.83,1.46-4.37,0-1.2-3.06-1.61-3.89-1.94-4.12-1.65-8.1-3.48-12.14-5.34-8.74-4-18.18-4.77-27.19-7.77-4.32-1.44-8.44-3.62-12.63-5.34a112.76,112.76,0,0,0-12.14-3.89c-3.79-1.08-6.44-2.81-9.71-4.85a26.21,26.21,0,0,0-3.88-1.46c-1.3-.55-3.32-2-4.86-.49-1.68,1.68,4.8,4.45,5.82,4.86,5.12,2,10.11,4.32,15.06,6.8,1.3.65,4.17,1.85,3.89,3.88-.55,3.84-10.6,5.19-13.6,5.83-7.38,1.58-14.86,2.76-22.34,3.88-4.43.67-8.74.85-13.11,1.95-3.68.92-7.86,2-11.17,3.88-.8.46-2.49,1.65-2.43,1.95.52,2.57,8,2.29,9.71,2.42,9.06.7,18.07,1,27.2,1h4.37c.81,0,1.78.49,2.42,0,.41-.3-.07-1.15-.48-1.45s-1,.06-1.46,0c-.82-.1-1.6-.41-2.42-.49-2.57-.25-5.78.44-8.26,1-2.31.5-4.51,1.37-6.8,1.94-6.09,1.53-12.28,2.71-18.45,3.89-8.07,1.54-15.87,3.74-23.8,5.83-5.63,1.48-11.34,2.07-17,3.4-2.95.69-5.79,1.8-8.74,2.43-3.79.79-7.81,1.42-11.66,1.94a13.75,13.75,0,0,0-4.37,1" transform="translate(-34.44 -35.56)" fill="none" stroke="#000" stroke-linecap="round" stroke-linejoin="round" stroke-width="47.12" opacity="0.33" style="isolation: isolate"/>
    <path d="M346.84,181.34c0-7.11,5.4-11.61,10.2-16,2.27-2.1,4.42-4.34,6.79-6.32,7.22-6,15.46-11.7,24.29-15.05,5-1.9,10.75-2.39,16-2.92" transform="translate(-34.44 -35.56)" fill="none" stroke="#000" stroke-linecap="round" stroke-linejoin="round" stroke-width="12.75" opacity="0.33" style="isolation: isolate"/>
    <path d="M356.07,193c-.65,0-2.58.14-1.95,0,4.51-.93,9.06-1.65,13.6-2.42,2.1-.36,4.2-.76,6.31-1,4.73-.47,11.23-1.4,15.54,1a16,16,0,0,1,4.37,3.88c3.16,3.75,5.81,8.83,8.26,13.11" transform="translate(-34.44 -35.56)" fill="none" stroke="#000" stroke-linecap="round" stroke-linejoin="round" stroke-width="12.75" opacity="0.33" style="isolation: isolate"/>
    <path d="M364.32,209c2.77,1.38,4.61,4.13,6.8,6.31,1.62,1.62,3.56,3,4.86,4.86,5.52,8,10.79,16.25,15.54,24.77.8,1.44.64,3.23,1,4.85.58,2.93,1.22,5.84,1.94,8.74" transform="translate(-34.44 -35.56)" fill="none" stroke="#000" stroke-linecap="round" stroke-linejoin="round" stroke-width="12.75" opacity="0.33" style="isolation: isolate"/>
    <path d="M379.86,262c-.32-.16-.65-.64-1-.48a1.68,1.68,0,0,0-1,1.45,16.9,16.9,0,0,0,1.46,4.37c1.73,4.62,4.53,8.76,6.79,13.11,4.29,8.25,8.61,16.78,11.17,25.74" transform="translate(-34.44 -35.56)" fill="none" stroke="#000" stroke-linecap="round" stroke-linejoin="round" stroke-width="12.75" opacity="0.33" style="isolation: isolate"/>
    <path d="M387.15,322.65c-1.7,5.08-.1,10.82,1.94,15.54,2.38,5.52,4.85,11,7.28,16.51" transform="translate(-34.44 -35.56)" fill="none" stroke="#000" stroke-linecap="round" stroke-linejoin="round" stroke-width="12.75" opacity="0.33" style="isolation: isolate"/>
    <path d="M324.5,166.77c-1.05-2.1-1.33-2.31-1.45-4.85a49.24,49.24,0,0,0-.49-7.29c-1-4.77-2.46-9.42-3.89-14.08-1.95-6.41-7.29-12.24-11.17-17.48-5.29-7.17-9.92-14.77-16.51-20.88a21,21,0,0,0-3.4-2.92c-1.49-.89-3.29-1.16-4.85-1.94" transform="translate(-34.44 -35.56)" fill="none" stroke="#000" stroke-linecap="round" stroke-linejoin="round" stroke-width="12.75" opacity="0.33" style="isolation: isolate"/>
    <path d="M300.71,165.8c-.33-1.3-.29-2.74-1-3.88-2.75-4.64-5.62-9.21-8.74-13.6-.46-.66-1.32-.94-1.94-1.46-2.89-2.45-5.63-5.11-8.74-7.28a129.86,129.86,0,0,0-18-10.2c-4.44-2.14-9.18-3.62-13.6-5.83A91.86,91.86,0,0,1,229.32,110" transform="translate(-34.44 -35.56)" fill="none" stroke="#000" stroke-linecap="round" stroke-linejoin="round" stroke-width="12.75" opacity="0.33" style="isolation: isolate"/>
    <path d="M254.57,164.83c2.79-5.58-5.7-6.94-9.22-7.77a34,34,0,0,0-4.86-1c-2.1-.18-4.21,0-6.31,0a103.4,103.4,0,0,0-16.51,1c-9.45,1.53-18.6,5.07-28.17,5.83-8.31.65-16.51-.87-24.77-1.46" transform="translate(-34.44 -35.56)" fill="none" stroke="#000" stroke-linecap="round" stroke-linejoin="round" stroke-width="12.75" opacity="0.33" style="isolation: isolate"/>
    <path d="M199.7,187.17c0-.07,1.26-1.88,0-1.94a66.31,66.31,0,0,0-9.23.48c-4.43.39-9.25,2.11-13.59,2.92-3.88.71-7.79,1.2-11.66,1.94-11.56,2.2-22.84,6-34,9.71-2.43.81-4.93,1.42-7.29,2.43-3.21,1.38-9,5.1-12.14,6.79-4,2.19-8,4.05-11.65,6.81" transform="translate(-34.44 -35.56)" fill="none" stroke="#000" stroke-linecap="round" stroke-linejoin="round" stroke-width="12.75" opacity="0.33" style="isolation: isolate"/>
    <path d="M52.07,205.62A22.2,22.2,0,0,1,55,194c4.7-7.66,9.68-15.14,15.05-22.34a44.8,44.8,0,0,1,6.31-6.31A67,67,0,0,1,84.12,159c7.07-4.63,16-7.48,23.8-10.68" transform="translate(-34.44 -35.56)" fill="none" stroke="#000" stroke-linecap="round" stroke-linejoin="round" stroke-width="12.75" opacity="0.33" style="isolation: isolate"/>
    <path d="M85.58,143.46c.32-1.13.14-2.56,1-3.4,4.79-4.79,10.24-8.89,15.54-13.11,2.64-2.1,5.54-3.84,8.26-5.83,13-9.47,25.27-19.64,40.3-25.73,8.86-3.59,18.39-4.84,27.68-6.8" transform="translate(-34.44 -35.56)" fill="none" stroke="#000" stroke-linecap="round" stroke-linejoin="round" stroke-width="12.75" opacity="0.33" style="isolation: isolate"/>
    <path d="M154.05,84.22c.49-.65,1-1.3,1.46-1.94,1-1.3,1.52-3.06,2.91-3.89,7.15-4.26,14.87-7.5,22.34-11.17,13.4-6.57,28.06-12,43.22-11.17a107.28,107.28,0,0,1,17,2.43c4.21.94,8.34,2.38,12.62,2.91" transform="translate(-34.44 -35.56)" fill="none" stroke="#000" stroke-linecap="round" stroke-linejoin="round" stroke-width="12.75" opacity="0.33" style="isolation: isolate"/>
    <path d="M77.81,226.5c-2.82,2.82-3.77,6.66-5.34,10.2-4,9.07-8.23,18.07-12.14,27.19a3.57,3.57,0,0,1,.48-1c.26-.25.74-.21,1-.48,1.26-1.52,2.14-3.33,3.39-4.86,4-4.83,7.62-9.85,11.66-14.57a19.74,19.74,0,0,1,1.94-1.94c.61-.53,1.44-2.09,1.94-1.46.81,1,.26,2.62,0,3.89-.84,4.22-2.84,8.12-4.37,12.14-3.64,9.61-7.23,19.36-11.65,28.65-.72,1.51-1.64,2.9-2.43,4.37-.55,1-.77,2.91-1.94,2.91-.36,0,.3-.65.48-1,.47-.82,1-1.62,1.46-2.43.31-.49.66-1,1-1.45,1.31-2.1,2.57-4.23,3.89-6.32,4.89-7.74,9.39-15.58,15.05-22.82,1.42-1.81,2.87-3.59,4.37-5.34.07-.08,2.79-3.28,3.4-1.46s-1,5.51-1.46,6.8c-.75,2-1.64,3.88-2.42,5.83-5,12.45-11.21,24.57-17.49,36.42-1.79,3.39-3.5,6.83-5.34,10.2-.8,1.46-1.68,2.88-2.43,4.37-.22.46-1,1.58-.48,1.45,2.24-.56,3.91-4.5,4.85-5.82,5.47-7.65,11.51-15.09,17.49-22.34A28.81,28.81,0,0,1,89,281.38c.29-.22.81-.81,1-.49.64,1.28-.71,5-1,5.83-1.14,3.41-2.93,6.43-4.37,9.71-3.1,7.09-6.08,14.28-9.23,21.37-.8,1.8-3.4,5.53-3.4,7.77,0,.22.49-1.11,1-1.94,1.14-2,2.08-3.44,3.4-5.35C80,313,82.84,307.11,87,302.26A33.41,33.41,0,0,1,90,299.34c.6-.54,1.49-2.13,1.94-1.45.81,1.21.11,2.91,0,4.37-.13,1.89-1.22,3.59-1.94,5.34a266.9,266.9,0,0,1-12.14,26.22c-1.39,2.54-2.53,5.21-3.88,7.77-.55,1-1.38,1.89-2,2.91A7.65,7.65,0,0,0,71.5,346,7.65,7.65,0,0,1,72,344.5c.57-1,1.33-1.91,2-2.91,1.48-2.41,2.83-4.9,4.37-7.28,3.65-5.65,7.35-12.21,12.14-17a6.34,6.34,0,0,1,2.42-1.94c1.29-.37,1,2.3,1,2.43a44.78,44.78,0,0,1-1.46,4.37c-.6,1.63-1.26,3.25-1.94,4.85-3.56,8.3-7.14,16.7-11.17,24.77a38,38,0,0,0-2.43,4.86c-.16.48-.85,1.09-.49,1.45.59.59,2.34-3.19,2.43-3.4a20.64,20.64,0,0,1,1-1.94c3.26-5.71,6.82-12,11.17-17,1-1.14,2.9-3.1,3.4-2.42.8,1.06-.46,2.65-1,3.88-1.26,3-2.11,6.22-3.4,9.23-2.07,4.83-4.14,9.46-5.34,14.57-.47,2-1.82,5.82-1.94,8.25-.16,3.24,0,6.48,0,9.71" transform="translate(-34.44 -35.56)" fill="none" stroke="#000" stroke-linecap="round" stroke-linejoin="round" stroke-width="12.75" opacity="0.33" style="isolation: isolate"/>
    <path d="M196.3,449.4c12.38-2.48,24.11.64,36.42,1.45,2.26.15,4.54-.16,6.8,0,3.11.23,6.08.75,9.22.49,2.73-.23,5.13-1.36,7.78-1.94.19,0,4.67-1.64,4.37-1.94-.6-.6-5.36,1.13-6.32,1.45-5,1.66-9.83,4-15,4.86-6.8,1.13-13.53,1-20.4,1h-6.8c-.25.26.62.44,1,.49a17.77,17.77,0,0,0,2.42,0,31,31,0,0,1,6.32,1c4.5.9,9.13,1.39,13.59,2.43,2.15.49,4.19,1.36,6.32,1.94.7.19,5.31.59,4.85,2.42s-4.22,1.61-5.34,1.95c-4.4,1.32-9,2.48-13.59,3.4a17.3,17.3,0,0,0-3.89,1c-.34.13-1.13.16-1,.48.37.75,5.2.49,5.82.49,3.6,0,7.08-.49,10.69-.49,1,0,2.6-.45,2.91.49s-1.43,1.64-2.43,1.94c-3.64,1.09-7.5,1.81-11.17,2.92-1.47.44-2.91,1-4.36,1.45-.35.12-1.32.37-1,.49,1.44.48,11.85-1.36,9.72,2.91-.57,1.13-2,1.53-2.92,2.43l-1.46,1.46" transform="translate(-34.44 -35.56)" fill="none" stroke="#000" stroke-linecap="round" stroke-linejoin="round" stroke-width="12.75" opacity="0.33" style="isolation: isolate"/>
    <path d="M155.51,556.23c1.71-3.42-2.1-4-2.92-1.94-1.38,3.46,3,9.87,4.86,12.63,1.54,2.3,2.91,4.85,5.34,6.31,2.13,1.28,5.38,2,6.8,4.37,1.28,2.13,1.83,4.18,3.89,5.83,1.83,1.47,4.35,1.92,5.82,3.88,1.1,1.46.89,3.14,2.43,4.37,2.05,1.64,5.43,1.55,7.29,3.4.51.51.46,1.43,1,1.94a10.28,10.28,0,0,0,3.4,2c2,.4,4.27-.34,6.31,0,4.44.74,9.16-.26,13.6.48a157.53,157.53,0,0,0,26.22,1.94c3.4,0,7.34.56,10.68,0A22.94,22.94,0,0,0,258,598c2-1.19,4.67-1.71,6.8-2.42s3.54-2.32,5.34-3.4c.44-.26,1-.22,1.46-.49,1.62-1,2.73-2.9,4.37-3.88A118.87,118.87,0,0,0,291,577.11c2.4-2,5.36-3.41,7.77-5.34,5.59-4.47,10.8-9.31,16.52-13.6,2.29-1.72,4.29-3.84,6.79-5.34.69-.41,2.54-1.3,2.92-1.94s.19-1.35.48-1.94a13.94,13.94,0,0,1,2.92-2.92,46.7,46.7,0,0,0,3.88-2.91c.57-.57.81-1.46,1.46-1.94a12.67,12.67,0,0,0,2.91-2.43,5.88,5.88,0,0,0,.49-1,3.52,3.52,0,0,1,.48-1c.26-.26.81-.81,1-.49.37.74-1.64,3.44-1.94,3.89-1.53,2.3-3,4.88-4.37,7.28-3,5.46-5,11.46-7.77,17a23.82,23.82,0,0,1-1.94,3.88c-.88,1.17-1.23,1-2.43,2-3.35,2.68-6.74,5.17-10.2,7.76-2.44,1.84-4.5,3.86-6.8,5.83-2,1.69-4.36,2.67-6.31,4.37a49.93,49.93,0,0,1-3.88,3.4c-2.5,1.79-5.29,3.09-7.77,4.86-1.24.89-2.65,1.54-3.89,2.43-1,.73-1.78,1.86-2.91,2.42-1.36.68-3,.86-4.37,1.46a47.52,47.52,0,0,1-12.14,3.4c-2.06.29-4.25-.3-6.31,0-2.6.37-6.1,1.15-8.75.49-1.64-.41-3.17-1.27-4.85-1.46-4-.45-7.72.53-11.66,1s-7.84-.14-11.65-.49c-4-.36-8.14.45-12.14,0-4.49-.49-8.43-3-12.63-4.37-2-.67-4.29-.7-6.31-1.45-4.72-1.77-5.83-6.64-9.71-9.23-4.82-3.21-9.11-6.56-14.57-8.74-1.52-.61-1.44-1.92-2.43-2.91-.25-.26-1-.13-1-.49,0-1.31,2.71.34,2.91.49.37.27.58.73,1,1,2.12,1.27,5.42,1.55,7.77,1.94,4.87.81,9.15,1.66,13.6,3.88,2.07,1,3.4,3.21,5.34,4.38s4.39.81,6.32,1.45c2.15.72,3.79,2.59,5.82,3.4,3,1.18,5.76,1.58,8.74,2.43,1.11.32,2.31,1.24,3.4,1.46s3.08-.6,3.89.48a15.2,15.2,0,0,1,1,2.43" transform="translate(-34.44 -35.56)" fill="none" stroke="#000" stroke-linecap="round" stroke-linejoin="round" stroke-width="12.75" opacity="0.33" style="isolation: isolate"/>
    <path d="M271.08,370.73c-.32.16-1.31.36-1,.49,4,1.37,8.11,2.22,12.14,3.39,1,.29,1.95.64,2.92,1,5.08,1.78,10.2,3.67,15.54,4.38a124.45,124.45,0,0,0,14.57.48" transform="translate(-34.44 -35.56)" fill="none" stroke="#000" stroke-linecap="round" stroke-linejoin="round" stroke-width="12.75" opacity="0.33" style="isolation: isolate"/>
    <path d="M199.7,364.9c-1.42-.71-3.41-.16-4.86.49-2.31,1-4.52,2.28-6.79,3.4-8.92,4.38-17.84,8.67-26.72,13.11" transform="translate(-34.44 -35.56)" fill="none" stroke="#000" stroke-linecap="round" stroke-linejoin="round" stroke-width="12.75" opacity="0.33" style="isolation: isolate"/>
    <path d="M415.31,341.59c-.16-.32-.14-.85-.49-1a.89.89,0,0,0-1,.49,82.37,82.37,0,0,0-3.39,10.2c-1.52,5.77-2.72,11.62-3.89,17.48-1.74,8.71-3.24,17.48-4.86,26.22" transform="translate(-34.44 -35.56)" fill="none" stroke="#000" stroke-linecap="round" stroke-linejoin="round" stroke-width="12.75" opacity="0.33" style="isolation: isolate"/>
    <path d="M65.67,342.56c-1.56-1.56-2-3.68-3.4-5.34-.59-.69-1-1.94-1.94-1.94-1.74,0-4.08.38-4.86,1.94-.88,1.76.57,3.9,1,5.83.58,2.77,1.16,5.54,2,8.26,3.35,11.59,8.21,22.25,13.59,33" transform="translate(-34.44 -35.56)" fill="none" stroke="#000" stroke-linecap="round" stroke-linejoin="round" stroke-width="12.75" opacity="0.33" style="isolation: isolate"/>
    <path d="M304.45,356.57c-.7-.05-1.59.35-2.11-.12s-.18-1.32-.25-2a3.52,3.52,0,0,1,.5-1.74c1.31-1.74,8.05-.74,8.69,1.49a8.82,8.82,0,0,1,.25,3c-.59,2.38-4.69,5.6-7.2,5a4.79,4.79,0,0,1-2.49-2.48c-.45-.9-.13-1.06-.25-2-.44-3.54,2.8-6,6.21-6,.89,0,1.24-.15,2,.49,1.11,1,1.11,1.95,1.24,3.23.56,5.55-6.58,10.07-10.93,5.72-2.56-2.57-.08-6.93,2.74-7.95a7,7,0,0,1,2.48-.25c.41,0,.88-.2,1.24,0s.33.66.5,1c1,2,1.14,8.35-2.49,7.44-1-.24-1-1.93-1-2.73a5.57,5.57,0,0,1,3.73-5.21c3.58-1,1,6.7-.5,6.7s-.8-3.39-1-3.47A3.82,3.82,0,0,0,304.45,356.57Z" transform="translate(-34.44 -35.56)" fill="none" stroke="#000" stroke-linecap="round" stroke-linejoin="round" stroke-width="16.32" opacity="0.9" style="isolation: isolate"/>
    <path d="M151.69,355.33c.13.17.06.73-.12.62-1.14-.68-.39-2.71,0-4,.32-1.07,3.68-1.23,4.47-1,2,.61,7,6.06,6,8.45-.62,1.45-2.72,2.21-4,2.73-3.25,1.36-6.85,1.78-8.19-2.23a4.5,4.5,0,0,1-.25-2.24c.42-2.54,2.56-5.48,5.22-6,3.69-.67,6.5,4.54,5.71,7.7-.27,1.08-1.71,2.11-2.49,2.73-1.38,1.11-3.82,2.41-5.71,2.24-2.75-.25-4.24-3.55-4-6,.55-4.95,9.38-9.23,10.68-2.74,1.1,5.5-7.37,10.5-9.94,4.72-2.09-4.71,5.14-12.79,8.7-7.7a7.14,7.14,0,0,1,1,4.47c0,3.38-.92,4.22-4.22,4.22a4.79,4.79,0,0,1-3.23-1.24c-2.86-2.5-1.58-7.68,1-9.68.67-.53,2-1.48,3-1,1.13.57,1.28,2.17,1.49,3.23.64,3.18-.24,5.69-3.72,6.46a5.81,5.81,0,0,1-2.49,0C146.55,358.29,148.86,351.44,151.69,355.33Z" transform="translate(-34.44 -35.56)" fill="none" stroke="#000" stroke-linecap="round" stroke-linejoin="round" stroke-width="16.32" opacity="0.9" style="isolation: isolate"/>
    <path d="M307.56,352.72c.95,1.91-.18,3.63-1,5.47-.51,1.15-1,2.31-1.49,3.47-1.55,3.69.84,1,1.49,0,1-1.62,2-3.82,4-4.47" transform="translate(-34.44 -35.56)" fill="none" stroke="#000" stroke-linecap="round" stroke-linejoin="round" stroke-width="16.32" opacity="0.9" style="isolation: isolate"/>
  </g>
</svg>
