<svg id="Layer_1" data-name="Layer 1" xmlns="http://www.w3.org/2000/svg" viewBox="0 0 1327.47 825.1">
  <g id="Guideline_1" data-name="Guideline 1">
    <path d="M392.21,383.33c-11-39.78,6.19-80.66,38.49-91.31s67.44,13,78.48,52.76-6.19,80.66-38.49,91.3S403.25,423.11,392.21,383.33Z" transform="translate(-57.88 -206.48)" fill="none" stroke="#000" stroke-linecap="round" stroke-linejoin="round" stroke-width="7.1"/>
    <path d="M505.52,411.41s-7.63,23.3,10.45,69.11,24.11,68.12,61.88,114.13,89.21,69.92,89.21,69.92l119,86.79,163.15,82.78,170.38,41L1264.2,933.8s-1.68,65.1,64.59,62.69" transform="translate(-57.88 -206.48)" fill="none" stroke="#000" stroke-linecap="round" stroke-linejoin="round" stroke-width="7.1"/>
    <path d="M893.16,912.49c-51.43,20.09-88-48.61-88-48.61L692.63,876.74,526.27,815.66l42.6-32.15L736,721.63" transform="translate(-57.88 -206.48)" fill="none" stroke="#000" stroke-linecap="round" stroke-linejoin="round" stroke-width="7.1"/>
    <path d="M950.11,329.67,927.32,260l30.92-15.18,15.92,29.92-24,54.89-84.53,60.52L815,421.31l-82.37,7.59-71.16,11.75-54.22-1.24-90,32.38" transform="translate(-57.88 -206.48)" fill="none" stroke="#000" stroke-linecap="round" stroke-linejoin="round" stroke-width="7.1"/>
    <path d="M169.09,664.44,140.1,719,99.18,730.94l-.86-34.1,74.17-31.55L210,650.8,311.46,592l74.17-50.3,132.14-60.53" transform="translate(-57.88 -206.48)" fill="none" stroke="#000" stroke-linecap="round" stroke-linejoin="round" stroke-width="7.1"/>
  </g>
  <g id="Guideline_2" data-name="Guideline 2">
    <path d="M810.11,766.32s-162.9-87.81-260.93-205.73c-27.8-33.45-40-102-58.06-136.2C445.43,338,418,294.64,418,294.64" transform="translate(-57.88 -206.48)" fill="none" stroke="#000" stroke-linecap="round" stroke-linejoin="round" stroke-width="7.1"/>
    <path d="M394.54,393.94c-18.69-38.16-8.4-82.42,23-98.86s71.94,1.16,90.63,39.32,8.4,82.42-23,98.86S413.22,432.1,394.54,393.94Z" transform="translate(-57.88 -206.48)" fill="none" stroke="#000" stroke-linecap="round" stroke-linejoin="round" stroke-width="7.1"/>
  </g>
  <g id="Guideline_3" data-name="Guideline 3">
    <path d="M386.85,532.9c4.26,12.46,11,31.86,24.48,51.86s15.89,26.68,36.33,34.06,22.84.71,45.4-4.54,29.09-5,44.84-16.46,18.16-29.52,18.16-29.52,27.39,10.65,53.92,4,47.26-22,52.22-30.65c7.16-12.51,23.41-57.19,20.43-101s-26.38-73.69-32.35-74.35c-73.91-8.27-210.83,50-263.36,106.7C378.45,482.11,377.59,505.83,386.85,532.9Z" transform="translate(-57.88 -206.48)" fill="none" stroke="#000" stroke-linecap="round" stroke-linejoin="round" stroke-width="7.1"/>
    <path d="M640.85,690.15s-70.6-11.82-103.71-28.53-62-41.39-62-41.39" transform="translate(-57.88 -206.48)" fill="none" stroke="#000" stroke-linecap="round" stroke-linejoin="round" stroke-width="7.1"/>
  </g>
  <g id="Guideline_4" data-name="Guideline 4">
    <path d="M378.42,496.88l-74.77,75.2" transform="translate(-57.88 -206.48)" fill="none" stroke="#000" stroke-linecap="round" stroke-linejoin="round" stroke-width="7.1"/>
    <path d="M328,621.07,420.48,599" transform="translate(-57.88 -206.48)" fill="none" stroke="#000" stroke-linecap="round" stroke-linejoin="round" stroke-width="7.1"/>
    <path d="M178.21,692s-17.66,22.66-46.85,32.68S60,734.89,61.46,732.13s18.75-26.47,43.69-41.44,56.08-18.44,56.08-18.44" transform="translate(-57.88 -206.48)" fill="none" stroke="#000" stroke-linecap="round" stroke-linejoin="round" stroke-width="7.1"/>
    <path d="M300.89,571.8s-18.19-6-52.69,18.75-85.29,80.39-85.29,80.39" transform="translate(-57.88 -206.48)" fill="none" stroke="#000" stroke-linecap="round" stroke-linejoin="round" stroke-width="7.1"/>
    <path d="M326.23,622s-21.32,32.06-30.38,38.66c-36.51,17.46-115.67,31.2-115.67,31.2" transform="translate(-57.88 -206.48)" fill="none" stroke="#000" stroke-linecap="round" stroke-linejoin="round" stroke-width="7.1"/>
    <path d="M946.09,276l-4.79-19.13-8.67-19.3-20.32,7.71L914.72,268l17.93,35.5" transform="translate(-57.88 -206.48)" fill="none" stroke="#000" stroke-linecap="round" stroke-linejoin="round" stroke-width="7.1"/>
    <path d="M962.43,352l9.76-11.84L992,325.42,1003.5,300l-.7-21.84-4.91-23.1-15.7-34.19-23,2.33-25.28,14.42" transform="translate(-57.88 -206.48)" fill="none" stroke="#000" stroke-linecap="round" stroke-linejoin="round" stroke-width="7.1"/>
    <path d="M831.42,460.44s28.85-2.46,61.1-29,67.89-77.11,67.89-77.11" transform="translate(-57.88 -206.48)" fill="none" stroke="#000" stroke-linecap="round" stroke-linejoin="round" stroke-width="7.1"/>
    <path d="M933.86,307.1s-73.86,18-77.56,20.47c-30.74,17.63-45.41,50.05-45.41,50.05" transform="translate(-57.88 -206.48)" fill="none" stroke="#000" stroke-linecap="round" stroke-linejoin="round" stroke-width="7.1"/>
    <path d="M659,367.06s37-6.81,74.57-3.89,75.68,15.59,75.68,15.59" transform="translate(-57.88 -206.48)" fill="none" stroke="#000" stroke-linecap="round" stroke-linejoin="round" stroke-width="7.1"/>
    <path d="M837,460.46s-24.6,16.27-55.77,24.34-84.74,6-102,8" transform="translate(-57.88 -206.48)" fill="none" stroke="#000" stroke-linecap="round" stroke-linejoin="round" stroke-width="7.1"/>
    <path d="M834,460.05s27.26-21.73,15-53.75c-12.92-33.75-38.12-28.39-38.12-28.39" transform="translate(-57.88 -206.48)" fill="none" stroke="#000" stroke-linecap="round" stroke-linejoin="round" stroke-width="7.1"/>
    <path d="M968.25,343s-3.88-14.33-12.18-22.9-21-11.39-21-11.39" transform="translate(-57.88 -206.48)" fill="none" stroke="#000" stroke-linecap="round" stroke-linejoin="round" stroke-width="7.1"/>
    <path d="M326.51,622.1s-14.6-10.6-20.31-23-2.55-26.62-2.55-26.62" transform="translate(-57.88 -206.48)" fill="none" stroke="#000" stroke-linecap="round" stroke-linejoin="round" stroke-width="7.1"/>
    <path d="M177.12,693.82s-8.53-5.85-12.05-11-2-9.69-2-9.69" transform="translate(-57.88 -206.48)" fill="none" stroke="#000" stroke-linecap="round" stroke-linejoin="round" stroke-width="7.1"/>
  </g>
  <g id="Outline_1" data-name="Outline 1">
    <path d="M163.46,675.65s50.34-85.39,91.09-110.57c2.93-1.81,50.46-.71,50.46-.71l86.73-91.91" transform="translate(-57.88 -206.48)" fill="none" stroke="#000" stroke-linecap="round" stroke-linejoin="round" stroke-width="7.1"/>
    <path d="M178.69,693S364.15,613.5,427.9,600.66" transform="translate(-57.88 -206.48)" fill="none" stroke="#000" stroke-linecap="round" stroke-linejoin="round" stroke-width="7.1"/>
    <path d="M131.31,700c-15.33,5.63-30.47,23-47,30.67s-29.2,13.1-19.06,0,42.63-38.91,42.63-38.91L162.13,676" transform="translate(-57.88 -206.48)" fill="none" stroke="#000" stroke-linecap="round" stroke-linejoin="round" stroke-width="7.1"/>
    <path d="M91.77,726.6s.36,7,15.61,6S147,715.05,147,715.05L163.05,702l16.31-9.75" transform="translate(-57.88 -206.48)" fill="none" stroke="#000" stroke-linecap="round" stroke-linejoin="round" stroke-width="7.1"/>
    <path d="M918.1,263s7.88,17.68,14.7,19.76,13.71-.46,12.57-11.44-17.12-32.48-17.12-32.48-14.25,1.08-18.21,8-3,6.61,2.37,19.66S931.58,299,931.58,299l7.67,7.11a174.08,174.08,0,0,0,12,19.27c6,7.9,19.3,15.52,19.3,15.52" transform="translate(-57.88 -206.48)" fill="none" stroke="#000" stroke-linecap="round" stroke-linejoin="round" stroke-width="7.1"/>
    <path d="M1003.37,310.62l2.91-25.54s-18.16-59.14-25.53-63.58c-10.87-7.37-52.58,17.84-52.58,17.84" transform="translate(-57.88 -206.48)" fill="none" stroke="#000" stroke-linecap="round" stroke-linejoin="round" stroke-width="7.1"/>
    <path d="M939.92,253.24a4.24,4.24,0,0,1,1.07-1.89c4.24-3,8.59-5.92,12.93-8.81,1.14-.76,2.6-.88,3.83-1.47,4.82-2.32,8-3.9,13.28-4.38,1.53-.15,3.6-.72,4.2,1.16" transform="translate(-57.88 -206.48)" fill="none" stroke="#000" stroke-linecap="round" stroke-linejoin="round" stroke-width="7.1"/>
    <path d="M947.77,272.46c0-.26-.37-.66-.14-.79,5.73-3.1,11.68-5.76,17.54-8.62,2.62-1.28,6-3.46,9-3.49,2.4,0,4.76.73,7.15.33" transform="translate(-57.88 -206.48)" fill="none" stroke="#000" stroke-linecap="round" stroke-linejoin="round" stroke-width="7.1"/>
    <path d="M960.88,305.87c-.16-1.73-.12-.45,0-1.55.43-4.39.75-8.8,1.26-13.18.3-2.54,3-4.38,4.32-6.28,2.73-3.86,6.32-3.43,10.47-4.56A89.77,89.77,0,0,0,990.85,275" transform="translate(-57.88 -206.48)" fill="none" stroke="#000" stroke-linecap="round" stroke-linejoin="round" stroke-width="7.1"/>
    <path d="M947.07,287c-.23-.21-4.58-8-4.44-7.73,1.84,3.61,7.68,14.2,9.58,17.78,2.32,4.4,6.19,5.89,9.93,9,1.36,1.13,2,3,2.94,4.32a19.32,19.32,0,0,0,5.56,3.94c1.79.75,2.89-.09,4.47-.6,1.1-.35,2.82-.06,3.71-.71,2.2-1.61,2.15-4.16,3.77-6.11.4-.48,1-.72,1.24-1.35.75-1.78-2.89-4-1.49-5.38,4.24-4.15,10.11-5,15.3-7.42" transform="translate(-57.88 -206.48)" fill="none" stroke="#000" stroke-linecap="round" stroke-linejoin="round" stroke-width="7.1"/>
    <path d="M599.91,424.39c-29.46,31.19-110.9,71.05-159.43,75.67" transform="translate(-57.88 -206.48)" fill="none" stroke="#000" stroke-linecap="round" stroke-linejoin="round" stroke-width="7.1"/>
    <path d="M810.76,373.56S716,360.85,673.28,363.16c-54.59,2.95-72.79,70.47-72.79,70.47" transform="translate(-57.88 -206.48)" fill="none" stroke="#000" stroke-linecap="round" stroke-linejoin="round" stroke-width="7.1"/>
    <path d="M1003,310.67s-45.64,48.63-90.08,92.53c-24.48,24.18-48.59,46.93-64.52,59.34-16.91,13.17-157,39.72-157,39.72" transform="translate(-57.88 -206.48)" fill="none" stroke="#000" stroke-linecap="round" stroke-linejoin="round" stroke-width="7.1"/>
  </g>
  <g id="Outline_2" data-name="Outline 2">
    <path d="M512.19,608.64s-43.92,15.14-54.9,11.28c-27.16-11.43-53.72-57-53.72-57" transform="translate(-57.88 -206.48)" fill="none" stroke="#000" stroke-linecap="round" stroke-linejoin="round" stroke-width="7.1"/>
    <path d="M682,441.2S668.07,519,645,554.9c-10.74,11.13-45.61,20.3-45.61,20.3" transform="translate(-57.88 -206.48)" fill="none" stroke="#000" stroke-linecap="round" stroke-linejoin="round" stroke-width="7.1"/>
    <path d="M612.71,688.43s-9.61-.53-23.85-6.1c-34.71-13.58-96.87-39.87-114.14-60.18" transform="translate(-57.88 -206.48)" fill="none" stroke="#000" stroke-linecap="round" stroke-linejoin="round" stroke-width="7.1"/>
    <path d="M721.45,574.38s20.47-37.54,21.45-79" transform="translate(-57.88 -206.48)" fill="none" stroke="#000" stroke-linecap="round" stroke-linejoin="round" stroke-width="7.1"/>
    <path d="M808.22,769.85s22.42-56.54,14.62-93.11C815,669,801.4,652.37,777,623.61s-48.74-59-48.74-59" transform="translate(-57.88 -206.48)" fill="none" stroke="#000" stroke-linecap="round" stroke-linejoin="round" stroke-width="7.1"/>
  </g>
  <g id="Outline_3" data-name="Outline 3">
    <path d="M517.13,808s80.52-35.17,100.44-28C684.53,795,785,867.77,785,867.77l-2.12-44.5s14.92-.19,50,30.75,90.29,93,90.29,93L780.72,902.09s-95.45.95-166.54-4.66-117.81-17.8-117.81-17.8-37.72-42-37.52-54.56C479.26,780.15,543.83,717.32,578,700c84.71-34.83,161.32-27.87,219.7-14.19,16.06,7.4,13.8,68.94,13.8,68.94" transform="translate(-57.88 -206.48)" fill="none" stroke="#000" stroke-linecap="round" stroke-linejoin="round" stroke-width="7.1"/>
    <path d="M993.45,810.28S859.82,742.13,826.81,696.34" transform="translate(-57.88 -206.48)" fill="none" stroke="#000" stroke-linecap="round" stroke-linejoin="round" stroke-width="7.1"/>
    <path d="M821.41,841.6l169.91,45.34,50-3.19,199.12,72.41s17.93,14.6,44.82,32.57S1348,1028,1348,1028s-14.38-44.45-36.2-76.67-51.12-52.17-51.12-52.17l-14.37,24S1134,811.74,1067.46,781c-7.46-6.92-87.32,19.17-87.32,19.17" transform="translate(-57.88 -206.48)" fill="none" stroke="#000" stroke-linecap="round" stroke-linejoin="round" stroke-width="7.1"/>
    <path d="M689,806.92s37.58-9.06,66.93-18,50.48-17.63,50.48-17.63" transform="translate(-57.88 -206.48)" fill="none" stroke="#000" stroke-linecap="round" stroke-linejoin="round" stroke-width="7.1"/>
    <path d="M782.07,831.73l-61.65-31.85" transform="translate(-57.88 -206.48)" fill="none" stroke="#000" stroke-linecap="round" stroke-linejoin="round" stroke-width="7.1"/>
  </g>
  <g id="Outline_4" data-name="Outline 4">
    <path d="M406.74,355c.52-2.43,3.05-4.5,4.55-6.2,1.32-1.49,2.44-3.14,3.73-4.65,1.7-2,4.09-3.07,5.77-4.95,2.06-2.29,5.84-6.41,9.21-3.7" transform="translate(-57.88 -206.48)" fill="none" stroke="#000" stroke-linecap="round" stroke-linejoin="round" stroke-width="7.1"/>
    <path d="M415,354.53a113.45,113.45,0,0,1,10.23-8.44c.39-.3.93.32,1.37.54" transform="translate(-57.88 -206.48)" fill="none" stroke="#000" stroke-linecap="round" stroke-linejoin="round" stroke-width="7.1"/>
    <path d="M419.72,353.32c-1.13-.25.72,2.23,1.29,3.24.27.5.61,1,.92,1.44" transform="translate(-57.88 -206.48)" fill="none" stroke="#000" stroke-linecap="round" stroke-linejoin="round" stroke-width="7.1"/>
    <path d="M418.72,395.81c.16,0,.34.2.47.1,3.43-2.68,6.7-5.55,10.05-8.33" transform="translate(-57.88 -206.48)" fill="none" stroke="#000" stroke-linecap="round" stroke-linejoin="round" stroke-width="7.1"/>
    <path d="M388.78,357.42c.81-11.55,10.82-15.34,9.56-19.08-4.31-12.89-14.89-3.48-14.89-3.48s-15.16-5.39-9.15-13.87,16.79-9.46,33.17-20.07,27.92-22.18,32.34-22.35c6.59-.24,21.12-2.8,46.39,15.6s54.68,58,54.68,58l13.64,14.29" transform="translate(-57.88 -206.48)" fill="none" stroke="#000" stroke-linecap="round" stroke-linejoin="round" stroke-width="7.1"/>
    <path d="M397.76,332.77l45.62-31.45L438.93,324l27,17.62s6-16,11.26-14.22,9.66,13.07,9.92,21.19-8.89,11.31-8.89,11.31L487,395.17s-38.42,47.72-57.31,47.19c0,0-7.43-7.23-10-16.15s-.26-19.53-.26-19.53l-4.07-10.55-3.89-11.74-8.34-.31,4.13-28.59-8.12,1.73-2.69-11.57" transform="translate(-57.88 -206.48)" fill="none" stroke="#000" stroke-linecap="round" stroke-linejoin="round" stroke-width="7.1"/>
    <path d="M542.86,357s-17.1,4.38-30.81,2.92a56.42,56.42,0,0,1-24-8.75" transform="translate(-57.88 -206.48)" fill="none" stroke="#000" stroke-linecap="round" stroke-linejoin="round" stroke-width="7.1"/>
    <path d="M503.43,481.61l-43.8-45.33-19.77,5" transform="translate(-57.88 -206.48)" fill="none" stroke="#000" stroke-linecap="round" stroke-linejoin="round" stroke-width="7.1"/>
    <path d="M518,467.41s-9.38-36.64-4.91-61.67" transform="translate(-57.88 -206.48)" fill="none" stroke="#000" stroke-linecap="round" stroke-linejoin="round" stroke-width="7.1"/>
  </g>
  <g id="Outline_5" data-name="Outline 5">
    <path d="M940.15,306a246,246,0,0,1-43.59,15c-19,4.37-39,3.18-54,13.32-33.07,22.39-34.71,61.18-34.71,61.18" transform="translate(-57.88 -206.48)" fill="none" stroke="#000" stroke-linecap="round" stroke-linejoin="round" stroke-width="7.1"/>
    <path d="M418.84,447.16l-37.57,15.3s33.58,34.58,59.18,37.9" transform="translate(-57.88 -206.48)" fill="none" stroke="#000" stroke-linecap="round" stroke-linejoin="round" stroke-width="7.1"/>
    <path d="M423.83,440.18s-3.41,13.47,8,26.93S469.38,494,469.38,494" transform="translate(-57.88 -206.48)" fill="none" stroke="#000" stroke-linecap="round" stroke-linejoin="round" stroke-width="7.1"/>
    <path d="M469.38,448.83s-4.74,12.63-.34,22.27,18,16.29,18,16.29" transform="translate(-57.88 -206.48)" fill="none" stroke="#000" stroke-linecap="round" stroke-linejoin="round" stroke-width="7.1"/>
    <path d="M622.23,279.4l-52.64,30.48s-29.4,110.6-10,139.88" transform="translate(-57.88 -206.48)" fill="none" stroke="#000" stroke-linecap="round" stroke-linejoin="round" stroke-width="7.1"/>
    <path d="M694,210c-63.82,11.1-126.71,173.42-114.22,228" transform="translate(-57.88 -206.48)" fill="none" stroke="#000" stroke-linecap="round" stroke-linejoin="round" stroke-width="7.1"/>
    <path d="M920.44,286.32s-42.14,2-98.66-16.7-127.43-58-127.43-58" transform="translate(-57.88 -206.48)" fill="none" stroke="#000" stroke-linecap="round" stroke-linejoin="round" stroke-width="7.1"/>
    <path d="M958.26,362.2l95.62,22.54s89,7.74,171,35.45,156.94,75.39,156.94,75.39-36.6-81.31-81.88-131.91-99.25-70.51-99.25-70.51l-195.2,6.14" transform="translate(-57.88 -206.48)" fill="none" stroke="#000" stroke-linecap="round" stroke-linejoin="round" stroke-width="7.1"/>
    <path d="M741.81,266.58S695.14,281.34,659,321s-61.68,104.2-61.68,104.2" transform="translate(-57.88 -206.48)" fill="none" stroke="#000" stroke-linecap="round" stroke-linejoin="round" stroke-width="7.1"/>
    <path d="M864.79,325.17,725.45,277.59" transform="translate(-57.88 -206.48)" fill="none" stroke="#000" stroke-linecap="round" stroke-linejoin="round" stroke-width="7.1"/>
    <path d="M743,513.28A781.18,781.18,0,0,0,844.7,545.19c56.8,13.58,67.49,17.33,125.52,22.41s67.28,14.95,98.15-2.07,33.21-29.31,25.35-66c-6.22-10.07-48.38-80.8-48.38-80.8l3.39-33.47" transform="translate(-57.88 -206.48)" fill="none" stroke="#000" stroke-linecap="round" stroke-linejoin="round" stroke-width="7.1"/>
    <path d="M758.84,599.69s55.55,43.22,110,43.66S976.5,601.46,976.5,601.46s-58.29,1.89-119.7-10.41-125.95-38.76-125.95-38.76" transform="translate(-57.88 -206.48)" fill="none" stroke="#000" stroke-linecap="round" stroke-linejoin="round" stroke-width="7.1"/>
    <path d="M819,581.12c.35-2.59-1-5.18-.26-7.86a29.94,29.94,0,0,1,14.78-18.52c3.11-1.59,6-6,9.68-6.07" transform="translate(-57.88 -206.48)" fill="none" stroke="#000" stroke-linecap="round" stroke-linejoin="round" stroke-width="7.1"/>
  </g>
  <g id="Outline_6" data-name="Outline 6">
    <path d="M752.14,595.41s-34.68,11.44-68.38,30.79c-29.73,20.94-53.4,55.88-53.4,55.88" transform="translate(-57.88 -206.48)" fill="none" stroke="#000" stroke-linecap="round" stroke-linejoin="round" stroke-width="7.1"/>
    <path d="M777.25,624.57s-20.6-2.09-45.75,10.9-54.84,41.07-54.84,41.07" transform="translate(-57.88 -206.48)" fill="none" stroke="#000" stroke-linecap="round" stroke-linejoin="round" stroke-width="7.1"/>
    <path d="M725.89,637.62l-21.17-20.31" transform="translate(-57.88 -206.48)" fill="none" stroke="#000" stroke-linecap="round" stroke-linejoin="round" stroke-width="7.1"/>
    <path d="M728.82,606.31l18,20.58" transform="translate(-57.88 -206.48)" fill="none" stroke="#000" stroke-linecap="round" stroke-linejoin="round" stroke-width="7.1"/>
    <path d="M621.56,784.77a365.39,365.39,0,0,0-29.27,26.13c-14.92,14.88-30.39,33.4-30.39,33.4L591,878.42,571,893.16" transform="translate(-57.88 -206.48)" fill="none" stroke="#000" stroke-linecap="round" stroke-linejoin="round" stroke-width="7.1"/>
    <path d="M1118,814.09s-20.24-1.35-35.15,13.53-18.59,19.78-18.59,19.78l23.13,35.27-19.94,7.66" transform="translate(-57.88 -206.48)" fill="none" stroke="#000" stroke-linecap="round" stroke-linejoin="round" stroke-width="7.1"/>
    <path d="M654.79,794.08s-8.09,5-23,19.87-30.39,33.4-30.39,33.4l29.05,34.12-19.93,14.74" transform="translate(-57.88 -206.48)" fill="none" stroke="#000" stroke-linecap="round" stroke-linejoin="round" stroke-width="7.1"/>
    <path d="M1147.84,834.78s-24.81-10.49-39.72,4.39-13.68,16.7-13.68,16.7l29,34.11-19.93,14.74" transform="translate(-57.88 -206.48)" fill="none" stroke="#000" stroke-linecap="round" stroke-linejoin="round" stroke-width="7.1"/>
    <path d="M175.65,692.14c.95-5-11-17-11-17" transform="translate(-57.88 -206.48)" fill="none" stroke="#000" stroke-linecap="round" stroke-linejoin="round" stroke-width="7.1"/>
  </g>
  <g id="Outline_7" data-name="Outline 7">
    <path d="M433.8,578.57s42.4,15.36,79.6,25.53a703.61,703.61,0,0,0,69.2,15.12s11.3-39.39,25.73-73.06a500.49,500.49,0,0,1,32-61.61l-50.72-20.84s-36.35,19.77-71.31,33.19a507.68,507.68,0,0,1-68.52,20.46Z" transform="translate(-57.88 -206.48)" fill="none" stroke="#000" stroke-linecap="round" stroke-linejoin="round" stroke-width="7.1"/>
    <path d="M620.91,490.06l-14.09,28.79s-16.59-2.24-37.57,3.82-24.09,14.14-46.35,20.41-36.76,7.66-39,.93c-1.2-3.71,23.42-31,45.77-39.25,18.21-6.76,34.91,4.86,34.91,4.86l32.74-15.93-4.88-16.34Z" transform="translate(-57.88 -206.48)" fill="none" stroke="#000" stroke-linecap="round" stroke-linejoin="round" stroke-width="7.1"/>
    <path d="M468,576.63a63.79,63.79,0,0,1-2.62-24.44c1.35-12.87,8-27.06,8-27.06l-14.36,1.74-10.95,41.18Z" transform="translate(-57.88 -206.48)" fill="none" stroke="#000" stroke-linecap="round" stroke-linejoin="round" stroke-width="7.1"/>
    <path d="M529.76,591.74s8.16-11.21,17.33-13.76,19.36,3.57,19.36,3.57L585.69,565l-18.12-7.86-66.85,24.73Z" transform="translate(-57.88 -206.48)" fill="none" stroke="#000" stroke-linecap="round" stroke-linejoin="round" stroke-width="7.1"/>
    <path d="M576.2,590.51l-18,9.4" transform="translate(-57.88 -206.48)" fill="none" stroke="#000" stroke-linecap="round" stroke-linejoin="round" stroke-width="7.1"/>
    <path d="M558.39,600.6l15.93,4.46,2.19-14.48" transform="translate(-57.88 -206.48)" fill="none" stroke="#000" stroke-linecap="round" stroke-linejoin="round" stroke-width="7.1"/>
    <path d="M570.39,496.58l5-13.87-17,8Z" transform="translate(-57.88 -206.48)" fill="none" stroke="#000" stroke-linecap="round" stroke-linejoin="round" stroke-width="7.1"/>
  </g>
  <g id="Colour_1" data-name="Colour 1">
    <path d="M976.5,802.16l2.3-1.9s79.9-26.1,87.3-19.2c15.4,7.1,33.2,18.5,51.4,31.8l-1,1.3s-20.2-1.4-35.1,13.5-18.6,19.8-18.6,19.8l23.1,35.3-19.9,7.7-.9,2.5-25.1-9.1-50,3.2-169.9-45.3-2,1.3c-25.5-19.7-36.5-19.6-36.5-19.6l.4,8.4-1.2.1-61.7-31.8-.2-.9c11.3-3,24.1-6.5,35.7-10,29.3-8.9,50.5-17.6,50.5-17.6l1.9-1.5s2.3-5.8,5.2-14.8c4.6-14.6,10.7-37.6,11.1-58.8l2.3.1C851.6,732.66,940.2,782.66,976.5,802.16Z" transform="translate(-57.88 -206.48)" fill="#3c79dd"/>
    <path d="M597,426.26l-.9-.9a.77.77,0,0,1,.1-.3c.2-.4.6-1.4,1.2-2.9a6.89,6.89,0,0,0,.3-.8c5.9-13.3,28.3-55.6,74.3-58.1,42.7-2.3,137.5,10.4,137.5,10.4l1.8.6c4.4-12.6,13.1-28.4,30.1-39.9,6.6-4.5,14.3-6.8,22.4-8.3,10.2-1.9,21-2.6,31.6-5a251.8,251.8,0,0,0,42.8-14.7,172.11,172.11,0,0,0,11.9,19.1c6,7.9,19.3,15.5,19.3,15.5l2.4,1.2c-5.7,5.9-11.9,12.4-18.5,19.2-13,13.3-27.3,27.8-41.5,41.9-24.5,24.2-48.6,46.9-64.5,59.3-10,7.8-62.8,20.2-104.4,29.1a152.14,152.14,0,0,1-2.2,21.4,220.5,220.5,0,0,1-10.8,39.3c-1.8,4.7-3.5,8.8-4.9,12.2l2.3.1s10.5,13,24.6,30.1l-.8.6s-10.4,3.4-25.3,9.7c-7.3,3-15.6,6.8-24.3,11.1-6.2,3-12.5,6.4-18.8,10-29.7,20.9-53.4,55.9-53.4,55.9l.3,1.1q-9.6,2.25-19.5,5.1a92.32,92.32,0,0,1-22.3-6c-34.7-13.6-102.2-42.1-119.5-62.4-5.2.7-9.5.9-12.1,0-9.3-3.9-18.6-11.9-26.7-20.6l-2.6,1.4c-64.1,13-249.5,92.5-249.5,92.5l-.2-.3-1.9,1.1-1-1.7c1-5-11-17-11-17l-.9-.1c4.4-7.3,51.9-86,90.8-110,2.9-1.8,50.5-.7,50.5-.7l86.7-91.9.1-.1c11.7,10.2,31,25.1,47.4,27.8l1.2-.1a166.1,166.1,0,0,0,29-5.7c5.8-1.6,11.8-3.5,17.9-5.6s12.5-4.6,18.9-7.2a413.63,413.63,0,0,0,56.8-28.8C576,444.06,588.4,434.86,597,426.26Zm42,58.4-50.7-20.8s-36.3,19.8-71.3,33.2a515.32,515.32,0,0,1-68.5,20.5l-16,61.2s42.4,15.4,79.6,25.5a685.63,685.63,0,0,0,69.2,15.1s11.3-39.4,25.7-73.1A518,518,0,0,1,639,484.66Z" transform="translate(-57.88 -206.48)" fill="#3c79dd"/>
    <path d="M624.8,782.36s-18.9,13.8-33.8,28.7-30.4,33.4-30.4,33.4l29,34.1-19.7,14.6c-46.4-5.9-74.9-13.4-74.9-13.4s-37.7-42-37.5-54.6c20.4-44.9,85-107.8,119.2-125.1a336.9,336.9,0,0,1,33.1-11.7q9.9-3,19.5-5.1a334.89,334.89,0,0,1,46.9-7.4c45-3.8,85.8,1.9,120.2,10,16.1,7.4,13.8,68.9,13.8,68.9l1.8.3c-2.9,9-5.2,14.8-5.2,14.8l-1.9,1.5s-21.1,8.7-50.5,17.6c-11.6,3.5-24.4,7-35.7,10-17.4,4.6-31.2,7.9-31.2,7.9l-.7,1.2c-10.9-5.6-22-11-32.9-15.5A274.3,274.3,0,0,0,624.8,782.36Z" transform="translate(-57.88 -206.48)" fill="#3c79dd"/>
  </g>
  <g id="Colour_2" data-name="Colour 2">
    <path d="M1310.5,951.56c21.8,32.2,36.2,76.7,36.2,76.7S1310.9,1007,1284,989s-44.8-32.6-44.8-32.6l-137.5-50,.5-1.5,19.9-14.7-29.1-34.1s-1.2-1.8,13.7-16.7c13.5-13.5,35.1-6.2,39.1-4.6,51.6,41.4,99.2,88.6,99.2,88.6l14.4-24S1288.7,919.36,1310.5,951.56Z" transform="translate(-57.88 -206.48)" fill="#d13d2f"/>
    <path d="M1145.9,834.66c-4-1.5-25.6-8.8-39.1,4.6-14.9,14.9-13.7,16.7-13.7,16.7l29.1,34.1-19.9,14.7-.5,1.5L1065.2,893l.9-2.5,19.9-7.7-23.1-35.3s3.7-4.9,18.6-19.8,35.1-13.5,35.1-13.5l1-1.3C1127,819.76,1136.5,827.16,1145.9,834.66Z" transform="translate(-57.88 -206.48)" fill="#d13d2f"/>
    <path d="M921.8,947.16l-142.4-44.9s-95.4.9-166.5-4.7l-3.8-.3.1-.9,19.9-14.7-29-34.1s15.5-18.5,30.4-33.4,23-19.9,23-19.9l.6-1.5c10.9,4.6,22,9.9,32.9,15.5,50.6,26.2,96.7,59.6,96.7,59.6l-1.7-36.1-.4-8.4s11.1-.1,36.5,19.6c4.1,3.2,8.6,6.9,13.5,11.2C866.6,885.16,921.8,947.16,921.8,947.16Z" transform="translate(-57.88 -206.48)" fill="#d13d2f"/>
    <path d="M654.1,792.76l-.6,1.5s-8.1,5-23,19.9-30.4,33.4-30.4,33.4l29,34.1-19.9,14.7-.1.9c-14.1-1.2-27.3-2.6-39.2-4.1l19.7-14.6-29-34.1s15.5-18.5,30.4-33.4,33.8-28.7,33.8-28.7A253,253,0,0,1,654.1,792.76Z" transform="translate(-57.88 -206.48)" fill="#d13d2f"/>
  </g>
  <g id="Colour_3" data-name="Colour 3">
    <path d="M757.5,599.86l-1.1.9c-1.7-2-3.3-3.9-4.8-5.8-14.1-17.1-24.6-30.1-24.6-30.1l-2.3-.1c1.5-3.4,3.2-7.5,4.9-12.2a840.47,840.47,0,0,0,87.9,29.6c12.4,3.4,25.3,6.6,38,9.1,61.4,12.3,119.7,10.4,119.7,10.4s-53.3,42.3-107.7,41.9C813.5,643.06,758.4,600.56,757.5,599.86Z" transform="translate(-57.88 -206.48)" fill="#d13d2f"/>
    <path d="M1298.6,363.86c44.9,50.2,81.3,130.6,81.9,131.9-1.2-.7-75.6-47.9-156.9-75.4-82-27.7-171-35.5-171-35.5l-4.8-1.1-94.7-22.3c6.6-6.8,12.9-13.3,18.5-19.2,17.9-18.5,30-31.5,30-31.5l.4-.1,1.3-11.4.8.1,195.2-6.1C1199.4,293.36,1253.3,313.26,1298.6,363.86Z" transform="translate(-57.88 -206.48)" fill="#d13d2f"/>
    <path d="M718.8,276h0c-16.8,8.3-40.6,22.8-61.1,45.2-30.8,33.8-53.9,85.6-60,100.2-.1.3-.2.5-.3.8-.6,1.5-1,2.5-1.2,2.9a.77.77,0,0,0-.1.3l.9.9c-8.6,8.6-20.9,17.8-35.3,26.7-10.1-15.2-7.9-53.1-3.5-86.1,4.1-30.5,10.1-56.8,10.1-56.8l52.6-30.5.3.1c20.1-35.7,45-64,70.1-69.3l1.7,1.3s70.9,39.3,127.4,58,98.7,16.7,98.7,16.7l2-1.2c4.8,7.7,9.1,13.9,9.1,13.9l7.7,7.1a.31.31,0,0,0,.1.2,248.38,248.38,0,0,1-42.8,14.7c-10.6,2.4-21.5,3.1-31.6,5l-.2-.9Z" transform="translate(-57.88 -206.48)" fill="#d13d2f"/>
    <path d="M469.6,447.46l35.3,34.3q-9.45,3.9-18.9,7.2l-.4-1.4s-13.5-6.7-18-16.3.3-22.3.3-22.3Z" transform="translate(-57.88 -206.48)" fill="#d13d2f"/>
    <path d="M422.1,445.46a22,22,0,0,1,.5-5.1l2.2-2a47.23,47.23,0,0,0,3.6,4.2c3,.1,6.4-1,10.2-3h0l19.8-3.1,11.3,11-1.5,1.6s-4.7,12.6-.3,22.3,18,16.3,18,16.3l.4,1.4c-6.1,2.1-12.1,4-17.9,5.6l-.1-.3s-26.2-13.5-37.6-26.9C423.5,459,422.1,450.66,422.1,445.46Z" transform="translate(-57.88 -206.48)" fill="#d13d2f"/>
    <path d="M468.1,494.16l.1.3a166.1,166.1,0,0,1-29,5.7l-1.2.1c-16.4-2.7-35.7-17.6-47.4-27.8-6.4-5.6-10.6-9.9-10.6-9.9l42.1-17.1a33.49,33.49,0,0,0,8.5,21.8C441.9,480.76,468.1,494.16,468.1,494.16Z" transform="translate(-57.88 -206.48)" fill="#d13d2f"/>
  </g>
  <g id="Colour_4" data-name="Colour 4">
    <path d="M817.5,582.06a878.45,878.45,0,0,1-87.9-29.6,218.16,218.16,0,0,0,10.8-39.3l1.2.2a784.11,784.11,0,0,0,101.7,31.9l2.5.6c-3.6,0-10.5,7.4-13.7,9a30.2,30.2,0,0,0-14.8,18.5c-.7,2.7.6,5.3.3,7.9Z" transform="translate(-57.88 -206.48)" fill="#96061f"/>
    <path d="M1092.4,499.66c7.9,36.7,5.5,49-25.3,66s-40.1,7.2-98.2,2.1c-57.2-5-68.4-8.7-123-21.8l-2.5-.6a784.11,784.11,0,0,1-101.7-31.9l-1.2-.2a152.14,152.14,0,0,0,2.2-21.4c41.7-8.9,94.5-21.3,104.4-29.1,15.9-12.4,40-35.2,64.5-59.3,14.2-14.1,28.6-28.6,41.5-41.9l94.7,22.3-.4,1.6L1044,419C1044,418.86,1086.2,489.66,1092.4,499.66Z" transform="translate(-57.88 -206.48)" fill="#96061f"/>
    <path d="M863.5,325.36l.2.9c-8.1,1.5-15.7,3.8-22.4,8.3-16.9,11.5-25.6,27.2-30.1,39.9l-1.8-.6s-94.7-12.7-137.5-10.4c-46,2.5-68.4,44.8-74.3,58.1,6.2-14.6,29.3-66.5,60-100.2,20.4-22.4,44.3-36.9,61.1-45.2h0Z" transform="translate(-57.88 -206.48)" fill="#96061f"/>
  </g>
  <g id="Colour_5" data-name="Colour 5">
    <path d="M775.7,623.76c.2.2.4.5.6.7l-.3.3s-12.8-1.3-30.5,4.5v-2.2l-18-20.6-2-1.2c14.9-6.3,25.3-9.7,25.3-9.7l.8-.6c1.6,1.9,3.2,3.8,4.8,5.8C762.6,608.16,769.1,616,775.7,623.76Z" transform="translate(-57.88 -206.48)" fill="#efe758"/>
    <path d="M745.5,627.06v2.2a117,117,0,0,0-15.3,6.4c-1.7.9-3.5,1.8-5.2,2.9l-.4-.7-21.2-20.3-2.1-1.1c8.7-4.3,17-8,24.3-11.1l2,1.2Z" transform="translate(-57.88 -206.48)" fill="#efe758"/>
    <path d="M724.6,637.76l.4.7c-21.4,12.4-44.3,33.2-48.8,37.5a322.93,322.93,0,0,0-46.9,7.4l-.3-1.1s23.7-34.9,53.4-55.9c6.3-3.6,12.7-7,18.8-10l2.1,1.1Z" transform="translate(-57.88 -206.48)" fill="#efe758"/>
    <path d="M821.5,676.86a82.46,82.46,0,0,1,1.6,19.5c-.4,21.1-6.5,44.2-11.1,58.8l-1.8-.3s2.3-61.5-13.8-68.9c-34.4-8.1-75.2-13.8-120.2-10,4.6-4.2,27.5-25.1,48.8-37.5,1.8-1,3.5-2,5.2-2.9a100.3,100.3,0,0,1,15.3-6.4c17.7-5.8,30.5-4.5,30.5-4.5l.3-.3C800.3,652.76,813.8,669.16,821.5,676.86Z" transform="translate(-57.88 -206.48)" fill="#d13d2f"/>
  </g>
  <g id="Colour_6" data-name="Colour 6">
    <path d="M543.1,355.36l-1.6,1.8s-17.1,4.4-30.8,2.9a56.54,56.54,0,0,1-24-8.8l-1.1-.1a9.74,9.74,0,0,0,.2-2.4c-.3-8.1-4.6-19.4-9.9-21.2s-11.3,14.2-11.3,14.2l-27-17.6,4.5-22.7-45.6,31.4h-2.9c-4.9-3.7-11.4,2.1-11.4,2.1s-15.2-5.4-9.2-13.9,16.8-9.5,33.2-20.1,27.9-22.2,32.3-22.4c6.6-.2,21.1-2.8,46.4,15.6s54.7,58,54.7,58Z" transform="translate(-57.88 -206.48)" fill="#010101"/>
    <path d="M90.5,726.76c-2.5,1.5-4.9,2.9-7.4,4.1-16.5,7.7-29.2,13.1-19.1,0S106.6,692,106.6,692l54.2-15.7,1.3-.3.3-.6.9.1s11.9,12,11,17l1,1.7-13.6,8.1-16,12.9s-24.4,16.7-39.6,17.6-15.6-6-15.6-6Z" transform="translate(-57.88 -206.48)" fill="#ebc191"/>
    <path d="M927.2,239.26c3.8-2.3,42-24.6,52.3-17.6,7.4,4.4,25.5,63.6,25.5,63.6l-1.6,14.1-1.3,11.4-.4.1s-12.1,12.9-30,31.5l-2.4-1.2s-13.3-7.6-19.3-15.5a172.11,172.11,0,0,1-11.9-19.1.31.31,0,0,1-.1-.2l-7.7-7.1s-4.4-6.2-9.1-13.9c-3.7-6-7.7-12.9-10-18.6-5.4-13.1-6.3-12.8-2.4-19.7s18.2-8,18.2-8Zm14.9,41.6c-.4-.7-.7-1.3-.8-1.4.2.4.5.9.8,1.4Z" transform="translate(-57.88 -206.48)" fill="#ebc191"/>
    <path d="M556.4,366.66l1.8.2c-4.4,33-6.6,70.9,3.5,86.1a402.51,402.51,0,0,1-56.8,28.8l-35.3-34.3-11.3-11-19.8,3.1h0c19.9-10.4,47.1-44.2,47.1-44.2l-8.7-35.3s7.3-2.5,8.7-8.9l1.1.1a56.54,56.54,0,0,0,24,8.8c13.7,1.5,30.8-2.9,30.8-2.9l1.6-1.8Z" transform="translate(-57.88 -206.48)" fill="#e6bb88"/>
    <path d="M406,355.66l-8.1,1.7-2.7-11.6-2.5-.2c2.6-3.1,5.1-5.1,4.4-7.1-.9-2.8-2.1-4.5-3.5-5.5h2.9l45.6-31.4-4.5,22.7,27,17.6s6-16,11.3-14.2,9.7,13.1,9.9,21.2a9,9,0,0,1-.2,2.4c-1.4,6.3-8.7,8.9-8.7,8.9l8.7,35.3s-27.2,33.8-47.1,44.2c-3.7,2-7.2,3.1-10.2,3a47.23,47.23,0,0,1-3.6-4.2,37.72,37.72,0,0,1-6.4-12c-2.6-8.9-.3-19.5-.3-19.5l-4.1-10.5-3.9-11.7-8.3-.3Z" transform="translate(-57.88 -206.48)" fill="#e6bb88"/>
  </g>
  <g id="Colour_7" data-name="Colour 7">
    <path d="M588.3,463.86l50.7,20.8a492.52,492.52,0,0,0-32,61.6c-14.4,33.7-25.7,73.1-25.7,73.1s-32-5-69.2-15.1-79.6-25.5-79.6-25.5l16-61.2a493.79,493.79,0,0,0,68.5-20.5C552,483.66,588.3,463.86,588.3,463.86ZM605.5,519l14.1-28.8-28.4-12.7,4.9,16.3-32.7,15.9s-16.7-11.6-34.9-4.9c-22.4,8.3-47,35.5-45.8,39.3,2.2,6.7,16.7,5.3,39-.9s25.4-14.4,46.3-20.4S605.5,519,605.5,519Zm-40.3,62.7,19.2-16.6-18.1-7.9-66.9,24.7,29,9.9s8.2-11.2,17.3-13.8C555,575.56,565.2,581.66,565.2,581.66Zm7.8,23.6,2.2-14.5-.3-.1-18,9.4.2.7Zm-3.9-108.5,5-13.9-17,8Zm-97,28.5L457.7,527l-10.9,41.2,19.9,8.6a62.52,62.52,0,0,1-2.6-24.4C465.5,539.46,472.1,525.26,472.1,525.26Z" transform="translate(-57.88 -206.48)" fill="#d13d2f"/>
    <path d="M457.8,527.06l14.4-1.7s-6.7,14.2-8,27.1a62.52,62.52,0,0,0,2.6,24.4l-19.9-8.6Z" transform="translate(-57.88 -206.48)" fill="#efe758"/>
    <path d="M584.4,565.16l-19.2,16.6s-10.2-6.1-19.4-3.6S528.5,592,528.5,592l-29-9.9,66.9-24.7Z" transform="translate(-57.88 -206.48)" fill="#efe758"/>
    <polygon points="517.32 384.28 515.12 398.78 499.22 394.28 499.02 393.58 517.02 384.18 517.32 384.28" fill="#efe758"/>
    <polygon points="516.22 276.38 511.22 290.28 499.12 284.38 516.22 276.38" fill="#efe758"/>
    <path d="M619.6,490.26l-14.1,28.8s-16.6-2.2-37.6,3.8-24.1,14.1-46.3,20.4-36.8,7.7-39,.9c-1.2-3.7,23.4-31,45.8-39.3,18.2-6.8,34.9,4.9,34.9,4.9l32.7-15.9-4.9-16.3Z" transform="translate(-57.88 -206.48)" fill="#efe758"/>
  </g>
</svg>
