<svg id="Layer_1" data-name="Layer 1" xmlns="http://www.w3.org/2000/svg" viewBox="0 0 1397.1 959.2">
  <g id="Layer_1-2" data-name="Layer 1">
    <g id="Guideline">
      <path d="M829.2,525.4h404.6v301H829.2Z" transform="translate(41.7 0.8)" fill="none" stroke="#000" stroke-linecap="round" stroke-linejoin="round" stroke-width="4"/>
      <path d="M-27.1,637.8H902.1V825.7H-27.1Z" transform="translate(41.7 0.8)" fill="none" stroke="#000" stroke-linecap="round" stroke-linejoin="round" stroke-width="4"/>
      <path d="M1230.6,657h122.8V773.9H1230.6Z" transform="translate(41.7 0.8)" fill="none" stroke="#000" stroke-linecap="round" stroke-linejoin="round" stroke-width="4"/>
    </g>
    <g id="Layer_2" data-name="Layer 2">
      <path d="M922.4,802.9c-.1-7,.7-164.2.7-164.2l28.5.3-.3,10,39.6-.3-.3-10.9,39.7-.2.3,11.2,36.4.3.1-12.9,34.4-.2-.2,12.3,40.3,1-.1-13.6,35.2.8.7,11.9,29.7.8.4-13.5,23.4,1.1.8,140.2" transform="translate(41.7 0.8)" fill="none" stroke="#000" stroke-linecap="round" stroke-linejoin="round" stroke-width="9.4"/>
      <path d="M830.2,681.1l1.7-85.5,15.3,9.2-.4,12.4,16.2,6.4-.7-11.8,25.1,11.1-.5,11.6,19.5,7.1.5-10.3,15.8,7.4" transform="translate(41.7 0.8)" fill="none" stroke="#000" stroke-linecap="round" stroke-linejoin="round" stroke-width="9.4"/>
      <path d="M832.4,594.3l31.3-.3-.3,8.7,32.2.1.1-9h23.4" transform="translate(41.7 0.8)" fill="none" stroke="#000" stroke-linecap="round" stroke-linejoin="round" stroke-width="9.4"/>
      <path d="M1168.8,604l20.6,10-.6,8.7,16.4,7.3.1-10.8,26.2,17.7" transform="translate(41.7 0.8)" fill="none" stroke="#000" stroke-linecap="round" stroke-linejoin="round" stroke-width="9.4"/>
    </g>
    <g id="Layer_3" data-name="Layer 3">
      <path d="M1168.7,592.3l-.3,43.3" transform="translate(41.7 0.8)" fill="none" stroke="#000" stroke-linecap="round" stroke-linejoin="round" stroke-width="9.4"/>
      <path d="M981.4,593v54" transform="translate(41.7 0.8)" fill="none" stroke="#000" stroke-linecap="round" stroke-linejoin="round" stroke-width="9.4"/>
      <path d="M918.8,569v65.6" transform="translate(41.7 0.8)" fill="none" stroke="#000" stroke-linecap="round" stroke-linejoin="round" stroke-width="9.4"/>
      <path d="M1171.1,592.1l-191.4.6" transform="translate(41.7 0.8)" fill="none" stroke="#000" stroke-linecap="round" stroke-linejoin="round" stroke-width="9.4"/>
      <path d="M913.3,568.2s12.7-4.6,21.2-11.5,12.4-17.2,12.4-17.2,6.2,17.9,14.9,31.1a95.73,95.73,0,0,0,19.7,21.5" transform="translate(41.7 0.8)" fill="none" stroke="#000" stroke-linecap="round" stroke-linejoin="round" stroke-width="9.4"/>
      <path d="M914.1,561.4s12.6-9.2,18.6-16.4c7-8.3,16.7-32.7,16.7-32.7s6.5,24.7,15.2,37.9,21.7,27.4,21.7,27.4" transform="translate(41.7 0.8)" fill="none" stroke="#000" stroke-linecap="round" stroke-linejoin="round" stroke-width="9.4"/>
      <path d="M987.2,591.5l-.4-14.4" transform="translate(41.7 0.8)" fill="none" stroke="#000" stroke-linecap="round" stroke-linejoin="round" stroke-width="9.4"/>
      <path d="M1169.1,592s-22-17.6-35.2-37.2-17.4-41.1-17.4-41.1l-166.8-1.4" transform="translate(41.7 0.8)" fill="none" stroke="#000" stroke-linecap="round" stroke-linejoin="round" stroke-width="9.4"/>
      <path d="M1119.7,525.9l-165.4.7" transform="translate(41.7 0.8)" fill="none" stroke="#000" stroke-linecap="round" stroke-linejoin="round" stroke-width="9.4"/>
      <path d="M914.9,561c-.9-.6-1.2,5-1.2,5.5" transform="translate(41.7 0.8)" fill="none" stroke="#000" stroke-linecap="round" stroke-linejoin="round" stroke-width="9.4"/>
    </g>
    <g id="Layer_4" data-name="Layer 4">
      <path d="M-30.8,637l16.1,5-.1-10.2L11.8,636,9.5,650.9s11.6,7.3,19.8,11.3a97.16,97.16,0,0,0,18.2,6.2L51.3,656l33,11.4L80.1,679l32,7.8,3.4-10.4,33,5.6-2.3,14.6a84.41,84.41,0,0,0,15.2,4.4c8.7,1.7,19.7,2.6,19.7,2.6l1.9-12.3s9.8,2.2,20.5,3.9,22,2.7,22,2.7l-.1,14.2s8,2.5,17.8,4.6a189.51,189.51,0,0,0,21.6,3.2l1.8-15.3,43.5,2.2.3,16,36.4.4.8-15,30.9.6-.3,16.1,36.4,1.1,1.3-14.4,41.4-.2.7,17.9,35.7.3,2-15.9,33.9.8.2,14,41,3V719.1l32.4.4.3,15.6h33.6l.3-15.6,38.5.9,1.2,15.8,28.7.9V722.4l45.9,1.2V736l32.8-1-.2-12.3,36.9-1.2,1.7,12.6,32.5-.6.4-11.7,47.8,1.2-.7,80" transform="translate(41.7 0.8)" fill="none" stroke="#000" stroke-linecap="round" stroke-linejoin="round" stroke-width="9.4"/>
      <path d="M-28.7,607.3c8.3,3.1,11.1,1.7,11.1,1.7l5.3-15.4,27.9,8.7L13.9,614l33.3,13.4,3-11.9L88.7,628,87,640.2a68.53,68.53,0,0,0,14.3,3.7c8.7,1.4,11.3,1.8,11.3,1.8l3.4-8.9s4.9.4,15.5,1.7,14.9,3.6,14.9,3.6l-1.6,14.8a88.59,88.59,0,0,0,14.8,3.4c9.8,1.7,13,4.5,13,4.5l1.7-11.4,37.8,7.4.3,13.3,39.3,9.5.5-12.2,29.4,2.4.3,10.5,39.4,2.8.2-11.2,41.5-.1.5,13.3H389l-.6-11.4,40.7.9,1.3,11.4,34.9.3,1.4-10.4,33.3.2.5,12.9,45.6,1.6.3-14,45.8.9.6,12.2,49.8,2.9.4-13.9,34.1.3.3,12.8,43.9-.8-.2-9.5,36.9-.9,1.7,9.8,14.8-.2,17.7-.2.4-9,47.8.9.3,47.4" transform="translate(41.7 0.8)" fill="none" stroke="#000" stroke-linecap="round" stroke-linejoin="round" stroke-width="9.4"/>
      <path d="M1339.2,708.3l-40.8,2.2.7,14.5-36,1.7-2.2-13.3-30.3-1.2" transform="translate(41.7 0.8)" fill="none" stroke="#000" stroke-linecap="round" stroke-linejoin="round" stroke-width="9.4"/>
      <path d="M1337,687.6l-40.8,2.2.7,14.5-36,1.7-2.2-13.3-24.7-3.2" transform="translate(41.7 0.8)" fill="none" stroke="#000" stroke-linecap="round" stroke-linejoin="round" stroke-width="9.4"/>
    </g>
    <g id="Layer_5" data-name="Layer 5">
      <path d="M383,454.6s-6.6,31.5,3.6,50.5c6.6,12.3,19.9,23.7,33.9,26.9,97.3,22.4,164.5-28.9,354.7-94.7,53.1-18.4,268.6-85.6,404.1-107.8,63.6-10.5,159.6-4,159.6-4" transform="translate(41.7 0.8)" fill="none" stroke="#000" stroke-linecap="round" stroke-linejoin="round" stroke-width="9.4"/>
      <path d="M404.6,457s-8.1,20.2,2,39.2c6.6,12.3,22,18.5,35.9,21.7,35.9,8.3,91.7-12.5,146.3-29.7,93.5-29.4,188.9-65.6,209-72.4,32.2-11,268.6-85.6,404.1-107.8,63.6-10.5,132.2-2.9,132.2-2.9" transform="translate(41.7 0.8)" fill="none" stroke="#000" stroke-linecap="round" stroke-linejoin="round" stroke-width="9.4"/>
      <path d="M404.2,456.9l-21.9-2.6" transform="translate(41.7 0.8)" fill="none" stroke="#000" stroke-linecap="round" stroke-linejoin="round" stroke-width="9.4"/>
      <path d="M858.7,231.4c-41.5,18.3-39.7,78.4-56.8,123.5-26.5,69.7-97.2,83.3-147.7,93.7-37.4,7.7-117.6-20.8-164.8-27.5-11.6-1.6-25.1,8.8-25.1,8.8" transform="translate(41.7 0.8)" fill="none" stroke="#000" stroke-linecap="round" stroke-linejoin="round" stroke-width="9.4"/>
      <path d="M857.3,220.9s1-.7-10.5,4.3c-4.8,2.1,9.4-4.2.2-.1-41.5,18.3-44.4,71.3-61.5,116.4-26.5,69.7-83.2,84-133.8,94.4-37.4,7.7-117.6-20.8-164.8-27.5-11.6-1.6-25.1,8.8-25.1,8.8" transform="translate(41.7 0.8)" fill="none" stroke="#000" stroke-linecap="round" stroke-linejoin="round" stroke-width="9.4"/>
      <path d="M1178.6,212.8a698.06,698.06,0,0,1-78.4,18.4c-44.8,7.9-48.4,15.7-100.7,13.1s-108.6-23.7-108.6-23.7" transform="translate(41.7 0.8)" fill="none" stroke="#000" stroke-linecap="round" stroke-linejoin="round" stroke-width="9.4"/>
      <path d="M1180.3,216.1c.6-4.5-.9-5.7-.1-9.2.2-.6,6.2.2,6.2.2s8.1.5,7.7,1.4c-.9,1.8.7,3.6.2,7.3" transform="translate(41.7 0.8)" fill="none" stroke="#000" stroke-linecap="round" stroke-linejoin="round" stroke-width="9.4"/>
      <path d="M1343.7,198.6s-37.8.4-74.8,3.9-74,8.9-74,8.9" transform="translate(41.7 0.8)" fill="none" stroke="#000" stroke-linecap="round" stroke-linejoin="round" stroke-width="9.4"/>
    </g>
    <g id="Layer_6" data-name="Layer 6">
      <path d="M368.8,429.9h61.3V474H368.8Z" transform="translate(41.7 0.8)" fill="none" stroke="#000" stroke-linecap="round" stroke-linejoin="round" stroke-width="9.4"/>
      <path d="M430.5,473.7l31.4-28.8-2.2-36.1-29.8,21.4" transform="translate(41.7 0.8)" fill="none" stroke="#000" stroke-linecap="round" stroke-linejoin="round" stroke-width="9.4"/>
      <path d="M418.1,430.4l-.1-14.5-11.2-11.6-12.7,11.3-.1,13" transform="translate(41.7 0.8)" fill="none" stroke="#000" stroke-linecap="round" stroke-linejoin="round" stroke-width="9.4"/>
      <path d="M418.2,415.6l21-14-10.7-7.4L407.8,404" transform="translate(41.7 0.8)" fill="none" stroke="#000" stroke-linecap="round" stroke-linejoin="round" stroke-width="9.4"/>
      <path d="M439.7,420.6l-.6-18.8" transform="translate(41.7 0.8)" fill="none" stroke="#000" stroke-linecap="round" stroke-linejoin="round" stroke-width="9.4"/>
      <path d="M440.7,409.2l18.9-1" transform="translate(41.7 0.8)" fill="none" stroke="#000" stroke-linecap="round" stroke-linejoin="round" stroke-width="9.4"/>
      <path d="M369.3,429l24-11.4" transform="translate(41.7 0.8)" fill="none" stroke="#000" stroke-linecap="round" stroke-linejoin="round" stroke-width="9.4"/>
      <path d="M858.2,212.5,889,210l1.9,23.7-30.8,2.5Z" transform="translate(41.7 0.8)" fill="none" stroke="#000" stroke-linecap="round" stroke-linejoin="round" stroke-width="9.4"/>
    </g>
    <g id="Layer_8" data-name="Layer 8">
      <path d="M871.4,738.7l3.9-3.4,5.5,3.5-.9,10.9-8.2.4Z" transform="translate(41.7 0.8)" fill="none" stroke="#000" stroke-linecap="round" stroke-linejoin="round" stroke-width="9.4"/>
      <path d="M800.6,743.8l3.9-3.4,5.5,3.5-.9,10.9-8.2.4Z" transform="translate(41.7 0.8)" fill="none" stroke="#000" stroke-linecap="round" stroke-linejoin="round" stroke-width="9.4"/>
      <path d="M722.6,744.3l3.9-3.4,5.5,3.5-.9,10.9-8.2.4Z" transform="translate(41.7 0.8)" fill="none" stroke="#000" stroke-linecap="round" stroke-linejoin="round" stroke-width="9.4"/>
      <path d="M651.7,745.7l3.9-3.4,5.5,3.5-.9,10.9-8.2.4Z" transform="translate(41.7 0.8)" fill="none" stroke="#000" stroke-linecap="round" stroke-linejoin="round" stroke-width="9.4"/>
      <path d="M580.7,744.2l3.9-3.4,5.5,3.5-.9,10.9-8.2.4Z" transform="translate(41.7 0.8)" fill="none" stroke="#000" stroke-linecap="round" stroke-linejoin="round" stroke-width="9.4"/>
      <path d="M506.9,742.2l4.7-3.9,6.5,4L517,754.8l-9.7.4Z" transform="translate(41.7 0.8)" fill="none" stroke="#000" stroke-linecap="round" stroke-linejoin="round" stroke-width="9.4"/>
      <path d="M428.8,740.5l5.3-4.2,7.4,4.4-1.2,13.6-11,.4Z" transform="translate(41.7 0.8)" fill="none" stroke="#000" stroke-linecap="round" stroke-linejoin="round" stroke-width="9.4"/>
      <path d="M358.1,730.8l5.1-4,7.1,4.1-1.2,12.7-10.6.4Z" transform="translate(41.7 0.8)" fill="none" stroke="#000" stroke-linecap="round" stroke-linejoin="round" stroke-width="9.4"/>
      <path d="M282.4,726l5.2-3.5,6.1,5.1-2.6,13.1-9.8-.8Z" transform="translate(41.7 0.8)" fill="none" stroke="#000" stroke-linecap="round" stroke-linejoin="round" stroke-width="9.4"/>
      <path d="M199.2,714.6l5-3.4,5.3,5.4-3.3,13.1-9.1-1.1Z" transform="translate(41.7 0.8)" fill="none" stroke="#000" stroke-linecap="round" stroke-linejoin="round" stroke-width="9.4"/>
      <path d="M121.9,699.3l5.6-3.1,6.1,5.1-3.4,12.3L120,712.4Z" transform="translate(41.7 0.8)" fill="none" stroke="#000" stroke-linecap="round" stroke-linejoin="round" stroke-width="9.4"/>
      <path d="M58.7,678l5.4-2.4,5,5.5-4.4,11.5-9.2-2.2Z" transform="translate(41.7 0.8)" fill="none" stroke="#000" stroke-linecap="round" stroke-linejoin="round" stroke-width="9.4"/>
      <path d="M963.5,711.4s-1.7-14.8,15.5-14c18,.9,15.9,15,15.9,15l-.9,35.7-29.9-.6Z" transform="translate(41.7 0.8)" fill="none" stroke="#000" stroke-linecap="round" stroke-linejoin="round" stroke-width="9.4"/>
      <path d="M1031.2,714s-1.7-14.8,15.5-14c18,.9,15.9,15,15.9,15l-.9,35.7-29.9-.6Z" transform="translate(41.7 0.8)" fill="none" stroke="#000" stroke-linecap="round" stroke-linejoin="round" stroke-width="9.4"/>
      <path d="M1099.1,712.7s-1.7-14.8,15.5-14c18,.9,15.9,15,15.9,15l-.9,35.7-29.9-.6Z" transform="translate(41.7 0.8)" fill="none" stroke="#000" stroke-linecap="round" stroke-linejoin="round" stroke-width="9.4"/>
      <path d="M1168.2,713.3s-1.7-14.8,15.5-14c18,.9,15.9,15,15.9,15l-.9,35.7-29.9-.6Z" transform="translate(41.7 0.8)" fill="none" stroke="#000" stroke-linecap="round" stroke-linejoin="round" stroke-width="9.4"/>
    </g>
    <g id="Outline">
      <rect x="39.9" y="0.8" width="1327.9" height="927.3" fill="none" stroke="#000" stroke-miterlimit="10"/>
      <path d="M-15,489c5-2.5,9.5-6.5,15-7.9,1.5-.4,3.3.4,4.7,0,4.6-1.1,8.8-4.4,13.5-5.5,3.9-1,9.5,0,13.5,0,6.3,0,13.6-1,19.8,0,1.4.2,2.6,1.3,4,1.6,3.3.7,7.3,0,10.3-.8,3.7-.9,8.1.8,11.9,0a89.34,89.34,0,0,0,12.7-4c2.9-1.2,5.7-4.2,8.7-5.5,5-2.1,13.3-2.3,17.4-4.7s7.5-5.8,11.1-8.7c3.2-2.6,7.1-3.4,10.3-5.5,8.8-5.9,17.2-9.8,27.7-11.9,4.4-.9,8.7.6,12.7,1.6,2.6.6,6,0,8.7,0,9.7,0,20.5-2.7,30.1-.8,7.9,1.6,16,4.4,23.7,6.3,7,1.7,14.4,2.2,21.4,4,5.5,1.4,11.9-1.1,17.4,0,9.7,1.9,19.8,1.6,29.3,4,2.7.7,6.1-.9,8.7,0,3.1,1,4.3,4.3,6.3,6.3.5.5,12.3,6,13.5,6.3,2.6.6,5.3-.8,7.9-.8,5.3,0,6.4,1.2,11.1,2.4,3.3.8,6.3-1.6,9.5-1.6" transform="translate(41.7 0.8)" fill="none" stroke="#000" stroke-linecap="round" stroke-linejoin="round" stroke-width="9.4"/>
      <path d="M462.1,443.9c21.5-7.2,43.9-1.6,65.7.8,3.4.4,6.8,2,10.3,2.4,6.3.7,13,.6,19,3.2,9.2,3.9,16,13.8,26.1,15.8,4.8,1,10.2-.2,15,.8,5,1,11.2,2.9,16.6,1.6,4.5-1.1,11.9-2,16.6-.8,3.7.9,7.2,2.4,11.1,2.4" transform="translate(41.7 0.8)" fill="none" stroke="#000" stroke-linecap="round" stroke-linejoin="round" stroke-width="9.4"/>
      <path d="M-31.2,211.3c-.8,0-1.8-.6-2.3,0-.4.4,1,.8,1.6.8,3.2,0,7.8-2,10.9-3.1,7.5-2.8,14.6-3.9,22.5-4.7,10.2-.9,20.2,0,30.3,0,2.6,0,8.6-1.2,10.9,0,1.3.7,1.9,2.2,3.1,3.1,6.1,4.6,9.4,5.7,17.1,3.1,14.1-4.8,26.1-15,41.1-17.1,4.2-.6,8.4.3,12.4.8,7.9,1,17.7.7,25.6,0,12.2-1,24.2-3.2,36.5-2.3,7,.5,13.4,2.8,20.2,3.9,12.9,2.1,25.9,1.9,38.9,3.1,8,.7,15.4,4.3,23.3,5.4,8.1,1.2,18.4-1,25.6-4.7,4.4-2.2,8.2-4.8,13.2-5.4,14.9-1.9,30.7-.8,45.9-.8,4.7,0,10.1.8,14.8,0,11.6-1.9,25.4-4.6,37.3-3.1,3.4.4,6.6,2.6,10.1,3.1,7.9,1.1,16.2,1,24.1,2.3,22,3.7,44.1,7.5,66.8,5.4,16.1-1.5,33-.4,49-3.1,10.1-1.7,22.2-4.8,32.6-3.1,6.5,1.1,14.6-.8,21,.8,15.7,3.9,32.9.1,49,1.6,6.2.6,11.9,2.4,17.9,3.9,5,1.2,9.8.4,14.8.8,6.9.6,14.1,1.5,21,.8,17.1-1.9,33.6-4,50.5-7.8,10.1-2.2,19.4-6.9,29.5-8.5,13.9-2.3,28.4-1.3,42-4.7,2.1-.5,4.1-1.8,6.2-2.3s9.7-10,11.7-9.5c5,1.2,12.2-1.8,17.3-1.8,5.3,0,14.9,10.1,16.8,12.2" transform="translate(41.7 0.8)" fill="none" stroke="#000" stroke-linecap="round" stroke-linejoin="round" stroke-width="9.4"/>
      <path d="M807.7,209.7c10.9-10.9,34.7-29.3,51.3-31.4,7.4-.9,13,3.3,19.9,4.2,5.7.7,11.2-.3,16.8-1,7.3-1,15.7,0,23,0,6.3,0,13.7-1,19.9,0,6.4,1.1,12.5,4.3,18.8,5.2,3.8.5,7.7.6,11.5,1,21.7,2.7,44.3-2.2,66,0,5.9.6,12.5,3.6,17.8,6.3,3.3,1.7,5.6,5.5,9.4,6.3,9.8,2,19.9-6,29.3-7.3,18.1-2.6,37.3,2,55.5,0,17.2-1.9,34.1-5.6,51.3-7.3,9.9-1,19.6-3.8,29.3-5.2,14.4-2.1,29.1-2.1,44-2.1,9.8,0,19.9-.5,29.3,1,9.2,1.5,19.1-1.5,28.3,0,3.3.5,6.5,2.7,9.4,4.2" transform="translate(41.7 0.8)" fill="none" stroke="#000" stroke-linecap="round" stroke-linejoin="round" stroke-width="9.4"/>
      <path d="M841.2,304c6.3-12.6,25.4-9.9,36.7-10.5,30.7-1.6,61.3-3.1,92.2-1,8.1.5,17.5,3.1,25.1,5.2,5.6,1.6,10.8,4.6,16.8,5.2a134.67,134.67,0,0,0,22,0c9.7-.7,19-2.9,28.3-5.2,11.9-3,24.8-3.4,36.7-7.3a254.52,254.52,0,0,1,31.4-8.4c5.2-1,10.5-3.4,15.7-4.2,12.7-1.8,25.1-.8,37.7,1,4.5.6,9.2-.6,13.6,0,8.9,1.3,16.2,6.2,25.1,7.3,8.2,1,16.9-1.2,25.1,0,3.5.5,6.1,3.5,9.4,4.2,8.8,1.8,18.4.3,27.2,2.1,6.3,1.3,12.7,3.8,18.8,6.3,2,.8,4.2,2.7,6.3,3.1,5.7,1.1,11.7-2.6,16.8,0" transform="translate(41.7 0.8)" fill="none" stroke="#000" stroke-linecap="round" stroke-linejoin="round" stroke-width="9.4"/>
      <path d="M1132.2,241.5c-.3-.2-1.5-.5-1.1-.5,1.6-.2,3.2.1,4.8,0,1.4-.1,2.8-.3,4.3-.5,4.3-.7,8.5-1.6,12.8-2.1,15-1.8,32.3-2,46.9,2.1" transform="translate(41.7 0.8)" fill="none" stroke="#000" stroke-linecap="round" stroke-linejoin="round" stroke-width="9.4"/>
      <path d="M-6.8,344.9c-5-3.2,42.8,13.4,46,12.4,7.9-2.5,15.8-5.2,23.8-7.2,13.3-3.3,28.6-.1,42.2-2.1,12.7-1.9,25.6-6.2,38.6-5.5,12.8.7,28,7.3,40.3,5.7,14.4-1.9,26.7-10.5,39-17.5,10.5-6,27.2-7,37.8-12.7,14.1-7.6,15.3-30.3,31.6-31.6,11.7-1,31.8,11.8,43.3,11.5,6.6-.2,13.6-.9,20.2-1.7,24.5-2.7,48.6-12.8,73.5-13.5,38.5-1,77.7,7.5,115.2,15.4,11.5,2.4,23.8,2.8,35.5,4.1,2.9.3,8.2-.2,10.8,1.3,7.1,3.9,12.3,10,20.6,12.4,9.2,2.6,19.7.3,28.9.4,8.4,0,16.1,3.7,24.5,3.8,6.7.1,13.4-.8,20.1-.7,7.3.1,14.7,1.7,21.6,3.5,8.7,2.3,18,1.1,26.7,2.1,4.5.5,10.2,2.1,14.8,1.7,5.9-.5,11.4-2.5,17.3-3,5.1-.4,10.7,2.5,15.8,1.8,3.8-.5,6.9-4.2,10.4-3.8" transform="translate(41.7 0.8)" fill="none" stroke="#000" stroke-linecap="round" stroke-linejoin="round" stroke-width="9.4"/>
      <path d="M302.3,364.9c.4-.6.6-1.5,1.2-1.9,6.5-3.5,12.9-7.7,20.1-9.7a235.83,235.83,0,0,1,40.8-7.3c16.6-1.5,33.4-1,50.1-1.2,7.5-.1,16.2,1.4,23.7,2.7,17,3.1,33.6,6.6,51.1,7.9,14.9,1.1,30-.1,45,.2,9.3.2,18.6.3,28,.2,12.8,0,25.3.2,27.2,15.2" transform="translate(41.7 0.8)" fill="none" stroke="#000" stroke-linecap="round" stroke-linejoin="round" stroke-width="9.4"/>
      <path d="M-1.8,401.5c6.7-5.3,15.5-3.4,23.4-3.3,24.1.5,48.5,4.6,72.4,4.4,25.3-.2,49.3-9,73.6-14.4,13.8-3.1,28.3-3,41.8-7.1,10.8-3.3,21.4-7,32.2-10.3,11.8-3.5,22.4-9.4,34.9-7.9" transform="translate(41.7 0.8)" fill="none" stroke="#000" stroke-linecap="round" stroke-linejoin="round" stroke-width="9.4"/>
      <path d="M71.6,622.1c0-8.1,3.7-11.1,7.8-17.7,4.8-7.7,12.1-17,21.9-18.4,3.8-.5,5.8,2.2,8.5,4.2s6.9,1.7,9.9,1.4c7.2-.7,13.6-5.2,20.5-7.1,6.3-1.7,12.8-2.1,19.1-3.5,19.9-4.4,31.4-27.6,52.4-29.7,13.2-1.3,21.1,6.8,33.3,8.5,10.3,1.5,18.8-7.4,29-5.7,2.9.5,4.3,2.5,6.4,4.2,2.8,2.3,7.6,3.3,9.9,5.7,3.5,3.5,7.1,7.2,12,9.2,19.6,7.9,42.3,10.5,59.4,23.4,2,1.5,4.6,1.7,6.4,3.5s2.4,5.2,4.2,7.1,5.8,2.7,6.4,5.7c.5,2.6-1.3,7.9.7,9.9,3.2,3.2,4.4,7,7.1,10.6,4.7,6.3,11.6,9.4,17,14.9,1.7,1.7,2.9,4.1,5,5.7,1.7,1.3,3.1.3,5,.7,6.2,1.2,11.3.7,17.7.7,15.8,0,25.3-.2,36.8,11.3,3.5,3.5,7.8,7.3,7.8,13.1" transform="translate(41.7 0.8)" fill="none" stroke="#000" stroke-linecap="round" stroke-linejoin="round" stroke-width="9.4"/>
      <path d="M584.3,681.4a78.3,78.3,0,0,1,4.9-10.1c3.8-5.7,12-7.5,18.3-8.6,4-.7,8.1-1.8,12.2-1.4s8.5,1.8,12.6,1.1c3.1-.5,5.8-2.8,8.6-4,3.8-1.6,7.7-3,11.5-4.3,3.6-1.2,7.6.4,11.2-1.8,6.3-3.9,11.3-10.2,18.7-12.2,4.4-1.2,8.6.7,13,.7,6.4,0,12.7-1.4,19.1-2.2,5.3-.7,10.1-4.3,15.1-6.1,7.6-2.7,16.9-2.7,24.8-3.6,3.1-.3,6.3.5,9.4,0s6.4-2.5,9.7-1.8c6.2,1.2,10.9,6.9,16.5,8.3,2.8.7,6.3-.5,9,.4,2.2.7,3.5,3,5.8,3.6,2.9.8,6.3-.2,9,.7a27,27,0,0,0,4,1.4c1.7.4,1,3.2,2.2,4.3,0,0,10.1,3.6,10.8,3.6" transform="translate(41.7 0.8)" fill="none" stroke="#000" stroke-linecap="round" stroke-linejoin="round" stroke-width="9.4"/>
      <path d="M455.5,655.3c-.1-.3-.1-.9-.4-.9s-1.3.9-.9.9c1.2,0,5.3-7.8,6-9,4.7-7.7,13.3-18,23-18.8,6.3-.5,15.3,5,20.5,2.1,4.6-2.6,6.2-8,8.5-12.4,6.2-11.7,14.5-25.8,28.6-29,3.8-.9,7.9.9,11.5.4,3-.4,5.5-3.2,8.5-3.8,5.8-1.3,13-.7,18.8.4,7.6,1.5,14,5.9,21.3,8.1,6.1,1.8,12.6,2.1,18.8,3,2,.3,2.9,2.6,5.1,2.6,4,0,7.3-5.7,11.9-3.4,2.8,1.4,6,6.7,6.4,9.8.3,2.2-1.1,3.9,1.7,4.7s5.3-1,7.7-1.7c5.2-1.6,10.2-4.5,15.8-5.1,3.6-.4,6.3,1.4,9.4,3,5.5,2.7,11.5,5.9,17.9,5.1,3.5-.4,7-2.1,10.2-3.4,7.5-3.1,15.1-5.7,23-6.8,5-.7,13.2,1.8,17.1,5.1,1.3,1.1,2.3,3.4,3.8,4.3,2.5,1.4,5.6-.2,8.1,1.7,3.5,2.6,3.3,5.4,6,8.1,1.5,1.5,5.8,4.9,7.3,6.4" transform="translate(41.7 0.8)" fill="none" stroke="#000" stroke-linecap="round" stroke-linejoin="round" stroke-width="9.4"/>
      <path d="M653.7,607.5c-.3.3-.8,1.2-.9.9-.6-3.4-.4-9.1-.4-12.8,0-7.9,4.2-11.7,11.9-11.1,8.5.7,19.1,7.3,27.3,6.4,4.4-.5,9.2-5,12.8-7.2a84.56,84.56,0,0,1,8.5-4.3c3.9-1.7,8-2.8,11.9-4.3,4.6-1.8,9.2-4.1,14.1-5.1,7.1-1.4,15.3-2.3,21.7-6,2.1-1.2,4-3.2,6-4.7s5.4-2.4,7.2-4.3c2.5-2.5,5.2-6.9,9-7.7,8.8-1.8,12,5,19.6,7.2a45.7,45.7,0,0,0,7.2.9,124.77,124.77,0,0,0,25.2-.4c3.6-.4,6.4,1.8,9.8,1.3,2.1-.4,3.6-2.1,5.5-3a28.11,28.11,0,0,1,14.9-1.7c3.7.7,7,3.4,10.7,4.3,4.3,1,13.9-.3,17.1,2.1,3.7,2.8,1,4.7,1.7,8.1,1.1,5.5,5.6,10.7,6.4,16.2.5,3.8-2.4,9.1,2.3,11.5" transform="translate(41.7 0.8)" fill="none" stroke="#000" stroke-linecap="round" stroke-linejoin="round" stroke-width="9.4"/>
      <path d="M321.8,577.2c5.7-11.4,24.5-29,38.3-30.8,8.7-1.1,12.6,4.2,19.5,8.2,4.2,2.4,13.4,3.8,18.2,3.1,3.3-.5,4.9-2.7,7.5-4.4a35.39,35.39,0,0,1,13.2-5c4.3-.6,9.6,2.4,13.8,3.1,3.2.5,6.8-.6,10.1,0,8.7,1.7,17.7,2.3,26.4,3.8,3.8.6,8.2-.9,11.9,0,2.1.5,4.1,2.5,6.3,2.5,1.9,0,4.2-2.9,5.7-3.8,3.9-2.3,11.1-4.3,15.7-3.1,1.8.5,2.8,3.2,4.4,4.4,2.1,1.6,5.7,1.9,7.5,3.8,1.5,1.5,2,3.7,3.8,5,3.2,2.4,7.2,4.1,10.1,6.9.9.9,1.1,2.7,1.9,3.8,2.1,2.8,5.8,1.6,6.7,5.3.3,1.2,4.9,2.2,5.2,3.4.4,1.5,3.4,3.9,3.4,5.6" transform="translate(41.7 0.8)" fill="none" stroke="#000" stroke-linecap="round" stroke-linejoin="round" stroke-width="9.4"/>
      <path d="M523.4,564c-3.7-7.4,9.4-11.8,15.1-13.8,16.5-5.9,32.3.7,49-3.1a119.71,119.71,0,0,0,28.9-11.3c6.1-3.3,11.7-7.7,18.2-10.1,3.3-1.2,10.4-2.4,13.8-1.3,3.7,1.2,4.8,5.2,9.4,4.4,2.8-.5,4.7-2.9,6.9-4.4a45.15,45.15,0,0,1,14.4-6.3c10-2.3,20.2.5,30.2,1.3,4.4.3,8.8.3,13.2.6,3.9.3,8.2,1.2,11.3,3.8,1.9,1.6,3.1,3.3,5.7,3.8,5.7.9,11.5-3.9,17-2.5,3.4.9,7.1,10.5,11.3,12.6,2.7,1.3,6.9,1,9.4,2.5a16.75,16.75,0,0,0,5,2.5c2.3.5,7.1-.5,8.8,1.3,2,2,12.4,9.3,10.4,10.3" transform="translate(41.7 0.8)" fill="none" stroke="#000" stroke-linecap="round" stroke-linejoin="round" stroke-width="9.4"/>
      <path d="M729.1,521c-1.3,2.7.5-1,.5-1,2.6-3.1,5.4-6,8.1-9,3.1-3.5,6.6-6.3,10-9.5,4.7-4.4,8.2-5.3,13.8-7.6s10.9-5.6,16.6-7.6c6.5-2.3,13.7-3,20.5-3.8a93.2,93.2,0,0,0,22.8-5.2c9.4-3.5,16.3-11.2,26.2-14.7,11.5-4.2,22.3-.4,34.2-1.4,5.4-.5,10.3-4.1,15.7-5.2,4.5-1,8.8-.5,13.3-1,4.7-.4,9-2,13.8-1.4s5.8,7.7,9.5,10c1.6,1,3.7,1.1,5.2,2.4,2.6,2.1,4.1,4.6,7.6,5.2,3.7.6,8-1.1,11.4,1,3.2,1.9,5.2,6.3,8.6,8.6,2.8,1.9,6.1,4.1,9.5,4.8,1.7.3,4.7.5,6.2,1.4,1.3.8,1.4,3.1,1.9,4.3.8,1.9,4.5,5.4,6.2,6.7,5.4,4,11.4,3.9,11.4,11.9" transform="translate(41.7 0.8)" fill="none" stroke="#000" stroke-linecap="round" stroke-linejoin="round" stroke-width="9.4"/>
      <path d="M1243.4,689.1c2.4-4.8,4.6-9.3,6.8-14.2,2-4.5,3.9-9,6.1-13.5,9.7-20.2,24.4-11.7,41.8-14.2,2.7-.4,7.5-2.1,9.4-4,3.1-3.1,5.1-8.6,10.8-6.7,3.1,1,4.4,4.3,6.8,6.1,1.9,1.5,8.3,1.3,10.8,1.3" transform="translate(41.7 0.8)" fill="none" stroke="#000" stroke-linecap="round" stroke-linejoin="round" stroke-width="9.4"/>
      <path d="M1163,586.7c-1.5-3.1,12.8-4.1,14.3-7.6,2.6-6,2.5-12.6,3.4-18.9.7-5.2,4.4-10.8,7.4-14.8,2.5-3.4,7-4.4,10.1-6.7s6.5-4.6,10.8-3.4c3.9,1.1,7.8,3.8,11.5,5.4,7.5,3.2,15.2,5.5,22.9,8.1,5.9,2,12.6-.2,18.2,2s6.1,8.5,11.5,10.8c6.8,2.9,15.5-1.2,21.6,3.4,2.6,2,2.6,5.3,5.4,7.4,3.6,2.7,9.3,2.7,12.8,5.4,1.9,1.4,1.8,6.1,2,8.1.5,3.8,3.2,12,6.1,14.8,3.4,3.4,11.8,1.2,16.2,2.7" transform="translate(41.7 0.8)" fill="none" stroke="#000" stroke-linecap="round" stroke-linejoin="round" stroke-width="9.4"/>
      <path d="M1126.1,539.6c1-3.1,5.5-10.5,7.3-13.1,2.4-3.6,8.2-7.5,11.5-10.1,7.6-6.2,17.6-11.9,27.7-12.8,6.9-.6,14-.8,20.9-2,7.2-1.3,15.6-5.1,22.9-4,3.5.5,7.2,3.6,10.1,5.4,5.6,3.3,5.7,3.7,9.4,8.8.8,1,2.2,1.5,2.7,2.7,1.2,3,.7,6.9,1.3,10.1.8,4.2,4.5,8.8,6.1,12.8s3.1,7.2,5,11" transform="translate(41.7 0.8)" fill="none" stroke="#000" stroke-linecap="round" stroke-linejoin="round" stroke-width="9.4"/>
      <path d="M1208.9,497.3c-11.8-3.9,8.8-18.6,13.6-23.4,7-7,20.7-7,29.7-8.1,5.4-.7,10.6-3.1,16.2-2,6.3,1.3,12.1,7.5,17.5,10.8,10.7,6.4,24.1,9.3,33.1,18.2,3.2,3.2,2.4,9.4,6.1,12.1,3,2.2,7.4,1.6,10.8,2.7" transform="translate(41.7 0.8)" fill="none" stroke="#000" stroke-linecap="round" stroke-linejoin="round" stroke-width="9.4"/>
      <path d="M1168.2,504c1.9-5.8-.2-3.7,2.3-9.9,2.6-6.4,5.8-12.6,8.8-18.9,4.3-8.9,9.2-19.9,16.2-27,1.5-1.5,4.4-2.9,6.1-4,5.5-3.9,10.7-8.6,16.9-11.5,5.4-2.5,10.5-2.7,16.2-3.4,6.5-.7,13.1-2.5,19.6-3.4,9.8-1.4,17-8.9,27-10.1,3.9-.5,7.5.2,11.5-.7,3.6-.8,8.4-3.3,12.2-2.7,7.5,1.2,16.5,2.6,24.3,1.3,2.7-.5,4.6-2,7.4-2" transform="translate(41.7 0.8)" fill="none" stroke="#000" stroke-linecap="round" stroke-linejoin="round" stroke-width="9.4"/>
      <path d="M972.2,484c1.8-3.5,6.2-6.3,8.8-8.8,7.5-7.1,14.9-14.4,22.3-21.6,2.3-2.2,5-4,7.4-6.1,11.8-9.8,21-23,33.7-31.7a80.55,80.55,0,0,1,8.8-4.7c5.8-2.1,11.2-.3,16.9-4,4.2-2.8,8-6.7,12.8-8.8,6.3-2.7,12.5-4.8,18.2-8.8,5.9-4.1,10.9-9.6,18.2-11.5,7.1-1.8,13.9-.2,20.9-1.4,8.2-1.4,15.6-5,24.3-4,2.7.3,21.9,11.9,23.6,14.2,2.3,3,2.3,7.1,4.7,10.1,1.9,2.4,4.8,3.4,6.8,5.4,2.6,2.6,2.4,7.1,5.4,9.4,1.2,1,4.4,1.8,5.4,2.7,1,1.1,1.5,4.9,2,6.1,1.4,3.4,4.3,8.8,4.8,12.9" transform="translate(41.7 0.8)" fill="none" stroke="#000" stroke-linecap="round" stroke-linejoin="round" stroke-width="9.4"/>
      <path d="M1190.4,391.4c-1.4-6.5,4.8-10.9,9.2-14,10.3-7.1,23-14.4,35.8-15.5,4.3-.4,8.6.2,12.8.7,6.4.6,12.5.2,18.9,1.3,5,.9,9.7,2.9,14.8,3.4,5.6.6,13.5-1.8,18.9,0,2.1.7,3.5,4.3,5.4,5.4,1.3.8,3.6.9,4.7,2,1.3,1.3,2.9,3.8,4.7,4.7,2.7,1.3,6,1.6,8.8,2.7.9.4,1.2,1.6,2,2,2.2,1.1,7.7-.7,10.1-.7" transform="translate(41.7 0.8)" fill="none" stroke="#000" stroke-linecap="round" stroke-linejoin="round" stroke-width="9.4"/>
      <path d="M915.4,454.2c0-7.3,2.7-20.3,9.5-24.2,3.5-2,7.3.3,10.8.7,5.4.6,13.5,1.1,18.9,0,4.5-.9,8.8-6.1,13.5-6.1s7.1,4.2,12.1,2c3.9-1.7,4.4-6.6,8.8-8.1,2.5-.8,4.3-.2,6.7-.7,8.3-1.7,13-8.1,22.3-6.7,3.7.5,7.1,2.8,10.8,3.4,1.8.3,4.4-.7,6.1,0,2,.8,7.3.6,8.2,2.4" transform="translate(41.7 0.8)" fill="none" stroke="#000" stroke-linecap="round" stroke-linejoin="round" stroke-width="9.4"/>
      <path d="M-32.7,552.4c1.7-3.9,1.1-7.1,4-10.6,10.7-13.2,30.3-17,45.8-20.7,7.8-1.8,18.3-4.7,24.7,2.3,8.9,9.6,7.8,23.3,11.7,35,1.5,4.5,3.8,11.8,10,10.9,8-1.2,14.3-14.1,17.8-20.3,6-10.5,14-17.4,24.1-23.7,10-6.1,24-9.5,35.8-9.6,4.6,0,11.5,1.5,15.9.5,10.5-2.4,20.4-27.6,31.9-21.9,8.5,4.1,11.6,20.6,17.4,27.5,2,2.5,5.5,6.9,6.2,7,.3,0,5.5-6.5,10.4-3.4,1.2.7,1.7,5,2.4,6.2,4.6,7.5,3.8,12.8,3,21.4" transform="translate(41.7 0.8)" fill="none" stroke="#000" stroke-linecap="round" stroke-linejoin="round" stroke-width="9.4"/>
      <path d="M222.9,525.7c-1.7-.2,3.1-9.5,4-10.9,1.6-2.6,10-5.5,12.6-6.8,14.7-7.4,24.8-12.8,40.2-3.2,1.6,1,3.4,6,4.4,6.4,2.1.9,4.5-3.5,5.4-4.5,3.7-3.8,9.4-10.2,14.9-10.6,9.9-.7,15.9,7.3,25,9.3,8.9,2,16.6-4.7,24.2-2.7,5.7,1.5,1.2,11.3,4.6,14.4,4,3.6,13.1-2.8,16.8,1.6,2.6,3.2,2.6,8.9,4.8,12.4s5.5,6.2,6,10.5c.3,2.4-.5,4.9,1.3,7.1,2.4,2.9,3.6,5.6,5.1,9.4" transform="translate(41.7 0.8)" fill="none" stroke="#000" stroke-linecap="round" stroke-linejoin="round" stroke-width="9.4"/>
      <path d="M-33.3,840.1c-4.3-2.7,6.4-10,8.8-12.8,5.5-6.5,10.5-13.6,16.8-19.4,9.1-8.4,19.4-15.5,29.1-23.2,4-3.2,8-3.8,12.5-5.8,5.1-2.2,9-5.3,14.6-6.6,10.9-2.5,19.3,2.3,29.7,1.8,6.7-.3,13.4-.8,20-1.1,11.4-.6,20-8.9,30.9-11.1,5.6-1.1,12.3-1.6,18-.3,4.6,1,5.9,3.5,10.6,4,19.9,1.9,39.7,5.7,57.4,15.3,6,3.3,12.7,3.7,18.2,7.7,3.6,2.6,6.2,7.5,9,10.8,2.4,2.9,7,4.1,9.3,6.9,4,4.8,4.5,10.7,7.5,15.7,1.7,2.7,3.5,5.1,4.2,8.4.6,2.7.3,5.5,1.2,8.1s4.8,5.3,6.3,7.6c4.2,6.4,12.1,15.1,14.9,16.1" transform="translate(41.7 0.8)" fill="none" stroke="#000" stroke-linecap="round" stroke-linejoin="round" stroke-width="9.4"/>
      <path d="M244.5,801.6c1.6-1.7,7.2-1.8,9.9-3.2,15.1-8.2,39.9-14.2,56.5-7.7,12.8,5,22,14.1,36.6,13.4,21.5-1.1,41.6-10.9,63.5-7,5.1.9,12.8,4.4,16.2,8.5,2.2,2.6,4.4,6.6,8.3,7.7,6.2,1.8,13.8.9,19.6,3.8,12.2,6.3,24,14.7,32.6,25,1,1.3,3.9,3,4.6,4.4,1.1,2.3.4,6,2.2,8.2,2,2.5,5.4,3.2,7.4,5.7,2.7,3.2,3.5,6.4,6.1,9.5" transform="translate(41.7 0.8)" fill="none" stroke="#000" stroke-linecap="round" stroke-linejoin="round" stroke-width="9.4"/>
      <path d="M491.7,844.8c5.1-.9,12.8-3.6,17.9-4.7,20.3-4.2,41.5.5,61.4-6.2,13.7-4.6,26.4-11,39.5-17.3,3-1.4,8.1-5.1,11.5-5.9,1.9-.5,3.9.6,5.9.6,5.4-.3,3-1.5,9-.2,3.3.7,2.8,1.8,5.7,3.5,4.1,2.6,9,3.3,13.6,4.3,3.3.7,4.3,2.3,7.8,1.7,7.9-1.2,15.1-4.7,23.4-4.8,7.5-.1,14.5,1.1,22-.9,6.7-1.8,12.5-3.7,19.3-4.2,7.7-.6,15.8-6.3,22.9.1,7.8,7.1,9.7,22.1,14,31.2a24,24,0,0,1,3,10.3c.8,7.7,6.9,10.9,3.2,19.2" transform="translate(41.7 0.8)" fill="none" stroke="#000" stroke-linecap="round" stroke-linejoin="round" stroke-width="9.4"/>
      <path d="M758.9,823.1c1.1-2.6,2.9-3.4,5-5.2,7.6-6.3,15.5-10.8,25.7-8.6,6.4,1.4,16,6.5,20.9,10.9,1.7,1.6,3.1,3.8,5.6,4.5,3.9,1.2,6.1,1.3,9.6,3.9,2.6,1.9,7.8,6.2,8.1,9.7.4,5.8-3.2,17.9-3.8,21.4" transform="translate(41.7 0.8)" fill="none" stroke="#000" stroke-linecap="round" stroke-linejoin="round" stroke-width="9.4"/>
      <path d="M809.3,817.2c.4-4.8,7.5-10.3,10.7-12.9,9-7.5,19.7-11,31.1-13.1,6-1,14.1-2.9,20-1.1,3.4,1,6,4.5,8.3,6.8,5.8,5.6,10.4,7,18.2,7.7,3.7.3,2,.6,5-.5" transform="translate(41.7 0.8)" fill="none" stroke="#000" stroke-linecap="round" stroke-linejoin="round" stroke-width="9.4"/>
      <path d="M864.6,851.5c2.3-5.2,1.9-7.9,4.1-12.8,3.7-8.4,8-16.6,12.3-24.8a7.88,7.88,0,0,1,2.3-2.8c3-2,7-.8,10.2-2,5-1.9,10.2-5.2,15.5-5.5,2.6-.2,5.3.9,7.9.7,6.5-.3,12.7-4,19.3-4.2,5.6-.2,11.2,1.7,16.8,1.6,7.1-.2,14.3-3.5,21.3-4a61.72,61.72,0,0,0,17.3-3.4c4.1-1.6,8.7-3.4,13.3-3.7,6.5-.5,13.3,2,19.8,1.8,8.3-.3,16.7-1.4,25.1-1.7,3.6-.1,7.3,1.2,10.9,1,2.7-.1,5.4-1.2,8.1-1.2,10.7-.1,22,2,32.6,3,6.1.6,12.8.4,18.8,1.7,3.4.8,6.3,3.1,9.6,3.9,8.5,2,17.1,3.4,25.2,7.3,7.5,3.6,16.7,9.2,22.5,15.1,2.2,2.2,2.2,6.5,4.2,8.4,1.6,1.5,4,2,5.6,3.5,5.3,5.1,9.7,14,12.7,16.4" transform="translate(41.7 0.8)" fill="none" stroke="#000" stroke-linecap="round" stroke-linejoin="round" stroke-width="9.4"/>
      <path d="M1153.6,805.3c-2.2,3.8,12.7-8,17.5-10.1,8.2-3.6,16.6-6.7,24.9-10.1s18.7-8.7,28-6c7,2,12.4,11.6,19.4,11.4,5.3-.1,6.3-4.1,9.7-7.3s9.2-6.2,13.5-8c3.6-1.5,5.1-1,8.8-1.2,1.4-.1,5.9-2.5,6.6-2.8a32.23,32.23,0,0,1,12.6-1.9c4.7.1,10.4,1.1,14.9-.4,5.8-1.9,11.9-11.1,19.4-5.9,1.8,1.3-.6,8.9,5.6,13.1" transform="translate(41.7 0.8)" fill="none" stroke="#000" stroke-linecap="round" stroke-linejoin="round" stroke-width="9.4"/>
      <path d="M1135.3,950.3c-2.3-4.7,1.9-12.9,3.1-17.5,2-7.4,3.7-14.7,7.2-21.6,2.5-5,5.6-9.8,8.1-14.8,4.6-9.2,9.8-18.1,17.5-25.2,4.1-3.7,8.7-6.5,13-9.9,3.1-2.4,6.1-6.1,9.4-8.1,1.5-.9,4.2-1,5.4-2.2,1.4-1.4,2.5-4.1,4.5-4.9,3.9-1.6,8.4-4.4,12.6-5.8,5.1-1.7,10.6-2.1,15.7-3.6,5.5-1.7,11.1-3.3,16.6-4.9,10.2-3.1,20.3-6.8,30.6-9.9,6.8-2,14.6-2.4,21.6-3.1,11.4-1.3,22.7-6.7,34.2-6.7,2.9,0,7.7-.9,10.3.5" transform="translate(41.7 0.8)" fill="none" stroke="#000" stroke-linecap="round" stroke-linejoin="round" stroke-width="9.4"/>
      <path d="M1160.1,882c-1.8,3.6-5.4.7-7.6-.9-4.8-3.5-9-7.9-13.9-11.2-13.4-8.9-28.8-10.8-44.5-10.8-24.1,0-47.8-6.5-71.9-4.5-14.7,1.2-29.7,4.8-44.5,4-8.7-.4-17-2.7-25.2-5.4-3.8-1.3-7.8-3.3-11.7-4a93.85,93.85,0,0,0-13-1.3c-3.1-.2-7.4-.2-10.3.9-3.4,1.3-6.2,4-9.9,4.5-2.8.4-7.3-5.9-11.2-6.7s-14.7.1-18.4,1.3c-2.3.8-3.6,3.1-5.8,4-3.1,1.3-6.2-.7-9.4,0s-4.3,3.8-6.3,5.8" transform="translate(41.7 0.8)" fill="none" stroke="#000" stroke-linecap="round" stroke-linejoin="round" stroke-width="9.4"/>
      <path d="M856.1,857.4c-2-.3-1.5-1.2-4.1-1.1s-5.4,1.4-7.7,2.2c-2.7.9-5.9.9-8.4,2.6-8.9,6.4-15.5,16.8-21.7,25.5-1,1.4-3,2.4-4,3.9-3.3,4.6-7.2,10.8-8.8,16.2-1,3.2-1.1,6.7-2.1,9.9-1,2.9-3.6,5-4.7,7.8-1.8,4.9,1.1,7.5-4.5,10.1" transform="translate(41.7 0.8)" fill="none" stroke="#000" stroke-linecap="round" stroke-linejoin="round" stroke-width="9.4"/>
      <path d="M917.8,945.8c.9-5.5,5.6-9.5,8.5-14,5.2-8,8.4-17.6,15.8-24.2,6.4-5.7,20-15.5,28.8-17,4.7-.8,9.6,1.4,14.2,0,5.3-1.7,8.6-6.4,13.8-8,2.9-.9,6,.2,8.7-.9,7.8-3.1,15.3-12,22-16.9a19.81,19.81,0,0,1,6-3c3.5-.8,3.2.8,6.8.5,1.8-.2,3.7,1,5.5.9,3.9-.3,7.3-4.5,9.8-4.7,2.7-.2,7.4-1.8,9.9-1.4" transform="translate(41.7 0.8)" fill="none" stroke="#000" stroke-linecap="round" stroke-linejoin="round" stroke-width="9.4"/>
      <path d="M835.7,861.4c-.4,2.2-16-4.6-18.9-5.1-5.3-.9-11,1.2-15.8,3.1-6.1,2.4-13.6,3.2-19.8,6.5-7.4,3.9-13,10-20.8,13.1-4.1,1.6-9.1.1-13.4,1.8a73.49,73.49,0,0,0-18.3,11.3c-1.8,1.6-4,4.7-6,5.8-2.6,1.5-6.2,1.5-8.9,2.5-1.5.6-9.1,10.2-9.9,12-1.6,3.7.1,7.9-1.3,11.7-2.9,7.9-3.1,15.3.9,22.9.9,1.7.1,3.1,1.6,4.2" transform="translate(41.7 0.8)" fill="none" stroke="#000" stroke-linecap="round" stroke-linejoin="round" stroke-width="9.4"/>
      <path d="M703.6,920.5c-2.8,3.8-10.2-12.4-13.5-16.5-8.6-11-17.6-19.7-32.3-20.7-5.4-.4-9.1,2.1-14,3.7-5.5,1.9-13,2.2-17.6,6.2s-6.5,9.9-9.7,14.7c-2,3-4.7,5.4-7,8.1-4.2,5-16.7,15-16.5,22.1.1,3.4,2.7,9.5,4.9,11.9,1.5,1.6,2.6,1.4,3.2,3.7" transform="translate(41.7 0.8)" fill="none" stroke="#000" stroke-linecap="round" stroke-linejoin="round" stroke-width="9.4"/>
      <path d="M616.8,906.5c-2.7-9.1-12.5-15-19.9-20-4.9-3.3-8.9-7.9-14.7-9.7-10.4-3.2-22.5-3.8-33-3.6-6.6.1-13.6,3.7-20.2,3.4-3.3-.1-5.1-2-8.1-3-5.3-1.7-16.6-2.8-21.8-.8-2.3.9-4.4,3.1-6.3,4.4-1.2.9-3,.7-4.2,1.6-3.1,2.2-6.5,4.5-9.9,6.8-8.6,5.9-15.9,14.2-25.3,18.9-3.6,1.8-7.9,6-10.3,9.1-1.1,1.4-1.8,3.9-3.2,4.9-1.7,1.2-2.5,1.3-3.7,3.2-1.7,2.7-3.1,6.2-5.4,8.4s-6.7,4.5-8.3,7.1c-2,3.1,3.7,11.8,6.2,13.6" transform="translate(41.7 0.8)" fill="none" stroke="#000" stroke-linecap="round" stroke-linejoin="round" stroke-width="9.4"/>
      <path d="M444.9,911.5c-3.2.9-9.4-11.6-11.3-13.7-1.2-1.3-3-1.8-4.1-3.1-4.6-5.5-17-16.1-24.1-18.4-6.3-2.1-13-3.2-19.5-5.1-6.9-2-13.8-4.7-21-5.3-7-.6-13.8,2.8-20.8,2.5-4.6-.2-8.5-2.9-12.8-3.1-4.8-.2-9.7,2.2-14.5,2.1-10.7-.1-21.3-5.2-32-5-10.4.2-17.8,8.8-24.7,15.1-3.9,3.6-8.2,6.8-12.1,10.4-4.7,4.4-5.9,12.2-10.1,17-4.4,5-8.2,10.4-12.2,15.8-2.5,3.4-6.7,25.8-4.4,29" transform="translate(41.7 0.8)" fill="none" stroke="#000" stroke-linecap="round" stroke-linejoin="round" stroke-width="9.4"/>
      <path d="M-37,839.5c5.1,4.2,11.8.2,17.7-.1,13.7-.7,27.9-3.7,41.2,1.2,3.2,1.2,6.1,6.8,8.3,9.2,3.1,3.5,5,7.5,7.8,11.1,2.4,3.1,5.7,5.2,7.3,8.9,2,4.8,1.4,10.4,4.9,14.6,6,7.1,18.5,4.1,25.7,10,4.9,4.1,10.1,9.9,9.6,16.7-.3,4.3-1.2,6.9-.5,11.3,1.2,7.8,4.5,14.7,6.3,22.2" transform="translate(41.7 0.8)" fill="none" stroke="#000" stroke-linecap="round" stroke-linejoin="round" stroke-width="9.4"/>
      <path d="M61,888.2c-.4-1.6,2.4-5.3,3.4-6.7,4.7-7,10.5-10.4,17.6-13.6,16.7-7.4,29.1-11.6,47.6-12.9,17.5-1.3,37.3-3.4,54.3,3.1,7.9,3,12.7,11.5,17.8,17.6,4,4.7,7.7,9.9,12.3,14.2,2.4,2.3,7.2,3.4,8.9,6.2,4,6.3,6.8,8,8.7,15.8" transform="translate(41.7 0.8)" fill="none" stroke="#000" stroke-linecap="round" stroke-linejoin="round" stroke-width="9.4"/>
    </g>
    <g id="Colour">
      <path d="M1326.7,642.3v45.1l-29.9,1.6.7,14.5-36,1.7-2.2-13.3-15.5-2,.2-1.6c2.4-4.8,4.5-9.3,6.8-14.2,2-4.5,3.9-9.1,6.1-13.5,9.7-20.2,24.4-11.7,41.8-14.2,2.7-.4,7.5-2.1,9.4-4,3.1-3.1,5.1-8.6,10.8-6.7,3.1,1,4.4,4.3,6.8,6.1A3,3,0,0,0,1326.7,642.3Z" transform="translate(41.7 0.8)" fill="#b2c968"/>
      <path d="M1184.3,698.6c18,.9,15.9,15,15.9,15l-.9,35.7-29.9-.6-.6-36.1S1167.1,697.7,1184.3,698.6Z" transform="translate(41.7 0.8)" fill="#846751"/>
      <path d="M1326.7-.8v179c-8.3-.5-17,1.7-25.1.4-9.4-1.6-19.5-1.1-29.3-1.1-14.9,0-29.5,0-44,2.1-9.8,1.4-19.5,4.3-29.3,5.2-17.2,1.7-34.2,5.4-51.3,7.3-18.2,2-37.4-2.6-55.5,0-9.4,1.4-19.6,9.3-29.3,7.3-3.8-.8-6.1-4.6-9.4-6.3-5.3-2.7-11.9-5.7-17.8-6.3-21.7-2.2-44.3,2.7-66,0-3.8-.5-7.8-.5-11.5-1-6.4-.9-12.5-4.2-18.8-5.2s-13.6,0-19.9,0c-7.4,0-15.7-1-23,0-5.5.8-11.1,1.8-16.8,1.1a18.63,18.63,0,0,1-3.4-.7l2.5-1.6c-1.8-2.1-11.4-12.2-16.8-12.2-5.1,0-12.3,3-17.3,1.8-2-.5-9.5,9-11.7,9.5s-4.1,1.8-6.2,2.3c-13.5,3.4-28.1,2.4-42,4.7-10.2,1.7-19.4,6.3-29.5,8.6-16.9,3.8-33.4,5.9-50.5,7.8-6.9.8-14.1-.2-21-.8-5-.4-9.8.5-14.8-.8-5.9-1.5-11.7-3.3-17.9-3.9-16.1-1.5-33.3,2.4-49-1.6-6.4-1.6-14.5.3-21-.8-10.4-1.7-22.5,1.4-32.6,3.1-16,2.7-32.9,1.6-49,3.1-22.8,2.1-44.9-1.8-66.8-5.4-7.9-1.3-16.2-1.2-24.1-2.3-3.5-.5-6.7-2.7-10.1-3.1-11.9-1.5-25.7,1.2-37.3,3.1-4.6.8-10.1,0-14.8,0-15.1,0-30.9-1.1-45.9.8-5,.6-8.9,3.3-13.2,5.4-7.3,3.6-17.5,5.8-25.6,4.7-7.9-1.1-15.3-4.7-23.3-5.4-12.9-1.2-26-1-38.9-3.1-6.8-1.1-13.2-3.4-20.2-3.9-12.3-.8-24.3,1.3-36.5,2.3-7.9.7-17.7,1-25.7,0-4-.5-8.3-1.4-12.4-.8-15.1,2.1-27,12.4-41.2,17.1-7.7,2.5-11,1.5-17.1-3.1-1.2-.9-1.8-2.4-3.1-3.1-2.3-1.2-8.3,0-10.9,0-10.2,0-20.1-.9-30.3,0l-3.3.3V-.8Z" transform="translate(41.7 0.8)" fill="#4aaae5"/>
      <path d="M1200.4,849.1l.2.1a8.74,8.74,0,0,1-.8,1c-1.2,1.2-3.9,1.4-5.4,2.3-3.3,2-6.3,5.7-9.4,8.1-4.3,3.3-9,6.2-13,9.9a64.64,64.64,0,0,0-9.9,11.7l-1.3-.9c-1.8,3.6-5.4.7-7.6-.9-4.8-3.5-9-7.9-13.9-11.2-13.4-8.9-28.8-10.8-44.5-10.8a241.41,241.41,0,0,1-26.8-1.9c-15-1.7-30-3.8-45.2-2.6-14.7,1.2-29.7,4.8-44.5,4-8.7-.4-17-2.7-25.2-5.4-3.8-1.3-7.8-3.3-11.7-4a112.31,112.31,0,0,0-13-1.4c-3.1-.2-7.4-.2-10.3.9-3.4,1.3-6.2,4-9.9,4.5-2.8.4-7.3-5.9-11.2-6.7s-14.8.1-18.4,1.3c-2.3.8-3.6,3.1-5.9,4.1-2.5,1-4.9,0-7.4-.1v-.3c2.3-5.2,1.9-7.9,4.1-12.8,3.7-8.4,8-16.6,12.3-24.8a8.86,8.86,0,0,1,2.3-2.8c3-2,7-.8,10.2-2,2.6-1,5.3-2.4,8.1-3.5a24.68,24.68,0,0,1,7.4-2c2.6-.2,5.3.9,7.9.7a28.41,28.41,0,0,0,5.7-1c4.5-1.2,9-3.1,13.6-3.2,5.6-.2,11.2,1.7,16.8,1.6,7.1-.2,14.3-3.5,21.3-4a61.72,61.72,0,0,0,17.3-3.4c4.1-1.6,8.7-3.4,13.3-3.8,6.5-.5,13.3,2,19.8,1.8,8.3-.3,16.7-1.4,25.1-1.6,3.6-.1,7.3,1.2,10.9,1,2.7-.1,5.4-1.2,8.1-1.2,10.7-.1,21.9,2,32.6,3,6.1.6,12.8.4,18.8,1.8,3.4.8,6.3,3.1,9.6,3.9,8,1.9,16.2,3.3,23.9,6.7,0,.1.1.2.3.2a3.13,3.13,0,0,1,1,.5c7.5,3.6,16.7,9.2,22.5,15.1,2.2,2.2,2.2,6.5,4.2,8.4,1.6,1.5,4.1,2,5.7,3.5C1193,837.8,1197.4,846.7,1200.4,849.1Z" transform="translate(41.7 0.8)" fill="#b2c968"/>
      <path d="M831.4,648.6l-.7,36.2-37.5-.7-.4,9-17.7.2-14.8.2-1.7-9.8-36.9.9.2,9.5-43.9.8-.3-12.8-34.1-.3-.4,13.9-49.8-2.9-.6-12.2-7.8-.2a76.93,76.93,0,0,1,4.8-10c3.8-5.7,12-7.5,18.4-8.6,4-.7,8.1-1.8,12.2-1.4s8.5,1.8,12.6,1.1c3.1-.5,5.8-2.8,8.6-4,3.8-1.6,7.7-3,11.5-4.3,3.6-1.2,7.6.4,11.2-1.8,6.3-3.9,11.3-10.2,18.7-12.2,4.4-1.2,8.6.7,12.9.7,6.4,0,12.7-1.4,19.1-2.2,5.3-.7,10.1-4.3,15.1-6.1,7.6-2.7,16.9-2.7,24.8-3.6,3.1-.3,6.3.5,9.4,0,2.5-.4,5-1.7,7.5-1.9a5.45,5.45,0,0,1,2.2.1c6.2,1.2,10.9,6.9,16.6,8.3,2.8.7,6.3-.5,9,.4,2.2.7,3.5,3,5.8,3.6,2.9.8,6.3-.2,9,.7a30.44,30.44,0,0,0,3.9,1.4c1.7.4,1,3.2,2.2,4.3,0,0,10.1,3.6,10.8,3.6Z" transform="translate(41.7 0.8)" fill="#92a650"/>
      <path d="M643.1,469.3l.2.6c-17.6,5.9-35.8,11.9-53.9,17.5-54.6,17.2-110.4,38-146.3,29.7-13.9-3.2-29.3-9.4-35.9-21.7a44.89,44.89,0,0,1-5.1-22.1h28.6v-.4h.4l31.4-28.8v-.9h.3c21.5-7.2,43.9-1.6,65.7.8,3.4.4,6.8,2,10.3,2.4,6.3.7,13,.6,19,3.2,9.2,3.9,16,13.8,26.1,15.8,4.8,1,10.2-.2,15,.8,5,1,11.2,2.9,16.6,1.6,4.5-1.1,11.9-2,16.6-.8C635.6,467.8,639.2,469.3,643.1,469.3Z" transform="translate(41.7 0.8)" fill="#92a650"/>
      <path d="M-1.2,480.9V345c11.6,3.3,38.7,12.4,41.1,11.6,7.9-2.5,15.8-5.2,23.8-7.2,13.3-3.3,28.6-.1,42.2-2.1,12.7-1.9,25.6-6.2,38.6-5.5,12.8.7,28,7.3,40.3,5.7,14.4-1.9,26.7-10.5,39-17.5,10.5-6,27.2-7,37.8-12.7,14.1-7.6,15.3-30.3,31.7-31.6,11.7-1,31.8,11.8,43.3,11.5,6.6-.2,13.6-.9,20.2-1.7,24.5-2.7,48.6-12.8,73.5-13.5,38.5-1,77.7,7.5,115.2,15.4,11.5,2.4,23.8,2.8,35.5,4.1,2.9.3,8.2-.2,10.8,1.3,7.1,3.9,12.3,10,20.5,12.4,9.2,2.6,19.7.3,28.9.4,8.4,0,16.1,3.7,24.5,3.8,6.7.1,13.4-.8,20.1-.7,7.3.1,14.8,1.7,21.6,3.5,8.7,2.3,18,1.1,26.7,2.1,4.5.5,10.2,2.1,14.8,1.7,5.9-.5,11.4-2.5,17.3-3,5.1-.4,10.7,2.5,15.8,1.8,3.8-.5,6.9-4.2,10.4-3.8h.1c-2,6.6-4.2,13.2-6.6,19.6-26.5,69.7-83.2,84-133.8,94.4-37.4,7.7-117.6-20.8-164.8-27.5-11.6-1.6-25.1,8.8-25.1,8.8l-1.5.1-.5-8.5v-.6l-18.9,1h-1.4l-.2-7.3-.1-.2.1-.1L429,393.2,408.3,403l-.6.6-.3-.3-12.7,11.3v2h-.8l-24,11.4v.9h-.5v44.2h12.2a77.4,77.4,0,0,0,2.4,22.7h-1v37.5a31.89,31.89,0,0,1-2.3-3.2c-2.2-3.6-2.2-9.2-4.8-12.4-3.7-4.4-12.8,2.1-16.8-1.6-3.4-3.1,1.1-12.9-4.6-14.4-7.6-2-15.2,4.7-24.2,2.7s-15.1-10-25-9.3c-5.6.4-11.3,6.8-14.9,10.6-.9,1-3.3,5.4-5.4,4.5-1-.4-2.8-5.4-4.4-6.4-15.4-9.6-25.4-4.2-40.2,3.2-2.6,1.3-11,4.2-12.6,6.8-.8,1.2-4.4,8.3-4.4,10.4-4.8-2.5-9.8,3.7-10,3.6-.7-.1-4.2-4.5-6.2-7-5.7-6.9-8.8-23.4-17.4-27.5-11.6-5.6-21.5,19.5-32,21.9-4.4,1-11.3-.5-15.9-.5-11.8.1-25.8,3.5-35.8,9.6C95.9,530.6,87.9,537.5,82,548c-3.5,6.2-9.8,19-17.8,20.3-6.1.9-8.5-6.4-9.9-10.9-3.9-11.7-2.8-25.4-11.7-35-6.5-7-16.9-4.1-24.7-2.3C12,521.5,5.4,522.9-1,524.9v-44Z" transform="translate(41.7 0.8)" fill="#3d7038"/>
      <path d="M1326.7,812V926.5H1140.6a85.73,85.73,0,0,1,5.7-16.1c2.5-5,5.6-9.8,8.1-14.8a137.37,137.37,0,0,1,7.6-13.5,64.64,64.64,0,0,1,9.9-11.7c4.1-3.7,8.7-6.5,13-9.9,3.1-2.4,6.1-6.1,9.4-8.1,1.5-.9,4.2-1,5.4-2.3a8.74,8.74,0,0,0,.8-1c1.1-1.4,2.1-3.3,3.7-4,3.9-1.6,8.4-4.5,12.6-5.8,5.1-1.7,10.6-2,15.7-3.6,5.6-1.7,11.1-3.3,16.6-5,10.2-3.1,20.3-6.8,30.6-9.9,6.8-2,14.6-2.4,21.6-3.1C1309.8,816.9,1318.2,813.6,1326.7,812Z" transform="translate(41.7 0.8)" fill="#94a64e"/>
      <path d="M1326.7,760.8V812c-8.4,1.6-16.9,4.9-25.3,5.8-7,.8-14.8,1.1-21.6,3.1-10.3,3.1-20.3,6.8-30.6,9.9-5.5,1.7-11.1,3.3-16.6,5-5.1,1.5-10.6,1.9-15.7,3.6-4.2,1.4-8.7,4.3-12.6,5.8-1.6.7-2.6,2.5-3.7,4l-.2-.1c-3-2.4-7.4-11.3-12.7-16.4-1.6-1.5-4-2-5.7-3.5-2.1-1.9-2-6.1-4.2-8.4-5.8-5.9-15.1-11.4-22.5-15.1-.3-.2-.7-.3-1-.5,2-.3,13.3-9,17.5-10.8,8.2-3.5,16.6-6.7,24.9-10.1s18.7-8.7,28-6c7,2,12.3,11.6,19.4,11.4,5.3-.1,6.3-4.1,9.7-7.3s9.2-6.2,13.5-8c3.6-1.5,5.1-1,8.8-1.2,1.4-.1,5.9-2.5,6.6-2.8a32.23,32.23,0,0,1,12.6-1.9c4.7.1,10.3,1.1,14.9-.4C1315.2,766.4,1320.5,759.4,1326.7,760.8Z" transform="translate(41.7 0.8)" fill="#b2c968"/>
      <path d="M1154,805.1c-7.7-3.5-15.8-4.8-23.9-6.7-3.3-.8-6.2-3.1-9.6-3.9-6-1.3-12.7-1.2-18.8-1.8-10.7-1-21.9-3.1-32.6-3-2.7,0-5.4,1.1-8.1,1.2-3.6.2-7.3-1.1-10.9-1-8.4.3-16.8,1.4-25.1,1.6-6.5.2-13.3-2.3-19.8-1.8-4.6.3-9.2,2.1-13.3,3.8-5.4,2.1-11.7,3-17.3,3.4-7,.5-14.2,3.8-21.3,4-5.6.2-11.2-1.7-16.8-1.6-4.6.1-9.1,2-13.6,3.2l-.1-.4c-.1-7,.7-164.2.7-164.2l28.5.3-.4,10,30.2-.2,9.4-.1-.3-10.9,39.7-.2.3,11.2,36.4.3.1-12.9,34.4-.2-.2,12.3,40.3,1-.1-13.6,27,.6,8.2.2.7,11.9,29.7.8.4-13.5,23.4,1.1.3,52.6.1,22.7,29.7,1.2,2.2,13.3,36-1.7-.7-14.5,27.7-1.5v52.6c-6.2-1.5-11.5,5.6-16.4,7.3-4.5,1.5-10.2.5-14.9.4-4.1-.1-8.8.3-12.6,1.9-.7.3-5.1,2.7-6.6,2.8-3.7.2-5.2-.3-8.8,1.2-4.3,1.8-10.1,4.8-13.5,8s-4.4,7.2-9.7,7.3c-7.1.2-12.5-9.4-19.4-11.4-9.3-2.7-19.7,2.5-28,6s-16.7,6.6-24.9,10.1c-4.1,1.8-15.5,10.5-17.5,10.8C1154.2,805.2,1154.1,805.2,1154,805.1Zm46.2-91.5s2.1-14.1-15.9-15c-17.2-.9-15.5,14-15.5,14l.6,36.1,29.9.6Zm-69.1-.6s2.1-14.1-15.9-15c-17.2-.9-15.5,14-15.5,14l.6,36.1,29.9.6Zm-67.9,1.3s2.1-14.1-15.9-15c-17.2-.9-15.5,14-15.5,14l.6,36.1,29.9.7Zm-67.7-2.6s2.1-14.1-15.9-15c-17.2-.9-15.5,14-15.5,14l.6,36.1,29.9.6Z" transform="translate(41.7 0.8)" fill="#f9f0bd"/>
      <polygon points="1368.4 688.2 1368.4 709 1340.7 710.5 1341.4 725 1305.4 726.7 1303.3 713.4 1273.6 712.2 1273.5 689.5 1276.3 689.5 1285.5 690.7 1301 692.8 1303.2 706.1 1339.2 704.4 1338.4 689.9 1368.4 688.2" fill="#f9f0bd"/>
      <path d="M1169.7,591.3h0c0-.1-2.4-2-6.2-5.4h0c-1.5-3.1,12.8-4.1,14.3-7.6,2.6-6,2.5-12.6,3.4-18.9.7-5.2,4.4-10.8,7.4-14.8,2.5-3.4,7-4.4,10.1-6.8s6.5-4.6,10.8-3.4c3.9,1.1,7.8,3.8,11.5,5.4,7.5,3.2,15.2,5.5,22.9,8.1a25,25,0,0,0,7.7.9c3.6,0,7.2-.2,10.5,1.1,5.7,2.3,6.1,8.5,11.5,10.8,6.8,2.9,15.5-1.2,21.6,3.4,2.6,2,2.6,5.4,5.4,7.4,3.6,2.7,9.3,2.7,12.8,5.4,1.9,1.4,1.8,6.2,2,8.1.5,3.8,3.2,12,6.1,14.8a8.09,8.09,0,0,0,5.1,1.9v40.4a4.61,4.61,0,0,1-1-.5c-2.4-1.8-3.6-5-6.8-6.1-5.7-1.9-7.7,3.7-10.8,6.7-2,2-6.7,3.7-9.4,4-17.4,2.5-32.2-6-41.8,14.2-2.1,4.4-4,9-6.1,13.5-2.2,4.9-4.3,9.4-6.8,14.2l-.2,1.6-9.2-1.2h-2.8l-.3-52.6.2-.3-25.9-17.4-.1,10.8-16.4-7.3.6-8.7-20.5-10h-.1l.1-11.7v-.2h.4v.2Z" transform="translate(41.7 0.8)" fill="#b2c968"/>
      <path d="M1326.7,504.7v97.1a8.32,8.32,0,0,1-5.1-1.9c-2.9-2.9-5.5-11-6.1-14.8-.3-2-.2-6.7-2-8.1-3.6-2.7-9.2-2.7-12.8-5.4-2.8-2.1-2.8-5.5-5.4-7.4-6.1-4.5-14.8-.5-21.6-3.4-5.4-2.3-5.8-8.5-11.5-10.8-3.2-1.3-6.8-1.1-10.5-1.1v-1.4c-1.9-3.8-3.4-7-5-11s-5.2-8.6-6.1-12.8c-.6-3.2-.1-7.1-1.3-10.1-.5-1.2-1.9-1.7-2.7-2.7-3.8-5-3.9-5.4-9.4-8.8-3-1.8-6.6-4.9-10.1-5.4a23.87,23.87,0,0,0-7.5.3l-.1-.5c-11.8-3.9,8.8-18.6,13.6-23.4,6.9-7,20.7-7,29.7-8.1,5.4-.7,10.6-3.2,16.2-2,6.3,1.3,12.1,7.5,17.5,10.8,10.7,6.4,24.1,9.3,33.1,18.2,3.2,3.2,2.4,9.4,6.1,12.1A2.07,2.07,0,0,0,1326.7,504.7Z" transform="translate(41.7 0.8)" fill="#3d7038"/>
      <path d="M1217.8,432.5c.4-.2.8-.4,1.3-.6,5.5-2.5,10.5-2.7,16.2-3.4,6.5-.7,13.1-2.5,19.6-3.4,9.8-1.4,17-8.9,27-10.1,3.9-.5,7.5.2,11.5-.7,3.6-.8,8.4-3.3,12.2-2.7,6.5,1.1,14.2,2.3,21.3,1.7v91.4a8.79,8.79,0,0,1-1-.6c-3.7-2.8-2.9-8.9-6.1-12.1-9-9-22.4-11.8-33.1-18.2-5.5-3.3-11.2-9.5-17.5-10.8-5.6-1.1-10.8,1.3-16.2,2-9,1.1-22.7,1.1-29.7,8.1-4.8,4.8-25.4,19.5-13.6,23.4l.1.5c-5.3.9-10.6,2.9-15.5,3.8-6.9,1.3-14,1.4-20.9,2a32.09,32.09,0,0,0-4.3.7v-.2c1.9-5.8-.2-3.8,2.3-9.9,2.6-6.5,5.8-12.7,8.8-18.9,4.3-8.9,9.1-19.9,16.2-27,1.5-1.5,4.4-2.9,6.1-4C1207.3,439.8,1212.1,435.4,1217.8,432.5Z" transform="translate(41.7 0.8)" fill="#3d7038"/>
      <path d="M1326.7,383.1v30.3c-7,.6-14.7-.6-21.3-1.7-3.8-.6-8.5,1.9-12.2,2.7-4,.9-7.6.2-11.5.7-10,1.2-17.2,8.7-27,10.1-6.4.9-13,2.7-19.6,3.4-5.7.6-10.7.9-16.2,3.4-.4.2-.8.4-1.3.6-.6-4-3.4-9.4-4.8-12.7-.5-1.2-1-5-2-6.1s-4.2-1.7-5.4-2.7c-3-2.4-2.8-6.8-5.4-9.5-2-2-4.8-3-6.8-5.4a18.52,18.52,0,0,1-2.6-5.5h.1c-1.4-6.5,4.8-10.9,9.2-14,10.3-7.1,23-14.4,35.8-15.5,4.3-.4,8.6.3,12.8.7,6.4.6,12.4.2,18.9,1.4,5,.9,9.7,2.9,14.8,3.4,5.6.6,13.5-1.8,18.9,0,2.1.7,3.5,4.3,5.4,5.4,1.3.8,3.6.9,4.7,2,1.3,1.3,2.9,3.8,4.7,4.7,2.7,1.3,6,1.6,8.8,2.7C1325.7,381.6,1326,382.6,1326.7,383.1Z" transform="translate(41.7 0.8)" fill="#b2c968"/>
      <path d="M1326.7,324v59.1c-.6-.5-.9-1.5-1.7-1.8-2.8-1.1-6.1-1.4-8.8-2.7-1.8-.9-3.4-3.4-4.7-4.7s-3.4-1.2-4.7-2c-1.9-1.1-3.3-4.7-5.4-5.4-5.4-1.8-13.3.6-18.9,0-5.1-.5-9.8-2.5-14.8-3.4-6.4-1.2-12.5-.7-18.9-1.4-4.3-.4-8.5-1.1-12.8-.7-12.8,1.2-25.4,8.4-35.8,15.5-4.4,3.1-10.7,7.5-9.2,14h-.1a16,16,0,0,0-2.1-4.6c-1.7-2.2-20.9-13.9-23.6-14.2-8.7-1-16.1,2.7-24.3,4.1-7,1.2-13.9-.4-20.9,1.4-7.3,1.8-12.3,7.3-18.2,11.5-5.7,4-11.9,6.1-18.2,8.8-4.8,2.1-8.6,6-12.8,8.8-5.6,3.8-11,1.9-16.9,4.1a80.55,80.55,0,0,0-8.8,4.7,12.13,12.13,0,0,0-1.4,1c-1.1-1.7-6.2-1.6-8.1-2.3-1.6-.7-4.3.3-6.1,0-3.7-.6-7.1-2.9-10.8-3.4-9.3-1.3-13.9,5.1-22.3,6.8-2.4.5-4.3-.2-6.7.7-4.4,1.5-4.9,6.4-8.8,8.1-5,2.1-7.5-2-12.1-2s-9,5.2-13.5,6.1c-5.4,1.1-13.5.6-18.9,0-3.5-.4-7.3-2.7-10.8-.7-6.8,3.9-9.5,16.9-9.5,24.2h0a36.53,36.53,0,0,1-4.6.7c-4.5.4-8.8,0-13.3,1-5.4,1.1-10.3,4.8-15.7,5.2-11.9,1-22.7-2.8-34.2,1.4-9.9,3.6-16.7,11.2-26.2,14.7a94.26,94.26,0,0,1-22.8,5.2c-6.8.8-14,1.5-20.4,3.8-5.7,2-11.1,5.3-16.6,7.6s-9.1,3.3-13.8,7.6c-3.4,3.2-6.9,6-10,9.5-2.7,3-5.5,5.9-8.1,9l-.6,1.2a28.66,28.66,0,0,0-6.5-1.2c-4.4-.4-8.8-.3-13.2-.6-10-.7-20.1-3.6-30.2-1.3a45.67,45.67,0,0,0-14.5,6.3c-2.2,1.5-4.1,3.9-6.9,4.4-4.6.8-5.7-3.2-9.4-4.4-3.4-1.1-10.5.1-13.8,1.3-6.5,2.4-12.1,6.8-18.2,10a119.71,119.71,0,0,1-28.9,11.3c-16.7,3.8-32.5-2.8-49,3.1-5.4,1.9-17.6,6-15.5,12.8-1-1.3-1.6-2.8-2.7-4-1.9-1.9-5.4-2.2-7.5-3.8-1.5-1.2-2.5-3.9-4.4-4.4-4.6-1.1-11.8.8-15.7,3.1-1.5.9-3.8,3.8-5.6,3.8-2.2,0-4.2-2-6.3-2.5-3.7-.9-8.2.6-11.9,0-8.6-1.4-17.7-2-26.4-3.8-3.2-.7-6.8.5-10,0-4.2-.7-9.5-3.8-13.8-3.2a37.19,37.19,0,0,0-13.2,5c-2.7,1.7-4.3,3.9-7.5,4.4a32.29,32.29,0,0,1-5.5.1,29.22,29.22,0,0,0-5-9.2c-1.8-2.2-1.1-4.7-1.3-7.1-.3-2.9-2-5.1-3.7-7.3V496h1a39.91,39.91,0,0,0,3.3,8.3c6.6,12.3,20,23.7,33.9,26.9,97.3,22.4,164.5-28.9,354.7-94.7,53.1-18.4,268.6-85.6,404.1-107.8C1229.3,320.5,1298.4,322.6,1326.7,324Z" transform="translate(41.7 0.8)" fill="#f2efbe"/>
      <path d="M1326.7,303.5V324c-28.3-1.3-97.3-3.4-146.8,4.7-135.5,22.3-351,89.5-404.1,107.8-190.2,65.8-257.4,117.1-354.7,94.7-13.9-3.2-27.3-14.6-33.9-26.9a46.32,46.32,0,0,1-3.3-8.3c-2.1-7.4-2.5-15.5-2.4-22.7H402a44.89,44.89,0,0,0,5.1,22.1c6.6,12.3,22,18.5,35.9,21.7,35.9,8.3,91.7-12.5,146.3-29.7,18.1-5.7,36.2-11.6,53.9-17.5,73.7-24.7,138.9-49.3,155.1-54.9,32.2-11,268.6-85.6,404-107.9,40.8-6.7,83.7-6,109.2-4.6C1317.7,302.9,1322.8,303.2,1326.7,303.5Z" transform="translate(41.7 0.8)" fill="#f2efbe"/>
      <path d="M1326.7,301.1v2.4c-3.8-.3-8.9-.7-15-1l.1-1.2C1316.9,301.5,1322.1,298.8,1326.7,301.1Z" transform="translate(41.7 0.8)" fill="#3d7038"/>
      <path d="M1311.7,301.3l-.1,1.2c-25.5-1.4-68.4-2.1-109.2,4.6C1066.9,329.4,830.6,404,798.4,415c-16.2,5.5-81.5,30.1-155.1,54.9l-.2-.6c-3.9,0-7.4-1.5-11.1-2.4-4.7-1.2-12.2-.3-16.6.8-5.4,1.4-11.6-.6-16.6-1.6-4.8-1-10.2.2-15-.8-10.1-2-16.9-11.9-26.1-15.8-6-2.6-12.7-2.5-19-3.2-3.4-.4-6.8-2-10.3-2.4-21.8-2.4-44.2-8-65.7-.8h-.3l-.7-11.4h.7s15.9-13.1,27.4-11.5c47.2,6.7,127.5,35.2,164.8,27.5,50.6-10.4,121.3-24,147.7-93.7,16.8-44.3,18.3-105.7,57.8-125.1l.5,6.5,30.8-2.5-1.1-13.1,1-.1s56.3,21.1,108.6,23.7,55.9-5.2,100.7-13.1a698.06,698.06,0,0,0,78.4-18.4l1.7-.2c-.2-2.1-.7-3.4-.1-5.7.2-.6,6.2.2,6.2.2s8.1.5,7.7,1.4a4.15,4.15,0,0,0,0,3.1l.8-.2s36.9-5.4,74-8.9c21.3-2,42.8-3,57.3-3.5V300.9C1322.1,298.8,1316.9,301.5,1311.7,301.3Z" transform="translate(41.7 0.8)" fill="#3d7038"/>
      <path d="M849.8,223.3c.1,0,.1-.1.2-.1C849.9,223.2,849.9,223.3,849.8,223.3Zm-3.1,1.4a.35.35,0,0,0-.2.1h0c-34.5,16.1-41.7,56.8-53.7,96.2h-.1c-3.5-.4-6.6,3.3-10.4,3.8-5.1.7-10.7-2.3-15.8-1.8-5.9.5-11.4,2.5-17.3,3-4.6.4-10.3-1.2-14.8-1.7-8.8-1-18,.2-26.7-2.1-6.8-1.8-14.3-3.4-21.6-3.5-6.7-.1-13.4.8-20.1.7-8.4-.1-16.1-3.8-24.5-3.8-9.3,0-19.8,2.3-28.9-.4-8.2-2.4-13.4-8.5-20.5-12.4-2.6-1.4-7.9-.9-10.8-1.3-11.7-1.4-24-1.7-35.5-4.1-37.5-7.8-76.6-16.4-115.2-15.4-24.9.7-49,10.7-73.5,13.5-6.6.7-13.6,1.5-20.2,1.7-11.5.3-31.6-12.4-43.3-11.5-16.3,1.3-17.5,24-31.7,31.6-10.6,5.7-27.3,6.7-37.8,12.7-12.3,7-24.6,15.6-39,17.5-12.3,1.6-27.5-5-40.3-5.7-13-.7-25.9,3.6-38.6,5.5-13.6,2-29-1.2-42.2,2.1-8,2-15.9,4.8-23.8,7.2-2.4.8-29.5-8.3-41.1-11.6V203.8l3.3-.3c10.2-.9,20.1,0,30.3,0,2.6,0,8.6-1.2,10.9,0,1.3.7,1.9,2.2,3.1,3.1,6.1,4.6,9.4,5.7,17.1,3.1,14.2-4.7,26.1-15,41.2-17.1,4.2-.6,8.4.3,12.4.8,7.9,1,17.7.7,25.7,0,12.2-1,24.2-3.2,36.5-2.3,7,.5,13.4,2.8,20.2,3.9,12.9,2.1,25.9,1.9,38.9,3.1,8,.7,15.4,4.3,23.3,5.4,8.1,1.2,18.4-1,25.6-4.7,4.4-2.2,8.2-4.8,13.2-5.4,14.9-1.9,30.7-.8,45.9-.8,4.7,0,10.1.8,14.8,0,11.6-1.9,25.4-4.6,37.3-3.1,3.4.4,6.6,2.6,10.1,3.1,7.9,1.1,16.2,1,24.1,2.3,22,3.7,44.1,7.5,66.8,5.4,16.1-1.5,33-.4,49-3.1,10.1-1.7,22.2-4.8,32.6-3.1,6.5,1.1,14.6-.8,21,.8,15.7,3.9,32.9.1,49,1.6,6.2.6,11.9,2.4,17.9,3.9,5,1.3,9.8.4,14.8.8,6.9.6,14.1,1.6,21,.8,17.1-1.9,33.6-4,50.5-7.8,10.1-2.3,19.4-6.9,29.5-8.6,13.9-2.3,28.4-1.3,42-4.7,2.1-.5,4.1-1.8,6.2-2.3s9.7-10,11.7-9.5c5,1.2,12.2-1.8,17.3-1.8,5.3,0,14.9,10.1,16.8,12.2L876,181a34,34,0,0,0,3.4.7c5.7.7,11.2-.3,16.8-1.1,7.3-1,15.7,0,23,0,6.3,0,13.7-1,19.9,0,6.4,1.1,12.5,4.3,18.8,5.2,3.8.5,7.7.6,11.5,1,21.7,2.7,44.3-2.2,66,0,5.9.6,12.5,3.6,17.8,6.3,3.3,1.7,5.6,5.5,9.4,6.3,9.8,1.9,19.9-6,29.3-7.3,18.1-2.6,37.3,2,55.5,0,17.2-1.9,34.1-5.6,51.3-7.3,9.9-1,19.6-3.8,29.3-5.2,14.4-2.1,29.1-2.1,44-2.1,9.8,0,19.9-.5,29.3,1.1,8.1,1.4,16.9-.9,25.1-.4v20c-14.5.5-36,1.4-57.3,3.5-37,3.5-74,8.9-74,8.9l-.8.2a5.44,5.44,0,0,1,0-3.1c.4-.9-7.7-1.4-7.7-1.4s-6-.8-6.2-.2c-.6,2.4-.1,3.7.1,5.7l-1.7.2a698.06,698.06,0,0,1-78.4,18.4c-44.8,7.9-48.4,15.7-100.7,13.1s-108.6-23.7-108.6-23.7l-1,.1-.9-10.6-30.8,2.5.6,7.3c-1.5.6-4.8,2.1-12.1,5.3.2.1,0,.2-.2.3Z" transform="translate(41.7 0.8)" fill="#3d7038"/>
      <path d="M1251.7,547.5v1.4a24.65,24.65,0,0,1-7.7-.9c-7.7-2.6-15.4-4.9-22.9-8.1-3.7-1.6-7.6-4.3-11.5-5.4-4.3-1.2-7.6,1-10.8,3.4s-7.6,3.4-10.1,6.8c-3,4-6.7,9.7-7.4,14.8-.9,6.3-.8,12.9-3.4,18.9-1.5,3.4-15.8,4.5-14.3,7.6h0c-7.5-6.7-20.2-18.8-29-31.9a126.22,126.22,0,0,1-8.4-14.9l.5-.3c1-3.1,5.5-10.5,7.3-13.1,2.4-3.6,8.2-7.5,11.5-10.1,6.5-5.4,14.8-10.3,23.4-12.1a32.09,32.09,0,0,1,4.3-.7c6.9-.6,14-.8,20.9-2,4.8-.9,10.2-2.9,15.5-3.8a27.13,27.13,0,0,1,7.5-.3c3.5.5,7.2,3.6,10.1,5.4,5.6,3.4,5.7,3.7,9.4,8.8.8,1,2.2,1.5,2.7,2.7,1.2,3,.7,6.9,1.3,10.1.8,4.2,4.5,8.8,6.1,12.8S1249.8,543.7,1251.7,547.5Z" transform="translate(41.7 0.8)" fill="#3d7038"/>
      <polygon points="1273.4 636.6 1273.2 637 1249.7 635.9 1249.3 649.4 1219.6 648.6 1218.9 636.7 1210.7 636.5 1210.8 635.6 1210.9 604 1211.1 604 1231.6 614 1231 622.6 1247.4 629.9 1247.5 619.2 1273.4 636.6" fill="#f9f0bd"/>
      <path d="M914.8,567.1c.9-.4,2.6-1,4.7-2v28H904c-4.8-2.4-1.8-7.7-2.3-11.5-.8-5.5-5.3-10.7-6.4-16.2-.7-3.4,2-5.3-1.7-8.1-3.2-2.4-12.8-1.1-17.1-2.1-3.7-.8-7-3.5-10.7-4.3a28.11,28.11,0,0,0-14.9,1.7c-1.9.8-3.4,2.6-5.5,3-3.4.6-6.3-1.7-9.8-1.3a117.77,117.77,0,0,1-25.2.4c-1.9-.2-5.3-.3-7.3-.9-.4-.1-.8-.3-1.1-.4h0c2-1-8.4-8.3-10.4-10.3-1.7-1.7-6.5-.8-8.8-1.3a15.64,15.64,0,0,1-5-2.5c-2.5-1.5-6.7-1.2-9.4-2.5-4.2-2.1-7.9-11.7-11.3-12.6-5.5-1.4-11.3,3.5-17,2.5-2.6-.4-3.8-2.2-5.6-3.8a14.94,14.94,0,0,0-4.8-2.6h0a12,12,0,0,0,.6-1.2c2.6-3.1,5.4-6,8.1-9,3.1-3.5,6.6-6.3,10-9.5,4.7-4.4,8.2-5.3,13.8-7.6s10.9-5.6,16.6-7.6c6.5-2.3,13.7-3,20.4-3.8a93.2,93.2,0,0,0,22.8-5.2c9.4-3.5,16.3-11.2,26.2-14.7,11.5-4.2,22.3-.4,34.2-1.4,5.4-.4,10.3-4.1,15.7-5.2,4.5-1,8.8-.5,13.3-1a34,34,0,0,0,4.6-.7,27.82,27.82,0,0,1,9.1-.7c4.7.6,5.8,7.7,9.5,10,1.6,1,3.7,1.1,5.2,2.4,2.6,2.1,4.1,4.6,7.6,5.2,3.7.6,8-1.1,11.4.9,3.2,1.9,5.2,6.3,8.6,8.6a46.58,46.58,0,0,0,5.3,3.2c1.8-3.5,6.1-6.2,8.7-8.7,7.5-7.1,14.9-14.4,22.3-21.6,2.3-2.2,5-4,7.4-6.1,11.4-9.5,20.4-22,32.4-30.8a17,17,0,0,1,1.4-1,80.55,80.55,0,0,1,8.8-4.7c5.8-2.1,11.2-.3,16.9-4.1,4.2-2.8,8-6.7,12.8-8.8,6.3-2.7,12.5-4.8,18.2-8.8,5.9-4.1,10.9-9.6,18.2-11.5,7.1-1.8,13.9-.2,20.9-1.4,8.2-1.4,15.6-5,24.3-4.1,2.7.3,21.9,11.9,23.6,14.2a16,16,0,0,1,2.1,4.6,18.52,18.52,0,0,0,2.6,5.5c1.9,2.4,4.8,3.4,6.8,5.4,2.6,2.6,2.4,7.1,5.4,9.5,1.2,1,4.5,1.8,5.4,2.7,1.1,1,1.5,4.9,2,6.1,1.4,3.3,4.2,8.7,4.8,12.7-5.6,2.9-10.5,7.3-15.6,10.9-1.7,1.2-4.5,2.5-6.1,4-7.1,7.1-11.9,18.1-16.2,27-3,6.3-6.2,12.5-8.8,18.9-2.5,6.2-.4,4.1-2.3,9.9v.2c-8.6,1.9-16.8,6.8-23.4,12.1-3.2,2.6-9.1,6.5-11.5,10.1-1.8,2.7-6.4,10.1-7.3,13.1l-.5.3a117.07,117.07,0,0,1-5.6-14.1,115.54,115.54,0,0,1-3.4-12.1L950.2,511l-.2.1V511s-9.7,24.4-16.7,32.7c-3.7,4.4-9.7,9.5-13.9,12.8-2,1.6-3.6,2.8-4.3,3.3h0c-.6.8-.8,5-.9,5.4Z" transform="translate(41.7 0.8)" fill="#94a64e"/>
      <path d="M987.4,576.8H987s-13.1-14.3-21.7-27.4c-4.2-6.5-8-15.7-10.7-23.4l.3-.1,165.4-.8.2-.1a136.48,136.48,0,0,0,5.6,14.1,107.36,107.36,0,0,0,8.4,14.9c8.8,13.1,21.5,25.3,29,31.9,3.7,3.3,6.2,5.3,6.2,5.3v.1h-.4l-181.6.6v-1.2Z" transform="translate(41.7 0.8)" fill="#846751"/>
      <polygon points="1211 592.1 1211 592.3 1210.9 604 1210.8 635.6 1210.7 636.5 1183.7 635.9 1183.8 649.4 1143.5 648.4 1143.8 636.1 1109.4 636.3 1109.3 649.2 1072.9 648.9 1072.6 637.7 1032.8 637.9 1033.1 648.8 1023.7 648.9 1023.7 647 1023.7 593.1 1023.7 592.7 1029.5 592.7 1211 592.1" fill="#f9f0bd"/>
      <path d="M1067.8,856.4h0a239.71,239.71,0,0,0,26.8,1.9c15.7,0,31.1,1.8,44.5,10.8,5,3.3,9.1,7.8,13.9,11.2,2.3,1.6,5.9,4.5,7.6.9l1.3.9a126.72,126.72,0,0,0-7.6,13.5c-2.5,5-5.6,9.8-8.1,14.8a85.73,85.73,0,0,0-5.7,16.1h-211c3.8-6.9,7.1-14.3,13.1-19.7,6.4-5.7,20-15.5,28.8-17,4.7-.8,9.6,1.5,14.2,0,5.3-1.7,8.6-6.4,13.8-8,2.9-.9,6,.2,8.7-.9,7.8-3.1,15.3-12,22-16.9a25.86,25.86,0,0,1,6-3c3.5-.8,3.2.8,6.8.5,1.8-.2,3.7,1,5.5.9,3.9-.3,7.4-4.5,9.8-4.7C1060.9,857.6,1065.2,856.2,1067.8,856.4Z" transform="translate(41.7 0.8)" fill="#b2c968"/>
      <path d="M1115.2,697.9c18,.9,15.9,15,15.9,15l-.9,35.7-29.9-.6-.6-36.1S1098,697.1,1115.2,697.9Z" transform="translate(41.7 0.8)" fill="#846751"/>
      <path d="M1120.5,525l-.2.1-165.4.8-.3.1c-2.6-7.4-4.2-13.4-4.5-14.3l.2-.1,166.8,1.4C1117.1,512.9,1118.1,517.8,1120.5,525Z" transform="translate(41.7 0.8)" fill="#846751"/>
      <path d="M835.4,861.1c.3-.3.7-.5,1-.8,2.4-1.8,5.6-1.8,8.4-2.6,2.3-.7,5.3-2.1,7.7-2.2s2,.8,4.1,1.1l.2.2c2-2,3.1-5.1,6.2-5.8a7.41,7.41,0,0,1,2.1-.1c2.5.1,4.9,1.1,7.4.1,2.3-.9,3.5-3.3,5.9-4.1,3.7-1.2,14.6-2.2,18.4-1.3s8.4,7.1,11.2,6.7c3.7-.5,6.5-3.2,9.9-4.5,2.9-1.1,7.3-1.1,10.3-.9a112.31,112.31,0,0,1,13,1.4c3.9.8,7.9,2.8,11.7,4,8.2,2.7,16.5,5,25.2,5.4,14.8.7,29.8-2.8,44.5-4,15.2-1.3,30.1.8,45.2,2.6h0c-2.6-.2-6.9,1.2-9.4,1.4s-6,4.3-9.8,4.7c-1.8.1-3.7-1-5.5-.9-3.6.3-3.3-1.3-6.8-.5a22.47,22.47,0,0,0-6,3c-6.8,4.9-14.2,13.8-22,16.9-2.6,1-5.8,0-8.7.9-5.2,1.6-8.5,6.4-13.8,8-4.6,1.5-9.5-.8-14.2,0-8.9,1.5-22.4,11.3-28.8,17-6,5.3-9.3,12.8-13.1,19.7h-135a12.12,12.12,0,0,1,.7-2.9c1-2.8,3.7-4.9,4.7-7.8,1-3.1,1.2-6.7,2.1-9.9,1.7-5.4,5.6-11.6,8.8-16.2,1.1-1.5,3-2.5,4-3.9C820.8,877.5,827.1,867.6,835.4,861.1Z" transform="translate(41.7 0.8)" fill="#94a64e"/>
      <path d="M1047.3,699.2c18,.9,15.9,15,15.9,15l-.9,35.7-29.9-.7-.6-36.1C1031.8,713.2,1030.1,698.4,1047.3,699.2Z" transform="translate(41.7 0.8)" fill="#846751"/>
      <path d="M1035.5,413.7c1.9.8,7,.6,8.1,2.3-12,8.7-21,21.3-32.4,30.8a85.53,85.53,0,0,0-7.4,6.1c-7.4,7.2-14.8,14.5-22.3,21.6-2.6,2.5-6.9,5.2-8.7,8.7a39.21,39.21,0,0,1-5.3-3.2c-3.4-2.3-5.3-6.6-8.6-8.6s-7.7-.3-11.4-.9c-3.5-.6-5-3.1-7.6-5.2-1.6-1.3-3.6-1.4-5.2-2.4-3.7-2.3-4.8-9.4-9.5-10-3.2-.4-6.1.2-9.1.7h0c0-7.3,2.7-20.3,9.5-24.2,3.5-2,7.3.3,10.8.7,5.4.6,13.5,1.1,18.9,0,4.5-.9,8.8-6.1,13.5-6.1s7.1,4.2,12.1,2c3.9-1.7,4.4-6.6,8.8-8.1,2.5-.8,4.3-.2,6.7-.7,8.3-1.7,13-8.1,22.3-6.8,3.7.5,7.1,2.8,10.8,3.4C1031.2,414,1033.9,413,1035.5,413.7Z" transform="translate(41.7 0.8)" fill="#3d7038"/>
      <path d="M979.6,696.7c18,.9,15.9,15,15.9,15l-.9,35.7-29.9-.6-.6-36.1C964.1,710.6,962.4,695.8,979.6,696.7Z" transform="translate(41.7 0.8)" fill="#846751"/>
      <path d="M987.8,590.7v1.2h-5.7v-.6a93.09,93.09,0,0,1-19.7-21.5c-8.6-13.2-14.9-31.1-14.9-31.1s-3.9,10.3-12.4,17.2a74.45,74.45,0,0,1-15.6,9.2V557c4.2-3.3,10.3-8.5,13.9-12.8,7-8.3,16.7-32.7,16.7-32.7v.1c.3,1,1.9,7,4.5,14.3,2.7,7.7,6.4,16.9,10.7,23.4,8.6,13.1,21.7,27.4,21.7,27.4h.4Z" transform="translate(41.7 0.8)" fill="#846751"/>
      <path d="M919.4,593.1v-28a69.73,69.73,0,0,0,15.6-9.2c8.4-6.9,12.4-17.2,12.4-17.2s6.2,17.9,14.9,31.1A95.73,95.73,0,0,0,982,591.3v.6h0V648l-30.2.2.4-10-28.5-.3h-.4l-4.7-2.2.9-1.9V593.1Z" transform="translate(41.7 0.8)" fill="#f9f0bd"/>
      <path d="M923.2,637.9h.4s-.8,157.3-.7,164.2l.1.4a28.41,28.41,0,0,1-5.7,1c-2.6.1-5.3-.9-7.9-.7a24.68,24.68,0,0,0-7.4,2l-.3-.9c.3-.1.8-.3,1.7-.7l.1-.6.7-80-47.8-1.2-.4,11.7-14.7.3v-1L841,685l-10.3-.2.7-36.2,1-53.7,15.3,9.2-.3,12.4,16.2,6.4-.7-11.8L888,622.2l-.5,11.6,19.5,7.1.5-10.3,11.1,5.2Z" transform="translate(41.7 0.8)" fill="#f9f0bd"/>
      <polygon points="961.1 593.9 961.1 634.6 960.2 636.5 949.2 631.3 948.7 641.6 929.2 634.5 929.6 622.9 904.6 611.8 905.3 623.6 889 617.2 889.4 604.9 874.1 595.6 874.6 594.3 906 594.1 905.7 602.8 937.9 602.9 938 593.9 945.7 593.9 961.1 593.9" fill="#f9f0bd"/>
      <path d="M915.2,560.3h0c.7-.6,2.3-1.8,4.3-3.4v8.2c-2,.9-3.7,1.6-4.7,2l-.5-1.3C914.3,565.3,914.5,561.1,915.2,560.3Z" transform="translate(41.7 0.8)" fill="#94a64e"/>
      <path d="M904.1,722.6l-.7,80-.1.6c-.9.3-1.4.6-1.7.7-.8.3-.7.1-3.3-.2-7.8-.7-12.5-2.1-18.2-7.7-2.4-2.3-5-5.8-8.3-6.8-6-1.8-14.1.1-20,1.1-11.4,2-22.1,5.6-31.1,13-3.2,2.6-10.3,8.1-10.7,12.9l-2.6.2c-5.1-3.5-12.1-6.9-17.1-8-10.2-2.3-18.1,2.3-25.7,8.6-2.1,1.7-3.8,2.5-4.9,5.1-1.8-4.8-4-9.2-7.3-12.2-7.1-6.5-15.3-.7-22.9-.1-6.9.5-12.7,2.4-19.3,4.2-7.5,2-14.5.9-22,.9-8.3.1-15.5,3.6-23.4,4.8-3.5.5-4.5-1-7.8-1.7-4.5-1-9.4-1.7-13.6-4.3-2.8-1.8-2.4-2.8-5.6-3.5-6-1.3-3.6-.1-9,.2-2,.1-4-1-5.9-.5-3.4.8-8.5,4.5-11.5,5.9-13.1,6.3-25.8,12.6-39.5,17.3-19.9,6.7-41.1,2-61.4,6.2-5.1,1.1-12.8,3.8-17.9,4.7l-.8.3c-1.1-1.1-2.7-2.1-3.4-3-8.6-10.3-20.3-18.7-32.6-25-5.8-3-13.4-2-19.6-3.8-3.8-1.1-6.1-5.1-8.3-7.8-3.4-4.1-11-7.6-16.2-8.5-21.8-3.9-42,6-63.5,7-14.6.7-23.8-8.4-36.6-13.4-16.6-6.5-41.4-.5-56.5,7.7-2.5,1.4-7.8,1.5-9.6,3a9.8,9.8,0,0,1-2.4-2.1c-2.7-3.3-5.4-8.2-9-10.8-5.5-4-12.2-4.4-18.2-7.7-17.7-9.6-37.5-13.5-57.4-15.3-4.7-.4-6-3-10.6-4-5.7-1.3-12.4-.8-18,.3C119,763.1,110.4,771.4,99,772c-6.7.3-13.4.8-20,1.1-10.4.5-18.9-4.3-29.7-1.8-5.6,1.3-9.5,4.4-14.6,6.6-4.5,2-8.5,2.6-12.5,5.8C14.3,790,6.3,795.7-1.2,802V661.3l1.8-4.7-1.8-2.2V633l13.7,2.2-2.3,14.9s11.6,7.3,19.8,11.3a97.16,97.16,0,0,0,18.2,6.2L52,655.2l33,11.4-4.3,11.8,32,7.8,3.4-10.4,33,5.6L146.8,696a84.41,84.41,0,0,0,15.2,4.4,181.47,181.47,0,0,0,19.8,2.6l1.8-12.3s9.9,2.3,20.5,3.9,22,2.7,22,2.7l-.1,14.2s8,2.5,17.8,4.6a189.51,189.51,0,0,0,21.6,3.2l1.8-15.3,43.5,2.2.3,16,36.4.4.8-15,30.9.6-.3,16.1,36.4,1.1,1.3-14.4,41.4-.2.7,17.9,35.7.3,2-15.9,33.9.8.2,14.1,41,3V718.6l32.4.4.3,15.6h33.6L638,719l38.5.9,1.2,15.8,28.7.8V721.8l45.9,1.2v12.4l32.8-1-.3-12.3,36.9-1.2,1.7,12.6,17.8-.3,14.7-.3.4-11.7ZM880.6,749l.9-10.9-5.5-3.5-4,3.4.3,11.4Zm-70.9,5.1.9-10.9-5.5-3.5-4,3.4.3,11.4Zm-78,.5.9-10.9-5.5-3.5-4,3.4.4,11.4ZM660.8,756l.9-10.9-5.5-3.5-4,3.4.3,11.4Zm-71-1.6.9-10.9-5.5-3.5-4,3.4.4,11.4Zm-72.2-.3,1.1-12.5-6.5-4-4.7,3.9.4,13.1Zm-76.8-.7,1.2-13.6-7.4-4.4-5.3,4.2.5,14.2Zm-71.1-10.5,1.2-12.8-7.1-4.1-5.1,4,.4,13.3Zm-78.1-3.1,2.6-13.1-6.1-5.1-5.2,3.5-1.2,13.8Zm-81.5-24-5.3-5.3-5.1,3.4-2.1,14,9.1,1.2Zm-79.4-3.1,3.4-12.3-6.1-5.1-5.6,3.1-1.9,13.1Zm-61-32.4-5-5.5-5.4,2.5-3.1,12.4,9.2,2.2Z" transform="translate(41.7 0.8)" fill="#f9f0bd"/>
      <path d="M653.9,607.3c-.1,0-.3.1-.4.1a105.76,105.76,0,0,1-.4-12.7c0-7.9,4.2-11.7,11.9-11.1,8.5.7,19.1,7.3,27.3,6.4,4.5-.5,9.2-5,12.8-7.3a84.56,84.56,0,0,1,8.5-4.3c3.9-1.7,8-2.8,11.9-4.3,4.6-1.8,9.2-4.1,14.1-5.1,7.1-1.4,15.3-2.3,21.8-6,2.1-1.2,4-3.3,6-4.7,2.1-1.6,5.4-2.4,7.3-4.3,2.5-2.5,5.2-6.9,9-7.7,8.3-1.7,11.7,4.3,18.5,6.8.4.1.8.3,1.1.4a45.5,45.5,0,0,0,7.3.9,124.77,124.77,0,0,0,25.2-.4c3.6-.4,6.4,1.8,9.8,1.3,2.1-.4,3.6-2.1,5.5-3a28.11,28.11,0,0,1,14.9-1.7c3.7.7,7,3.4,10.7,4.3,4.3,1,13.9-.3,17.1,2.1,3.7,2.8,1,4.7,1.7,8.1,1.1,5.5,5.6,10.7,6.4,16.2.5,3.8-2.4,9.1,2.3,11.5h-7.7l-.1,9L864,602l.3-8.7-31.3.3-.5,1.3-1,53.7h-.3c-.7,0-10.8-3.6-10.8-3.6-1.1-1.1-.5-3.9-2.2-4.3-1.5-.4-2.5-1-3.9-1.4-2.7-.9-6.1.1-9-.7-2.2-.6-3.6-2.9-5.8-3.6-2.7-.9-6.2.3-9-.4-5.6-1.4-10.4-7-16.6-8.3a5.45,5.45,0,0,0-2.2-.1V626c-1.5-1.5-5.9-4.9-7.3-6.4-2.7-2.7-2.5-5.5-6-8.1-2.5-1.9-5.6-.3-8.1-1.7-1.6-.9-2.5-3.2-3.8-4.3-3.8-3.3-12-5.8-17.1-5.1-8,1.1-15.5,3.7-23,6.8-3.2,1.3-6.7,3-10.2,3.4-6.5.8-12.4-2.4-17.9-5.1-3.1-1.5-5.7-3.4-9.4-3C663.6,603.1,658.8,605.7,653.9,607.3Z" transform="translate(41.7 0.8)" fill="#b2c968"/>
      <path d="M901.7,803.9l.3.9c-2.8,1.1-5.5,2.5-8.1,3.5-3.2,1.2-7.1.1-10.2,2a7.88,7.88,0,0,0-2.3,2.8c-4.3,8.1-8.6,16.3-12.3,24.8-2.2,4.9-1.8,7.5-4.1,12.8v.3a14.77,14.77,0,0,0-2.1.1c-3.2.6-4.3,3.8-6.2,5.8l-.2-.2c-2-.3-1.5-1.2-4.1-1.1s-5.4,1.4-7.7,2.2c-2.7.9-5.9.9-8.4,2.6a8.74,8.74,0,0,0-1,.8,16.62,16.62,0,0,1-5.1-1.1l.3-.9c.6-3.5,4.2-15.6,3.8-21.4-.3-3.5-5.5-7.8-8.1-9.7-3.5-2.6-5.7-2.7-9.6-3.9-2.4-.7-3.8-2.9-5.6-4.5a42,42,0,0,0-3.8-3l2.6-.2c.5-4.8,7.5-10.3,10.7-12.9,9-7.4,19.7-11,31.1-13,6-1,14-2.9,20-1.1,3.4,1,6,4.5,8.3,6.8,5.8,5.6,10.4,7,18.2,7.7C900.9,804,900.9,804.2,901.7,803.9Z" transform="translate(41.7 0.8)" fill="#94a64e"/>
      <polygon points="901.9 229.8 901.1 219.9 900.5 212.6 931.4 210 932.2 220.6 933.3 233.7 902.5 236.2 901.9 229.8" fill="#846751"/>
      <path d="M859.4,219.1l.8,9.9c-39.5,19.4-41,80.9-57.8,125.1-26.5,69.7-97.2,83.3-147.7,93.7-37.4,7.7-117.6-20.8-164.8-27.5-11.6-1.6-27.4,11.5-27.4,11.5h-.7l-.9-15.4,1.5-.1s13.5-10.5,25.1-8.8c47.2,6.7,127.4,35.2,164.8,27.5,50.6-10.4,107.3-24.7,133.8-94.4,2.4-6.4,4.6-13,6.6-19.6,12-39.4,19.2-80.1,53.7-96.2h0c.1,0,.2-.1.3-.1a4.88,4.88,0,0,1,.7-.3C854.6,221.2,857.9,219.7,859.4,219.1Z" transform="translate(41.7 0.8)" fill="#f9f0bd"/>
      <path d="M584.9,680.5l7.8.2.6,12.2,49.8,2.9.4-13.9,34.1.3.3,12.8,43.9-.8-.2-9.5,36.9-.9,1.7,9.8,14.8-.2,17.7-.2.4-9,37.5.7,10.3.2.3,47.4v1l-17.8.3-1.7-12.6-36.9,1.2.3,12.3-32.8,1V723.3l-45.9-1.2v14.7l-28.7-.8-1.2-15.8L638,719l-.3,15.6H604.1l-.3-15.6-32.4-.4V731l-41-3-.2-14.1-33.9-.8-2,15.9-35.7-.3-.7-17.9-41.4.2-1.3,14.4-36.4-1.1.3-16.1-30.9-.6-.8,15-36.4-.4-.3-16L267.2,704l-1.8,15.3s-11.7-1.1-21.6-3.2-17.8-4.6-17.8-4.6l.1-14.2s-11.4-1.1-22-2.7-20.5-3.9-20.5-3.9L181.8,703a184.64,184.64,0,0,1-19.8-2.6,87.79,87.79,0,0,1-15.2-4.4l2.3-14.6-33-5.6-3.4,10.4-32-7.8L85,666.6,52,655.2l-3.8,12.4A94.72,94.72,0,0,1,30,661.4c-8.3-4-19.8-11.3-19.8-11.3l2.3-14.9L-1.2,633V596.1l17.4,5.5-1.8,11.7,33.3,13.4,3-11.9,21.4,7,17.1,5.5-1.6,12.1a68.53,68.53,0,0,0,14.3,3.7c8.7,1.3,11.3,1.8,11.3,1.8l3.4-8.9s4.9.4,15.5,1.7,14.9,3.6,14.9,3.6l-1.6,14.8a93.54,93.54,0,0,0,14.8,3.5c9.8,1.7,13,4.5,13,4.5l1.7-11.4,37.8,7.4.3,13.3,39.3,9.5.6-12.2L282,673l.3,10.5,39.4,2.8.2-11.2,41.5-.1.5,13.3h25.5l-.6-11.4,40.7.9,1.3,11.4,34.9.3,1.4-10.4h9.3l24.1.1.5,12.9,45.6,1.6.3-14Z" transform="translate(41.7 0.8)" fill="#f9f0bd"/>
      <path d="M703.7,920.2c.1-2.8-.4-5.7.7-8.3.8-1.8,8.3-11.4,9.9-12,2.7-1.1,6.3-1.1,8.9-2.5,2-1.2,4.2-4.3,6-5.8a76.55,76.55,0,0,1,18.3-11.3c4.2-1.7,9.3-.2,13.4-1.8,4.4-1.8,8.1-4.5,11.8-7.2a77.45,77.45,0,0,1,9-5.9c6.2-3.2,13.7-4.1,19.8-6.5,4.9-2,10.5-4,15.8-3.2,1.7.3,8.1,2.9,12.9,4.4a16.62,16.62,0,0,0,5.1,1.1c-8.3,6.5-14.7,16.4-20.6,24.7-1,1.4-3,2.4-4,3.9-3.3,4.6-7.2,10.8-8.8,16.2-1,3.2-1.1,6.7-2.1,9.9-1,2.9-3.6,5-4.7,7.8a12.12,12.12,0,0,0-.7,2.9H702.1c.3-1,.6-1.9,1-2.9A10.73,10.73,0,0,0,703.7,920.2Z" transform="translate(41.7 0.8)" fill="#b2c968"/>
      <path d="M834.4,837.7c.4,5.8-3.2,17.9-3.8,21.4l-.3.9c-4.9-1.5-11.2-4.1-12.9-4.4-5.4-.8-11,1.2-15.8,3.2-6,2.4-13.6,3.3-19.8,6.5a77.45,77.45,0,0,0-9,5.9l-.3-.4c3.7-8.3-2.4-11.5-3.2-19.2a25.92,25.92,0,0,0-3-10.3c-2.5-5.3-4.2-12.5-6.7-19,1.1-2.5,2.9-3.4,4.9-5.1,7.6-6.3,15.5-10.8,25.7-8.6,5,1.1,12,4.4,17.1,8a42,42,0,0,1,3.8,3c1.7,1.6,3.1,3.8,5.6,4.5,3.9,1.2,6.1,1.3,9.6,3.9C828.9,829.8,834.1,834.1,834.4,837.7Z" transform="translate(41.7 0.8)" fill="#94a64e"/>
      <path d="M729.5,520.6a.31.31,0,0,1,.1-.2,14,14,0,0,1,4.8,2.6c1.9,1.6,3.1,3.3,5.6,3.8,5.7.9,11.5-3.9,17-2.5,3.4.9,7.1,10.5,11.3,12.6,2.7,1.3,6.9,1,9.4,2.5a18,18,0,0,0,5,2.5c2.3.5,7.1-.5,8.8,1.3,2,2,12.4,9.3,10.4,10.3h0c-6.8-2.5-10.1-8.5-18.5-6.8-3.7.7-6.5,5.2-9,7.7-1.8,1.8-5.2,2.7-7.3,4.3-1.9,1.4-3.9,3.5-6,4.7-6.5,3.7-14.7,4.5-21.8,6-4.9,1-9.4,3.3-14.1,5.1-3.9,1.5-8.1,2.6-11.9,4.3a67.72,67.72,0,0,0-8.5,4.3c-3.6,2.2-8.3,6.8-12.8,7.3-8.2.9-18.8-5.7-27.3-6.4-7.8-.6-11.9,3.2-11.9,11.1a106.43,106.43,0,0,0,.4,12.7c-.1,0-.3.1-.4.1-2.4.7-5,2.5-7.7,1.7s-1.5-2.4-1.7-4.7c-.4-3.1-3.6-8.4-6.4-9.8-4.6-2.3-7.9,3.4-11.9,3.4-2.2,0-3.1-2.3-5.1-2.6-6.2-.9-12.7-1.1-18.8-3-7.3-2.2-13.7-6.6-21.3-8.1-5.8-1.2-13-1.7-18.8-.4-3,.7-5.5,3.5-8.5,3.8-.4,0-.7.1-1.1.1-.1-1.7-3-4-3.4-5.5-.3-1.2-4.9-2.2-5.2-3.4-.9-3.6-4.6-2.5-6.7-5.3-.8-1-1-2.8-1.9-3.8-2.8-2.9-6.9-4.5-10-6.9a9.43,9.43,0,0,1-1-1c-2.1-6.8,10.1-10.9,15.5-12.8,16.5-5.9,32.3.7,49-3.1a119.71,119.71,0,0,0,28.9-11.3c6.1-3.3,11.7-7.7,18.2-10,3.3-1.2,10.4-2.4,13.8-1.3,3.7,1.2,4.8,5.2,9.4,4.4,2.8-.5,4.7-2.9,6.9-4.4a44.71,44.71,0,0,1,14.5-6.3c10-2.3,20.2.5,30.2,1.3,4.4.3,8.8.3,13.2.6a39.52,39.52,0,0,1,6.6,1.1Zm0,.1c0,.1-.1.1-.1.2C729.4,520.8,729.4,520.8,729.5,520.7Zm-.3.5Z" transform="translate(41.7 0.8)" fill="#92a650"/>
      <path d="M759.5,822.3c2.5,6.5,4.2,13.7,6.7,19a24,24,0,0,1,3,10.3c.8,7.7,6.8,10.9,3.2,19.2l.3.4c-3.7,2.7-7.4,5.4-11.8,7.2-4.1,1.6-9.1.1-13.4,1.8a73.49,73.49,0,0,0-18.3,11.3c-1.8,1.6-4,4.7-6,5.8-2.6,1.5-6.2,1.5-8.9,2.5-1.5.6-9.1,10.2-9.9,12-1.1,2.6-.6,5.5-.7,8.3-3.1,1.7-9.9-13-13-17-8.6-11-17.7-19.7-32.3-20.7-5.4-.4-9.1,2.1-14,3.7-5.6,1.9-13,2.2-17.6,6.2-4.1,3.6-6.1,8.9-8.9,13.5l-.5-.3c-2.7-9.1-12.5-15-19.9-20-4.9-3.3-8.9-7.9-14.7-9.7-10.4-3.2-22.5-3.8-33-3.6-6.6.1-13.6,3.7-20.2,3.4-3.3-.1-5.1-2-8.1-3a47.56,47.56,0,0,0-13.1-1.8V869c-2.6-3.2-3.4-6.3-6.1-9.5-2.1-2.5-5.4-3.2-7.5-5.7-1.8-2.2-1.1-5.9-2.2-8.2a6,6,0,0,0-1.1-1.4l.8-.3c5.1-.9,12.8-3.6,17.9-4.7,20.3-4.2,41.5.5,61.4-6.2,13.7-4.6,26.4-11,39.5-17.3,3-1.5,8.1-5.1,11.5-5.9,1.9-.5,4,.6,5.9.5,5.4-.3,3-1.5,9-.2,3.3.7,2.8,1.8,5.6,3.5,4.1,2.6,9,3.3,13.6,4.3,3.3.7,4.3,2.3,7.8,1.7,7.9-1.2,15.1-4.8,23.4-4.8,7.5,0,14.5,1.1,22-.9,6.7-1.8,12.5-3.7,19.3-4.2,7.6-.6,15.8-6.3,22.9.1C755.5,813.1,757.7,817.5,759.5,822.3Z" transform="translate(41.7 0.8)" fill="#94a64e"/>
      <path d="M455.7,653.7c1.7-2,4.4-7.2,5-8.1,4.7-7.7,13.3-18,23-18.8,6.3-.5,15.3,5,20.5,2.1,4.6-2.6,6.2-8,8.5-12.4,6.2-11.7,14.5-25.8,28.6-29,3.4-.8,7.1.6,10.4.5a4.1,4.1,0,0,0,1.1-.1c3-.4,5.5-3.2,8.5-3.8,5.8-1.3,13-.7,18.8.4,7.6,1.5,14,5.9,21.3,8.1,6.1,1.8,12.6,2.1,18.8,3,2,.3,2.9,2.6,5.1,2.6,4,0,7.3-5.7,11.9-3.4,2.8,1.4,6,6.7,6.4,9.8.3,2.3-1.1,3.9,1.7,4.7s5.3-1,7.7-1.7c.1,0,.3-.1.4-.1v.1c0,.2.2,0,.4-.3,4.9-1.6,9.7-4.3,14.9-4.8,3.7-.4,6.3,1.4,9.4,3,5.5,2.8,11.5,5.9,17.9,5.1,3.5-.4,7-2.1,10.2-3.4,7.5-3.1,15.1-5.7,23-6.8,5.1-.7,13.2,1.8,17.1,5.1,1.3,1.1,2.3,3.4,3.8,4.3,2.5,1.4,5.6-.2,8.1,1.7,3.5,2.6,3.3,5.4,6,8.1,1.5,1.5,5.8,4.9,7.3,6.4v.2c-2.5.2-5,1.5-7.5,1.9-3,.5-6.3-.3-9.4,0-8,.9-17.3.9-24.8,3.6-5,1.8-9.8,5.5-15.1,6.1-6.3.8-12.6,2.2-19.1,2.2-4.3,0-8.6-1.9-12.9-.7-7.4,2-12.4,8.3-18.7,12.2-3.5,2.2-7.5.6-11.2,1.8-3.9,1.3-7.7,2.7-11.5,4.3-2.8,1.2-5.6,3.5-8.6,4-4.1.7-8.5-.7-12.6-1.1s-8.2.7-12.2,1.4c-6.3,1.2-14.6,3-18.4,8.6a76.93,76.93,0,0,0-4.8,10l-38-.8-.3,14-45.6-1.6-.5-12.9-24.1-.1V679c0-5.8-4.3-9.7-7.8-13.1-5.6-5.6-10.6-8.4-16.1-9.8l2.3-1.6h.1C455,654.5,455.3,654.2,455.7,653.7Z" transform="translate(41.7 0.8)" fill="#3d7038"/>
      <path d="M690.7,903.2c3.1,4,9.9,18.6,13,17a9.74,9.74,0,0,1-.6,3.4c-.4,1-.7,1.9-1,2.9H599.5c3.8-4.3,8.4-8.5,10.6-11.1s4.9-5.2,7-8.1c.3-.4.5-.8.8-1.2,2.8-4.5,4.8-9.9,8.9-13.5,4.6-4,12-4.4,17.6-6.2,4.9-1.7,8.6-4.1,14-3.7C673.1,883.5,682.1,892.2,690.7,903.2Z" transform="translate(41.7 0.8)" fill="#94a64e"/>
      <path d="M617.4,905.7l.5.3a8.34,8.34,0,0,1-.8,1.2c-2,3-4.7,5.4-7,8.1s-6.9,6.8-10.6,11.1H433.7c1.2-1.8,2.1-3.9,3.2-5.6,1.2-2,2-2.1,3.7-3.2,1.4-1,2.2-3.5,3.2-4.9.5-.7,1.1-1.4,1.7-2.1a31.18,31.18,0,0,1,8.6-7c9.4-4.7,16.8-13,25.3-18.9,3.3-2.3,6.7-4.7,9.9-6.8,1.2-.9,3-.7,4.2-1.6,1.9-1.3,4-3.5,6.3-4.3a26.7,26.7,0,0,1,8.7-1.1,51.7,51.7,0,0,1,13.1,1.8c3,1,4.8,2.9,8.1,3,6.6.2,13.6-3.3,20.2-3.4,10.5-.2,22.7.4,33,3.6,5.8,1.8,9.8,6.4,14.7,9.7C605,890.7,614.8,896.6,617.4,905.7Z" transform="translate(41.7 0.8)" fill="#b2c968"/>
      <path d="M392.9,557a24.47,24.47,0,0,0,5.5-.1c3.3-.5,4.9-2.7,7.5-4.4a35.39,35.39,0,0,1,13.2-5c4.3-.6,9.6,2.4,13.8,3.2,3.2.5,6.8-.7,10,0,8.7,1.7,17.7,2.3,26.4,3.8,3.8.6,8.2-.9,11.9,0,2.1.5,4.1,2.5,6.3,2.5,1.9,0,4.2-2.9,5.6-3.8,3.9-2.3,11.1-4.3,15.7-3.1,1.9.5,2.8,3.2,4.4,4.4,2.1,1.6,5.7,1.9,7.5,3.8,1.2,1.2,1.7,2.7,2.7,4a4.74,4.74,0,0,0,1,1c3.2,2.4,7.2,4.1,10,6.9.9.9,1.1,2.7,1.9,3.8,2.1,2.8,5.8,1.6,6.7,5.3.3,1.2,4.9,2.2,5.2,3.4.4,1.5,3.3,3.8,3.4,5.5-3.4.1-7-1.3-10.4-.5-14,3.2-22.4,17.3-28.6,29-2.3,4.3-3.9,9.8-8.5,12.4-5.2,2.9-14.2-2.6-20.5-2.1-9.7.8-18.3,11.1-23,18.8-.6.9-3.3,6.1-5,8.1h-.1c-.4,0-1.1.7-.9.8l-2.3,1.6c-6-1.6-12.5-1.5-20.7-1.5-6.4,0-11.5.5-17.7-.7-1.9-.4-3.3.6-5-.7-2.1-1.5-3.3-4-4.9-5.7-5.4-5.4-12.3-8.6-17-14.9-2.7-3.6-3.9-7.4-7.1-10.6-2-2-.2-7.3-.7-9.9-.6-3-4.6-3.9-6.4-5.7s-2.4-5.2-4.3-7.1-4.4-2.1-6.4-3.5c-12.4-9.3-27.5-13.2-42.4-17.6l2.3-1.8c5.7-11.4,24.5-29,38.3-30.8,8.7-1.1,12.6,4.2,19.5,8.2A40.74,40.74,0,0,0,392.9,557Z" transform="translate(41.7 0.8)" fill="#b2c968"/>
      <path d="M508.5,869.1v1.8a26.7,26.7,0,0,0-8.7,1.1c-2.3.9-4.4,3.1-6.3,4.3-1.2.9-3,.7-4.2,1.6-3.1,2.2-6.5,4.5-9.9,6.8-8.6,5.9-15.9,14.2-25.3,18.9a34.39,34.39,0,0,0-8.6,7h0c-3.2.9-9.4-11.6-11.3-13.7-1.1-1.3-3-1.8-4.1-3.1-4.6-5.5-17-16.1-24.1-18.4-6.3-2.1-13-3.2-19.5-5.1-6.9-2-13.8-4.7-21-5.3-7-.6-13.8,2.8-20.8,2.5-4.6-.2-8.5-2.9-12.8-3.1-4.8-.2-9.7,2.2-14.5,2.1-10.4-.1-20.7-4.9-31.1-5v-.4c-2.7-1-10.6-9.6-14.9-16.1-1.5-2.3-5.3-5-6.3-7.6s-.6-5.4-1.2-8.1c-.8-3.2-2.5-5.7-4.2-8.4-3-5-3.6-10.9-7.5-15.7-1.7-2-4.5-3.2-6.9-4.8,1.8-1.5,7.1-1.6,9.6-3,15.1-8.2,39.9-14.2,56.5-7.7,12.8,5,22,14.1,36.6,13.4,21.5-1,41.6-10.9,63.5-7,5.1.9,12.8,4.4,16.2,8.5,2.2,2.6,4.4,6.6,8.3,7.8,6.2,1.8,13.8.9,19.6,3.8,12.2,6.3,24,14.7,32.6,25a36,36,0,0,0,3.4,3,6,6,0,0,1,1.1,1.4c1.1,2.3.4,6,2.2,8.2,2.1,2.5,5.4,3.2,7.5,5.7C505,862.8,505.8,865.9,508.5,869.1Z" transform="translate(41.7 0.8)" fill="#94a64e"/>
      <path d="M476.4,679.1h-9.3l-1.4,10.4-34.9-.3-1.3-11.4-40.7-.9.6,11.4H363.9l-.5-13.3-41.5.1-.2,11.2-39.4-2.8L282,673l-29.4-2.4-.6,12.2-39.3-9.5-.3-13.3-37.8-7.4L172.9,664s-3.1-2.8-13-4.5a93.54,93.54,0,0,1-14.8-3.5l1.6-14.8s-4.2-2.3-14.9-3.6-15.5-1.7-15.5-1.7l-3.4,8.9s-2.5-.5-11.3-1.8a71,71,0,0,1-14.3-3.7l1.6-12.1-17.1-5.5.1-.4c0-8.1,3.7-11.1,7.8-17.7,4.8-7.7,12.1-17,21.9-18.4,3.8-.5,5.8,2.2,8.5,4.2s6.9,1.7,9.9,1.4c7.2-.7,13.6-5.2,20.5-7.1,6.3-1.7,12.9-2.2,19.1-3.5,19.9-4.4,31.4-27.6,52.4-29.7a31.93,31.93,0,0,1,13.7,1.8c6.4,2.2,12.2,5.6,19.6,6.7,10.3,1.5,18.8-7.4,29-5.7,2.9.5,4.3,2.5,6.4,4.2,2.8,2.3,7.6,3.3,9.9,5.7,3.5,3.5,7.1,7.2,12,9.2,5.5,2.2,11.3,4,17.1,5.7,14.8,4.4,30,8.4,42.4,17.6,2,1.5,4.6,1.8,6.4,3.5,1.9,1.9,2.4,5.2,4.3,7.1s5.8,2.7,6.4,5.7c.5,2.6-1.3,7.9.7,9.9,3.2,3.2,4.4,7,7.1,10.6,4.7,6.3,11.6,9.5,17,14.9,1.7,1.7,2.9,4.1,4.9,5.7,1.7,1.3,3.1.3,5,.7,6.2,1.2,11.3.7,17.7.7,8.2,0,14.7-.1,20.7,1.5,5.5,1.4,10.6,4.3,16.1,9.8C472,669.4,476.4,673.3,476.4,679.1Z" transform="translate(41.7 0.8)" fill="#92a650"/>
      <polygon points="504.1 444 504.1 444.9 472.7 473.7 472.4 473.7 472.4 430 483.1 422.3 501.9 408.7 502.5 417.3 503.4 432.6 504.1 444" fill="#846751"/>
      <path d="M445.5,910.7h0c-.6.8-1.2,1.5-1.7,2.1-1,1.4-1.8,3.9-3.2,4.9-1.7,1.2-2.5,1.3-3.7,3.2-1.1,1.7-2,3.7-3.2,5.6H224a24.92,24.92,0,0,1,2.4-6.7c2.1-2.8,4.2-5.6,6.2-8.4,1.9-2.5,3.9-5,6-7.4,4.2-4.8,5.4-12.6,10.1-17,3.9-3.6,8.2-6.8,12.1-10.4,6.9-6.4,14.3-14.9,24.7-15.1h.9c10.4.1,20.7,4.8,31.1,5,4.8.1,9.7-2.3,14.5-2.1,4.3.2,8.2,2.9,12.8,3.1,7,.3,13.9-3.1,20.8-2.5,7.2.6,14.1,3.4,21,5.3,6.4,1.8,13.1,3,19.5,5.1,7.1,2.4,19.5,12.9,24.1,18.4,1.1,1.3,3,1.8,4.1,3.1C436,899.1,442.3,911.6,445.5,910.7Z" transform="translate(41.7 0.8)" fill="#94a64e"/>
      <polygon points="482 420.7 483.1 422.3 472.4 430 472.4 429.9 460.4 429.9 460.3 415.9 460.2 415.8 460.4 415.6 481.3 401.7 481.4 401.9 481.6 409.2 482 420.7" fill="#846751"/>
      <polygon points="481.4 401.6 481.3 401.7 460.4 415.6 460.2 415.8 449.4 404.6 450 404 470.7 394.2 481.4 401.6" fill="#846751"/>
      <path d="M418.7,429.1h12v44.2H402.1a52.18,52.18,0,0,1,3.1-17l-.4-.1-21.1-2.5v.2a122.31,122.31,0,0,0-2.1,19.5H369.4V429.2h49.3Z" transform="translate(41.7 0.8)" fill="#846751"/>
      <polygon points="460.3 415.9 460.4 429.9 436.2 429.9 436.2 428.7 436.4 417.6 436.4 415.7 449.1 404.3 449.4 404.6 460.2 415.8 460.3 415.9" fill="#846751"/>
      <path d="M404.8,456.1l.4.1a53,53,0,0,0-3.1,17H381.6a122.31,122.31,0,0,1,2.1-19.5v-.2Z" transform="translate(41.7 0.8)" fill="#f9f0bd"/>
      <path d="M387.9,547.8c2.4,2.9,3.5,5.5,5,9.2-4.6-.4-9.8-1.6-12.7-3.2-6.9-3.9-10.8-9.3-19.5-8.2-13.9,1.7-32.6,19.4-38.3,30.8l-2.3,1.8c-5.8-1.7-11.6-3.5-17.1-5.7-4.9-2-8.6-5.8-12-9.2-2.3-2.3-7.1-3.4-9.9-5.7-2.1-1.7-3.5-3.8-6.4-4.2-10.2-1.7-18.7,7.1-29,5.7-7.4-1.1-13.2-4.5-19.6-6.7l2.9-.2c.8-8.6,1.6-13.9-3-21.4-.7-1.2-1.3-5.5-2.4-6.2a.76.76,0,0,0-.4-.2c-.1-2.1,3.6-9.1,4.4-10.4,1.6-2.6,10-5.5,12.6-6.8,14.7-7.4,24.8-12.8,40.2-3.2,1.6,1,3.4,6,4.4,6.4,2.1.9,4.5-3.5,5.4-4.5,3.7-3.8,9.4-10.2,14.9-10.6,9.9-.7,15.9,7.3,25,9.3s16.6-4.7,24.2-2.7c5.7,1.5,1.2,11.3,4.6,14.4,4,3.6,13.1-2.8,16.8,1.6,2.6,3.2,2.6,8.9,4.8,12.4a37.12,37.12,0,0,0,2.3,3.2c1.7,2.2,3.4,4.4,3.7,7.3C386.8,543.2,386.1,545.7,387.9,547.8Z" transform="translate(41.7 0.8)" fill="#b2c968"/>
      <path d="M245.3,800.6c2.4,1.6,5.3,2.8,6.9,4.8,4,4.8,4.5,10.7,7.5,15.7,1.7,2.7,3.4,5.1,4.2,8.4.6,2.7.3,5.5,1.2,8.1s4.8,5.3,6.3,7.6c4.2,6.4,12.1,15.1,14.9,16.1v.4h-.9c-10.4.2-17.8,8.8-24.7,15.1-3.9,3.6-8.2,6.8-12.1,10.4-4.7,4.4-5.9,12.2-10.1,17-2.1,2.4-4.1,4.9-6,7.4l-.5-.4c-1.9-7.8-4.7-9.5-8.7-15.8-1.8-2.8-6.5-3.9-8.9-6.2-4.5-4.4-8.3-9.5-12.3-14.2-5.1-6-9.9-14.5-17.8-17.5-16.9-6.5-36.8-4.4-54.3-3.1-18.5,1.4-30.9,5.5-47.6,12.9-7.2,3.2-12.9,6.5-17.6,13.6-.9,1.4-3.8,5.1-3.4,6.7l-2.8.8a14.88,14.88,0,0,1-8-4.5c-3.5-4.2-3-9.9-4.9-14.6-1.6-3.8-4.8-5.9-7.3-8.9-2.8-3.6-4.7-7.6-7.8-11.1-2.1-2.4-5.1-8-8.3-9.1-7.7-2.8-15.7-3-23.7-2.5V802c7.5-6.3,15.6-11.9,23.2-18.1,4-3.2,8-3.8,12.5-5.8,5.1-2.2,9-5.3,14.6-6.6,10.9-2.5,19.3,2.3,29.7,1.8,6.7-.3,13.4-.8,20-1.1,11.4-.6,20-8.9,30.9-11.1,5.6-1.1,12.3-1.6,18-.3,4.6,1,5.9,3.5,10.6,4,19.9,1.8,39.7,5.7,57.4,15.3,6,3.3,12.7,3.7,18.2,7.7,3.6,2.6,6.2,7.5,9,10.8C243.6,799.3,244.4,800,245.3,800.6Z" transform="translate(41.7 0.8)" fill="#94a64e"/>
      <path d="M232.1,911.1l.5.4c-2.1,2.7-4.1,5.5-6.2,8.4a24.92,24.92,0,0,0-2.4,6.7H86.6a41,41,0,0,1-1-4.8c-.7-4.4.3-7,.5-11.3.4-6.8-4.7-12.7-9.6-16.7-4.7-3.9-11.7-4-17.7-5.5l2.8-.8c-.4-1.6,2.4-5.3,3.4-6.7,4.8-7,10.5-10.4,17.6-13.6,16.7-7.4,29.1-11.6,47.6-12.9,17.5-1.3,37.3-3.4,54.3,3.1,7.9,3,12.7,11.5,17.8,17.5,4,4.8,7.8,9.9,12.3,14.2,2.4,2.3,7.2,3.4,8.9,6.2C227.4,901.6,230.2,903.3,232.1,911.1Z" transform="translate(41.7 0.8)" fill="#b2c968"/>
      <path d="M223.2,524.3c.1.1.3.1.4.2,1.2.7,1.7,5,2.4,6.2,4.6,7.5,3.8,12.8,3,21.4l-2.9.2a30.27,30.27,0,0,0-13.7-1.8c-21,2.1-32.5,25.3-52.4,29.7-6.3,1.4-12.8,1.9-19.1,3.5-7,1.9-13.3,6.4-20.5,7.1-3,.3-7.3.5-9.9-1.4s-4.7-4.8-8.5-4.2c-9.9,1.4-17.1,10.7-21.9,18.4-4.1,6.6-7.8,9.6-7.8,17.7l-.1.4-21.4-7-3,11.9L14.5,613.2l1.8-11.7L-1.1,596V525c6.4-2,12.9-3.4,18.9-4.8,7.8-1.8,18.3-4.7,24.7,2.3,8.9,9.6,7.8,23.3,11.7,35,1.5,4.5,3.8,11.8,9.9,10.9,8-1.2,14.3-14.1,17.8-20.3,6-10.5,14-17.4,24.1-23.7,10-6.1,24-9.5,35.8-9.6,4.6,0,11.5,1.5,15.9.5,10.5-2.4,20.4-27.6,32-21.9,8.5,4.1,11.6,20.6,17.4,27.5,2,2.5,5.4,6.9,6.2,7C213.4,528,218.4,521.9,223.2,524.3Z" transform="translate(41.7 0.8)" fill="#b2c968"/>
      <path d="M86.6,926.5H-1.2V837.3c8-.5,16-.3,23.7,2.5,3.2,1.2,6.1,6.8,8.3,9.1,3.1,3.5,5,7.5,7.8,11.1,2.4,3.1,5.7,5.2,7.3,8.9,2,4.8,1.4,10.5,4.9,14.6a14.88,14.88,0,0,0,8,4.5c6,1.6,13,1.7,17.7,5.5,4.9,4.1,10,9.9,9.6,16.7-.3,4.3-1.2,6.8-.5,11.3C85.9,923.3,86.2,924.9,86.6,926.5Z" transform="translate(41.7 0.8)" fill="#b2c968"/>
    </g>
  </g>
</svg>
