<?xml version="1.0" encoding="utf-8"?>
<!-- Generator: Adobe Illustrator 24.0.2, SVG Export Plug-In . SVG Version: 6.00 Build 0)  -->
<svg version="1.1" xmlns="http://www.w3.org/2000/svg" xmlns:xlink="http://www.w3.org/1999/xlink" x="0px" y="0px"
	 viewBox="0 0 1326.1 918.5" style="enable-background:new 0 0 1326.1 918.5;" xml:space="preserve">
<style type="text/css">
	.st0{display:none;}
	.st1{display:inline;fill:none;stroke:#000000;stroke-width:4;stroke-linecap:round;stroke-linejoin:round;}
	.st2{display:inline;fill:none;stroke:#000000;stroke-width:9.3952;stroke-linecap:round;stroke-linejoin:round;}
	.st3{fill:none;stroke:#000000;stroke-miterlimit:10;}
	.st4{fill:none;stroke:#000000;stroke-width:9.3952;stroke-linecap:round;stroke-linejoin:round;}
	.st5{display:inline;fill:#B2C968;}
	.st6{display:inline;fill:#846751;}
	.st7{display:inline;fill:#4AAAE5;}
	.st8{display:inline;fill:#92A650;}
	.st9{display:inline;fill:#3D7038;}
	.st10{display:inline;fill:#94A64E;}
	.st11{display:inline;fill:#F9F0BD;}
	.st12{display:inline;fill:#F2EFBE;}
</style>
<g id="Layer_1" xmlns:vectornator="http://vectornator.io">
	<g id="Guideline" vectornator:layerName="Layer 2" class="st0">
		<path class="st1" d="M829.2,525.4h404.6v301H829.2V525.4z"/>
		<path class="st1" d="M-27.1,637.8h929.2v187.9H-27.1V637.8z"/>
		<path class="st1" d="M1230.6,657h122.8v116.9h-122.8V657z"/>
	</g>
	<g id="Layer_2" class="st0">
		<path class="st2" d="M922.4,802.9c-0.1-7,0.7-164.2,0.7-164.2l28.5,0.3l-0.3,10l39.6-0.3l-0.3-10.9l39.7-0.2l0.3,11.2l36.4,0.3
			l0.1-12.9l34.4-0.2l-0.2,12.3l40.3,1l-0.1-13.6l35.2,0.8l0.7,11.9l29.7,0.8l0.4-13.5l23.4,1.1l0.8,140.2"/>
		<path class="st2" d="M830.2,681.1l1.7-85.5l15.3,9.2l-0.4,12.4l16.2,6.4l-0.7-11.8l25.1,11.1l-0.5,11.6l19.5,7.1l0.5-10.3
			l15.8,7.4"/>
		<path class="st2" d="M832.4,594.3l31.3-0.3l-0.3,8.7l32.2,0.1l0.1-9h23.4"/>
		<path class="st2" d="M1168.8,604l20.6,10l-0.6,8.7l16.4,7.3l0.1-10.8l26.2,17.7"/>
	</g>
	<g id="Layer_3" class="st0">
		<path class="st2" d="M1168.7,592.3l-0.3,43.3"/>
		<path class="st2" d="M981.4,593v54"/>
		<path class="st2" d="M918.8,569v65.6"/>
		<path class="st2" d="M1171.1,592.1l-191.4,0.6"/>
		<path class="st2" d="M913.3,568.2c0,0,12.7-4.6,21.2-11.5c8.4-6.9,12.4-17.2,12.4-17.2s6.2,17.9,14.9,31.1
			c8.6,13.1,19.7,21.5,19.7,21.5"/>
		<path class="st2" d="M914.1,561.4c0,0,12.6-9.2,18.6-16.4c7-8.3,16.7-32.7,16.7-32.7s6.5,24.7,15.2,37.9
			c8.6,13.1,21.7,27.4,21.7,27.4"/>
		<path class="st2" d="M987.2,591.5l-0.4-14.4"/>
		<path class="st2" d="M1169.1,592c0,0-22-17.6-35.2-37.2c-13.1-19.6-17.4-41.1-17.4-41.1l-166.8-1.4"/>
		<path class="st2" d="M1119.7,525.9l-165.4,0.7"/>
		<path class="st2" d="M914.9,561c-0.9-0.6-1.2,5-1.2,5.5"/>
	</g>
	<g id="Layer_4" class="st0">
		<path class="st2" d="M-30.8,637l16.1,5l-0.1-10.2l26.6,4.2l-2.3,14.9c0,0,11.6,7.3,19.8,11.3c8.3,4,18.2,6.2,18.2,6.2l3.8-12.4
			l33,11.4L80.1,679l32,7.8l3.4-10.4l33,5.6l-2.3,14.6c0,0,6.4,2.7,15.2,4.4c8.7,1.7,19.7,2.6,19.7,2.6l1.9-12.3
			c0,0,9.8,2.2,20.5,3.9c10.6,1.7,22,2.7,22,2.7l-0.1,14.2c0,0,8,2.5,17.8,4.6c9.8,2.2,21.6,3.2,21.6,3.2l1.8-15.3l43.5,2.2l0.3,16
			l36.4,0.4l0.8-15l30.9,0.6l-0.3,16.1l36.4,1.1l1.3-14.4l41.4-0.2l0.7,17.9l35.7,0.3l2-15.9l33.9,0.8l0.2,14l41,3v-12.4l32.4,0.4
			l0.3,15.6h33.6l0.3-15.6l38.5,0.9l1.2,15.8l28.7,0.9v-14.7l45.9,1.2V736l32.8-1l-0.2-12.3l36.9-1.2l1.7,12.6l32.5-0.6l0.4-11.7
			l47.8,1.2l-0.7,80"/>
		<path class="st2" d="M-28.7,607.3c8.3,3.1,11.1,1.7,11.1,1.7l5.3-15.4l27.9,8.7L13.9,614l33.3,13.4l3-11.9L88.7,628L87,640.2
			c0,0,5.5,2.3,14.3,3.7c8.7,1.4,11.3,1.8,11.3,1.8l3.4-8.9c0,0,4.9,0.4,15.5,1.7c10.6,1.3,14.9,3.6,14.9,3.6l-1.6,14.8
			c0,0,4.9,1.8,14.8,3.4c9.8,1.7,13,4.5,13,4.5l1.7-11.4l37.8,7.4l0.3,13.3l39.3,9.5l0.5-12.2l29.4,2.4l0.3,10.5l39.4,2.8l0.2-11.2
			l41.5-0.1l0.5,13.3H389l-0.6-11.4l40.7,0.9l1.3,11.4l34.9,0.3l1.4-10.4l33.3,0.2l0.5,12.9l45.6,1.6l0.3-14l45.8,0.9l0.6,12.2
			l49.8,2.9l0.4-13.9l34.1,0.3l0.3,12.8l43.9-0.8l-0.2-9.5l36.9-0.9l1.7,9.8l14.8-0.2l17.7-0.2l0.4-9l47.8,0.9l0.3,47.4"/>
		<path class="st2" d="M1339.2,708.3l-40.8,2.2l0.7,14.5l-36,1.7l-2.2-13.3l-30.3-1.2"/>
		<path class="st2" d="M1337,687.6l-40.8,2.2l0.7,14.5l-36,1.7l-2.2-13.3l-24.7-3.2"/>
	</g>
	<g id="Layer_5" class="st0">
		<path class="st2" d="M383,454.6c0,0-6.6,31.5,3.6,50.5c6.6,12.3,19.9,23.7,33.9,26.9c97.3,22.4,164.5-28.9,354.7-94.7
			c53.1-18.4,268.6-85.6,404.1-107.8c63.6-10.5,159.6-4,159.6-4"/>
		<path class="st2" d="M404.6,457c0,0-8.1,20.2,2,39.2c6.6,12.3,22,18.5,35.9,21.7c35.9,8.3,91.7-12.5,146.3-29.7
			c93.5-29.4,188.9-65.6,209-72.4c32.2-11,268.6-85.6,404.1-107.8c63.6-10.5,132.2-2.9,132.2-2.9"/>
		<path class="st2" d="M404.2,456.9l-21.9-2.6"/>
		<path class="st2" d="M858.7,231.4c-41.5,18.3-39.7,78.4-56.8,123.5c-26.5,69.7-97.2,83.3-147.7,93.7
			c-37.4,7.7-117.6-20.8-164.8-27.5c-11.6-1.6-25.1,8.8-25.1,8.8"/>
		<path class="st2" d="M857.3,220.9c0,0,1-0.7-10.5,4.3c-4.8,2.1,9.4-4.2,0.2-0.1c-41.5,18.3-44.4,71.3-61.5,116.4
			c-26.5,69.7-83.2,84-133.8,94.4c-37.4,7.7-117.6-20.8-164.8-27.5c-11.6-1.6-25.1,8.8-25.1,8.8"/>
		<path class="st2" d="M1178.6,212.8c0,0-33.6,10.5-78.4,18.4s-48.4,15.7-100.7,13.1c-52.3-2.7-108.6-23.7-108.6-23.7"/>
		<path class="st2" d="M1180.3,216.1c0.6-4.5-0.9-5.7-0.1-9.2c0.2-0.6,6.2,0.2,6.2,0.2s8.1,0.5,7.7,1.4c-0.9,1.8,0.7,3.6,0.2,7.3"/>
		<path class="st2" d="M1343.7,198.6c0,0-37.8,0.4-74.8,3.9s-74,8.9-74,8.9"/>
	</g>
	<g id="Layer_6" class="st0">
		<path class="st2" d="M368.8,429.9h61.3V474h-61.3V429.9z"/>
		<path class="st2" d="M430.5,473.7l31.4-28.8l-2.2-36.1l-29.8,21.4"/>
		<path class="st2" d="M418.1,430.4l-0.1-14.5l-11.2-11.6l-12.7,11.3l-0.1,13"/>
		<path class="st2" d="M418.2,415.6l21-14l-10.7-7.4l-20.7,9.8"/>
		<path class="st2" d="M439.7,420.6l-0.6-18.8"/>
		<path class="st2" d="M440.7,409.2l18.9-1"/>
		<path class="st2" d="M369.3,429l24-11.4"/>
		<path class="st2" d="M858.2,212.5L889,210l1.9,23.7l-30.8,2.5L858.2,212.5z"/>
	</g>
	<g id="Layer_8" class="st0">
		<path class="st2" d="M871.4,738.7l3.9-3.4l5.5,3.5l-0.9,10.9l-8.2,0.4L871.4,738.7z"/>
		<path class="st2" d="M800.6,743.8l3.9-3.4l5.5,3.5l-0.9,10.9l-8.2,0.4L800.6,743.8z"/>
		<path class="st2" d="M722.6,744.3l3.9-3.4l5.5,3.5l-0.9,10.9l-8.2,0.4L722.6,744.3z"/>
		<path class="st2" d="M651.7,745.7l3.9-3.4l5.5,3.5l-0.9,10.9l-8.2,0.4L651.7,745.7z"/>
		<path class="st2" d="M580.7,744.2l3.9-3.4l5.5,3.5l-0.9,10.9l-8.2,0.4L580.7,744.2z"/>
		<path class="st2" d="M506.9,742.2l4.7-3.9l6.5,4l-1.1,12.5l-9.7,0.4L506.9,742.2z"/>
		<path class="st2" d="M428.8,740.5l5.3-4.2l7.4,4.4l-1.2,13.6l-11,0.4L428.8,740.5z"/>
		<path class="st2" d="M358.1,730.8l5.1-4l7.1,4.1l-1.2,12.7l-10.6,0.4L358.1,730.8z"/>
		<path class="st2" d="M282.4,726l5.2-3.5l6.1,5.1l-2.6,13.1l-9.8-0.8L282.4,726z"/>
		<path class="st2" d="M199.2,714.6l5-3.4l5.3,5.4l-3.3,13.1l-9.1-1.1L199.2,714.6z"/>
		<path class="st2" d="M121.9,699.3l5.6-3.1l6.1,5.1l-3.4,12.3l-10.2-1.2L121.9,699.3z"/>
		<path class="st2" d="M58.7,678l5.4-2.4l5,5.5l-4.4,11.5l-9.2-2.2L58.7,678z"/>
		<path class="st2" d="M963.5,711.4c0,0-1.7-14.8,15.5-14c18,0.9,15.9,15,15.9,15l-0.9,35.7l-29.9-0.6L963.5,711.4z"/>
		<path class="st2" d="M1031.2,714c0,0-1.7-14.8,15.5-14c18,0.9,15.9,15,15.9,15l-0.9,35.7l-29.9-0.6L1031.2,714z"/>
		<path class="st2" d="M1099.1,712.7c0,0-1.7-14.8,15.5-14c18,0.9,15.9,15,15.9,15l-0.9,35.7l-29.9-0.6L1099.1,712.7z"/>
		<path class="st2" d="M1168.2,713.3c0,0-1.7-14.8,15.5-14c18,0.9,15.9,15,15.9,15l-0.9,35.7l-29.9-0.6L1168.2,713.3z"/>
	</g>
	<g id="Outline" vectornator:layerName="Layer 3">
		<rect x="-1.8" class="st3" width="1327.9" height="927.3"/>
		<path class="st4" d="M-15,489c5-2.5,9.5-6.5,15-7.9c1.5-0.4,3.3,0.4,4.7,0c4.6-1.1,8.8-4.4,13.5-5.5c3.9-1,9.5,0,13.5,0
			c6.3,0,13.6-1,19.8,0c1.4,0.2,2.6,1.3,4,1.6c3.3,0.7,7.3,0,10.3-0.8c3.7-0.9,8.1,0.8,11.9,0s9.2-2.6,12.7-4
			c2.9-1.2,5.7-4.2,8.7-5.5c5-2.1,13.3-2.3,17.4-4.7c4-2.4,7.5-5.8,11.1-8.7c3.2-2.6,7.1-3.4,10.3-5.5c8.8-5.9,17.2-9.8,27.7-11.9
			c4.4-0.9,8.7,0.6,12.7,1.6c2.6,0.6,6,0,8.7,0c9.7,0,20.5-2.7,30.1-0.8c7.9,1.6,16,4.4,23.7,6.3c7,1.7,14.4,2.2,21.4,4
			c5.5,1.4,11.9-1.1,17.4,0c9.7,1.9,19.8,1.6,29.3,4c2.7,0.7,6.1-0.9,8.7,0c3.1,1,4.3,4.3,6.3,6.3c0.5,0.5,12.3,6,13.5,6.3
			c2.6,0.6,5.3-0.8,7.9-0.8c5.3,0,6.4,1.2,11.1,2.4c3.3,0.8,6.3-1.6,9.5-1.6"/>
		<path class="st4" d="M462.1,443.9c21.5-7.2,43.9-1.6,65.7,0.8c3.4,0.4,6.8,2,10.3,2.4c6.3,0.7,13,0.6,19,3.2
			c9.2,3.9,16,13.8,26.1,15.8c4.8,1,10.2-0.2,15,0.8c5,1,11.2,2.9,16.6,1.6c4.5-1.1,11.9-2,16.6-0.8c3.7,0.9,7.2,2.4,11.1,2.4"/>
		<path class="st4" d="M-31.2,211.3c-0.8,0-1.8-0.6-2.3,0c-0.4,0.4,1,0.8,1.6,0.8c3.2,0,7.8-2,10.9-3.1c7.5-2.8,14.6-3.9,22.5-4.7
			c10.2-0.9,20.2,0,30.3,0c2.6,0,8.6-1.2,10.9,0c1.3,0.7,1.9,2.2,3.1,3.1c6.1,4.6,9.4,5.7,17.1,3.1c14.1-4.8,26.1-15,41.1-17.1
			c4.2-0.6,8.4,0.3,12.4,0.8c7.9,1,17.7,0.7,25.6,0c12.2-1,24.2-3.2,36.5-2.3c7,0.5,13.4,2.8,20.2,3.9c12.9,2.1,25.9,1.9,38.9,3.1
			c8,0.7,15.4,4.3,23.3,5.4c8.1,1.2,18.4-1,25.6-4.7c4.4-2.2,8.2-4.8,13.2-5.4c14.9-1.9,30.7-0.8,45.9-0.8c4.7,0,10.1,0.8,14.8,0
			c11.6-1.9,25.4-4.6,37.3-3.1c3.4,0.4,6.6,2.6,10.1,3.1c7.9,1.1,16.2,1,24.1,2.3c22,3.7,44.1,7.5,66.8,5.4c16.1-1.5,33-0.4,49-3.1
			c10.1-1.7,22.2-4.8,32.6-3.1c6.5,1.1,14.6-0.8,21,0.8c15.7,3.9,32.9,0.1,49,1.6c6.2,0.6,11.9,2.4,17.9,3.9c5,1.2,9.8,0.4,14.8,0.8
			c6.9,0.6,14.1,1.5,21,0.8c17.1-1.9,33.6-4,50.5-7.8c10.1-2.2,19.4-6.9,29.5-8.5c13.9-2.3,28.4-1.3,42-4.7c2.1-0.5,4.1-1.8,6.2-2.3
			c2.2-0.5,9.7-10,11.7-9.5c5,1.2,12.2-1.8,17.3-1.8c5.3,0,14.9,10.1,16.8,12.2"/>
		<path class="st4" d="M807.7,209.7c10.9-10.9,34.7-29.3,51.3-31.4c7.4-0.9,13,3.3,19.9,4.2c5.7,0.7,11.2-0.3,16.8-1
			c7.3-1,15.7,0,23,0c6.3,0,13.7-1,19.9,0c6.4,1.1,12.5,4.3,18.8,5.2c3.8,0.5,7.7,0.6,11.5,1c21.7,2.7,44.3-2.2,66,0
			c5.9,0.6,12.5,3.6,17.8,6.3c3.3,1.7,5.6,5.5,9.4,6.3c9.8,2,19.9-6,29.3-7.3c18.1-2.6,37.3,2,55.5,0c17.2-1.9,34.1-5.6,51.3-7.3
			c9.9-1,19.6-3.8,29.3-5.2c14.4-2.1,29.1-2.1,44-2.1c9.8,0,19.9-0.5,29.3,1c9.2,1.5,19.1-1.5,28.3,0c3.3,0.5,6.5,2.7,9.4,4.2"/>
		<path class="st4" d="M841.2,304c6.3-12.6,25.4-9.9,36.7-10.5c30.7-1.6,61.3-3.1,92.2-1c8.1,0.5,17.5,3.1,25.1,5.2
			c5.6,1.6,10.8,4.6,16.8,5.2c6.6,0.7,15.4,0.5,22,0c9.7-0.7,19-2.9,28.3-5.2c11.9-3,24.8-3.4,36.7-7.3c10.9-3.6,20-6.1,31.4-8.4
			c5.2-1,10.5-3.4,15.7-4.2c12.7-1.8,25.1-0.8,37.7,1c4.5,0.6,9.2-0.6,13.6,0c8.9,1.3,16.2,6.2,25.1,7.3c8.2,1,16.9-1.2,25.1,0
			c3.5,0.5,6.1,3.5,9.4,4.2c8.8,1.8,18.4,0.3,27.2,2.1c6.3,1.3,12.7,3.8,18.8,6.3c2,0.8,4.2,2.7,6.3,3.1c5.7,1.1,11.7-2.6,16.8,0"/>
		<path class="st4" d="M1132.2,241.5c-0.3-0.2-1.5-0.5-1.1-0.5c1.6-0.2,3.2,0.1,4.8,0c1.4-0.1,2.8-0.3,4.3-0.5
			c4.3-0.7,8.5-1.6,12.8-2.1c15-1.8,32.3-2,46.9,2.1"/>
		<path class="st4" d="M-6.8,344.9c-5-3.2,42.8,13.4,46,12.4c7.9-2.5,15.8-5.2,23.8-7.2c13.3-3.3,28.6-0.1,42.2-2.1
			c12.7-1.9,25.6-6.2,38.6-5.5c12.8,0.7,28,7.3,40.3,5.7c14.4-1.9,26.7-10.5,39-17.5c10.5-6,27.2-7,37.8-12.7
			c14.1-7.6,15.3-30.3,31.6-31.6c11.7-1,31.8,11.8,43.3,11.5c6.6-0.2,13.6-0.9,20.2-1.7c24.5-2.7,48.6-12.8,73.5-13.5
			c38.5-1,77.7,7.5,115.2,15.4c11.5,2.4,23.8,2.8,35.5,4.1c2.9,0.3,8.2-0.2,10.8,1.3c7.1,3.9,12.3,10,20.6,12.4
			c9.2,2.6,19.7,0.3,28.9,0.4c8.4,0,16.1,3.7,24.5,3.8c6.7,0.1,13.4-0.8,20.1-0.7c7.3,0.1,14.7,1.7,21.6,3.5
			c8.7,2.3,18,1.1,26.7,2.1c4.5,0.5,10.2,2.1,14.8,1.7c5.9-0.5,11.4-2.5,17.3-3c5.1-0.4,10.7,2.5,15.8,1.8c3.8-0.5,6.9-4.2,10.4-3.8
			"/>
		<path class="st4" d="M302.3,364.9c0.4-0.6,0.6-1.5,1.2-1.9c6.5-3.5,12.9-7.7,20.1-9.7c13.3-3.7,27.1-6,40.8-7.3
			c16.6-1.5,33.4-1,50.1-1.2c7.5-0.1,16.2,1.4,23.7,2.7c17,3.1,33.6,6.6,51.1,7.9c14.9,1.1,30-0.1,45,0.2c9.3,0.2,18.6,0.3,28,0.2
			c12.8,0,25.3,0.2,27.2,15.2"/>
		<path class="st4" d="M-1.8,401.5c6.7-5.3,15.5-3.4,23.4-3.3c24.1,0.5,48.5,4.6,72.4,4.4c25.3-0.2,49.3-9,73.6-14.4
			c13.8-3.1,28.3-3,41.8-7.1c10.8-3.3,21.4-7,32.2-10.3c11.8-3.5,22.4-9.4,34.9-7.9"/>
		<path class="st4" d="M71.6,622.1c0-8.1,3.7-11.1,7.8-17.7c4.8-7.7,12.1-17,21.9-18.4c3.8-0.5,5.8,2.2,8.5,4.2
			c2.6,2,6.9,1.7,9.9,1.4c7.2-0.7,13.6-5.2,20.5-7.1c6.3-1.7,12.8-2.1,19.1-3.5c19.9-4.4,31.4-27.6,52.4-29.7
			c13.2-1.3,21.1,6.8,33.3,8.5c10.3,1.5,18.8-7.4,29-5.7c2.9,0.5,4.3,2.5,6.4,4.2c2.8,2.3,7.6,3.3,9.9,5.7c3.5,3.5,7.1,7.2,12,9.2
			c19.6,7.9,42.3,10.5,59.4,23.4c2,1.5,4.6,1.7,6.4,3.5c1.9,1.9,2.4,5.2,4.2,7.1c1.8,1.8,5.8,2.7,6.4,5.7c0.5,2.6-1.3,7.9,0.7,9.9
			c3.2,3.2,4.4,7,7.1,10.6c4.7,6.3,11.6,9.4,17,14.9c1.7,1.7,2.9,4.1,5,5.7c1.7,1.3,3.1,0.3,5,0.7c6.2,1.2,11.3,0.7,17.7,0.7
			c15.8,0,25.3-0.2,36.8,11.3c3.5,3.5,7.8,7.3,7.8,13.1"/>
		<path class="st4" d="M584.3,681.4c1-2.4,3.4-7.9,4.9-10.1c3.8-5.7,12-7.5,18.3-8.6c4-0.7,8.1-1.8,12.2-1.4
			c4.1,0.3,8.5,1.8,12.6,1.1c3.1-0.5,5.8-2.8,8.6-4c3.8-1.6,7.7-3,11.5-4.3c3.6-1.2,7.6,0.4,11.2-1.8c6.3-3.9,11.3-10.2,18.7-12.2
			c4.4-1.2,8.6,0.7,13,0.7c6.4,0,12.7-1.4,19.1-2.2c5.3-0.7,10.1-4.3,15.1-6.1c7.6-2.7,16.9-2.7,24.8-3.6c3.1-0.3,6.3,0.5,9.4,0
			c3.2-0.5,6.4-2.5,9.7-1.8c6.2,1.2,10.9,6.9,16.5,8.3c2.8,0.7,6.3-0.5,9,0.4c2.2,0.7,3.5,3,5.8,3.6c2.9,0.8,6.3-0.2,9,0.7
			c1.4,0.5,2.5,1.1,4,1.4c1.7,0.4,1,3.2,2.2,4.3c0,0,10.1,3.6,10.8,3.6"/>
		<path class="st4" d="M455.5,655.3c-0.1-0.3-0.1-0.9-0.4-0.9c-0.4,0-1.3,0.9-0.9,0.9c1.2,0,5.3-7.8,6-9c4.7-7.7,13.3-18,23-18.8
			c6.3-0.5,15.3,5,20.5,2.1c4.6-2.6,6.2-8,8.5-12.4c6.2-11.7,14.5-25.8,28.6-29c3.8-0.9,7.9,0.9,11.5,0.4c3-0.4,5.5-3.2,8.5-3.8
			c5.8-1.3,13-0.7,18.8,0.4c7.6,1.5,14,5.9,21.3,8.1c6.1,1.8,12.6,2.1,18.8,3c2,0.3,2.9,2.6,5.1,2.6c4,0,7.3-5.7,11.9-3.4
			c2.8,1.4,6,6.7,6.4,9.8c0.3,2.2-1.1,3.9,1.7,4.7c2.7,0.8,5.3-1,7.7-1.7c5.2-1.6,10.2-4.5,15.8-5.1c3.6-0.4,6.3,1.4,9.4,3
			c5.5,2.7,11.5,5.9,17.9,5.1c3.5-0.4,7-2.1,10.2-3.4c7.5-3.1,15.1-5.7,23-6.8c5-0.7,13.2,1.8,17.1,5.1c1.3,1.1,2.3,3.4,3.8,4.3
			c2.5,1.4,5.6-0.2,8.1,1.7c3.5,2.6,3.3,5.4,6,8.1c1.5,1.5,5.8,4.9,7.3,6.4"/>
		<path class="st4" d="M653.7,607.5c-0.3,0.3-0.8,1.2-0.9,0.9c-0.6-3.4-0.4-9.1-0.4-12.8c0-7.9,4.2-11.7,11.9-11.1
			c8.5,0.7,19.1,7.3,27.3,6.4c4.4-0.5,9.2-5,12.8-7.2c2.6-1.6,5.7-3,8.5-4.3c3.9-1.7,8-2.8,11.9-4.3c4.6-1.8,9.2-4.1,14.1-5.1
			c7.1-1.4,15.3-2.3,21.7-6c2.1-1.2,4-3.2,6-4.7c2.1-1.6,5.4-2.4,7.2-4.3c2.5-2.5,5.2-6.9,9-7.7c8.8-1.8,12,5,19.6,7.2
			c2,0.6,5.3,0.7,7.2,0.9c8.2,0.7,17.1,0.6,25.2-0.4c3.6-0.4,6.4,1.8,9.8,1.3c2.1-0.4,3.6-2.1,5.5-3c4.1-1.8,10.5-2.6,14.9-1.7
			c3.7,0.7,7,3.4,10.7,4.3c4.3,1,13.9-0.3,17.1,2.1c3.7,2.8,1,4.7,1.7,8.1c1.1,5.5,5.6,10.7,6.4,16.2c0.5,3.8-2.4,9.1,2.3,11.5"/>
		<path class="st4" d="M321.8,577.2c5.7-11.4,24.5-29,38.3-30.8c8.7-1.1,12.6,4.2,19.5,8.2c4.2,2.4,13.4,3.8,18.2,3.1
			c3.3-0.5,4.9-2.7,7.5-4.4c3.9-2.4,8.7-4.4,13.2-5c4.3-0.6,9.6,2.4,13.8,3.1c3.2,0.5,6.8-0.6,10.1,0c8.7,1.7,17.7,2.3,26.4,3.8
			c3.8,0.6,8.2-0.9,11.9,0c2.1,0.5,4.1,2.5,6.3,2.5c1.9,0,4.2-2.9,5.7-3.8c3.9-2.3,11.1-4.3,15.7-3.1c1.8,0.5,2.8,3.2,4.4,4.4
			c2.1,1.6,5.7,1.9,7.5,3.8c1.5,1.5,2,3.7,3.8,5c3.2,2.4,7.2,4.1,10.1,6.9c0.9,0.9,1.1,2.7,1.9,3.8c2.1,2.8,5.8,1.6,6.7,5.3
			c0.3,1.2,4.9,2.2,5.2,3.4c0.4,1.5,3.4,3.9,3.4,5.6"/>
		<path class="st4" d="M523.4,564c-3.7-7.4,9.4-11.8,15.1-13.8c16.5-5.9,32.3,0.7,49-3.1c10-2.3,19.9-6.5,28.9-11.3
			c6.1-3.3,11.7-7.7,18.2-10.1c3.3-1.2,10.4-2.4,13.8-1.3c3.7,1.2,4.8,5.2,9.4,4.4c2.8-0.5,4.7-2.9,6.9-4.4
			c4.4-2.9,9.3-5.1,14.4-6.3c10-2.3,20.2,0.5,30.2,1.3c4.4,0.3,8.8,0.3,13.2,0.6c3.9,0.3,8.2,1.2,11.3,3.8c1.9,1.6,3.1,3.3,5.7,3.8
			c5.7,0.9,11.5-3.9,17-2.5c3.4,0.9,7.1,10.5,11.3,12.6c2.7,1.3,6.9,1,9.4,2.5c1.5,0.9,3.1,2.1,5,2.5c2.3,0.5,7.1-0.5,8.8,1.3
			c2,2,12.4,9.3,10.4,10.3"/>
		<path class="st4" d="M729.1,521c-1.3,2.7,0.5-1,0.5-1c2.6-3.1,5.4-6,8.1-9c3.1-3.5,6.6-6.3,10-9.5c4.7-4.4,8.2-5.3,13.8-7.6
			c5.6-2.3,10.9-5.6,16.6-7.6c6.5-2.3,13.7-3,20.5-3.8c8-0.9,15.3-2.4,22.8-5.2c9.4-3.5,16.3-11.2,26.2-14.7
			c11.5-4.2,22.3-0.4,34.2-1.4c5.4-0.5,10.3-4.1,15.7-5.2c4.5-1,8.8-0.5,13.3-1c4.7-0.4,9-2,13.8-1.4c4.7,0.6,5.8,7.7,9.5,10
			c1.6,1,3.7,1.1,5.2,2.4c2.6,2.1,4.1,4.6,7.6,5.2c3.7,0.6,8-1.1,11.4,1c3.2,1.9,5.2,6.3,8.6,8.6c2.8,1.9,6.1,4.1,9.5,4.8
			c1.7,0.3,4.7,0.5,6.2,1.4c1.3,0.8,1.4,3.1,1.9,4.3c0.8,1.9,4.5,5.4,6.2,6.7c5.4,4,11.4,3.9,11.4,11.9"/>
		<path class="st4" d="M1243.4,689.1c2.4-4.8,4.6-9.3,6.8-14.2c2-4.5,3.9-9,6.1-13.5c9.7-20.2,24.4-11.7,41.8-14.2
			c2.7-0.4,7.5-2.1,9.4-4c3.1-3.1,5.1-8.6,10.8-6.7c3.1,1,4.4,4.3,6.8,6.1c1.9,1.5,8.3,1.3,10.8,1.3"/>
		<path class="st4" d="M1163,586.7c-1.5-3.1,12.8-4.1,14.3-7.6c2.6-6,2.5-12.6,3.4-18.9c0.7-5.2,4.4-10.8,7.4-14.8
			c2.5-3.4,7-4.4,10.1-6.7c3.2-2.4,6.5-4.6,10.8-3.4c3.9,1.1,7.8,3.8,11.5,5.4c7.5,3.2,15.2,5.5,22.9,8.1c5.9,2,12.6-0.2,18.2,2
			c5.7,2.3,6.1,8.5,11.5,10.8c6.8,2.9,15.5-1.2,21.6,3.4c2.6,2,2.6,5.3,5.4,7.4c3.6,2.7,9.3,2.7,12.8,5.4c1.9,1.4,1.8,6.1,2,8.1
			c0.5,3.8,3.2,12,6.1,14.8c3.4,3.4,11.8,1.2,16.2,2.7"/>
		<path class="st4" d="M1126.1,539.6c1-3.1,5.5-10.5,7.3-13.1c2.4-3.6,8.2-7.5,11.5-10.1c7.6-6.2,17.6-11.9,27.7-12.8
			c6.9-0.6,14-0.8,20.9-2c7.2-1.3,15.6-5.1,22.9-4c3.5,0.5,7.2,3.6,10.1,5.4c5.6,3.3,5.7,3.7,9.4,8.8c0.8,1,2.2,1.5,2.7,2.7
			c1.2,3,0.7,6.9,1.3,10.1c0.8,4.2,4.5,8.8,6.1,12.8s3.1,7.2,5,11"/>
		<path class="st4" d="M1208.9,497.3c-11.8-3.9,8.8-18.6,13.6-23.4c7-7,20.7-7,29.7-8.1c5.4-0.7,10.6-3.1,16.2-2
			c6.3,1.3,12.1,7.5,17.5,10.8c10.7,6.4,24.1,9.3,33.1,18.2c3.2,3.2,2.4,9.4,6.1,12.1c3,2.2,7.4,1.6,10.8,2.7"/>
		<path class="st4" d="M1168.2,504c1.9-5.8-0.2-3.7,2.3-9.9c2.6-6.4,5.8-12.6,8.8-18.9c4.3-8.9,9.2-19.9,16.2-27
			c1.5-1.5,4.4-2.9,6.1-4c5.5-3.9,10.7-8.6,16.9-11.5c5.4-2.5,10.5-2.7,16.2-3.4c6.5-0.7,13.1-2.5,19.6-3.4c9.8-1.4,17-8.9,27-10.1
			c3.9-0.5,7.5,0.2,11.5-0.7c3.6-0.8,8.4-3.3,12.2-2.7c7.5,1.2,16.5,2.6,24.3,1.3c2.7-0.5,4.6-2,7.4-2"/>
		<path class="st4" d="M972.2,484c1.8-3.5,6.2-6.3,8.8-8.8c7.5-7.1,14.9-14.4,22.3-21.6c2.3-2.2,5-4,7.4-6.1
			c11.8-9.8,21-23,33.7-31.7c1-0.7,7.3-4.2,8.8-4.7c5.8-2.1,11.2-0.3,16.9-4c4.2-2.8,8-6.7,12.8-8.8c6.3-2.7,12.5-4.8,18.2-8.8
			c5.9-4.1,10.9-9.6,18.2-11.5c7.1-1.8,13.9-0.2,20.9-1.4c8.2-1.4,15.6-5,24.3-4c2.7,0.3,21.9,11.9,23.6,14.2
			c2.3,3,2.3,7.1,4.7,10.1c1.9,2.4,4.8,3.4,6.8,5.4c2.6,2.6,2.4,7.1,5.4,9.4c1.2,1,4.4,1.8,5.4,2.7c1,1.1,1.5,4.9,2,6.1
			c1.4,3.4,4.3,8.8,4.8,12.9"/>
		<path class="st4" d="M1190.4,391.4c-1.4-6.5,4.8-10.9,9.2-14c10.3-7.1,23-14.4,35.8-15.5c4.3-0.4,8.6,0.2,12.8,0.7
			c6.4,0.6,12.5,0.2,18.9,1.3c5,0.9,9.7,2.9,14.8,3.4c5.6,0.6,13.5-1.8,18.9,0c2.1,0.7,3.5,4.3,5.4,5.4c1.3,0.8,3.6,0.9,4.7,2
			c1.3,1.3,2.9,3.8,4.7,4.7c2.7,1.3,6,1.6,8.8,2.7c0.9,0.4,1.2,1.6,2,2c2.2,1.1,7.7-0.7,10.1-0.7"/>
		<path class="st4" d="M915.4,454.2c0-7.3,2.7-20.3,9.5-24.2c3.5-2,7.3,0.3,10.8,0.7c5.4,0.6,13.5,1.1,18.9,0
			c4.5-0.9,8.8-6.1,13.5-6.1s7.1,4.2,12.1,2c3.9-1.7,4.4-6.6,8.8-8.1c2.5-0.8,4.3-0.2,6.7-0.7c8.3-1.7,13-8.1,22.3-6.7
			c3.7,0.5,7.1,2.8,10.8,3.4c1.8,0.3,4.4-0.7,6.1,0c2,0.8,7.3,0.6,8.2,2.4"/>
		<path class="st4" d="M-32.7,552.4c1.7-3.9,1.1-7.1,4-10.6c10.7-13.2,30.3-17,45.8-20.7c7.8-1.8,18.3-4.7,24.7,2.3
			c8.9,9.6,7.8,23.3,11.7,35c1.5,4.5,3.8,11.8,10,10.9c8-1.2,14.3-14.1,17.8-20.3c6-10.5,14-17.4,24.1-23.7c10-6.1,24-9.5,35.8-9.6
			c4.6,0,11.5,1.5,15.9,0.5c10.5-2.4,20.4-27.6,31.9-21.9c8.5,4.1,11.6,20.6,17.4,27.5c2,2.5,5.5,6.9,6.2,7c0.3,0,5.5-6.5,10.4-3.4
			c1.2,0.7,1.7,5,2.4,6.2c4.6,7.5,3.8,12.8,3,21.4"/>
		<path class="st4" d="M222.9,525.7c-1.7-0.2,3.1-9.5,4-10.9c1.6-2.6,10-5.5,12.6-6.8c14.7-7.4,24.8-12.8,40.2-3.2
			c1.6,1,3.4,6,4.4,6.4c2.1,0.9,4.5-3.5,5.4-4.5c3.7-3.8,9.4-10.2,14.9-10.6c9.9-0.7,15.9,7.3,25,9.3c8.9,2,16.6-4.7,24.2-2.7
			c5.7,1.5,1.2,11.3,4.6,14.4c4,3.6,13.1-2.8,16.8,1.6c2.6,3.2,2.6,8.9,4.8,12.4c2.1,3.4,5.5,6.2,6,10.5c0.3,2.4-0.5,4.9,1.3,7.1
			c2.4,2.9,3.6,5.6,5.1,9.4"/>
		<path class="st4" d="M-33.3,840.1c-4.3-2.7,6.4-10,8.8-12.8c5.5-6.5,10.5-13.6,16.8-19.4c9.1-8.4,19.4-15.5,29.1-23.2
			c4-3.2,8-3.8,12.5-5.8c5.1-2.2,9-5.3,14.6-6.6c10.9-2.5,19.3,2.3,29.7,1.8c6.7-0.3,13.4-0.8,20-1.1c11.4-0.6,20-8.9,30.9-11.1
			c5.6-1.1,12.3-1.6,18-0.3c4.6,1,5.9,3.5,10.6,4c19.9,1.9,39.7,5.7,57.4,15.3c6,3.3,12.7,3.7,18.2,7.7c3.6,2.6,6.2,7.5,9,10.8
			c2.4,2.9,7,4.1,9.3,6.9c4,4.8,4.5,10.7,7.5,15.7c1.7,2.7,3.5,5.1,4.2,8.4c0.6,2.7,0.3,5.5,1.2,8.1c1,2.6,4.8,5.3,6.3,7.6
			c4.2,6.4,12.1,15.1,14.9,16.1"/>
		<path class="st4" d="M244.5,801.6c1.6-1.7,7.2-1.8,9.9-3.2c15.1-8.2,39.9-14.2,56.5-7.7c12.8,5,22,14.1,36.6,13.4
			c21.5-1.1,41.6-10.9,63.5-7c5.1,0.9,12.8,4.4,16.2,8.5c2.2,2.6,4.4,6.6,8.3,7.7c6.2,1.8,13.8,0.9,19.6,3.8
			c12.2,6.3,24,14.7,32.6,25c1,1.3,3.9,3,4.6,4.4c1.1,2.3,0.4,6,2.2,8.2c2,2.5,5.4,3.2,7.4,5.7c2.7,3.2,3.5,6.4,6.1,9.5"/>
		<path class="st4" d="M491.7,844.8c5.1-0.9,12.8-3.6,17.9-4.7c20.3-4.2,41.5,0.5,61.4-6.2c13.7-4.6,26.4-11,39.5-17.3
			c3-1.4,8.1-5.1,11.5-5.9c1.9-0.5,3.9,0.6,5.9,0.6c5.4-0.3,3-1.5,9-0.2c3.3,0.7,2.8,1.8,5.7,3.5c4.1,2.6,9,3.3,13.6,4.3
			c3.3,0.7,4.3,2.3,7.8,1.7c7.9-1.2,15.1-4.7,23.4-4.8c7.5-0.1,14.5,1.1,22-0.9c6.7-1.8,12.5-3.7,19.3-4.2
			c7.7-0.6,15.8-6.3,22.9,0.1c7.8,7.1,9.7,22.1,14,31.2c2,4.1,2.6,5.9,3,10.3c0.8,7.7,6.9,10.9,3.2,19.2"/>
		<path class="st4" d="M758.9,823.1c1.1-2.6,2.9-3.4,5-5.2c7.6-6.3,15.5-10.8,25.7-8.6c6.4,1.4,16,6.5,20.9,10.9
			c1.7,1.6,3.1,3.8,5.6,4.5c3.9,1.2,6.1,1.3,9.6,3.9c2.6,1.9,7.8,6.2,8.1,9.7c0.4,5.8-3.2,17.9-3.8,21.4"/>
		<path class="st4" d="M809.3,817.2c0.4-4.8,7.5-10.3,10.7-12.9c9-7.5,19.7-11,31.1-13.1c6-1,14.1-2.9,20-1.1c3.4,1,6,4.5,8.3,6.8
			c5.8,5.6,10.4,7,18.2,7.7c3.7,0.3,2,0.6,5-0.5"/>
		<path class="st4" d="M864.6,851.5c2.3-5.2,1.9-7.9,4.1-12.8c3.7-8.4,8-16.6,12.3-24.8c0.6-1.1,1.3-2.1,2.3-2.8c3-2,7-0.8,10.2-2
			c5-1.9,10.2-5.2,15.5-5.5c2.6-0.2,5.3,0.9,7.9,0.7c6.5-0.3,12.7-4,19.3-4.2c5.6-0.2,11.2,1.7,16.8,1.6c7.1-0.2,14.3-3.5,21.3-4
			c5.6-0.4,11.8-1.3,17.3-3.4c4.1-1.6,8.7-3.4,13.3-3.7c6.5-0.5,13.3,2,19.8,1.8c8.3-0.3,16.7-1.4,25.1-1.7c3.6-0.1,7.3,1.2,10.9,1
			c2.7-0.1,5.4-1.2,8.1-1.2c10.7-0.1,22,2,32.6,3c6.1,0.6,12.8,0.4,18.8,1.7c3.4,0.8,6.3,3.1,9.6,3.9c8.5,2,17.1,3.4,25.2,7.3
			c7.5,3.6,16.7,9.2,22.5,15.1c2.2,2.2,2.2,6.5,4.2,8.4c1.6,1.5,4,2,5.6,3.5c5.3,5.1,9.7,14,12.7,16.4"/>
		<path class="st4" d="M1153.6,805.3c-2.2,3.8,12.7-8,17.5-10.1c8.2-3.6,16.6-6.7,24.9-10.1c8.3-3.5,18.7-8.7,28-6
			c7,2,12.4,11.6,19.4,11.4c5.3-0.1,6.3-4.1,9.7-7.3c3.4-3.2,9.2-6.2,13.5-8c3.6-1.5,5.1-1,8.8-1.2c1.4-0.1,5.9-2.5,6.6-2.8
			c3.9-1.6,8.6-2,12.6-1.9c4.7,0.1,10.4,1.1,14.9-0.4c5.8-1.9,11.9-11.1,19.4-5.9c1.8,1.3-0.6,8.9,5.6,13.1"/>
		<path class="st4" d="M1135.3,950.3c-2.3-4.7,1.9-12.9,3.1-17.5c2-7.4,3.7-14.7,7.2-21.6c2.5-5,5.6-9.8,8.1-14.8
			c4.6-9.2,9.8-18.1,17.5-25.2c4.1-3.7,8.7-6.5,13-9.9c3.1-2.4,6.1-6.1,9.4-8.1c1.5-0.9,4.2-1,5.4-2.2c1.4-1.4,2.5-4.1,4.5-4.9
			c3.9-1.6,8.4-4.4,12.6-5.8c5.1-1.7,10.6-2.1,15.7-3.6c5.5-1.7,11.1-3.3,16.6-4.9c10.2-3.1,20.3-6.8,30.6-9.9
			c6.8-2,14.6-2.4,21.6-3.1c11.4-1.3,22.7-6.7,34.2-6.7c2.9,0,7.7-0.9,10.3,0.5"/>
		<path class="st4" d="M1160.1,882c-1.8,3.6-5.4,0.7-7.6-0.9c-4.8-3.5-9-7.9-13.9-11.2c-13.4-8.9-28.8-10.8-44.5-10.8
			c-24.1,0-47.8-6.5-71.9-4.5c-14.7,1.2-29.7,4.8-44.5,4c-8.7-0.4-17-2.7-25.2-5.4c-3.8-1.3-7.8-3.3-11.7-4c-4-0.8-8.9-1.1-13-1.3
			c-3.1-0.2-7.4-0.2-10.3,0.9c-3.4,1.3-6.2,4-9.9,4.5c-2.8,0.4-7.3-5.9-11.2-6.7c-3.8-0.8-14.7,0.1-18.4,1.3c-2.3,0.8-3.6,3.1-5.8,4
			c-3.1,1.3-6.2-0.7-9.4,0c-3.2,0.6-4.3,3.8-6.3,5.8"/>
		<path class="st4" d="M856.1,857.4c-2-0.3-1.5-1.2-4.1-1.1c-2.5,0.1-5.4,1.4-7.7,2.2c-2.7,0.9-5.9,0.9-8.4,2.6
			c-8.9,6.4-15.5,16.8-21.7,25.5c-1,1.4-3,2.4-4,3.9c-3.3,4.6-7.2,10.8-8.8,16.2c-1,3.2-1.1,6.7-2.1,9.9c-1,2.9-3.6,5-4.7,7.8
			c-1.8,4.9,1.1,7.5-4.5,10.1"/>
		<path class="st4" d="M917.8,945.8c0.9-5.5,5.6-9.5,8.5-14c5.2-8,8.4-17.6,15.8-24.2c6.4-5.7,20-15.5,28.8-17
			c4.7-0.8,9.6,1.4,14.2,0c5.3-1.7,8.6-6.4,13.8-8c2.9-0.9,6,0.2,8.7-0.9c7.8-3.1,15.3-12,22-16.9c1.6-1.2,4.5-2.7,6-3
			c3.5-0.8,3.2,0.8,6.8,0.5c1.8-0.2,3.7,1,5.5,0.9c3.9-0.3,7.3-4.5,9.8-4.7c2.7-0.2,7.4-1.8,9.9-1.4"/>
		<path class="st4" d="M835.7,861.4c-0.4,2.2-16-4.6-18.9-5.1c-5.3-0.9-11,1.2-15.8,3.1c-6.1,2.4-13.6,3.2-19.8,6.5
			c-7.4,3.9-13,10-20.8,13.1c-4.1,1.6-9.1,0.1-13.4,1.8c-6.1,2.5-13.3,7-18.3,11.3c-1.8,1.6-4,4.7-6,5.8c-2.6,1.5-6.2,1.5-8.9,2.5
			c-1.5,0.6-9.1,10.2-9.9,12c-1.6,3.7,0.1,7.9-1.3,11.7c-2.9,7.9-3.1,15.3,0.9,22.9c0.9,1.7,0.1,3.1,1.6,4.2"/>
		<path class="st4" d="M703.6,920.5c-2.8,3.8-10.2-12.4-13.5-16.5c-8.6-11-17.6-19.7-32.3-20.7c-5.4-0.4-9.1,2.1-14,3.7
			c-5.5,1.9-13,2.2-17.6,6.2c-4.5,3.9-6.5,9.9-9.7,14.7c-2,3-4.7,5.4-7,8.1c-4.2,5-16.7,15-16.5,22.1c0.1,3.4,2.7,9.5,4.9,11.9
			c1.5,1.6,2.6,1.4,3.2,3.7"/>
		<path class="st4" d="M616.8,906.5c-2.7-9.1-12.5-15-19.9-20c-4.9-3.3-8.9-7.9-14.7-9.7c-10.4-3.2-22.5-3.8-33-3.6
			c-6.6,0.1-13.6,3.7-20.2,3.4c-3.3-0.1-5.1-2-8.1-3c-5.3-1.7-16.6-2.8-21.8-0.8c-2.3,0.9-4.4,3.1-6.3,4.4c-1.2,0.9-3,0.7-4.2,1.6
			c-3.1,2.2-6.5,4.5-9.9,6.8c-8.6,5.9-15.9,14.2-25.3,18.9c-3.6,1.8-7.9,6-10.3,9.1c-1.1,1.4-1.8,3.9-3.2,4.9
			c-1.7,1.2-2.5,1.3-3.7,3.2c-1.7,2.7-3.1,6.2-5.4,8.4c-2.4,2.2-6.7,4.5-8.3,7.1c-2,3.1,3.7,11.8,6.2,13.6"/>
		<path class="st4" d="M444.9,911.5c-3.2,0.9-9.4-11.6-11.3-13.7c-1.2-1.3-3-1.8-4.1-3.1c-4.6-5.5-17-16.1-24.1-18.4
			c-6.3-2.1-13-3.2-19.5-5.1c-6.9-2-13.8-4.7-21-5.3c-7-0.6-13.8,2.8-20.8,2.5c-4.6-0.2-8.5-2.9-12.8-3.1c-4.8-0.2-9.7,2.2-14.5,2.1
			c-10.7-0.1-21.3-5.2-32-5c-10.4,0.2-17.8,8.8-24.7,15.1c-3.9,3.6-8.2,6.8-12.1,10.4c-4.7,4.4-5.9,12.2-10.1,17
			c-4.4,5-8.2,10.4-12.2,15.8c-2.5,3.4-6.7,25.8-4.4,29"/>
		<path class="st4" d="M-37,839.5c5.1,4.2,11.8,0.2,17.7-0.1c13.7-0.7,27.9-3.7,41.2,1.2c3.2,1.2,6.1,6.8,8.3,9.2
			c3.1,3.5,5,7.5,7.8,11.1c2.4,3.1,5.7,5.2,7.3,8.9c2,4.8,1.4,10.4,4.9,14.6c6,7.1,18.5,4.1,25.7,10c4.9,4.1,10.1,9.9,9.6,16.7
			c-0.3,4.3-1.2,6.9-0.5,11.3c1.2,7.8,4.5,14.7,6.3,22.2"/>
		<path class="st4" d="M61,888.2c-0.4-1.6,2.4-5.3,3.4-6.7c4.7-7,10.5-10.4,17.6-13.6c16.7-7.4,29.1-11.6,47.6-12.9
			c17.5-1.3,37.3-3.4,54.3,3.1c7.9,3,12.7,11.5,17.8,17.6c4,4.7,7.7,9.9,12.3,14.2c2.4,2.3,7.2,3.4,8.9,6.2c4,6.3,6.8,8,8.7,15.8"/>
	</g>
	<g id="Colour" class="st0">
		<path class="st5" d="M1326.7,642.3v45.1l-29.9,1.6l0.7,14.5l-36,1.7l-2.2-13.3l-15.5-2l0.2-1.6c2.4-4.8,4.5-9.3,6.8-14.2
			c2-4.5,3.9-9.1,6.1-13.5c9.7-20.2,24.4-11.7,41.8-14.2c2.7-0.4,7.5-2.1,9.4-4c3.1-3.1,5.1-8.6,10.8-6.7c3.1,1,4.4,4.3,6.8,6.1
			C1325.9,642,1326.2,642.1,1326.7,642.3z"/>
		<path class="st6" d="M1184.3,698.6c18,0.9,15.9,15,15.9,15l-0.9,35.7l-29.9-0.6l-0.6-36.1C1168.8,712.6,1167.1,697.7,1184.3,698.6
			z"/>
		<path class="st7" d="M1326.7-0.8v179c-8.3-0.5-17,1.7-25.1,0.4c-9.4-1.6-19.5-1.1-29.3-1.1c-14.9,0-29.5,0-44,2.1
			c-9.8,1.4-19.5,4.3-29.3,5.2c-17.2,1.7-34.2,5.4-51.3,7.3c-18.2,2-37.4-2.6-55.5,0c-9.4,1.4-19.6,9.3-29.3,7.3
			c-3.8-0.8-6.1-4.6-9.4-6.3c-5.3-2.7-11.9-5.7-17.8-6.3c-21.7-2.2-44.3,2.7-66,0c-3.8-0.5-7.8-0.5-11.5-1
			c-6.4-0.9-12.5-4.2-18.8-5.2c-6.2-1-13.6,0-19.9,0c-7.4,0-15.7-1-23,0c-5.5,0.8-11.1,1.8-16.8,1.1c-1.2-0.1-2.3-0.4-3.4-0.7
			l2.5-1.6c-1.8-2.1-11.4-12.2-16.8-12.2c-5.1,0-12.3,3-17.3,1.8c-2-0.5-9.5,9-11.7,9.5c-2.1,0.5-4.1,1.8-6.2,2.3
			c-13.5,3.4-28.1,2.4-42,4.7c-10.2,1.7-19.4,6.3-29.5,8.6c-16.9,3.8-33.4,5.9-50.5,7.8c-6.9,0.8-14.1-0.2-21-0.8
			c-5-0.4-9.8,0.5-14.8-0.8c-5.9-1.5-11.7-3.3-17.9-3.9c-16.1-1.5-33.3,2.4-49-1.6c-6.4-1.6-14.5,0.3-21-0.8
			c-10.4-1.7-22.5,1.4-32.6,3.1c-16,2.7-32.9,1.6-49,3.1c-22.8,2.1-44.9-1.8-66.8-5.4c-7.9-1.3-16.2-1.2-24.1-2.3
			c-3.5-0.5-6.7-2.7-10.1-3.1c-11.9-1.5-25.7,1.2-37.3,3.1c-4.6,0.8-10.1,0-14.8,0c-15.1,0-30.9-1.1-45.9,0.8
			c-5,0.6-8.9,3.3-13.2,5.4c-7.3,3.6-17.5,5.8-25.6,4.7c-7.9-1.1-15.3-4.7-23.3-5.4c-12.9-1.2-26-1-38.9-3.1
			c-6.8-1.1-13.2-3.4-20.2-3.9c-12.3-0.8-24.3,1.3-36.5,2.3c-7.9,0.7-17.7,1-25.7,0c-4-0.5-8.3-1.4-12.4-0.8
			c-15.1,2.1-27,12.4-41.2,17.1c-7.7,2.5-11,1.5-17.1-3.1c-1.2-0.9-1.8-2.4-3.1-3.1c-2.3-1.2-8.3,0-10.9,0c-10.2,0-20.1-0.9-30.3,0
			c-1.1,0.1-2.2,0.2-3.3,0.3V-0.8H1326.7z"/>
		<path class="st5" d="M1200.4,849.1l0.2,0.1c-0.3,0.4-0.5,0.7-0.8,1c-1.2,1.2-3.9,1.4-5.4,2.3c-3.3,2-6.3,5.7-9.4,8.1
			c-4.3,3.3-9,6.2-13,9.9c-3.8,3.5-7.1,7.5-9.9,11.7l-1.3-0.9c-1.8,3.6-5.4,0.7-7.6-0.9c-4.8-3.5-9-7.9-13.9-11.2
			c-13.4-8.9-28.8-10.8-44.5-10.8c-8.9,0-17.9-0.9-26.8-1.9c-15-1.7-30-3.8-45.2-2.6c-14.7,1.2-29.7,4.8-44.5,4
			c-8.7-0.4-17-2.7-25.2-5.4c-3.8-1.3-7.8-3.3-11.7-4c-4-0.8-8.9-1.1-13-1.4c-3.1-0.2-7.4-0.2-10.3,0.9c-3.4,1.3-6.2,4-9.9,4.5
			c-2.8,0.4-7.3-5.9-11.2-6.7c-3.8-0.8-14.8,0.1-18.4,1.3c-2.3,0.8-3.6,3.1-5.9,4.1c-2.5,1-4.9,0-7.4-0.1v-0.3
			c2.3-5.2,1.9-7.9,4.1-12.8c3.7-8.4,8-16.6,12.3-24.8c0.6-1,1.3-2.1,2.3-2.8c3-2,7-0.8,10.2-2c2.6-1,5.3-2.4,8.1-3.5
			c2.4-1,4.9-1.8,7.4-2c2.6-0.2,5.3,0.9,7.9,0.7c1.9-0.1,3.8-0.5,5.7-1c4.5-1.2,9-3.1,13.6-3.2c5.6-0.2,11.2,1.7,16.8,1.6
			c7.1-0.2,14.3-3.5,21.3-4c5.6-0.4,11.8-1.3,17.3-3.4c4.1-1.6,8.7-3.4,13.3-3.8c6.5-0.5,13.3,2,19.8,1.8c8.3-0.3,16.7-1.4,25.1-1.6
			c3.6-0.1,7.3,1.2,10.9,1c2.7-0.1,5.4-1.2,8.1-1.2c10.7-0.1,21.9,2,32.6,3c6.1,0.6,12.8,0.4,18.8,1.8c3.4,0.8,6.3,3.1,9.6,3.9
			c8,1.9,16.2,3.3,23.9,6.7c0,0.1,0.1,0.2,0.3,0.2c0.4,0.1,0.7,0.3,1,0.5c7.5,3.6,16.7,9.2,22.5,15.1c2.2,2.2,2.2,6.5,4.2,8.4
			c1.6,1.5,4.1,2,5.7,3.5C1193,837.8,1197.4,846.7,1200.4,849.1z"/>
		<path class="st8" d="M831.4,648.6l-0.7,36.2l-37.5-0.7l-0.4,9l-17.7,0.2l-14.8,0.2l-1.7-9.8l-36.9,0.9l0.2,9.5l-43.9,0.8
			l-0.3-12.8l-34.1-0.3l-0.4,13.9l-49.8-2.9l-0.6-12.2l-7.8-0.2c1-2.5,3.4-7.9,4.8-10c3.8-5.7,12-7.5,18.4-8.6
			c4-0.7,8.1-1.8,12.2-1.4c4,0.3,8.5,1.8,12.6,1.1c3.1-0.5,5.8-2.8,8.6-4c3.8-1.6,7.7-3,11.5-4.3c3.6-1.2,7.6,0.4,11.2-1.8
			c6.3-3.9,11.3-10.2,18.7-12.2c4.4-1.2,8.6,0.7,12.9,0.7c6.4,0,12.7-1.4,19.1-2.2c5.3-0.7,10.1-4.3,15.1-6.1
			c7.6-2.7,16.9-2.7,24.8-3.6c3.1-0.3,6.3,0.5,9.4,0c2.5-0.4,5-1.7,7.5-1.9c0.7-0.1,1.5-0.1,2.2,0.1c6.2,1.2,10.9,6.9,16.6,8.3
			c2.8,0.7,6.3-0.5,9,0.4c2.2,0.7,3.5,3,5.8,3.6c2.9,0.8,6.3-0.2,9,0.7c1.4,0.5,2.5,1.1,3.9,1.4c1.7,0.4,1,3.2,2.2,4.3
			c0,0,10.1,3.6,10.8,3.6L831.4,648.6z"/>
		<path class="st8" d="M643.1,469.3l0.2,0.6c-17.6,5.9-35.8,11.9-53.9,17.5c-54.6,17.2-110.4,38-146.3,29.7
			c-13.9-3.2-29.3-9.4-35.9-21.7c-4.1-7.6-5.2-15.5-5.1-22.1h28.6v-0.4h0.4l31.4-28.8v-0.9h0.3c21.5-7.2,43.9-1.6,65.7,0.8
			c3.4,0.4,6.8,2,10.3,2.4c6.3,0.7,13,0.6,19,3.2c9.2,3.9,16,13.8,26.1,15.8c4.8,1,10.2-0.2,15,0.8c5,1,11.2,2.9,16.6,1.6
			c4.5-1.1,11.9-2,16.6-0.8C635.6,467.8,639.2,469.3,643.1,469.3z"/>
		<path class="st9" d="M-1.2,480.9v-80.1V345c11.6,3.3,38.7,12.4,41.1,11.6c7.9-2.5,15.8-5.2,23.8-7.2c13.3-3.3,28.6-0.1,42.2-2.1
			c12.7-1.9,25.6-6.2,38.6-5.5c12.8,0.7,28,7.3,40.3,5.7c14.4-1.9,26.7-10.5,39-17.5c10.5-6,27.2-7,37.8-12.7
			c14.1-7.6,15.3-30.3,31.7-31.6c11.7-1,31.8,11.8,43.3,11.5c6.6-0.2,13.6-0.9,20.2-1.7c24.5-2.7,48.6-12.8,73.5-13.5
			c38.5-1,77.7,7.5,115.2,15.4c11.5,2.4,23.8,2.8,35.5,4.1c2.9,0.3,8.2-0.2,10.8,1.3c7.1,3.9,12.3,10,20.5,12.4
			c9.2,2.6,19.7,0.3,28.9,0.4c8.4,0,16.1,3.7,24.5,3.8c6.7,0.1,13.4-0.8,20.1-0.7c7.3,0.1,14.8,1.7,21.6,3.5
			c8.7,2.3,18,1.1,26.7,2.1c4.5,0.5,10.2,2.1,14.8,1.7c5.9-0.5,11.4-2.5,17.3-3c5.1-0.4,10.7,2.5,15.8,1.8c3.8-0.5,6.9-4.2,10.4-3.8
			h0.1c-2,6.6-4.2,13.2-6.6,19.6c-26.5,69.7-83.2,84-133.8,94.4c-37.4,7.7-117.6-20.8-164.8-27.5c-11.6-1.6-25.1,8.8-25.1,8.8
			l-1.5,0.1l-0.5-8.5v-0.6l-18.9,1h-1.4l-0.2-7.3l-0.1-0.2l0.1-0.1l-10.7-7.5l-20.7,9.8l-0.6,0.6l-0.3-0.3l-12.7,11.3v2h-0.8
			l-24,11.4v0.9h-0.5v44.2h12.2c-0.2,7.1,0.3,15.3,2.4,22.7h-1v37.5c-0.8-1.1-1.7-2.1-2.3-3.2c-2.2-3.6-2.2-9.2-4.8-12.4
			c-3.7-4.4-12.8,2.1-16.8-1.6c-3.4-3.1,1.1-12.9-4.6-14.4c-7.6-2-15.2,4.7-24.2,2.7c-9.1-2-15.1-10-25-9.3
			c-5.6,0.4-11.3,6.8-14.9,10.6c-0.9,1-3.3,5.4-5.4,4.5c-1-0.4-2.8-5.4-4.4-6.4c-15.4-9.6-25.4-4.2-40.2,3.2
			c-2.6,1.3-11,4.2-12.6,6.8c-0.8,1.2-4.4,8.3-4.4,10.4c-4.8-2.5-9.8,3.7-10,3.6c-0.7-0.1-4.2-4.5-6.2-7
			c-5.7-6.9-8.8-23.4-17.4-27.5c-11.6-5.6-21.5,19.5-32,21.9c-4.4,1-11.3-0.5-15.9-0.5c-11.8,0.1-25.8,3.5-35.8,9.6
			C95.9,530.6,87.9,537.5,82,548c-3.5,6.2-9.8,19-17.8,20.3c-6.1,0.9-8.5-6.4-9.9-10.9c-3.9-11.7-2.8-25.4-11.7-35
			c-6.5-7-16.9-4.1-24.7-2.3c-5.9,1.4-12.5,2.8-18.9,4.8v-44H-1.2z"/>
		<path class="st10" d="M1326.7,812v114.5h-186.1c1.5-5.5,3.1-10.9,5.7-16.1c2.5-5,5.6-9.8,8.1-14.8c2.3-4.6,4.8-9.2,7.6-13.5
			c2.8-4.2,6.1-8.2,9.9-11.7c4.1-3.7,8.7-6.5,13-9.9c3.1-2.4,6.1-6.1,9.4-8.1c1.5-0.9,4.2-1,5.4-2.3c0.3-0.3,0.5-0.6,0.8-1
			c1.1-1.4,2.1-3.3,3.7-4c3.9-1.6,8.4-4.5,12.6-5.8c5.1-1.7,10.6-2,15.7-3.6c5.6-1.7,11.1-3.3,16.6-5c10.2-3.1,20.3-6.8,30.6-9.9
			c6.8-2,14.6-2.4,21.6-3.1C1309.8,816.9,1318.2,813.6,1326.7,812z"/>
		<path class="st5" d="M1326.7,760.8V812c-8.4,1.6-16.9,4.9-25.3,5.8c-7,0.8-14.8,1.1-21.6,3.1c-10.3,3.1-20.3,6.8-30.6,9.9
			c-5.5,1.7-11.1,3.3-16.6,5c-5.1,1.5-10.6,1.9-15.7,3.6c-4.2,1.4-8.7,4.3-12.6,5.8c-1.6,0.7-2.6,2.5-3.7,4l-0.2-0.1
			c-3-2.4-7.4-11.3-12.7-16.4c-1.6-1.5-4-2-5.7-3.5c-2.1-1.9-2-6.1-4.2-8.4c-5.8-5.9-15.1-11.4-22.5-15.1c-0.3-0.2-0.7-0.3-1-0.5
			c2-0.3,13.3-9,17.5-10.8c8.2-3.5,16.6-6.7,24.9-10.1c8.3-3.5,18.7-8.7,28-6c7,2,12.3,11.6,19.4,11.4c5.3-0.1,6.3-4.1,9.7-7.3
			c3.4-3.2,9.2-6.2,13.5-8c3.6-1.5,5.1-1,8.8-1.2c1.4-0.1,5.9-2.5,6.6-2.8c3.9-1.6,8.6-2,12.6-1.9c4.7,0.1,10.3,1.1,14.9-0.4
			C1315.2,766.4,1320.5,759.4,1326.7,760.8z"/>
		<path class="st11" d="M1154,805.1c-7.7-3.5-15.8-4.8-23.9-6.7c-3.3-0.8-6.2-3.1-9.6-3.9c-6-1.3-12.7-1.2-18.8-1.8
			c-10.7-1-21.9-3.1-32.6-3c-2.7,0-5.4,1.1-8.1,1.2c-3.6,0.2-7.3-1.1-10.9-1c-8.4,0.3-16.8,1.4-25.1,1.6c-6.5,0.2-13.3-2.3-19.8-1.8
			c-4.6,0.3-9.2,2.1-13.3,3.8c-5.4,2.1-11.7,3-17.3,3.4c-7,0.5-14.2,3.8-21.3,4c-5.6,0.2-11.2-1.7-16.8-1.6c-4.6,0.1-9.1,2-13.6,3.2
			l-0.1-0.4c-0.1-7,0.7-164.2,0.7-164.2l28.5,0.3l-0.4,10l30.2-0.2l9.4-0.1l-0.3-10.9l39.7-0.2l0.3,11.2l36.4,0.3l0.1-12.9l34.4-0.2
			l-0.2,12.3l40.3,1l-0.1-13.6l27,0.6l8.2,0.2l0.7,11.9l29.7,0.8l0.4-13.5l23.4,1.1l0.3,52.6l0.1,22.7l29.7,1.2l2.2,13.3l36-1.7
			l-0.7-14.5l27.7-1.5v52.6c-6.2-1.5-11.5,5.6-16.4,7.3c-4.5,1.5-10.2,0.5-14.9,0.4c-4.1-0.1-8.8,0.3-12.6,1.9
			c-0.7,0.3-5.1,2.7-6.6,2.8c-3.7,0.2-5.2-0.3-8.8,1.2c-4.3,1.8-10.1,4.8-13.5,8s-4.4,7.2-9.7,7.3c-7.1,0.2-12.5-9.4-19.4-11.4
			c-9.3-2.7-19.7,2.5-28,6c-8.3,3.4-16.7,6.6-24.9,10.1c-4.1,1.8-15.5,10.5-17.5,10.8C1154.2,805.2,1154.1,805.2,1154,805.1z
			 M1200.2,713.6c0,0,2.1-14.1-15.9-15c-17.2-0.9-15.5,14-15.5,14l0.6,36.1l29.9,0.6L1200.2,713.6z M1131.1,713
			c0,0,2.1-14.1-15.9-15c-17.2-0.9-15.5,14-15.5,14l0.6,36.1l29.9,0.6L1131.1,713z M1063.2,714.3c0,0,2.1-14.1-15.9-15
			c-17.2-0.9-15.5,14-15.5,14l0.6,36.1l29.9,0.7L1063.2,714.3z M995.5,711.7c0,0,2.1-14.1-15.9-15c-17.2-0.9-15.5,14-15.5,14
			l0.6,36.1l29.9,0.6L995.5,711.7z"/>
		<polygon class="st11" points="1326.7,687.4 1326.7,708.2 1299,709.7 1299.7,724.2 1263.7,725.9 1261.6,712.6 1231.9,711.4 
			1231.8,688.7 1234.6,688.7 1243.8,689.9 1259.3,692 1261.5,705.3 1297.5,703.6 1296.7,689.1 		"/>
		<path class="st5" d="M1169.7,591.3L1169.7,591.3c0-0.1-2.4-2-6.2-5.4l0,0c-1.5-3.1,12.8-4.1,14.3-7.6c2.6-6,2.5-12.6,3.4-18.9
			c0.7-5.2,4.4-10.8,7.4-14.8c2.5-3.4,7-4.4,10.1-6.8c3.2-2.4,6.5-4.6,10.8-3.4c3.9,1.1,7.8,3.8,11.5,5.4c7.5,3.2,15.2,5.5,22.9,8.1
			c2.5,0.8,5.1,0.9,7.7,0.9c3.6,0,7.2-0.2,10.5,1.1c5.7,2.3,6.1,8.5,11.5,10.8c6.8,2.9,15.5-1.2,21.6,3.4c2.6,2,2.6,5.4,5.4,7.4
			c3.6,2.7,9.3,2.7,12.8,5.4c1.9,1.4,1.8,6.2,2,8.1c0.5,3.8,3.2,12,6.1,14.8c1.2,1.2,3,1.7,5.1,1.9v40.4c-0.4-0.2-0.8-0.3-1-0.5
			c-2.4-1.8-3.6-5-6.8-6.1c-5.7-1.9-7.7,3.7-10.8,6.7c-2,2-6.7,3.7-9.4,4c-17.4,2.5-32.2-6-41.8,14.2c-2.1,4.4-4,9-6.1,13.5
			c-2.2,4.9-4.3,9.4-6.8,14.2l-0.2,1.6l-9.2-1.2h-2.8l-0.3-52.6l0.2-0.3l-25.9-17.4l-0.1,10.8l-16.4-7.3l0.6-8.7l-20.5-10h-0.1
			l0.1-11.7v-0.2h0.4V591.3z"/>
		<path class="st9" d="M1326.7,504.7v97.1c-2-0.2-3.9-0.7-5.1-1.9c-2.9-2.9-5.5-11-6.1-14.8c-0.3-2-0.2-6.7-2-8.1
			c-3.6-2.7-9.2-2.7-12.8-5.4c-2.8-2.1-2.8-5.5-5.4-7.4c-6.1-4.5-14.8-0.5-21.6-3.4c-5.4-2.3-5.8-8.5-11.5-10.8
			c-3.2-1.3-6.8-1.1-10.5-1.1v-1.4c-1.9-3.8-3.4-7-5-11s-5.2-8.6-6.1-12.8c-0.6-3.2-0.1-7.1-1.3-10.1c-0.5-1.2-1.9-1.7-2.7-2.7
			c-3.8-5-3.9-5.4-9.4-8.8c-3-1.8-6.6-4.9-10.1-5.4c-2.4-0.3-4.9-0.2-7.5,0.3l-0.1-0.5c-11.8-3.9,8.8-18.6,13.6-23.4
			c6.9-7,20.7-7,29.7-8.1c5.4-0.7,10.6-3.2,16.2-2c6.3,1.3,12.1,7.5,17.5,10.8c10.7,6.4,24.1,9.3,33.1,18.2
			c3.2,3.2,2.4,9.4,6.1,12.1C1326,504.4,1326.3,504.6,1326.7,504.7z"/>
		<path class="st9" d="M1217.8,432.5c0.4-0.2,0.8-0.4,1.3-0.6c5.5-2.5,10.5-2.7,16.2-3.4c6.5-0.7,13.1-2.5,19.6-3.4
			c9.8-1.4,17-8.9,27-10.1c3.9-0.5,7.5,0.2,11.5-0.7c3.6-0.8,8.4-3.3,12.2-2.7c6.5,1.1,14.2,2.3,21.3,1.7v91.4
			c-0.4-0.2-0.7-0.4-1-0.6c-3.7-2.8-2.9-8.9-6.1-12.1c-9-9-22.4-11.8-33.1-18.2c-5.5-3.3-11.2-9.5-17.5-10.8
			c-5.6-1.1-10.8,1.3-16.2,2c-9,1.1-22.7,1.1-29.7,8.1c-4.8,4.8-25.4,19.5-13.6,23.4l0.1,0.5c-5.3,0.9-10.6,2.9-15.5,3.8
			c-6.9,1.3-14,1.4-20.9,2c-1.4,0.1-2.9,0.4-4.3,0.7v-0.2c1.9-5.8-0.2-3.8,2.3-9.9c2.6-6.5,5.8-12.7,8.8-18.9
			c4.3-8.9,9.1-19.9,16.2-27c1.5-1.5,4.4-2.9,6.1-4C1207.3,439.8,1212.1,435.4,1217.8,432.5z"/>
		<path class="st5" d="M1326.7,383.1v30.3c-7,0.6-14.7-0.6-21.3-1.7c-3.8-0.6-8.5,1.9-12.2,2.7c-4,0.9-7.6,0.2-11.5,0.7
			c-10,1.2-17.2,8.7-27,10.1c-6.4,0.9-13,2.7-19.6,3.4c-5.7,0.6-10.7,0.9-16.2,3.4c-0.4,0.2-0.8,0.4-1.3,0.6
			c-0.6-4-3.4-9.4-4.8-12.7c-0.5-1.2-1-5-2-6.1c-0.9-1-4.2-1.7-5.4-2.7c-3-2.4-2.8-6.8-5.4-9.5c-2-2-4.8-3-6.8-5.4
			c-1.3-1.6-1.9-3.6-2.6-5.5h0.1c-1.4-6.5,4.8-10.9,9.2-14c10.3-7.1,23-14.4,35.8-15.5c4.3-0.4,8.6,0.3,12.8,0.7
			c6.4,0.6,12.4,0.2,18.9,1.4c5,0.9,9.7,2.9,14.8,3.4c5.6,0.6,13.5-1.8,18.9,0c2.1,0.7,3.5,4.3,5.4,5.4c1.3,0.8,3.6,0.9,4.7,2
			c1.3,1.3,2.9,3.8,4.7,4.7c2.7,1.3,6,1.6,8.8,2.7C1325.7,381.6,1326,382.6,1326.7,383.1z"/>
		<path class="st12" d="M1326.7,324v59.1c-0.6-0.5-0.9-1.5-1.7-1.8c-2.8-1.1-6.1-1.4-8.8-2.7c-1.8-0.9-3.4-3.4-4.7-4.7
			c-1.2-1.2-3.4-1.2-4.7-2c-1.9-1.1-3.3-4.7-5.4-5.4c-5.4-1.8-13.3,0.6-18.9,0c-5.1-0.5-9.8-2.5-14.8-3.4
			c-6.4-1.2-12.5-0.7-18.9-1.4c-4.3-0.4-8.5-1.1-12.8-0.7c-12.8,1.2-25.4,8.4-35.8,15.5c-4.4,3.1-10.7,7.5-9.2,14h-0.1
			c-0.5-1.6-1.1-3.2-2.1-4.6c-1.7-2.2-20.9-13.9-23.6-14.2c-8.7-1-16.1,2.7-24.3,4.1c-7,1.2-13.9-0.4-20.9,1.4
			c-7.3,1.8-12.3,7.3-18.2,11.5c-5.7,4-11.9,6.1-18.2,8.8c-4.8,2.1-8.6,6-12.8,8.8c-5.6,3.8-11,1.9-16.9,4.1c-1.5,0.5-7.8,4-8.8,4.7
			c-0.5,0.3-0.9,0.6-1.4,1c-1.1-1.7-6.2-1.6-8.1-2.3c-1.6-0.7-4.3,0.3-6.1,0c-3.7-0.6-7.1-2.9-10.8-3.4c-9.3-1.3-13.9,5.1-22.3,6.8
			c-2.4,0.5-4.3-0.2-6.7,0.7c-4.4,1.5-4.9,6.4-8.8,8.1c-5,2.1-7.5-2-12.1-2c-4.7,0-9,5.2-13.5,6.1c-5.4,1.1-13.5,0.6-18.9,0
			c-3.5-0.4-7.3-2.7-10.8-0.7c-6.8,3.9-9.5,16.9-9.5,24.2l0,0c-1.5,0.3-3.1,0.6-4.6,0.7c-4.5,0.4-8.8,0-13.3,1
			c-5.4,1.1-10.3,4.8-15.7,5.2c-11.9,1-22.7-2.8-34.2,1.4c-9.9,3.6-16.7,11.2-26.2,14.7c-7.5,2.8-14.9,4.3-22.8,5.2
			c-6.8,0.8-14,1.5-20.4,3.8c-5.7,2-11.1,5.3-16.6,7.6c-5.6,2.3-9.1,3.3-13.8,7.6c-3.4,3.2-6.9,6-10,9.5c-2.7,3-5.5,5.9-8.1,9
			c0,0-0.3,0.6-0.6,1.2c-2.1-0.7-4.3-1-6.5-1.2c-4.4-0.4-8.8-0.3-13.2-0.6c-10-0.7-20.1-3.6-30.2-1.3c-5.1,1.2-10.1,3.4-14.5,6.3
			c-2.2,1.5-4.1,3.9-6.9,4.4c-4.6,0.8-5.7-3.2-9.4-4.4c-3.4-1.1-10.5,0.1-13.8,1.3c-6.5,2.4-12.1,6.8-18.2,10
			c-9,4.8-18.9,9-28.9,11.3c-16.7,3.8-32.5-2.8-49,3.1c-5.4,1.9-17.6,6-15.5,12.8c-1-1.3-1.6-2.8-2.7-4c-1.9-1.9-5.4-2.2-7.5-3.8
			c-1.5-1.2-2.5-3.9-4.4-4.4c-4.6-1.1-11.8,0.8-15.7,3.1c-1.5,0.9-3.8,3.8-5.6,3.8c-2.2,0-4.2-2-6.3-2.5c-3.7-0.9-8.2,0.6-11.9,0
			c-8.6-1.4-17.7-2-26.4-3.8c-3.2-0.7-6.8,0.5-10,0c-4.2-0.7-9.5-3.8-13.8-3.2c-4.5,0.7-9.3,2.6-13.2,5c-2.7,1.7-4.3,3.9-7.5,4.4
			c-1.5,0.2-3.4,0.2-5.5,0.1c-1.4-3.7-2.6-6.3-5-9.2c-1.8-2.2-1.1-4.7-1.3-7.1c-0.3-2.9-2-5.1-3.7-7.3V496h1
			c0.8,2.9,1.9,5.7,3.3,8.3c6.6,12.3,20,23.7,33.9,26.9c97.3,22.4,164.5-28.9,354.7-94.7c53.1-18.4,268.6-85.6,404.1-107.8
			C1229.3,320.5,1298.4,322.6,1326.7,324z"/>
		<path class="st12" d="M1326.7,303.5V324c-28.3-1.3-97.3-3.4-146.8,4.7c-135.5,22.3-351,89.5-404.1,107.8
			c-190.2,65.8-257.4,117.1-354.7,94.7c-13.9-3.2-27.3-14.6-33.9-26.9c-1.4-2.6-2.4-5.4-3.3-8.3c-2.1-7.4-2.5-15.5-2.4-22.7H402
			c-0.1,6.6,1,14.5,5.1,22.1c6.6,12.3,22,18.5,35.9,21.7c35.9,8.3,91.7-12.5,146.3-29.7c18.1-5.7,36.2-11.6,53.9-17.5
			c73.7-24.7,138.9-49.3,155.1-54.9c32.2-11,268.6-85.6,404-107.9c40.8-6.7,83.7-6,109.2-4.6
			C1317.7,302.9,1322.8,303.2,1326.7,303.5z"/>
		<path class="st9" d="M1326.7,301.1v2.4c-3.8-0.3-8.9-0.7-15-1l0.1-1.2C1316.9,301.5,1322.1,298.8,1326.7,301.1z"/>
		<path class="st9" d="M1311.7,301.3l-0.1,1.2c-25.5-1.4-68.4-2.1-109.2,4.6c-135.5,22.3-371.8,96.9-404,107.9
			c-16.2,5.5-81.5,30.1-155.1,54.9l-0.2-0.6c-3.9,0-7.4-1.5-11.1-2.4c-4.7-1.2-12.2-0.3-16.6,0.8c-5.4,1.4-11.6-0.6-16.6-1.6
			c-4.8-1-10.2,0.2-15-0.8c-10.1-2-16.9-11.9-26.1-15.8c-6-2.6-12.7-2.5-19-3.2c-3.4-0.4-6.8-2-10.3-2.4c-21.8-2.4-44.2-8-65.7-0.8
			h-0.3l-0.7-11.4h0.7c0,0,15.9-13.1,27.4-11.5c47.2,6.7,127.5,35.2,164.8,27.5c50.6-10.4,121.3-24,147.7-93.7
			c16.8-44.3,18.3-105.7,57.8-125.1l0.5,6.5l30.8-2.5l-1.1-13.1l1-0.1c0,0,56.3,21.1,108.6,23.7c52.3,2.7,55.9-5.2,100.7-13.1
			c44.8-7.9,78.4-18.4,78.4-18.4l1.7-0.2c-0.2-2.1-0.7-3.4-0.1-5.7c0.2-0.6,6.2,0.2,6.2,0.2s8.1,0.5,7.7,1.4c-0.5,1-0.3,1.9,0,3.1
			l0.8-0.2c0,0,36.9-5.4,74-8.9c21.3-2,42.8-3,57.3-3.5v102.8C1322.1,298.8,1316.9,301.5,1311.7,301.3z"/>
		<path class="st9" d="M849.8,223.3c0.1,0,0.1-0.1,0.2-0.1C849.9,223.2,849.9,223.3,849.8,223.3z M846.7,224.7
			c-0.1,0-0.2,0.1-0.2,0.1l0,0l0,0l0,0l0,0l0,0c-34.5,16.1-41.7,56.8-53.7,96.2h-0.1c-3.5-0.4-6.6,3.3-10.4,3.8
			c-5.1,0.7-10.7-2.3-15.8-1.8c-5.9,0.5-11.4,2.5-17.3,3c-4.6,0.4-10.3-1.2-14.8-1.7c-8.8-1-18,0.2-26.7-2.1
			c-6.8-1.8-14.3-3.4-21.6-3.5c-6.7-0.1-13.4,0.8-20.1,0.7c-8.4-0.1-16.1-3.8-24.5-3.8c-9.3,0-19.8,2.3-28.9-0.4
			c-8.2-2.4-13.4-8.5-20.5-12.4c-2.6-1.4-7.9-0.9-10.8-1.3c-11.7-1.4-24-1.7-35.5-4.1c-37.5-7.8-76.6-16.4-115.2-15.4
			c-24.9,0.7-49,10.7-73.5,13.5c-6.6,0.7-13.6,1.5-20.2,1.7c-11.5,0.3-31.6-12.4-43.3-11.5c-16.3,1.3-17.5,24-31.7,31.6
			c-10.6,5.7-27.3,6.7-37.8,12.7c-12.3,7-24.6,15.6-39,17.5c-12.3,1.6-27.5-5-40.3-5.7c-13-0.7-25.9,3.6-38.6,5.5
			c-13.6,2-29-1.2-42.2,2.1c-8,2-15.9,4.8-23.8,7.2c-2.4,0.8-29.5-8.3-41.1-11.6V203.8c1.1-0.1,2.2-0.2,3.3-0.3
			c10.2-0.9,20.1,0,30.3,0c2.6,0,8.6-1.2,10.9,0c1.3,0.7,1.9,2.2,3.1,3.1c6.1,4.6,9.4,5.7,17.1,3.1c14.2-4.7,26.1-15,41.2-17.1
			c4.2-0.6,8.4,0.3,12.4,0.8c7.9,1,17.7,0.7,25.7,0c12.2-1,24.2-3.2,36.5-2.3c7,0.5,13.4,2.8,20.2,3.9c12.9,2.1,25.9,1.9,38.9,3.1
			c8,0.7,15.4,4.3,23.3,5.4c8.1,1.2,18.4-1,25.6-4.7c4.4-2.2,8.2-4.8,13.2-5.4c14.9-1.9,30.7-0.8,45.9-0.8c4.7,0,10.1,0.8,14.8,0
			c11.6-1.9,25.4-4.6,37.3-3.1c3.4,0.4,6.6,2.6,10.1,3.1c7.9,1.1,16.2,1,24.1,2.3c22,3.7,44.1,7.5,66.8,5.4c16.1-1.5,33-0.4,49-3.1
			c10.1-1.7,22.2-4.8,32.6-3.1c6.5,1.1,14.6-0.8,21,0.8c15.7,3.9,32.9,0.1,49,1.6c6.2,0.6,11.9,2.4,17.9,3.9c5,1.3,9.8,0.4,14.8,0.8
			c6.9,0.6,14.1,1.6,21,0.8c17.1-1.9,33.6-4,50.5-7.8c10.1-2.3,19.4-6.9,29.5-8.6c13.9-2.3,28.4-1.3,42-4.7c2.1-0.5,4.1-1.8,6.2-2.3
			c2.2-0.5,9.7-10,11.7-9.5c5,1.2,12.2-1.8,17.3-1.8c5.3,0,14.9,10.1,16.8,12.2L876,181c1.1,0.3,2.2,0.5,3.4,0.7
			c5.7,0.7,11.2-0.3,16.8-1.1c7.3-1,15.7,0,23,0c6.3,0,13.7-1,19.9,0c6.4,1.1,12.5,4.3,18.8,5.2c3.8,0.5,7.7,0.6,11.5,1
			c21.7,2.7,44.3-2.2,66,0c5.9,0.6,12.5,3.6,17.8,6.3c3.3,1.7,5.6,5.5,9.4,6.3c9.8,1.9,19.9-6,29.3-7.3c18.1-2.6,37.3,2,55.5,0
			c17.2-1.9,34.1-5.6,51.3-7.3c9.9-1,19.6-3.8,29.3-5.2c14.4-2.1,29.1-2.1,44-2.1c9.8,0,19.9-0.5,29.3,1.1
			c8.1,1.4,16.9-0.9,25.1-0.4v20c-14.5,0.5-36,1.4-57.3,3.5c-37,3.5-74,8.9-74,8.9l-0.8,0.2c-0.2-1.2-0.4-2.1,0-3.1
			c0.4-0.9-7.7-1.4-7.7-1.4s-6-0.8-6.2-0.2c-0.6,2.4-0.1,3.7,0.1,5.7l-1.7,0.2c0,0-33.6,10.5-78.4,18.4s-48.4,15.7-100.7,13.1
			c-52.3-2.7-108.6-23.7-108.6-23.7l-1,0.1l-0.9-10.6l-30.8,2.5l0.6,7.3c-1.5,0.6-4.8,2.1-12.1,5.3
			C847.1,224.5,846.9,224.6,846.7,224.7L846.7,224.7z"/>
		<path class="st9" d="M1251.7,547.5v1.4c-2.6,0-5.3-0.1-7.7-0.9c-7.7-2.6-15.4-4.9-22.9-8.1c-3.7-1.6-7.6-4.3-11.5-5.4
			c-4.3-1.2-7.6,1-10.8,3.4c-3.1,2.4-7.6,3.4-10.1,6.8c-3,4-6.7,9.7-7.4,14.8c-0.9,6.3-0.8,12.9-3.4,18.9
			c-1.5,3.4-15.8,4.5-14.3,7.6l0,0c-7.5-6.7-20.2-18.8-29-31.9c-3.3-5-6.1-10.1-8.4-14.9l0.5-0.3c1-3.1,5.5-10.5,7.3-13.1
			c2.4-3.6,8.2-7.5,11.5-10.1c6.5-5.4,14.8-10.3,23.4-12.1c1.4-0.3,2.9-0.6,4.3-0.7c6.9-0.6,14-0.8,20.9-2
			c4.8-0.9,10.2-2.9,15.5-3.8c2.5-0.4,5.1-0.6,7.5-0.3c3.5,0.5,7.2,3.6,10.1,5.4c5.6,3.4,5.7,3.7,9.4,8.8c0.8,1,2.2,1.5,2.7,2.7
			c1.2,3,0.7,6.9,1.3,10.1c0.8,4.2,4.5,8.8,6.1,12.8S1249.8,543.7,1251.7,547.5z"/>
		<polygon class="st11" points="1231.7,635.8 1231.5,636.2 1208,635.1 1207.6,648.6 1177.9,647.8 1177.2,635.9 1169,635.7 
			1169.1,634.8 1169.2,603.2 1169.4,603.2 1189.9,613.2 1189.3,621.8 1205.7,629.1 1205.8,618.4 		"/>
		<path class="st10" d="M914.8,567.1c0.9-0.4,2.6-1,4.7-2v28H904l0,0c-4.8-2.4-1.8-7.7-2.3-11.5c-0.8-5.5-5.3-10.7-6.4-16.2
			c-0.7-3.4,2-5.3-1.7-8.1c-3.2-2.4-12.8-1.1-17.1-2.1c-3.7-0.8-7-3.5-10.7-4.3c-4.4-0.9-10.8-0.1-14.9,1.7c-1.9,0.8-3.4,2.6-5.5,3
			c-3.4,0.6-6.3-1.7-9.8-1.3c-8.1,1-16.9,1.2-25.2,0.4c-1.9-0.2-5.3-0.3-7.3-0.9c-0.4-0.1-0.8-0.3-1.1-0.4l0,0
			c2-1-8.4-8.3-10.4-10.3c-1.7-1.7-6.5-0.8-8.8-1.3c-1.9-0.4-3.6-1.6-5-2.5c-2.5-1.5-6.7-1.2-9.4-2.5c-4.2-2.1-7.9-11.7-11.3-12.6
			c-5.5-1.4-11.3,3.5-17,2.5c-2.6-0.4-3.8-2.2-5.6-3.8c-1.4-1.2-3.1-2-4.8-2.6l0,0c0.3-0.5,0.6-1.2,0.6-1.2c2.6-3.1,5.4-6,8.1-9
			c3.1-3.5,6.6-6.3,10-9.5c4.7-4.4,8.2-5.3,13.8-7.6c5.6-2.3,10.9-5.6,16.6-7.6c6.5-2.3,13.7-3,20.4-3.8c8-0.9,15.3-2.4,22.8-5.2
			c9.4-3.5,16.3-11.2,26.2-14.7c11.5-4.2,22.3-0.4,34.2-1.4c5.4-0.4,10.3-4.1,15.7-5.2c4.5-1,8.8-0.5,13.3-1
			c1.6-0.1,3.1-0.4,4.6-0.7c3-0.6,6-1.1,9.1-0.7c4.7,0.6,5.8,7.7,9.5,10c1.6,1,3.7,1.1,5.2,2.4c2.6,2.1,4.1,4.6,7.6,5.2
			c3.7,0.6,8-1.1,11.4,0.9c3.2,1.9,5.2,6.3,8.6,8.6c1.6,1.1,3.5,2.3,5.3,3.2c1.8-3.5,6.1-6.2,8.7-8.7c7.5-7.1,14.9-14.4,22.3-21.6
			c2.3-2.2,5-4,7.4-6.1c11.4-9.5,20.4-22,32.4-30.8c0.4-0.3,0.9-0.7,1.4-1c1-0.7,7.3-4.2,8.8-4.7c5.8-2.1,11.2-0.3,16.9-4.1
			c4.2-2.8,8-6.7,12.8-8.8c6.3-2.7,12.5-4.8,18.2-8.8c5.9-4.1,10.9-9.6,18.2-11.5c7.1-1.8,13.9-0.2,20.9-1.4
			c8.2-1.4,15.6-5,24.3-4.1c2.7,0.3,21.9,11.9,23.6,14.2c1,1.4,1.6,3,2.1,4.6c0.7,1.9,1.3,3.9,2.6,5.5c1.9,2.4,4.8,3.4,6.8,5.4
			c2.6,2.6,2.4,7.1,5.4,9.5c1.2,1,4.5,1.8,5.4,2.7c1.1,1,1.5,4.9,2,6.1c1.4,3.3,4.2,8.7,4.8,12.7c-5.6,2.9-10.5,7.3-15.6,10.9
			c-1.7,1.2-4.5,2.5-6.1,4c-7.1,7.1-11.9,18.1-16.2,27c-3,6.3-6.2,12.5-8.8,18.9c-2.5,6.2-0.4,4.1-2.3,9.9v0.2
			c-8.6,1.9-16.8,6.8-23.4,12.1c-3.2,2.6-9.1,6.5-11.5,10.1c-1.8,2.7-6.4,10.1-7.3,13.1l-0.5,0.3c-2.4-5.1-4.3-10-5.6-14.1
			c-2.4-7.2-3.4-12.1-3.4-12.1L950.2,511l-0.2,0.1c0-0.1,0-0.1,0-0.1s-9.7,24.4-16.7,32.7c-3.7,4.4-9.7,9.5-13.9,12.8
			c-2,1.6-3.6,2.8-4.3,3.3l0,0c-0.6,0.8-0.8,5-0.9,5.4L914.8,567.1z"/>
		<path class="st6" d="M987.4,576.8H987c0,0-13.1-14.3-21.7-27.4c-4.2-6.5-8-15.7-10.7-23.4l0.3-0.1l165.4-0.8l0.2-0.1
			c1.4,4.1,3.2,9,5.6,14.1c2.3,4.8,5,10,8.4,14.9c8.8,13.1,21.5,25.3,29,31.9c3.7,3.3,6.2,5.3,6.2,5.3v0.1h-0.4l-181.6,0.6v-1.2
			L987.4,576.8z"/>
		<polygon class="st11" points="1169.3,591.3 1169.3,591.5 1169.2,603.2 1169.1,634.8 1169,635.7 1142,635.1 1142.1,648.6 
			1101.8,647.6 1102.1,635.3 1067.7,635.5 1067.6,648.4 1031.2,648.1 1030.9,636.9 991.1,637.1 991.4,648 982,648.1 982,646.2 
			982,592.3 982,591.9 987.8,591.9 		"/>
		<path class="st5" d="M1067.8,856.4L1067.8,856.4c8.9,1,17.8,1.9,26.8,1.9c15.7,0,31.1,1.8,44.5,10.8c5,3.3,9.1,7.8,13.9,11.2
			c2.3,1.6,5.9,4.5,7.6,0.9l1.3,0.9c-2.8,4.3-5.3,8.8-7.6,13.5c-2.5,5-5.6,9.8-8.1,14.8c-2.6,5.2-4.2,10.6-5.7,16.1h-211
			c3.8-6.9,7.1-14.3,13.1-19.7c6.4-5.7,20-15.5,28.8-17c4.7-0.8,9.6,1.5,14.2,0c5.3-1.7,8.6-6.4,13.8-8c2.9-0.9,6,0.2,8.7-0.9
			c7.8-3.1,15.3-12,22-16.9c1.6-1.1,4.5-2.6,6-3c3.5-0.8,3.2,0.8,6.8,0.5c1.8-0.2,3.7,1,5.5,0.9c3.9-0.3,7.4-4.5,9.8-4.7
			C1060.9,857.6,1065.2,856.2,1067.8,856.4z"/>
		<path class="st6" d="M1115.2,697.9c18,0.9,15.9,15,15.9,15l-0.9,35.7l-29.9-0.6l-0.6-36.1C1099.7,711.9,1098,697.1,1115.2,697.9z"
			/>
		<path class="st6" d="M1120.5,525l-0.2,0.1l-165.4,0.8l-0.3,0.1c-2.6-7.4-4.2-13.4-4.5-14.3l0.2-0.1l166.8,1.4
			C1117.1,512.9,1118.1,517.8,1120.5,525z"/>
		<path class="st10" d="M835.4,861.1c0.3-0.3,0.7-0.5,1-0.8c2.4-1.8,5.6-1.8,8.4-2.6c2.3-0.7,5.3-2.1,7.7-2.2c2.5-0.1,2,0.8,4.1,1.1
			l0.2,0.2c2-2,3.1-5.1,6.2-5.8c0.7-0.1,1.4-0.2,2.1-0.1c2.5,0.1,4.9,1.1,7.4,0.1c2.3-0.9,3.5-3.3,5.9-4.1
			c3.7-1.2,14.6-2.2,18.4-1.3c3.9,0.9,8.4,7.1,11.2,6.7c3.7-0.5,6.5-3.2,9.9-4.5c2.9-1.1,7.3-1.1,10.3-0.9c4.1,0.3,9,0.6,13,1.4
			c3.9,0.8,7.9,2.8,11.7,4c8.2,2.7,16.5,5,25.2,5.4c14.8,0.7,29.8-2.8,44.5-4c15.2-1.3,30.1,0.8,45.2,2.6l0,0
			c-2.6-0.2-6.9,1.2-9.4,1.4s-6,4.3-9.8,4.7c-1.8,0.1-3.7-1-5.5-0.9c-3.6,0.3-3.3-1.3-6.8-0.5c-1.6,0.4-4.5,1.9-6,3
			c-6.8,4.9-14.2,13.8-22,16.9c-2.6,1-5.8,0-8.7,0.9c-5.2,1.6-8.5,6.4-13.8,8c-4.6,1.5-9.5-0.8-14.2,0c-8.9,1.5-22.4,11.3-28.8,17
			c-6,5.3-9.3,12.8-13.1,19.7h-135c0.1-0.9,0.3-1.8,0.7-2.9c1-2.8,3.7-4.9,4.7-7.8c1-3.1,1.2-6.7,2.1-9.9c1.7-5.4,5.6-11.6,8.8-16.2
			c1.1-1.5,3-2.5,4-3.9C820.8,877.5,827.1,867.6,835.4,861.1z"/>
		<path class="st6" d="M1047.3,699.2c18,0.9,15.9,15,15.9,15l-0.9,35.7l-29.9-0.7l-0.6-36.1C1031.8,713.2,1030.1,698.4,1047.3,699.2
			z"/>
		<path class="st9" d="M1035.5,413.7c1.9,0.8,7,0.6,8.1,2.3c-12,8.7-21,21.3-32.4,30.8c-2.5,2-5.1,3.8-7.4,6.1
			c-7.4,7.2-14.8,14.5-22.3,21.6c-2.6,2.5-6.9,5.2-8.7,8.7c-1.9-0.9-3.7-2.1-5.3-3.2c-3.4-2.3-5.3-6.6-8.6-8.6
			c-3.4-2-7.7-0.3-11.4-0.9c-3.5-0.6-5-3.1-7.6-5.2c-1.6-1.3-3.6-1.4-5.2-2.4c-3.7-2.3-4.8-9.4-9.5-10c-3.2-0.4-6.1,0.2-9.1,0.7l0,0
			c0-7.3,2.7-20.3,9.5-24.2c3.5-2,7.3,0.3,10.8,0.7c5.4,0.6,13.5,1.1,18.9,0c4.5-0.9,8.8-6.1,13.5-6.1s7.1,4.2,12.1,2
			c3.9-1.7,4.4-6.6,8.8-8.1c2.5-0.8,4.3-0.2,6.7-0.7c8.3-1.7,13-8.1,22.3-6.8c3.7,0.5,7.1,2.8,10.8,3.4
			C1031.2,414,1033.9,413,1035.5,413.7z"/>
		<path class="st6" d="M979.6,696.7c18,0.9,15.9,15,15.9,15l-0.9,35.7l-29.9-0.6l-0.6-36.1C964.1,710.6,962.4,695.8,979.6,696.7z"/>
		<path class="st6" d="M987.8,590.7v1.2h-5.7l0,0v-0.6c0,0-11.1-8.3-19.7-21.5c-8.6-13.2-14.9-31.1-14.9-31.1s-3.9,10.3-12.4,17.2
			c-4.9,4-11.2,7.2-15.6,9.2V557c4.2-3.3,10.3-8.5,13.9-12.8c7-8.3,16.7-32.7,16.7-32.7v0.1c0.3,1,1.9,7,4.5,14.3
			c2.7,7.7,6.4,16.9,10.7,23.4c8.6,13.1,21.7,27.4,21.7,27.4h0.4L987.8,590.7z"/>
		<path class="st11" d="M919.4,593.1v-28c4.5-2,10.8-5.2,15.6-9.2c8.4-6.9,12.4-17.2,12.4-17.2s6.2,17.9,14.9,31.1
			c8.6,13.1,19.7,21.5,19.7,21.5v0.6l0,0v0.3v54v1.8l-30.2,0.2l0.4-10l-28.5-0.3h-0.4l-4.7-2.2l0.9-1.9v-40.7H919.4z"/>
		<path class="st11" d="M923.2,637.9h0.4c0,0-0.8,157.3-0.7,164.2l0.1,0.4c-1.9,0.5-3.8,0.9-5.7,1c-2.6,0.1-5.3-0.9-7.9-0.7
			c-2.5,0.2-5,1-7.4,2l-0.3-0.9c0.3-0.1,0.8-0.3,1.7-0.7l0.1-0.6l0.7-80l-47.8-1.2l-0.4,11.7l-14.7,0.3v-1L841,685l-10.3-0.2
			l0.7-36.2l1-53.7l15.3,9.2l-0.3,12.4l16.2,6.4l-0.7-11.8l25.1,11.1l-0.5,11.6l19.5,7.1l0.5-10.3l11.1,5.2L923.2,637.9z"/>
		<polygon class="st11" points="919.4,593.1 919.4,633.8 918.5,635.7 907.5,630.5 907,640.8 887.5,633.7 887.9,622.1 862.9,611 
			863.6,622.8 847.3,616.4 847.7,604.1 832.4,594.8 832.9,593.5 864.3,593.3 864,602 896.2,602.1 896.3,593.1 904,593.1 		"/>
		<path class="st10" d="M915.2,560.3L915.2,560.3c0.7-0.6,2.3-1.8,4.3-3.4v8.2c-2,0.9-3.7,1.6-4.7,2l-0.5-1.3
			C914.3,565.3,914.5,561.1,915.2,560.3z"/>
		<path class="st11" d="M904.1,722.6l-0.7,80l-0.1,0.6c-0.9,0.3-1.4,0.6-1.7,0.7c-0.8,0.3-0.7,0.1-3.3-0.2
			c-7.8-0.7-12.5-2.1-18.2-7.7c-2.4-2.3-5-5.8-8.3-6.8c-6-1.8-14.1,0.1-20,1.1c-11.4,2-22.1,5.6-31.1,13
			c-3.2,2.6-10.3,8.1-10.7,12.9l-2.6,0.2c-5.1-3.5-12.1-6.9-17.1-8c-10.2-2.3-18.1,2.3-25.7,8.6c-2.1,1.7-3.8,2.5-4.9,5.1
			c-1.8-4.8-4-9.2-7.3-12.2c-7.1-6.5-15.3-0.7-22.9-0.1c-6.9,0.5-12.7,2.4-19.3,4.2c-7.5,2-14.5,0.9-22,0.9
			c-8.3,0.1-15.5,3.6-23.4,4.8c-3.5,0.5-4.5-1-7.8-1.7c-4.5-1-9.4-1.7-13.6-4.3c-2.8-1.8-2.4-2.8-5.6-3.5c-6-1.3-3.6-0.1-9,0.2
			c-2,0.1-4-1-5.9-0.5c-3.4,0.8-8.5,4.5-11.5,5.9c-13.1,6.3-25.8,12.6-39.5,17.3c-19.9,6.7-41.1,2-61.4,6.2
			c-5.1,1.1-12.8,3.8-17.9,4.7l-0.8,0.3c-1.1-1.1-2.7-2.1-3.4-3c-8.6-10.3-20.3-18.7-32.6-25c-5.8-3-13.4-2-19.6-3.8
			c-3.8-1.1-6.1-5.1-8.3-7.8c-3.4-4.1-11-7.6-16.2-8.5c-21.8-3.9-42,6-63.5,7c-14.6,0.7-23.8-8.4-36.6-13.4
			c-16.6-6.5-41.4-0.5-56.5,7.7c-2.5,1.4-7.8,1.5-9.6,3c-0.9-0.6-1.8-1.3-2.4-2.1c-2.7-3.3-5.4-8.2-9-10.8c-5.5-4-12.2-4.4-18.2-7.7
			c-17.7-9.6-37.5-13.5-57.4-15.3c-4.7-0.4-6-3-10.6-4c-5.7-1.3-12.4-0.8-18,0.3C119,763.1,110.4,771.4,99,772
			c-6.7,0.3-13.4,0.8-20,1.1c-10.4,0.5-18.9-4.3-29.7-1.8c-5.6,1.3-9.5,4.4-14.6,6.6c-4.5,2-8.5,2.6-12.5,5.8
			c-7.9,6.3-15.9,12-23.4,18.3V661.3l1.8-4.7l-1.8-2.2V633l13.7,2.2l-2.3,14.9c0,0,11.6,7.3,19.8,11.3c8.3,4,18.2,6.2,18.2,6.2
			l3.8-12.4l33,11.4l-4.3,11.8l32,7.8l3.4-10.4l33,5.6l-2.3,14.6c0,0,6.4,2.7,15.2,4.4c8.7,1.8,19.8,2.6,19.8,2.6l1.8-12.3
			c0,0,9.9,2.3,20.5,3.9c10.6,1.7,22,2.7,22,2.7l-0.1,14.2c0,0,8,2.5,17.8,4.6c9.8,2.2,21.6,3.2,21.6,3.2l1.8-15.3l43.5,2.2l0.3,16
			l36.4,0.4l0.8-15l30.9,0.6l-0.3,16.1l36.4,1.1l1.3-14.4l41.4-0.2l0.7,17.9l35.7,0.3l2-15.9l33.9,0.8l0.2,14.1l41,3v-12.4l32.4,0.4
			l0.3,15.6h33.6L638,719l38.5,0.9l1.2,15.8l28.7,0.8v-14.7l45.9,1.2v12.4l32.8-1l-0.3-12.3l36.9-1.2l1.7,12.6l17.8-0.3l14.7-0.3
			l0.4-11.7L904.1,722.6z M880.6,749l0.9-10.9l-5.5-3.5l-4,3.4l0.3,11.4L880.6,749z M809.7,754.1l0.9-10.9l-5.5-3.5l-4,3.4l0.3,11.4
			L809.7,754.1z M731.7,754.6l0.9-10.9l-5.5-3.5l-4,3.4l0.4,11.4L731.7,754.6z M660.8,756l0.9-10.9l-5.5-3.5l-4,3.4l0.3,11.4
			L660.8,756z M589.8,754.4l0.9-10.9l-5.5-3.5l-4,3.4l0.4,11.4L589.8,754.4z M517.6,754.1l1.1-12.5l-6.5-4l-4.7,3.9l0.4,13.1
			L517.6,754.1z M440.8,753.4l1.2-13.6l-7.4-4.4l-5.3,4.2l0.5,14.2L440.8,753.4z M369.7,742.9l1.2-12.8l-7.1-4.1l-5.1,4l0.4,13.3
			L369.7,742.9z M291.6,739.8l2.6-13.1l-6.1-5.1l-5.2,3.5l-1.2,13.8L291.6,739.8z M210.1,715.8l-5.3-5.3l-5.1,3.4l-2.1,14l9.1,1.2
			L210.1,715.8z M130.7,712.7l3.4-12.3l-6.1-5.1l-5.6,3.1l-1.9,13.1L130.7,712.7z M69.7,680.3l-5-5.5l-5.4,2.5l-3.1,12.4l9.2,2.2
			L69.7,680.3z"/>
		<path class="st5" d="M653.9,607.3c-0.1,0-0.3,0.1-0.4,0.1c-0.5-3.4-0.4-9-0.4-12.7c0-7.9,4.2-11.7,11.9-11.1
			c8.5,0.7,19.1,7.3,27.3,6.4c4.5-0.5,9.2-5,12.8-7.3c2.6-1.6,5.7-3,8.5-4.3c3.9-1.7,8-2.8,11.9-4.3c4.6-1.8,9.2-4.1,14.1-5.1
			c7.1-1.4,15.3-2.3,21.8-6c2.1-1.2,4-3.3,6-4.7c2.1-1.6,5.4-2.4,7.3-4.3c2.5-2.5,5.2-6.9,9-7.7c8.3-1.7,11.7,4.3,18.5,6.8
			c0.4,0.1,0.8,0.3,1.1,0.4c2,0.6,5.3,0.7,7.3,0.9c8.2,0.7,17.1,0.6,25.2-0.4c3.6-0.4,6.4,1.8,9.8,1.3c2.1-0.4,3.6-2.1,5.5-3
			c4.1-1.8,10.5-2.6,14.9-1.7c3.7,0.7,7,3.4,10.7,4.3c4.3,1,13.9-0.3,17.1,2.1c3.7,2.8,1,4.7,1.7,8.1c1.1,5.5,5.6,10.7,6.4,16.2
			c0.5,3.8-2.4,9.1,2.3,11.5l0,0h-7.7l-0.1,9L864,602l0.3-8.7l-31.3,0.3l-0.5,1.3l-1,53.7h-0.3c-0.7,0-10.8-3.6-10.8-3.6
			c-1.1-1.1-0.5-3.9-2.2-4.3c-1.5-0.4-2.5-1-3.9-1.4c-2.7-0.9-6.1,0.1-9-0.7c-2.2-0.6-3.6-2.9-5.8-3.6c-2.7-0.9-6.2,0.3-9-0.4
			c-5.6-1.4-10.4-7-16.6-8.3c-0.7-0.2-1.5-0.2-2.2-0.1V626c-1.5-1.5-5.9-4.9-7.3-6.4c-2.7-2.7-2.5-5.5-6-8.1
			c-2.5-1.9-5.6-0.3-8.1-1.7c-1.6-0.9-2.5-3.2-3.8-4.3c-3.8-3.3-12-5.8-17.1-5.1c-8,1.1-15.5,3.7-23,6.8c-3.2,1.3-6.7,3-10.2,3.4
			c-6.5,0.8-12.4-2.4-17.9-5.1c-3.1-1.5-5.7-3.4-9.4-3C663.6,603.1,658.8,605.7,653.9,607.3z"/>
		<path class="st10" d="M901.7,803.9l0.3,0.9c-2.8,1.1-5.5,2.5-8.1,3.5c-3.2,1.2-7.1,0.1-10.2,2c-1,0.7-1.7,1.7-2.3,2.8
			c-4.3,8.1-8.6,16.3-12.3,24.8c-2.2,4.9-1.8,7.5-4.1,12.8v0.3c-0.7,0-1.4,0-2.1,0.1c-3.2,0.6-4.3,3.8-6.2,5.8l-0.2-0.2
			c-2-0.3-1.5-1.2-4.1-1.1c-2.5,0.1-5.4,1.4-7.7,2.2c-2.7,0.9-5.9,0.9-8.4,2.6c-0.4,0.3-0.7,0.5-1,0.8c-1,0.1-2.9-0.4-5.1-1.1
			l0.3-0.9c0.6-3.5,4.2-15.6,3.8-21.4c-0.3-3.5-5.5-7.8-8.1-9.7c-3.5-2.6-5.7-2.7-9.6-3.9c-2.4-0.7-3.8-2.9-5.6-4.5
			c-1.1-1-2.4-2-3.8-3l2.6-0.2c0.5-4.8,7.5-10.3,10.7-12.9c9-7.4,19.7-11,31.1-13c6-1,14-2.9,20-1.1c3.4,1,6,4.5,8.3,6.8
			c5.8,5.6,10.4,7,18.2,7.7C900.9,804,900.9,804.2,901.7,803.9z"/>
		<polygon class="st6" points="860.2,229 859.4,219.1 858.8,211.8 889.7,209.2 890.5,219.8 891.6,232.9 860.8,235.4 		"/>
		<path class="st11" d="M859.4,219.1l0.8,9.9c-39.5,19.4-41,80.9-57.8,125.1c-26.5,69.7-97.2,83.3-147.7,93.7
			c-37.4,7.7-117.6-20.8-164.8-27.5c-11.6-1.6-27.4,11.5-27.4,11.5h-0.7l-0.9-15.4l1.5-0.1c0,0,13.5-10.5,25.1-8.8
			c47.2,6.7,127.4,35.2,164.8,27.5c50.6-10.4,107.3-24.7,133.8-94.4c2.4-6.4,4.6-13,6.6-19.6c12-39.4,19.2-80.1,53.7-96.2l0,0l0,0
			l0,0l0,0l0,0c0.1,0,0.2-0.1,0.3-0.1c0.2-0.1,0.4-0.2,0.7-0.3C854.6,221.2,857.9,219.7,859.4,219.1z"/>
		<path class="st11" d="M584.9,680.5l7.8,0.2l0.6,12.2l49.8,2.9l0.4-13.9l34.1,0.3l0.3,12.8l43.9-0.8l-0.2-9.5l36.9-0.9l1.7,9.8
			l14.8-0.2l17.7-0.2l0.4-9l37.5,0.7l10.3,0.2l0.3,47.4v1l-17.8,0.3l-1.7-12.6l-36.9,1.2l0.3,12.3l-32.8,1v-12.4l-45.9-1.2v14.7
			l-28.7-0.8l-1.2-15.8L638,719l-0.3,15.6h-33.6l-0.3-15.6l-32.4-0.4V731l-41-3l-0.2-14.1l-33.9-0.8l-2,15.9l-35.7-0.3l-0.7-17.9
			l-41.4,0.2l-1.3,14.4l-36.4-1.1l0.3-16.1l-30.9-0.6l-0.8,15l-36.4-0.4l-0.3-16l-43.5-2.2l-1.8,15.3c0,0-11.7-1.1-21.6-3.2
			c-9.8-2.2-17.8-4.6-17.8-4.6l0.1-14.2c0,0-11.4-1.1-22-2.7c-10.6-1.7-20.5-3.9-20.5-3.9l-1.8,12.3c0,0-11-0.8-19.8-2.6
			c-8.7-1.7-15.2-4.4-15.2-4.4l2.3-14.6l-33-5.6l-3.4,10.4l-32-7.8l4.3-11.8l-33-11.4l-3.8,12.4c0,0-10-2.2-18.2-6.2
			c-8.3-4-19.8-11.3-19.8-11.3l2.3-14.9L-1.2,633v-36.9l17.4,5.5l-1.8,11.7l33.3,13.4l3-11.9l21.4,7l17.1,5.5l-1.6,12.1
			c0,0,5.5,2.3,14.3,3.7c8.7,1.3,11.3,1.8,11.3,1.8l3.4-8.9c0,0,4.9,0.4,15.5,1.7s14.9,3.6,14.9,3.6l-1.6,14.8c0,0,4.9,1.8,14.8,3.5
			c9.8,1.7,13,4.5,13,4.5l1.7-11.4l37.8,7.4l0.3,13.3l39.3,9.5l0.6-12.2L282,673l0.3,10.5l39.4,2.8l0.2-11.2l41.5-0.1l0.5,13.3h25.5
			l-0.6-11.4l40.7,0.9l1.3,11.4l34.9,0.3l1.4-10.4h9.3l24.1,0.1l0.5,12.9l45.6,1.6l0.3-14L584.9,680.5z"/>
		<path class="st5" d="M703.7,920.2c0.1-2.8-0.4-5.7,0.7-8.3c0.8-1.8,8.3-11.4,9.9-12c2.7-1.1,6.3-1.1,8.9-2.5c2-1.2,4.2-4.3,6-5.8
			c5-4.2,12.2-8.8,18.3-11.3c4.2-1.7,9.3-0.2,13.4-1.8c4.4-1.8,8.1-4.5,11.8-7.2c2.9-2.1,5.8-4.2,9-5.9c6.2-3.2,13.7-4.1,19.8-6.5
			c4.9-2,10.5-4,15.8-3.2c1.7,0.3,8.1,2.9,12.9,4.4c2.2,0.7,4.1,1.2,5.1,1.1c-8.3,6.5-14.7,16.4-20.6,24.7c-1,1.4-3,2.4-4,3.9
			c-3.3,4.6-7.2,10.8-8.8,16.2c-1,3.2-1.1,6.7-2.1,9.9c-1,2.9-3.6,5-4.7,7.8c-0.4,1.1-0.6,2-0.7,2.9h-92.3c0.3-1,0.6-1.9,1-2.9
			C703.5,922.5,703.7,921.4,703.7,920.2z"/>
		<path class="st10" d="M834.4,837.7c0.4,5.8-3.2,17.9-3.8,21.4l-0.3,0.9c-4.9-1.5-11.2-4.1-12.9-4.4c-5.4-0.8-11,1.2-15.8,3.2
			c-6,2.4-13.6,3.3-19.8,6.5c-3.2,1.7-6.1,3.8-9,5.9l-0.3-0.4c3.7-8.3-2.4-11.5-3.2-19.2c-0.5-4.4-1-6.1-3-10.3
			c-2.5-5.3-4.2-12.5-6.7-19c1.1-2.5,2.9-3.4,4.9-5.1c7.6-6.3,15.5-10.8,25.7-8.6c5,1.1,12,4.4,17.1,8c1.4,1,2.7,2,3.8,3
			c1.7,1.6,3.1,3.8,5.6,4.5c3.9,1.2,6.1,1.3,9.6,3.9C828.9,829.8,834.1,834.1,834.4,837.7z"/>
		<path class="st8" d="M729.5,520.6c0,0,0-0.1,0.1-0.2c1.8,0.6,3.4,1.4,4.8,2.6c1.9,1.6,3.1,3.3,5.6,3.8c5.7,0.9,11.5-3.9,17-2.5
			c3.4,0.9,7.1,10.5,11.3,12.6c2.7,1.3,6.9,1,9.4,2.5c1.5,0.9,3.2,2.1,5,2.5c2.3,0.5,7.1-0.5,8.8,1.3c2,2,12.4,9.3,10.4,10.3l0,0
			c-6.8-2.5-10.1-8.5-18.5-6.8c-3.7,0.7-6.5,5.2-9,7.7c-1.8,1.8-5.2,2.7-7.3,4.3c-1.9,1.4-3.9,3.5-6,4.7c-6.5,3.7-14.7,4.5-21.8,6
			c-4.9,1-9.4,3.3-14.1,5.1c-3.9,1.5-8.1,2.6-11.9,4.3c-2.8,1.2-5.9,2.7-8.5,4.3c-3.6,2.2-8.3,6.8-12.8,7.3
			c-8.2,0.9-18.8-5.7-27.3-6.4c-7.8-0.6-11.9,3.2-11.9,11.1c0,3.6-0.1,9.3,0.4,12.7c-0.1,0-0.3,0.1-0.4,0.1c-2.4,0.7-5,2.5-7.7,1.7
			c-2.8-0.8-1.5-2.4-1.7-4.7c-0.4-3.1-3.6-8.4-6.4-9.8c-4.6-2.3-7.9,3.4-11.9,3.4c-2.2,0-3.1-2.3-5.1-2.6c-6.2-0.9-12.7-1.1-18.8-3
			c-7.3-2.2-13.7-6.6-21.3-8.1c-5.8-1.2-13-1.7-18.8-0.4c-3,0.7-5.5,3.5-8.5,3.8c-0.4,0-0.7,0.1-1.1,0.1c-0.1-1.7-3-4-3.4-5.5
			c-0.3-1.2-4.9-2.2-5.2-3.4c-0.9-3.6-4.6-2.5-6.7-5.3c-0.8-1-1-2.8-1.9-3.8c-2.8-2.9-6.9-4.5-10-6.9c-0.4-0.3-0.7-0.7-1-1
			c-2.1-6.8,10.1-10.9,15.5-12.8c16.5-5.9,32.3,0.7,49-3.1c10-2.3,19.9-6.5,28.9-11.3c6.1-3.3,11.7-7.7,18.2-10
			c3.3-1.2,10.4-2.4,13.8-1.3c3.7,1.2,4.8,5.2,9.4,4.4c2.8-0.5,4.7-2.9,6.9-4.4c4.4-2.9,9.3-5.1,14.5-6.3c10-2.3,20.2,0.5,30.2,1.3
			c4.4,0.3,8.8,0.3,13.2,0.6C725,519.7,727.3,520,729.5,520.6C729.6,520.5,729.5,520.6,729.5,520.6z M729.5,520.7
			c0,0.1-0.1,0.1-0.1,0.2C729.4,520.8,729.4,520.8,729.5,520.7z M729.2,521.2L729.2,521.2L729.2,521.2z"/>
		<path class="st10" d="M759.5,822.3c2.5,6.5,4.2,13.7,6.7,19c2,4.1,2.6,5.9,3,10.3c0.8,7.7,6.8,10.9,3.2,19.2l0.3,0.4
			c-3.7,2.7-7.4,5.4-11.8,7.2c-4.1,1.6-9.1,0.1-13.4,1.8c-6.1,2.5-13.3,7-18.3,11.3c-1.8,1.6-4,4.7-6,5.8c-2.6,1.5-6.2,1.5-8.9,2.5
			c-1.5,0.6-9.1,10.2-9.9,12c-1.1,2.6-0.6,5.5-0.7,8.3c-3.1,1.7-9.9-13-13-17c-8.6-11-17.7-19.7-32.3-20.7c-5.4-0.4-9.1,2.1-14,3.7
			c-5.6,1.9-13,2.2-17.6,6.2c-4.1,3.6-6.1,8.9-8.9,13.5l-0.5-0.3c-2.7-9.1-12.5-15-19.9-20c-4.9-3.3-8.9-7.9-14.7-9.7
			c-10.4-3.2-22.5-3.8-33-3.6c-6.6,0.1-13.6,3.7-20.2,3.4c-3.3-0.1-5.1-2-8.1-3c-3.1-1-8.3-1.8-13.1-1.8V869
			c-2.6-3.2-3.4-6.3-6.1-9.5c-2.1-2.5-5.4-3.2-7.5-5.7c-1.8-2.2-1.1-5.9-2.2-8.2c-0.2-0.4-0.6-0.9-1.1-1.4l0.8-0.3
			c5.1-0.9,12.8-3.6,17.9-4.7c20.3-4.2,41.5,0.5,61.4-6.2c13.7-4.6,26.4-11,39.5-17.3c3-1.5,8.1-5.1,11.5-5.9c1.9-0.5,4,0.6,5.9,0.5
			c5.4-0.3,3-1.5,9-0.2c3.3,0.7,2.8,1.8,5.6,3.5c4.1,2.6,9,3.3,13.6,4.3c3.3,0.7,4.3,2.3,7.8,1.7c7.9-1.2,15.1-4.8,23.4-4.8
			c7.5,0,14.5,1.1,22-0.9c6.7-1.8,12.5-3.7,19.3-4.2c7.6-0.6,15.8-6.3,22.9,0.1C755.5,813.1,757.7,817.5,759.5,822.3z"/>
		<path class="st9" d="M455.7,653.7c1.7-2,4.4-7.2,5-8.1c4.7-7.7,13.3-18,23-18.8c6.3-0.5,15.3,5,20.5,2.1c4.6-2.6,6.2-8,8.5-12.4
			c6.2-11.7,14.5-25.8,28.6-29c3.4-0.8,7.1,0.6,10.4,0.5c0.4,0,0.7,0,1.1-0.1c3-0.4,5.5-3.2,8.5-3.8c5.8-1.3,13-0.7,18.8,0.4
			c7.6,1.5,14,5.9,21.3,8.1c6.1,1.8,12.6,2.1,18.8,3c2,0.3,2.9,2.6,5.1,2.6c4,0,7.3-5.7,11.9-3.4c2.8,1.4,6,6.7,6.4,9.8
			c0.3,2.3-1.1,3.9,1.7,4.7c2.7,0.8,5.3-1,7.7-1.7c0.1,0,0.3-0.1,0.4-0.1v0.1c0,0.2,0.2,0,0.4-0.3c4.9-1.6,9.7-4.3,14.9-4.8
			c3.7-0.4,6.3,1.4,9.4,3c5.5,2.8,11.5,5.9,17.9,5.1c3.5-0.4,7-2.1,10.2-3.4c7.5-3.1,15.1-5.7,23-6.8c5.1-0.7,13.2,1.8,17.1,5.1
			c1.3,1.1,2.3,3.4,3.8,4.3c2.5,1.4,5.6-0.2,8.1,1.7c3.5,2.6,3.3,5.4,6,8.1c1.5,1.5,5.8,4.9,7.3,6.4v0.2c-2.5,0.2-5,1.5-7.5,1.9
			c-3,0.5-6.3-0.3-9.4,0c-8,0.9-17.3,0.9-24.8,3.6c-5,1.8-9.8,5.5-15.1,6.1c-6.3,0.8-12.6,2.2-19.1,2.2c-4.3,0-8.6-1.9-12.9-0.7
			c-7.4,2-12.4,8.3-18.7,12.2c-3.5,2.2-7.5,0.6-11.2,1.8c-3.9,1.3-7.7,2.7-11.5,4.3c-2.8,1.2-5.6,3.5-8.6,4
			c-4.1,0.7-8.5-0.7-12.6-1.1c-4.1-0.3-8.2,0.7-12.2,1.4c-6.3,1.2-14.6,3-18.4,8.6c-1.4,2.1-3.8,7.5-4.8,10l-38-0.8l-0.3,14
			l-45.6-1.6l-0.5-12.9l-24.1-0.1V679c0-5.8-4.3-9.7-7.8-13.1c-5.6-5.6-10.6-8.4-16.1-9.8l2.3-1.6c0,0,0,0,0.1,0
			C455,654.5,455.3,654.2,455.7,653.7z"/>
		<path class="st10" d="M690.7,903.2c3.1,4,9.9,18.6,13,17c0,1.2-0.2,2.3-0.6,3.4c-0.4,1-0.7,1.9-1,2.9H599.5
			c3.8-4.3,8.4-8.5,10.6-11.1c2.3-2.7,4.9-5.2,7-8.1c0.3-0.4,0.5-0.8,0.8-1.2c2.8-4.5,4.8-9.9,8.9-13.5c4.6-4,12-4.4,17.6-6.2
			c4.9-1.7,8.6-4.1,14-3.7C673.1,883.5,682.1,892.2,690.7,903.2z"/>
		<path class="st5" d="M617.4,905.7l0.5,0.3c-0.2,0.4-0.5,0.8-0.8,1.2c-2,3-4.7,5.4-7,8.1c-2.2,2.7-6.9,6.8-10.6,11.1H433.7
			c1.2-1.8,2.1-3.9,3.2-5.6c1.2-2,2-2.1,3.7-3.2c1.4-1,2.2-3.5,3.2-4.9c0.5-0.7,1.1-1.4,1.7-2.1c2.4-2.7,5.7-5.6,8.6-7
			c9.4-4.7,16.8-13,25.3-18.9c3.3-2.3,6.7-4.7,9.9-6.8c1.2-0.9,3-0.7,4.2-1.6c1.9-1.3,4-3.5,6.3-4.3c2.1-0.8,5.3-1.1,8.7-1.1
			c4.8,0.1,10,0.8,13.1,1.8c3,1,4.8,2.9,8.1,3c6.6,0.2,13.6-3.3,20.2-3.4c10.5-0.2,22.7,0.4,33,3.6c5.8,1.8,9.8,6.4,14.7,9.7
			C605,890.7,614.8,896.6,617.4,905.7z"/>
		<path class="st5" d="M392.9,557c2.1,0.2,4,0.1,5.5-0.1c3.3-0.5,4.9-2.7,7.5-4.4c3.9-2.4,8.7-4.4,13.2-5c4.3-0.6,9.6,2.4,13.8,3.2
			c3.2,0.5,6.8-0.7,10,0c8.7,1.7,17.7,2.3,26.4,3.8c3.8,0.6,8.2-0.9,11.9,0c2.1,0.5,4.1,2.5,6.3,2.5c1.9,0,4.2-2.9,5.6-3.8
			c3.9-2.3,11.1-4.3,15.7-3.1c1.9,0.5,2.8,3.2,4.4,4.4c2.1,1.6,5.7,1.9,7.5,3.8c1.2,1.2,1.7,2.7,2.7,4c0.3,0.4,0.6,0.7,1,1
			c3.2,2.4,7.2,4.1,10,6.9c0.9,0.9,1.1,2.7,1.9,3.8c2.1,2.8,5.8,1.6,6.7,5.3c0.3,1.2,4.9,2.2,5.2,3.4c0.4,1.5,3.3,3.8,3.4,5.5
			c-3.4,0.1-7-1.3-10.4-0.5c-14,3.2-22.4,17.3-28.6,29c-2.3,4.3-3.9,9.8-8.5,12.4c-5.2,2.9-14.2-2.6-20.5-2.1
			c-9.7,0.8-18.3,11.1-23,18.8c-0.6,0.9-3.3,6.1-5,8.1h-0.1c-0.4,0-1.1,0.7-0.9,0.8l-2.3,1.6c-6-1.6-12.5-1.5-20.7-1.5
			c-6.4,0-11.5,0.5-17.7-0.7c-1.9-0.4-3.3,0.6-5-0.7c-2.1-1.5-3.3-4-4.9-5.7c-5.4-5.4-12.3-8.6-17-14.9c-2.7-3.6-3.9-7.4-7.1-10.6
			c-2-2-0.2-7.3-0.7-9.9c-0.6-3-4.6-3.9-6.4-5.7c-1.9-1.9-2.4-5.2-4.3-7.1c-1.8-1.8-4.4-2.1-6.4-3.5c-12.4-9.3-27.5-13.2-42.4-17.6
			l2.3-1.8c5.7-11.4,24.5-29,38.3-30.8c8.7-1.1,12.6,4.2,19.5,8.2C383,555.5,388.3,556.7,392.9,557z"/>
		<path class="st10" d="M508.5,869.1v1.8c-3.4,0-6.6,0.3-8.7,1.1c-2.3,0.9-4.4,3.1-6.3,4.3c-1.2,0.9-3,0.7-4.2,1.6
			c-3.1,2.2-6.5,4.5-9.9,6.8c-8.6,5.9-15.9,14.2-25.3,18.9c-2.8,1.4-6.1,4.3-8.6,7l0,0c-3.2,0.9-9.4-11.6-11.3-13.7
			c-1.1-1.3-3-1.8-4.1-3.1c-4.6-5.5-17-16.1-24.1-18.4c-6.3-2.1-13-3.2-19.5-5.1c-6.9-2-13.8-4.7-21-5.3c-7-0.6-13.8,2.8-20.8,2.5
			c-4.6-0.2-8.5-2.9-12.8-3.1c-4.8-0.2-9.7,2.2-14.5,2.1c-10.4-0.1-20.7-4.9-31.1-5v-0.4c-2.7-1-10.6-9.6-14.9-16.1
			c-1.5-2.3-5.3-5-6.3-7.6c-1-2.5-0.6-5.4-1.2-8.1c-0.8-3.2-2.5-5.7-4.2-8.4c-3-5-3.6-10.9-7.5-15.7c-1.7-2-4.5-3.2-6.9-4.8
			c1.8-1.5,7.1-1.6,9.6-3c15.1-8.2,39.9-14.2,56.5-7.7c12.8,5,22,14.1,36.6,13.4c21.5-1,41.6-10.9,63.5-7c5.1,0.9,12.8,4.4,16.2,8.5
			c2.2,2.6,4.4,6.6,8.3,7.8c6.2,1.8,13.8,0.9,19.6,3.8c12.2,6.3,24,14.7,32.6,25c0.7,0.9,2.3,2,3.4,3c0.5,0.5,0.9,1,1.1,1.4
			c1.1,2.3,0.4,6,2.2,8.2c2.1,2.5,5.4,3.2,7.5,5.7C505,862.8,505.8,865.9,508.5,869.1z"/>
		<path class="st8" d="M476.4,679.1L476.4,679.1h-9.3l-1.4,10.4l-34.9-0.3l-1.3-11.4l-40.7-0.9l0.6,11.4h-25.5l-0.5-13.3l-41.5,0.1
			l-0.2,11.2l-39.4-2.8L282,673l-29.4-2.4l-0.6,12.2l-39.3-9.5l-0.3-13.3l-37.8-7.4l-1.7,11.4c0,0-3.1-2.8-13-4.5
			s-14.8-3.5-14.8-3.5l1.6-14.8c0,0-4.2-2.3-14.9-3.6c-10.6-1.3-15.5-1.7-15.5-1.7l-3.4,8.9c0,0-2.5-0.5-11.3-1.8
			c-8.7-1.4-14.3-3.7-14.3-3.7l1.6-12.1l-17.1-5.5l0.1-0.4c0-8.1,3.7-11.1,7.8-17.7c4.8-7.7,12.1-17,21.9-18.4
			c3.8-0.5,5.8,2.2,8.5,4.2c2.6,2,6.9,1.7,9.9,1.4c7.2-0.7,13.6-5.2,20.5-7.1c6.3-1.7,12.9-2.2,19.1-3.5
			c19.9-4.4,31.4-27.6,52.4-29.7c5.2-0.5,9.5,0.4,13.7,1.8c6.4,2.2,12.2,5.6,19.6,6.7c10.3,1.5,18.8-7.4,29-5.7
			c2.9,0.5,4.3,2.5,6.4,4.2c2.8,2.3,7.6,3.3,9.9,5.7c3.5,3.5,7.1,7.2,12,9.2c5.5,2.2,11.3,4,17.1,5.7c14.8,4.4,30,8.4,42.4,17.6
			c2,1.5,4.6,1.8,6.4,3.5c1.9,1.9,2.4,5.2,4.3,7.1c1.8,1.8,5.8,2.7,6.4,5.7c0.5,2.6-1.3,7.9,0.7,9.9c3.2,3.2,4.4,7,7.1,10.6
			c4.7,6.3,11.6,9.5,17,14.9c1.7,1.7,2.9,4.1,4.9,5.7c1.7,1.3,3.1,0.3,5,0.7c6.2,1.2,11.3,0.7,17.7,0.7c8.2,0,14.7-0.1,20.7,1.5
			c5.5,1.4,10.6,4.3,16.1,9.8C472,669.4,476.4,673.3,476.4,679.1z"/>
		<polygon class="st6" points="462.4,443.2 462.4,444.1 431,472.9 430.7,472.9 430.7,429.2 441.4,421.5 460.2,407.9 460.8,416.5 
			461.7,431.8 		"/>
		<path class="st10" d="M445.5,910.7L445.5,910.7c-0.6,0.8-1.2,1.5-1.7,2.1c-1,1.4-1.8,3.9-3.2,4.9c-1.7,1.2-2.5,1.3-3.7,3.2
			c-1.1,1.7-2,3.7-3.2,5.6H224c0.8-3.2,1.7-5.7,2.4-6.7c2.1-2.8,4.2-5.6,6.2-8.4c1.9-2.5,3.9-5,6-7.4c4.2-4.8,5.4-12.6,10.1-17
			c3.9-3.6,8.2-6.8,12.1-10.4c6.9-6.4,14.3-14.9,24.7-15.1c0.3,0,0.6,0,0.9,0c10.4,0.1,20.7,4.8,31.1,5c4.8,0.1,9.7-2.3,14.5-2.1
			c4.3,0.2,8.2,2.9,12.8,3.1c7,0.3,13.9-3.1,20.8-2.5c7.2,0.6,14.1,3.4,21,5.3c6.4,1.8,13.1,3,19.5,5.1c7.1,2.4,19.5,12.9,24.1,18.4
			c1.1,1.3,3,1.8,4.1,3.1C436,899.1,442.3,911.6,445.5,910.7z"/>
		<polygon class="st6" points="440.3,419.9 441.4,421.5 430.7,429.2 430.7,429.1 418.7,429.1 418.6,415.1 418.5,415 418.7,414.8 
			439.6,400.9 439.7,401.1 439.9,408.4 		"/>
		<polygon class="st6" points="439.7,400.8 439.6,400.9 418.7,414.8 418.5,415 407.7,403.8 408.3,403.2 429,393.4 		"/>
		<path class="st6" d="M418.7,429.1h12v0.1v43.7v0.4h-28.6c0.2-9.5,2.9-16.6,3.1-17l-0.4-0.1l-21.1-2.5v0.2c0,0-1.8,8.6-2.1,19.5
			h-12.2v-44.2h0.5h24.7h24.1V429.1z"/>
		<polygon class="st6" points="418.6,415.1 418.7,429.1 394.5,429.1 394.5,427.9 394.7,416.8 394.7,414.9 407.4,403.5 407.7,403.8 
			418.5,415 		"/>
		<path class="st11" d="M404.8,456.1l0.4,0.1c-0.2,0.5-2.9,7.5-3.1,17h-20.5c0.3-10.9,2.1-19.5,2.1-19.5v-0.2L404.8,456.1z"/>
		<path class="st5" d="M387.9,547.8c2.4,2.9,3.5,5.5,5,9.2c-4.6-0.4-9.8-1.6-12.7-3.2c-6.9-3.9-10.8-9.3-19.5-8.2
			c-13.9,1.7-32.6,19.4-38.3,30.8l-2.3,1.8c-5.8-1.7-11.6-3.5-17.1-5.7c-4.9-2-8.6-5.8-12-9.2c-2.3-2.3-7.1-3.4-9.9-5.7
			c-2.1-1.7-3.5-3.8-6.4-4.2c-10.2-1.7-18.7,7.1-29,5.7c-7.4-1.1-13.2-4.5-19.6-6.7l2.9-0.2c0.8-8.6,1.6-13.9-3-21.4
			c-0.7-1.2-1.3-5.5-2.4-6.2c-0.1-0.1-0.3-0.2-0.4-0.2c-0.1-2.1,3.6-9.1,4.4-10.4c1.6-2.6,10-5.5,12.6-6.8
			c14.7-7.4,24.8-12.8,40.2-3.2c1.6,1,3.4,6,4.4,6.4c2.1,0.9,4.5-3.5,5.4-4.5c3.7-3.8,9.4-10.2,14.9-10.6c9.9-0.7,15.9,7.3,25,9.3
			c9,2,16.6-4.7,24.2-2.7c5.7,1.5,1.2,11.3,4.6,14.4c4,3.6,13.1-2.8,16.8,1.6c2.6,3.2,2.6,8.9,4.8,12.4c0.7,1.1,1.5,2.2,2.3,3.2
			c1.7,2.2,3.4,4.4,3.7,7.3C386.8,543.2,386.1,545.7,387.9,547.8z"/>
		<path class="st10" d="M245.3,800.6c2.4,1.6,5.3,2.8,6.9,4.8c4,4.8,4.5,10.7,7.5,15.7c1.7,2.7,3.4,5.1,4.2,8.4
			c0.6,2.7,0.3,5.5,1.2,8.1c1,2.6,4.8,5.3,6.3,7.6c4.2,6.4,12.1,15.1,14.9,16.1v0.4c-0.3,0-0.6,0-0.9,0
			c-10.4,0.2-17.8,8.8-24.7,15.1c-3.9,3.6-8.2,6.8-12.1,10.4c-4.7,4.4-5.9,12.2-10.1,17c-2.1,2.4-4.1,4.9-6,7.4l-0.5-0.4
			c-1.9-7.8-4.7-9.5-8.7-15.8c-1.8-2.8-6.5-3.9-8.9-6.2c-4.5-4.4-8.3-9.5-12.3-14.2c-5.1-6-9.9-14.5-17.8-17.5
			c-16.9-6.5-36.8-4.4-54.3-3.1c-18.5,1.4-30.9,5.5-47.6,12.9c-7.2,3.2-12.9,6.5-17.6,13.6c-0.9,1.4-3.8,5.1-3.4,6.7l-2.8,0.8
			c-3.1-0.8-6-2.1-8-4.5c-3.5-4.2-3-9.9-4.9-14.6c-1.6-3.8-4.8-5.9-7.3-8.9c-2.8-3.6-4.7-7.6-7.8-11.1c-2.1-2.4-5.1-8-8.3-9.1
			c-7.7-2.8-15.7-3-23.7-2.5V802c7.5-6.3,15.6-11.9,23.2-18.1c4-3.2,8-3.8,12.5-5.8c5.1-2.2,9-5.3,14.6-6.6
			c10.9-2.5,19.3,2.3,29.7,1.8c6.7-0.3,13.4-0.8,20-1.1c11.4-0.6,20-8.9,30.9-11.1c5.6-1.1,12.3-1.6,18-0.3c4.6,1,5.9,3.5,10.6,4
			c19.9,1.8,39.7,5.7,57.4,15.3c6,3.3,12.7,3.7,18.2,7.7c3.6,2.6,6.2,7.5,9,10.8C243.6,799.3,244.4,800,245.3,800.6z"/>
		<path class="st5" d="M232.1,911.1l0.5,0.4c-2.1,2.7-4.1,5.5-6.2,8.4c-0.7,1-1.6,3.5-2.4,6.7H86.6c-0.4-1.6-0.8-3.2-1-4.8
			c-0.7-4.4,0.3-7,0.5-11.3c0.4-6.8-4.7-12.7-9.6-16.7c-4.7-3.9-11.7-4-17.7-5.5l2.8-0.8c-0.4-1.6,2.4-5.3,3.4-6.7
			c4.8-7,10.5-10.4,17.6-13.6c16.7-7.4,29.1-11.6,47.6-12.9c17.5-1.3,37.3-3.4,54.3,3.1c7.9,3,12.7,11.5,17.8,17.5
			c4,4.8,7.8,9.9,12.3,14.2c2.4,2.3,7.2,3.4,8.9,6.2C227.4,901.6,230.2,903.3,232.1,911.1z"/>
		<path class="st5" d="M223.2,524.3c0.1,0.1,0.3,0.1,0.4,0.2c1.2,0.7,1.7,5,2.4,6.2c4.6,7.5,3.8,12.8,3,21.4l-2.9,0.2
			c-4.1-1.4-8.5-2.4-13.7-1.8c-21,2.1-32.5,25.3-52.4,29.7c-6.3,1.4-12.8,1.9-19.1,3.5c-7,1.9-13.3,6.4-20.5,7.1
			c-3,0.3-7.3,0.5-9.9-1.4c-2.7-2-4.7-4.8-8.5-4.2c-9.9,1.4-17.1,10.7-21.9,18.4c-4.1,6.6-7.8,9.6-7.8,17.7l-0.1,0.4l-21.4-7
			l-3,11.9l-33.3-13.4l1.8-11.7L-1.1,596v-71c6.4-2,12.9-3.4,18.9-4.8c7.8-1.8,18.3-4.7,24.7,2.3c8.9,9.6,7.8,23.3,11.7,35
			c1.5,4.5,3.8,11.8,9.9,10.9c8-1.2,14.3-14.1,17.8-20.3c6-10.5,14-17.4,24.1-23.7c10-6.1,24-9.5,35.8-9.6c4.6,0,11.5,1.5,15.9,0.5
			c10.5-2.4,20.4-27.6,32-21.9c8.5,4.1,11.6,20.6,17.4,27.5c2,2.5,5.4,6.9,6.2,7C213.4,528,218.4,521.9,223.2,524.3z"/>
		<path class="st5" d="M86.6,926.5H-1.2v-89.2c8-0.5,16-0.3,23.7,2.5c3.2,1.2,6.1,6.8,8.3,9.1c3.1,3.5,5,7.5,7.8,11.1
			c2.4,3.1,5.7,5.2,7.3,8.9c2,4.8,1.4,10.5,4.9,14.6c2,2.4,4.9,3.7,8,4.5c6,1.6,13,1.7,17.7,5.5c4.9,4.1,10,9.9,9.6,16.7
			c-0.3,4.3-1.2,6.8-0.5,11.3C85.9,923.3,86.2,924.9,86.6,926.5z"/>
	</g>
</g>
<g id="Layer_7">
</g>
</svg>
